<svg id="Layer_1" data-name="Layer 1" xmlns="http://www.w3.org/2000/svg" viewBox="0 0 800 281.49"><defs><style>.cls-1{font-size:14px;font-family:OpenSans-Regular, Open Sans;}.cls-1,.cls-14,.cls-3,.cls-7,.cls-8{fill:#231f20;}.cls-2{fill:none;stroke:#231f20;}.cls-10,.cls-2{stroke-miterlimit:10;}.cls-3{font-size:12px;}.cls-3,.cls-8{font-family:Roboto-Regular, Roboto;}.cls-4{letter-spacing:-0.01em;}.cls-5{letter-spacing:-0.05em;}.cls-12,.cls-6{fill:#495057;}.cls-12,.cls-8{font-size:11px;}.cls-9{fill:#b33b49;}.cls-10{fill:#fff;stroke:#b33b49;}.cls-11{letter-spacing:-0.01em;}.cls-12{font-family:Arial-ItalicMT, Arial;font-style:italic;}.cls-13{letter-spacing:-0.09em;}.cls-14{font-size:15px;font-family:OpenSans-SemiBold, Open Sans;font-weight:600;}</style></defs><title>knot_mockup</title><text class="cls-1" transform="translate(33.99 54.59)">Knot Placement</text><line class="cls-2" x1="118" y1="83.11" x2="118" y2="228.03"/><text class="cls-3" transform="translate(35.04 104.45)">Hund<tspan class="cls-4" x="28.56" y="0">r</tspan><tspan x="32.51" y="0">eds </tspan><tspan x="11.5" y="14.4">place</tspan></text><text class="cls-3" transform="translate(32.18 157.71)"><tspan class="cls-5">T</tspan><tspan x="6.58" y="0">ens place</tspan></text><text class="cls-3" transform="translate(31.35 210.46)">Ones place</text><path class="cls-6" d="M229.2,77.23v25.55c0,3.21,5,3.22,5,0V77.23c0-3.22-5-3.23-5,0Z"/><path class="cls-6" d="M229.2,116.87l0,9.57c0,2.95.69,6.8-1.33,9.25-1.71,2.07-4.64,3.06-7.23,3.35a18.91,18.91,0,0,1-9.14-1.28,13.88,13.88,0,0,1-6.79-5.65,26.13,26.13,0,0,1-3.14-9.93c-.84-6.63.51-13.91,4.84-19.17a22.41,22.41,0,0,1,18.62-8.35,2.5,2.5,0,0,0,0-5A27,27,0,0,0,204.27,98a29.49,29.49,0,0,0-7.84,22.37c.5,8.09,3.37,16.72,10.81,20.89,6.38,3.57,15.55,4.33,21.81,0a11.56,11.56,0,0,0,4-4.45,16.14,16.14,0,0,0,1.17-7.22q0-6.36,0-12.72c0-3.22-5-3.22-5,0Z"/><path class="cls-6" d="M236.23,94.22a5.2,5.2,0,0,1,2.16,3.37,12.72,12.72,0,0,1,.54,5.51,4.22,4.22,0,0,1-2.17,3.16,9.07,9.07,0,0,1-2.59.49,15,15,0,0,0-3,.68c-7.27,2.59-12.65,9.67-15.42,16.61a30.22,30.22,0,0,0-2.11,12.44c.13,3.21,5.13,3.22,5,0a26.91,26.91,0,0,1,8-20.14,19.93,19.93,0,0,1,4.6-3.52c1.84-1,3.7-1.06,5.7-1.43,4.43-.82,7-4.92,7.11-9.21s-1.24-9.91-5.26-12.28c-2.78-1.64-5.3,2.68-2.52,4.32Z"/><path class="cls-6" d="M212.76,146.84,214,169.2a2.55,2.55,0,0,0,2.5,2.5,2.53,2.53,0,0,0,2.5-2.5l-1.2-22.36a2.55,2.55,0,0,0-2.5-2.5,2.52,2.52,0,0,0-2.5,2.5Z"/><path class="cls-7" d="M179.25,197.2a5.39,5.39,0,0,1-2.1-1,2,2,0,0,1-.66-1.5,2.09,2.09,0,0,1,.8-1.67,3.22,3.22,0,0,1,2.1-.66,3.62,3.62,0,0,1,1.57.34,2.56,2.56,0,0,1,1.06.94,2.41,2.41,0,0,1,.38,1.31h-1.13a1.54,1.54,0,0,0-.49-1.22,2,2,0,0,0-1.39-.45,2,2,0,0,0-1.3.37,1.22,1.22,0,0,0-.47,1,1.09,1.09,0,0,0,.45.88,4.27,4.27,0,0,0,1.5.66,7,7,0,0,1,1.67.66,2.58,2.58,0,0,1,.89.84,2.18,2.18,0,0,1,.29,1.13,2,2,0,0,1-.81,1.66,3.42,3.42,0,0,1-2.16.63,3.88,3.88,0,0,1-1.64-.34,2.76,2.76,0,0,1-1.18-.92,2.3,2.3,0,0,1-.41-1.33h1.13a1.48,1.48,0,0,0,.57,1.22,2.4,2.4,0,0,0,1.53.45,2.2,2.2,0,0,0,1.36-.36,1.2,1.2,0,0,0,.48-1,1.15,1.15,0,0,0-.44-1A5.08,5.08,0,0,0,179.25,197.2Z"/><path class="cls-7" d="M183.7,193a.65.65,0,0,1,.16-.45.58.58,0,0,1,.47-.18.6.6,0,0,1,.48.18.66.66,0,0,1,.17.45.62.62,0,0,1-.17.44.6.6,0,0,1-.48.17.58.58,0,0,1-.47-.17A.61.61,0,0,1,183.7,193Zm1.17,8h-1.09v-6.34h1.09Z"/><path class="cls-7" d="M187.63,194.66l0,.8a2.33,2.33,0,0,1,1.9-.92c1.34,0,2,.76,2,2.27V201H190.5v-4.19a1.43,1.43,0,0,0-.31-1,1.24,1.24,0,0,0-1-.33,1.53,1.53,0,0,0-.92.29,1.76,1.76,0,0,0-.62.73V201H186.6v-6.34Z"/><path class="cls-7" d="M193,197.78a3.7,3.7,0,0,1,.69-2.36,2.36,2.36,0,0,1,3.63-.06l.05-.7h1v6.19a2.56,2.56,0,0,1-.73,1.94,2.71,2.71,0,0,1-2,.71,3.19,3.19,0,0,1-1.34-.3,2.24,2.24,0,0,1-1-.8l.56-.65a2.09,2.09,0,0,0,1.7.86,1.71,1.71,0,0,0,1.24-.44,1.74,1.74,0,0,0,.44-1.26v-.54a2.21,2.21,0,0,1-1.77.75,2.17,2.17,0,0,1-1.81-.9A3.91,3.91,0,0,1,193,197.78Zm1.09.12a2.88,2.88,0,0,0,.44,1.69,1.46,1.46,0,0,0,1.23.61,1.59,1.59,0,0,0,1.51-.93v-2.9a1.61,1.61,0,0,0-1.49-.91,1.45,1.45,0,0,0-1.24.62A3.07,3.07,0,0,0,194.05,197.9Z"/><path class="cls-7" d="M201.13,201h-1.08v-9h1.08Z"/><path class="cls-7" d="M205.5,201.12a2.76,2.76,0,0,1-2.1-.85,3.13,3.13,0,0,1-.81-2.26v-.2a3.85,3.85,0,0,1,.36-1.69,2.86,2.86,0,0,1,1-1.16,2.52,2.52,0,0,1,1.4-.42,2.4,2.4,0,0,1,1.93.82,3.56,3.56,0,0,1,.68,2.33v.45h-4.29a2.23,2.23,0,0,0,.54,1.52,1.75,1.75,0,0,0,1.34.57,1.86,1.86,0,0,0,1-.23,2.56,2.56,0,0,0,.7-.62l.66.51A2.66,2.66,0,0,1,205.5,201.12Zm-.14-5.69a1.46,1.46,0,0,0-1.1.48,2.32,2.32,0,0,0-.55,1.34h3.18v-.08a2,2,0,0,0-.45-1.28A1.36,1.36,0,0,0,205.36,195.43Z"/><path class="cls-7" d="M214.53,197l-1,1.09V201h-1.12v-8.53h1.12v4.22l3.79-4.22h1.36l-3.36,3.77L218.9,201h-1.34Z"/><path class="cls-7" d="M220.61,194.66l0,.8a2.33,2.33,0,0,1,1.9-.92c1.34,0,2,.76,2,2.27V201h-1.08v-4.19a1.48,1.48,0,0,0-.32-1,1.24,1.24,0,0,0-1-.33,1.53,1.53,0,0,0-.92.29,1.84,1.84,0,0,0-.62.73V201h-1.09v-6.34Z"/><path class="cls-7" d="M225.92,197.77a3.76,3.76,0,0,1,.36-1.67,2.71,2.71,0,0,1,2.51-1.56,2.67,2.67,0,0,1,2.1.9,3.47,3.47,0,0,1,.8,2.39v.07a3.71,3.71,0,0,1-.36,1.66,2.69,2.69,0,0,1-1,1.15,2.82,2.82,0,0,1-1.51.41,2.66,2.66,0,0,1-2.09-.9,3.4,3.4,0,0,1-.8-2.37Zm1.09.13a2.67,2.67,0,0,0,.49,1.69,1.66,1.66,0,0,0,2.62,0,3,3,0,0,0,.49-1.82,2.72,2.72,0,0,0-.5-1.69,1.64,1.64,0,0,0-2.61,0A3,3,0,0,0,227,197.9Z"/><path class="cls-7" d="M234.52,193.13v1.53h1.18v.84h-1.18v3.94a.86.86,0,0,0,.16.57.68.68,0,0,0,.54.19,3.32,3.32,0,0,0,.51-.07V201a3,3,0,0,1-.83.12,1.38,1.38,0,0,1-1.1-.44,1.92,1.92,0,0,1-.36-1.25V195.5h-1.16v-.84h1.16v-1.53Z"/><path class="cls-7" d="M239.9,197.54a9.27,9.27,0,0,1,.35-2.54,7.35,7.35,0,0,1,1.06-2.22,4.69,4.69,0,0,1,1.46-1.41l.22.72a4.61,4.61,0,0,0-1.4,2,8.5,8.5,0,0,0-.6,3v.5a8.71,8.71,0,0,0,.83,3.92,4.64,4.64,0,0,0,1.18,1.56l-.22.66a4.51,4.51,0,0,1-1.49-1.45A8.14,8.14,0,0,1,239.9,197.54Z"/><path class="cls-7" d="M246.72,197.2a5.39,5.39,0,0,1-2.1-1,2,2,0,0,1-.66-1.5,2.09,2.09,0,0,1,.8-1.67,3.22,3.22,0,0,1,2.1-.66,3.59,3.59,0,0,1,1.57.34,2.56,2.56,0,0,1,1.06.94,2.33,2.33,0,0,1,.38,1.31h-1.13a1.54,1.54,0,0,0-.49-1.22,2,2,0,0,0-1.39-.45,2,2,0,0,0-1.3.37,1.21,1.21,0,0,0-.46,1,1.08,1.08,0,0,0,.44.88,4.27,4.27,0,0,0,1.5.66,7,7,0,0,1,1.67.66,2.5,2.5,0,0,1,.89.84,2.18,2.18,0,0,1,.29,1.13,2,2,0,0,1-.81,1.66,3.42,3.42,0,0,1-2.16.63,3.92,3.92,0,0,1-1.64-.34,2.76,2.76,0,0,1-1.18-.92,2.3,2.3,0,0,1-.41-1.33h1.13a1.48,1.48,0,0,0,.57,1.22,2.4,2.4,0,0,0,1.53.45,2.2,2.2,0,0,0,1.36-.36,1.2,1.2,0,0,0,.48-1,1.15,1.15,0,0,0-.44-1A5,5,0,0,0,246.72,197.2Z"/><path class="cls-7" d="M253.66,197.6a9,9,0,0,1-.34,2.5,7.37,7.37,0,0,1-1,2.21,4.45,4.45,0,0,1-1.48,1.44l-.23-.66A4.65,4.65,0,0,0,252,201a9.29,9.29,0,0,0,.56-3.24v-.18a9.23,9.23,0,0,0-.26-2.29,7.89,7.89,0,0,0-.71-1.9,4.25,4.25,0,0,0-1-1.3l.23-.67a4.6,4.6,0,0,1,1.47,1.43,7.37,7.37,0,0,1,1.05,2.21A9.06,9.06,0,0,1,253.66,197.6Z"/><path class="cls-7" d="M255.3,200.43a.71.71,0,0,1,.16-.47.68.68,0,0,1,1.18.47.6.6,0,0,1-.17.45.66.66,0,0,1-.51.19.67.67,0,0,1-.5-.19A.64.64,0,0,1,255.3,200.43Zm0-5.17a.7.7,0,0,1,.17-.47.65.65,0,0,1,.5-.19.62.62,0,0,1,.68.66.64.64,0,0,1-.17.45.69.69,0,0,1-.51.18.6.6,0,0,1-.67-.63Z"/><path class="cls-7" d="M177.33,206.29l.62.42a2.78,2.78,0,0,0-.56,1.61v.79h-1.08v-.68a2.7,2.7,0,0,1,.29-1.18A2.84,2.84,0,0,1,177.33,206.29Z"/><path class="cls-7" d="M181.65,211.6a5.44,5.44,0,0,1-2.11-1,2,2,0,0,1-.66-1.5,2.07,2.07,0,0,1,.81-1.67,3.22,3.22,0,0,1,2.1-.66,3.57,3.57,0,0,1,1.56.34,2.59,2.59,0,0,1,1.07.94,2.41,2.41,0,0,1,.38,1.31h-1.13a1.55,1.55,0,0,0-.5-1.22,2,2,0,0,0-1.38-.45,2.07,2.07,0,0,0-1.3.37,1.22,1.22,0,0,0-.47,1,1.1,1.1,0,0,0,.44.88,4.43,4.43,0,0,0,1.51.66,7,7,0,0,1,1.66.66,2.5,2.5,0,0,1,.89.84,2.09,2.09,0,0,1,.29,1.13,2,2,0,0,1-.8,1.66,3.44,3.44,0,0,1-2.17.63,4,4,0,0,1-1.64-.34,2.73,2.73,0,0,1-1.17-.92,2.23,2.23,0,0,1-.41-1.33h1.13a1.48,1.48,0,0,0,.57,1.22,2.39,2.39,0,0,0,1.52.45,2.24,2.24,0,0,0,1.37-.36,1.19,1.19,0,0,0,.47-1,1.13,1.13,0,0,0-.44-1A4.89,4.89,0,0,0,181.65,211.6Z"/><path class="cls-7" d="M186.16,209.27l-.61-.42a2.82,2.82,0,0,0,.56-1.6v-.85h1.07v.76a2.89,2.89,0,0,1-1,2.11Z"/><path class="cls-7" d="M193.22,212.47l-.68.7v2.23h-1.08v-9h1.08v5.44l.58-.69,2-2.09h1.32L194,211.71l2.75,3.69h-1.27Z"/><path class="cls-7" d="M198.56,209.06l0,.8a2.29,2.29,0,0,1,1.89-.92c1.34,0,2,.76,2,2.27v4.19h-1.08v-4.19a1.48,1.48,0,0,0-.32-1,1.23,1.23,0,0,0-1-.33,1.56,1.56,0,0,0-.93.29,1.84,1.84,0,0,0-.62.73v4.52h-1.08v-6.34Z"/><path class="cls-7" d="M203.87,212.17a3.63,3.63,0,0,1,.37-1.67,2.71,2.71,0,0,1,1-1.15,2.81,2.81,0,0,1,1.5-.41,2.66,2.66,0,0,1,2.09.9,3.47,3.47,0,0,1,.8,2.39v.07a3.85,3.85,0,0,1-.35,1.66,2.72,2.72,0,0,1-1,1.15,2.82,2.82,0,0,1-1.51.41,2.66,2.66,0,0,1-2.09-.9,3.45,3.45,0,0,1-.8-2.37Zm1.09.13a2.72,2.72,0,0,0,.49,1.7,1.56,1.56,0,0,0,1.31.63,1.55,1.55,0,0,0,1.31-.64,3,3,0,0,0,.49-1.82,2.72,2.72,0,0,0-.5-1.69,1.66,1.66,0,0,0-2.61,0A3,3,0,0,0,205,212.3Z"/><path class="cls-7" d="M212.47,207.53v1.53h1.18v.84h-1.18v3.94a.86.86,0,0,0,.16.57.64.64,0,0,0,.54.19,2.41,2.41,0,0,0,.51-.07v.87a3,3,0,0,1-.83.12,1.34,1.34,0,0,1-1.09-.44,1.87,1.87,0,0,1-.37-1.25V209.9h-1.16v-.84h1.16v-1.53Z"/><path class="cls-7" d="M218.61,213.72a.8.8,0,0,0-.33-.68,3.32,3.32,0,0,0-1.15-.42,5.77,5.77,0,0,1-1.31-.42,2,2,0,0,1-.72-.59,1.45,1.45,0,0,1-.23-.81,1.65,1.65,0,0,1,.66-1.32,2.58,2.58,0,0,1,1.69-.54,2.66,2.66,0,0,1,1.75.56,1.79,1.79,0,0,1,.67,1.42h-1.09a1,1,0,0,0-.38-.76,1.38,1.38,0,0,0-.95-.32,1.49,1.49,0,0,0-.93.25.82.82,0,0,0-.33.68.65.65,0,0,0,.31.59,3.79,3.79,0,0,0,1.12.38,5.84,5.84,0,0,1,1.32.43,1.91,1.91,0,0,1,.74.61,1.5,1.5,0,0,1,.25.86A1.65,1.65,0,0,1,219,215a2.9,2.9,0,0,1-1.77.51,3.19,3.19,0,0,1-1.35-.27,2.18,2.18,0,0,1-.91-.75,1.84,1.84,0,0,1-.33-1.05h1.08a1.12,1.12,0,0,0,.44.86,1.64,1.64,0,0,0,1.07.32,1.73,1.73,0,0,0,1-.25A.74.74,0,0,0,218.61,213.72Z"/><path class="cls-7" d="M226.62,214.63a1.5,1.5,0,0,0,1-.35,1.27,1.27,0,0,0,.49-.88h1a2,2,0,0,1-.37,1,2.49,2.49,0,0,1-.93.79,2.71,2.71,0,0,1-1.22.29,2.61,2.61,0,0,1-2.06-.87,3.42,3.42,0,0,1-.76-2.36v-.18a3.77,3.77,0,0,1,.34-1.65,2.59,2.59,0,0,1,1-1.12,2.86,2.86,0,0,1,1.51-.4,2.56,2.56,0,0,1,1.77.64,2.29,2.29,0,0,1,.75,1.66h-1a1.52,1.52,0,0,0-.47-1,1.45,1.45,0,0,0-1-.39,1.52,1.52,0,0,0-1.29.59,2.82,2.82,0,0,0-.45,1.72v.2a2.72,2.72,0,0,0,.45,1.69A1.51,1.51,0,0,0,226.62,214.63Z"/><path class="cls-7" d="M234.27,215.4a2.39,2.39,0,0,1-.15-.67,2.38,2.38,0,0,1-1.8.79,2.25,2.25,0,0,1-1.54-.53,1.73,1.73,0,0,1-.6-1.35,1.77,1.77,0,0,1,.75-1.53,3.52,3.52,0,0,1,2.12-.55h1v-.5a1.22,1.22,0,0,0-.34-.91,1.37,1.37,0,0,0-1-.33,1.62,1.62,0,0,0-1,.29.87.87,0,0,0-.39.71h-1.09a1.53,1.53,0,0,1,.33-.92,2.35,2.35,0,0,1,.92-.7,3.1,3.1,0,0,1,1.27-.26,2.51,2.51,0,0,1,1.71.55,2,2,0,0,1,.65,1.51v2.92a3.58,3.58,0,0,0,.22,1.39v.09Zm-1.8-.82a1.87,1.87,0,0,0,1-.27,1.49,1.49,0,0,0,.66-.68v-1.3h-.85c-1.32,0-2,.38-2,1.16a1,1,0,0,0,.34.8A1.32,1.32,0,0,0,232.47,214.58Z"/><path class="cls-7" d="M237.91,209.06l0,.8a2.3,2.3,0,0,1,1.9-.92c1.34,0,2,.76,2,2.27v4.19h-1.08v-4.19a1.48,1.48,0,0,0-.31-1,1.27,1.27,0,0,0-1-.33,1.58,1.58,0,0,0-.93.29,1.92,1.92,0,0,0-.62.73v4.52h-1.08v-6.34Z"/><path class="cls-7" d="M251.85,212.3a3.82,3.82,0,0,1-.67,2.34,2.36,2.36,0,0,1-3.65,0l-.06.73h-1v-9h1.08v3.36a2.21,2.21,0,0,1,1.81-.82,2.17,2.17,0,0,1,1.82.88,3.88,3.88,0,0,1,.66,2.39Zm-1.09-.12a2.88,2.88,0,0,0-.43-1.71,1.41,1.41,0,0,0-1.23-.61,1.61,1.61,0,0,0-1.54,1v2.74a1.63,1.63,0,0,0,1.56,1,1.42,1.42,0,0,0,1.21-.6A3.14,3.14,0,0,0,250.76,212.18Z"/><path class="cls-7" d="M255.84,215.52a2.76,2.76,0,0,1-2.1-.85,3.17,3.17,0,0,1-.8-2.26v-.2a3.85,3.85,0,0,1,.36-1.69,2.83,2.83,0,0,1,1-1.16,2.56,2.56,0,0,1,1.41-.42,2.39,2.39,0,0,1,1.92.82,3.5,3.5,0,0,1,.68,2.33v.45H254a2.29,2.29,0,0,0,.55,1.52,1.72,1.72,0,0,0,1.33.57,1.83,1.83,0,0,0,1-.23,2.43,2.43,0,0,0,.7-.62l.66.51A2.66,2.66,0,0,1,255.84,215.52Zm-.13-5.68a1.42,1.42,0,0,0-1.1.47,2.32,2.32,0,0,0-.56,1.34h3.18v-.08a2.08,2.08,0,0,0-.44-1.28A1.38,1.38,0,0,0,255.71,209.84Z"/><path class="cls-7" d="M262.54,207.38a.66.66,0,0,1,.17-.45.58.58,0,0,1,.47-.18.62.62,0,0,1,.48.18.66.66,0,0,1,.17.45.6.6,0,0,1-.65.62.58.58,0,0,1-.47-.18A.62.62,0,0,1,262.54,207.38Zm1.18,8h-1.09v-6.34h1.09Z"/><path class="cls-7" d="M269.14,213.72a.8.8,0,0,0-.33-.68,3.23,3.23,0,0,0-1.15-.42,5.77,5.77,0,0,1-1.31-.42,1.85,1.85,0,0,1-.71-.59,1.38,1.38,0,0,1-.24-.81,1.65,1.65,0,0,1,.66-1.32,2.58,2.58,0,0,1,1.69-.54,2.66,2.66,0,0,1,1.75.56,1.79,1.79,0,0,1,.67,1.42h-1.09a1,1,0,0,0-.38-.76,1.38,1.38,0,0,0-.95-.32,1.49,1.49,0,0,0-.93.25.82.82,0,0,0-.33.68.65.65,0,0,0,.31.59,3.91,3.91,0,0,0,1.12.38,5.84,5.84,0,0,1,1.32.43,1.91,1.91,0,0,1,.74.61,1.43,1.43,0,0,1,.25.86,1.65,1.65,0,0,1-.68,1.37,2.88,2.88,0,0,1-1.77.51,3.18,3.18,0,0,1-1.34-.27,2.15,2.15,0,0,1-.92-.75,1.84,1.84,0,0,1-.33-1.05h1.08a1.12,1.12,0,0,0,.44.86,1.64,1.64,0,0,0,1.07.32,1.73,1.73,0,0,0,1-.25A.74.74,0,0,0,269.14,213.72Z"/><path class="cls-7" d="M271.35,212.17a3.63,3.63,0,0,1,.37-1.67,2.66,2.66,0,0,1,1-1.15,2.75,2.75,0,0,1,1.49-.41,2.66,2.66,0,0,1,2.09.9,3.42,3.42,0,0,1,.8,2.39v.07a3.85,3.85,0,0,1-.35,1.66,2.72,2.72,0,0,1-1,1.15,2.8,2.8,0,0,1-1.51.41,2.66,2.66,0,0,1-2.09-.9,3.45,3.45,0,0,1-.8-2.37Zm1.09.13a2.72,2.72,0,0,0,.49,1.7,1.58,1.58,0,0,0,1.31.63,1.55,1.55,0,0,0,1.31-.64,3,3,0,0,0,.49-1.82,2.72,2.72,0,0,0-.5-1.69,1.66,1.66,0,0,0-2.61,0A3,3,0,0,0,272.44,212.3Z"/><path class="cls-7" d="M279.66,215.4h-1.08v-9h1.08Z"/><path class="cls-7" d="M285.31,215.4a2.39,2.39,0,0,1-.15-.67,2.42,2.42,0,0,1-1.81.79,2.27,2.27,0,0,1-1.54-.53,1.73,1.73,0,0,1-.6-1.35,1.76,1.76,0,0,1,.76-1.53,3.49,3.49,0,0,1,2.11-.55h1.06v-.5a1.22,1.22,0,0,0-.34-.91,1.39,1.39,0,0,0-1-.33,1.65,1.65,0,0,0-1,.29.87.87,0,0,0-.39.71h-1.09a1.48,1.48,0,0,1,.34-.92,2.31,2.31,0,0,1,.91-.7,3.13,3.13,0,0,1,1.27-.26,2.55,2.55,0,0,1,1.72.55,2,2,0,0,1,.64,1.51v2.92a3.56,3.56,0,0,0,.23,1.39v.09Zm-1.8-.82a1.9,1.9,0,0,0,1-.27,1.6,1.6,0,0,0,.66-.68v-1.3h-.85c-1.33,0-2,.38-2,1.16a1,1,0,0,0,.34.8A1.29,1.29,0,0,0,283.51,214.58Z"/><path class="cls-7" d="M289.39,207.53v1.53h1.19v.84h-1.19v3.94a.92.92,0,0,0,.16.57.67.67,0,0,0,.54.19,2.48,2.48,0,0,0,.52-.07v.87a3.15,3.15,0,0,1-.84.12,1.34,1.34,0,0,1-1.09-.44,1.87,1.87,0,0,1-.37-1.25V209.9h-1.16v-.84h1.16v-1.53Z"/><path class="cls-7" d="M294.47,215.52a2.72,2.72,0,0,1-2.09-.85,3.13,3.13,0,0,1-.81-2.26v-.2a3.85,3.85,0,0,1,.36-1.69,2.83,2.83,0,0,1,1-1.16,2.56,2.56,0,0,1,1.41-.42,2.39,2.39,0,0,1,1.92.82,3.5,3.5,0,0,1,.69,2.33v.45h-4.3a2.29,2.29,0,0,0,.55,1.52,1.72,1.72,0,0,0,1.33.57,1.83,1.83,0,0,0,1-.23,2.43,2.43,0,0,0,.7-.62l.66.51A2.65,2.65,0,0,1,294.47,215.52Zm-.13-5.68a1.42,1.42,0,0,0-1.1.47,2.32,2.32,0,0,0-.55,1.34h3.17v-.08a2.08,2.08,0,0,0-.44-1.28A1.38,1.38,0,0,0,294.34,209.84Z"/><path class="cls-7" d="M297.94,212.18a3.73,3.73,0,0,1,.69-2.35,2.34,2.34,0,0,1,3.57-.12V206.4h1.09v9h-1l-.05-.68a2.23,2.23,0,0,1-1.81.8,2.16,2.16,0,0,1-1.8-.9,3.8,3.8,0,0,1-.69-2.36Zm1.08.12a2.88,2.88,0,0,0,.44,1.69,1.44,1.44,0,0,0,1.24.61,1.58,1.58,0,0,0,1.5-.93v-2.91a1.58,1.58,0,0,0-1.49-.9,1.47,1.47,0,0,0-1.25.62A3.15,3.15,0,0,0,299,212.3Z"/><path class="cls-7" d="M307.65,212.17a3.63,3.63,0,0,1,.37-1.67,2.66,2.66,0,0,1,1-1.15,2.75,2.75,0,0,1,1.49-.41,2.66,2.66,0,0,1,2.09.9,3.42,3.42,0,0,1,.8,2.39v.07a3.85,3.85,0,0,1-.35,1.66,2.72,2.72,0,0,1-1,1.15,2.82,2.82,0,0,1-1.51.41,2.66,2.66,0,0,1-2.09-.9,3.45,3.45,0,0,1-.8-2.37Zm1.09.13a2.72,2.72,0,0,0,.49,1.7,1.58,1.58,0,0,0,1.31.63,1.55,1.55,0,0,0,1.31-.64,3,3,0,0,0,.49-1.82,2.72,2.72,0,0,0-.5-1.69,1.66,1.66,0,0,0-2.61,0A3,3,0,0,0,308.74,212.3Z"/><path class="cls-7" d="M317.85,210a4.56,4.56,0,0,0-.54,0,1.42,1.42,0,0,0-1.44.91v4.5h-1.09v-6.34h1.06v.73a1.71,1.71,0,0,1,1.52-.85,1,1,0,0,1,.48.09Z"/><path class="cls-7" d="M176.58,221.78a.65.65,0,0,1,.16-.45.58.58,0,0,1,.47-.18.63.63,0,0,1,.49.18.71.71,0,0,1,.16.45.66.66,0,0,1-.16.44.62.62,0,0,1-.49.17.58.58,0,0,1-.47-.17A.61.61,0,0,1,176.58,221.78Zm1.17,8h-1.09v-6.34h1.09Z"/><path class="cls-7" d="M180.51,223.46l0,.8a2.33,2.33,0,0,1,1.9-.92c1.34,0,2,.76,2,2.27v4.19h-1.09v-4.19a1.43,1.43,0,0,0-.31-1,1.24,1.24,0,0,0-1-.33,1.53,1.53,0,0,0-.92.29,1.76,1.76,0,0,0-.62.73v4.52h-1.09v-6.34Z"/><path class="cls-7" d="M191.62,229a1.53,1.53,0,0,0,1-.35,1.23,1.23,0,0,0,.48-.88h1a2,2,0,0,1-.38,1,2.53,2.53,0,0,1-.92.79,2.74,2.74,0,0,1-1.22.29,2.6,2.6,0,0,1-2.06-.87,3.42,3.42,0,0,1-.77-2.36v-.18a3.92,3.92,0,0,1,.34-1.65,2.61,2.61,0,0,1,1-1.12,2.8,2.8,0,0,1,1.5-.4,2.56,2.56,0,0,1,1.77.64,2.3,2.3,0,0,1,.76,1.66h-1a1.52,1.52,0,0,0-.46-1,1.48,1.48,0,0,0-1-.4,1.51,1.51,0,0,0-1.28.6,2.82,2.82,0,0,0-.45,1.72v.2a2.74,2.74,0,0,0,.45,1.69A1.51,1.51,0,0,0,191.62,229Z"/><path class="cls-7" d="M196.53,229.8h-1.08v-9h1.08Z"/><path class="cls-7" d="M202.18,229.17a2.29,2.29,0,0,1-1.86.75,2,2,0,0,1-1.54-.59,2.58,2.58,0,0,1-.54-1.74v-4.13h1.09v4.1q0,1.44,1.17,1.44a1.61,1.61,0,0,0,1.65-.93v-4.61h1.09v6.34h-1Z"/><path class="cls-7" d="M208.57,228.12a.8.8,0,0,0-.33-.68,2.89,2.89,0,0,0-1.15-.42,5.77,5.77,0,0,1-1.31-.42,1.85,1.85,0,0,1-.71-.59,1.38,1.38,0,0,1-.23-.81,1.65,1.65,0,0,1,.66-1.32,2.55,2.55,0,0,1,1.68-.54,2.66,2.66,0,0,1,1.75.56,1.76,1.76,0,0,1,.67,1.42h-1.09a1,1,0,0,0-.38-.76,1.39,1.39,0,0,0-.95-.33,1.53,1.53,0,0,0-.93.26.82.82,0,0,0-.33.68.65.65,0,0,0,.31.59,3.91,3.91,0,0,0,1.12.38,5.84,5.84,0,0,1,1.32.43,2,2,0,0,1,.75.61,1.5,1.5,0,0,1,.24.86,1.65,1.65,0,0,1-.68,1.37,2.86,2.86,0,0,1-1.77.51,3.18,3.18,0,0,1-1.34-.27,2.21,2.21,0,0,1-.92-.75,1.86,1.86,0,0,1-.33-1.05h1.08a1.12,1.12,0,0,0,.44.86,1.64,1.64,0,0,0,1.07.32,1.73,1.73,0,0,0,1-.25A.74.74,0,0,0,208.57,228.12Z"/><path class="cls-7" d="M212.54,221.93v1.53h1.18v.84h-1.18v3.94a.86.86,0,0,0,.16.57.68.68,0,0,0,.54.19,3.17,3.17,0,0,0,.51-.07v.87a3,3,0,0,1-.83.12,1.34,1.34,0,0,1-1.09-.44,1.87,1.87,0,0,1-.37-1.25V224.3H210.3v-.84h1.16v-1.53Z"/><path class="cls-7" d="M217.62,229.92a2.76,2.76,0,0,1-2.1-.85,3.13,3.13,0,0,1-.81-2.26v-.2a3.72,3.72,0,0,1,.37-1.69,2.83,2.83,0,0,1,1-1.16,2.53,2.53,0,0,1,1.41-.42,2.39,2.39,0,0,1,1.92.82,3.5,3.5,0,0,1,.68,2.33v.45H215.8a2.24,2.24,0,0,0,.55,1.52,1.72,1.72,0,0,0,1.33.57,1.83,1.83,0,0,0,1-.23,2.43,2.43,0,0,0,.7-.62l.66.51A2.66,2.66,0,0,1,217.62,229.92Zm-.13-5.69a1.46,1.46,0,0,0-1.11.48,2.39,2.39,0,0,0-.55,1.34H219V226a2,2,0,0,0-.45-1.28A1.35,1.35,0,0,0,217.49,224.23Z"/><path class="cls-7" d="M224.41,224.43a4.24,4.24,0,0,0-.53,0,1.45,1.45,0,0,0-1.45.91v4.5h-1.08v-6.34h1.05l0,.73a1.71,1.71,0,0,1,1.51-.85,1,1,0,0,1,.48.09Z"/><path class="cls-7" d="M229.1,228.12a.8.8,0,0,0-.33-.68,3,3,0,0,0-1.16-.42,5.84,5.84,0,0,1-1.3-.42,2,2,0,0,1-.72-.59,1.45,1.45,0,0,1-.23-.81,1.65,1.65,0,0,1,.66-1.32,2.58,2.58,0,0,1,1.69-.54,2.63,2.63,0,0,1,1.74.56,1.76,1.76,0,0,1,.67,1.42H229a1,1,0,0,0-.38-.76,1.39,1.39,0,0,0-.95-.33,1.49,1.49,0,0,0-.93.26.82.82,0,0,0-.33.68.65.65,0,0,0,.31.59,3.79,3.79,0,0,0,1.12.38,5.57,5.57,0,0,1,1.31.43,1.88,1.88,0,0,1,.75.61,1.5,1.5,0,0,1,.24.86,1.62,1.62,0,0,1-.68,1.37,2.85,2.85,0,0,1-1.76.51,3.19,3.19,0,0,1-1.35-.27,2.18,2.18,0,0,1-.91-.75,1.8,1.8,0,0,1-.34-1.05h1.09a1.09,1.09,0,0,0,.44.86,1.63,1.63,0,0,0,1.07.32,1.73,1.73,0,0,0,1-.25A.74.74,0,0,0,229.1,228.12Z"/><path class="cls-7" d="M231.56,231.5l-.61-.42a2.91,2.91,0,0,0,.57-1.58v-1h1.06v.85a2.7,2.7,0,0,1-.29,1.18A2.74,2.74,0,0,1,231.56,231.5Z"/><path class="cls-7" d="M238.39,221.93v1.53h1.19v.84h-1.19v3.94a.92.92,0,0,0,.16.57.7.7,0,0,0,.54.19,3.42,3.42,0,0,0,.52-.07v.87a3.15,3.15,0,0,1-.84.12,1.34,1.34,0,0,1-1.09-.44,1.87,1.87,0,0,1-.37-1.25V224.3h-1.16v-.84h1.16v-1.53Z"/><path class="cls-7" d="M241.93,224.23a2.3,2.3,0,0,1,1.87-.89c1.34,0,2,.76,2,2.27v4.19h-1.09v-4.19a1.43,1.43,0,0,0-.31-1,1.24,1.24,0,0,0-1-.33,1.53,1.53,0,0,0-.92.29,1.76,1.76,0,0,0-.62.73v4.52h-1.09v-9h1.09Z"/><path class="cls-7" d="M250.08,229.92a2.76,2.76,0,0,1-2.1-.85,3.17,3.17,0,0,1-.8-2.26v-.2a3.85,3.85,0,0,1,.36-1.69,2.83,2.83,0,0,1,1-1.16,2.56,2.56,0,0,1,1.41-.42,2.39,2.39,0,0,1,1.92.82,3.5,3.5,0,0,1,.68,2.33v.45h-4.29a2.29,2.29,0,0,0,.55,1.52,1.72,1.72,0,0,0,1.33.57,1.83,1.83,0,0,0,1-.23,2.43,2.43,0,0,0,.7-.62l.66.51A2.66,2.66,0,0,1,250.08,229.92Zm-.13-5.69a1.43,1.43,0,0,0-1.1.48,2.39,2.39,0,0,0-.56,1.34h3.18V226a2.08,2.08,0,0,0-.44-1.28A1.39,1.39,0,0,0,250,224.23Z"/><path class="cls-7" d="M257.8,223.46l0,.8a2.31,2.31,0,0,1,1.9-.92c1.34,0,2,.76,2,2.27v4.19h-1.09v-4.19a1.48,1.48,0,0,0-.31-1,1.27,1.27,0,0,0-1-.33,1.58,1.58,0,0,0-.93.29,1.92,1.92,0,0,0-.62.73v4.52h-1.08v-6.34Z"/><path class="cls-7" d="M267.31,229.17a2.28,2.28,0,0,1-1.85.75,2,2,0,0,1-1.55-.59,2.53,2.53,0,0,1-.53-1.74v-4.13h1.08v4.1q0,1.44,1.17,1.44a1.64,1.64,0,0,0,1.66-.93v-4.61h1.08v6.34h-1Z"/><path class="cls-7" d="M271,223.46l0,.7a2.39,2.39,0,0,1,1.89-.82,1.82,1.82,0,0,1,1.81,1,2.31,2.31,0,0,1,.82-.73,2.42,2.42,0,0,1,1.2-.29c1.39,0,2.1.74,2.12,2.21v4.25h-1.09v-4.18a1.45,1.45,0,0,0-.31-1,1.37,1.37,0,0,0-1-.34,1.4,1.4,0,0,0-1.46,1.33v4.21h-1.09v-4.15a1.21,1.21,0,0,0-1.36-1.39,1.47,1.47,0,0,0-1.46.91v4.63H270v-6.34Z"/><path class="cls-7" d="M285.9,226.7a3.76,3.76,0,0,1-.67,2.34,2.14,2.14,0,0,1-1.79.88,2.24,2.24,0,0,1-1.86-.85l-.05.73h-1v-9h1.09v3.36a2.2,2.2,0,0,1,1.81-.82,2.13,2.13,0,0,1,1.81.88,3.88,3.88,0,0,1,.66,2.39Zm-1.08-.12a3,3,0,0,0-.43-1.71,1.41,1.41,0,0,0-1.23-.61,1.59,1.59,0,0,0-1.54,1V228a1.63,1.63,0,0,0,1.55,1,1.39,1.39,0,0,0,1.21-.61A3.07,3.07,0,0,0,284.82,226.58Z"/><path class="cls-7" d="M289.9,229.92a2.76,2.76,0,0,1-2.1-.85,3.13,3.13,0,0,1-.81-2.26v-.2a3.85,3.85,0,0,1,.36-1.69,2.86,2.86,0,0,1,1-1.16,2.52,2.52,0,0,1,1.4-.42,2.37,2.37,0,0,1,1.92.82,3.5,3.5,0,0,1,.69,2.33v.45h-4.3a2.29,2.29,0,0,0,.55,1.52A1.75,1.75,0,0,0,290,229a1.86,1.86,0,0,0,1-.23,2.39,2.39,0,0,0,.69-.62l.67.51A2.66,2.66,0,0,1,289.9,229.92Zm-.14-5.69a1.44,1.44,0,0,0-1.1.48,2.32,2.32,0,0,0-.55,1.34h3.18V226a2.09,2.09,0,0,0-.45-1.28A1.39,1.39,0,0,0,289.76,224.23Z"/><path class="cls-7" d="M296.69,224.43a4.41,4.41,0,0,0-.54,0,1.42,1.42,0,0,0-1.44.91v4.5h-1.09v-6.34h1.06l0,.73a1.68,1.68,0,0,1,1.51-.85,1,1,0,0,1,.48.09Z"/><path class="cls-7" d="M300.37,226.57a3.76,3.76,0,0,1,.36-1.67,2.71,2.71,0,0,1,2.51-1.56,2.67,2.67,0,0,1,2.1.9,3.47,3.47,0,0,1,.8,2.39v.07a3.71,3.71,0,0,1-.36,1.66,2.69,2.69,0,0,1-1,1.15,2.82,2.82,0,0,1-1.51.41,2.66,2.66,0,0,1-2.09-.9,3.4,3.4,0,0,1-.8-2.37Zm1.09.13a2.67,2.67,0,0,0,.49,1.69,1.66,1.66,0,0,0,2.62,0,3,3,0,0,0,.48-1.82,2.71,2.71,0,0,0-.49-1.69,1.64,1.64,0,0,0-2.61,0A3,3,0,0,0,301.46,226.7Z"/><path class="cls-7" d="M308,229.8v-5.5h-1v-.84h1v-.65a2.16,2.16,0,0,1,.55-1.58,2,2,0,0,1,1.54-.55,2.64,2.64,0,0,1,.74.1l-.06.87a3.58,3.58,0,0,0-.58-.05,1.06,1.06,0,0,0-.82.31,1.24,1.24,0,0,0-.28.88v.67h1.35v.84h-1.35v5.5Z"/><path class="cls-7" d="M178.34,241.27l-.68.7v2.23h-1.08v-9h1.08v5.44l.58-.69,2-2.09h1.32l-2.46,2.65,2.75,3.69h-1.27Z"/><path class="cls-7" d="M183.68,237.86l0,.8a2.33,2.33,0,0,1,1.9-.92c1.34,0,2,.76,2,2.27v4.19h-1.09V240a1.43,1.43,0,0,0-.31-1,1.24,1.24,0,0,0-1-.33,1.53,1.53,0,0,0-.92.29,1.76,1.76,0,0,0-.62.73v4.52h-1.09v-6.34Z"/><path class="cls-7" d="M189,241a3.76,3.76,0,0,1,.36-1.67,2.71,2.71,0,0,1,2.51-1.56,2.68,2.68,0,0,1,2.1.9,3.47,3.47,0,0,1,.8,2.39v.07a3.71,3.71,0,0,1-.36,1.66,2.69,2.69,0,0,1-1,1.15,2.82,2.82,0,0,1-1.51.41,2.66,2.66,0,0,1-2.09-.9,3.4,3.4,0,0,1-.8-2.37Zm1.09.13a2.72,2.72,0,0,0,.49,1.7,1.67,1.67,0,0,0,2.62,0,3,3,0,0,0,.48-1.82,2.71,2.71,0,0,0-.49-1.69,1.64,1.64,0,0,0-2.61,0A3,3,0,0,0,190.08,241.1Z"/><path class="cls-7" d="M197.59,236.33v1.53h1.18v.84h-1.18v3.94a.86.86,0,0,0,.16.57.64.64,0,0,0,.54.19,2.41,2.41,0,0,0,.51-.07v.87a3,3,0,0,1-.83.12,1.37,1.37,0,0,1-1.1-.44,1.92,1.92,0,0,1-.37-1.25V238.7h-1.15v-.84h1.15v-1.53Z"/><path class="cls-7" d="M203.73,242.52a.8.8,0,0,0-.33-.68,3.11,3.11,0,0,0-1.16-.42,5.67,5.67,0,0,1-1.3-.42,1.89,1.89,0,0,1-.72-.59,1.45,1.45,0,0,1-.23-.81,1.65,1.65,0,0,1,.66-1.32,2.57,2.57,0,0,1,1.68-.54,2.64,2.64,0,0,1,1.75.56,1.76,1.76,0,0,1,.67,1.42h-1.09a1,1,0,0,0-.37-.76,1.42,1.42,0,0,0-1-.33,1.48,1.48,0,0,0-.92.26.83.83,0,0,0-.34.68.67.67,0,0,0,.31.59,4,4,0,0,0,1.13.38,5.57,5.57,0,0,1,1.31.43,1.88,1.88,0,0,1,.75.61,1.5,1.5,0,0,1,.24.86,1.62,1.62,0,0,1-.68,1.37,2.85,2.85,0,0,1-1.76.51,3.19,3.19,0,0,1-1.35-.27,2.28,2.28,0,0,1-.92-.75,1.84,1.84,0,0,1-.33-1.05h1.09a1.11,1.11,0,0,0,.43.86,1.67,1.67,0,0,0,1.08.32,1.73,1.73,0,0,0,1-.25A.76.76,0,0,0,203.73,242.52Z"/><path class="cls-7" d="M209.2,236.18a.65.65,0,0,1,.16-.45.73.73,0,0,1,1,0,.65.65,0,0,1,.16.45.64.64,0,1,1-1.28,0Zm1.17,8h-1.08v-6.34h1.08Z"/><path class="cls-7" d="M213.13,237.86l0,.8a2.31,2.31,0,0,1,1.9-.92c1.34,0,2,.76,2,2.27v4.19H216V240a1.48,1.48,0,0,0-.31-1,1.27,1.27,0,0,0-1-.33,1.58,1.58,0,0,0-.93.29,1.92,1.92,0,0,0-.62.73v4.52h-1.08v-6.34Z"/><path class="cls-7" d="M223.17,236.33v1.53h1.18v.84h-1.18v3.94a.86.86,0,0,0,.16.57.64.64,0,0,0,.54.19,2.41,2.41,0,0,0,.51-.07v.87a3,3,0,0,1-.83.12,1.34,1.34,0,0,1-1.09-.44,1.87,1.87,0,0,1-.37-1.25V238.7h-1.16v-.84h1.16v-1.53Z"/><path class="cls-7" d="M226.7,238.63a2.32,2.32,0,0,1,1.88-.89c1.34,0,2,.76,2,2.27v4.19h-1.09V240a1.48,1.48,0,0,0-.31-1,1.27,1.27,0,0,0-1-.33,1.58,1.58,0,0,0-.93.29,1.92,1.92,0,0,0-.62.73v4.52h-1.08v-9h1.08Z"/><path class="cls-7" d="M234.86,244.32a2.76,2.76,0,0,1-2.1-.85,3.13,3.13,0,0,1-.81-2.26V241a3.85,3.85,0,0,1,.36-1.69,2.86,2.86,0,0,1,1-1.16,2.52,2.52,0,0,1,1.4-.42,2.4,2.4,0,0,1,1.93.82,3.56,3.56,0,0,1,.68,2.33v.45H233a2.28,2.28,0,0,0,.54,1.52,1.75,1.75,0,0,0,1.34.57,1.86,1.86,0,0,0,1-.23,2.43,2.43,0,0,0,.7-.62l.66.51A2.66,2.66,0,0,1,234.86,244.32Zm-.14-5.69a1.46,1.46,0,0,0-1.1.48,2.39,2.39,0,0,0-.55,1.34h3.18v-.08a2,2,0,0,0-.45-1.28A1.36,1.36,0,0,0,234.72,238.63Z"/><path class="cls-7" d="M244.1,243.43a1.52,1.52,0,0,0,1-.35,1.23,1.23,0,0,0,.48-.88h1a2,2,0,0,1-.38,1,2.45,2.45,0,0,1-.92.79,2.71,2.71,0,0,1-1.22.29,2.61,2.61,0,0,1-2.06-.87,3.42,3.42,0,0,1-.76-2.36v-.18a3.77,3.77,0,0,1,.34-1.65,2.59,2.59,0,0,1,1-1.12,2.82,2.82,0,0,1,1.5-.4,2.59,2.59,0,0,1,1.78.64,2.29,2.29,0,0,1,.75,1.66h-1a1.47,1.47,0,0,0-1.5-1.41,1.52,1.52,0,0,0-1.28.6,2.82,2.82,0,0,0-.45,1.72v.2a2.74,2.74,0,0,0,.45,1.69A1.51,1.51,0,0,0,244.1,243.43Z"/><path class="cls-7" d="M249,244.2h-1.09v-9H249Z"/><path class="cls-7" d="M254.66,243.57a2.28,2.28,0,0,1-1.85.75,2,2,0,0,1-1.55-.59,2.53,2.53,0,0,1-.53-1.74v-4.13h1.08V242q0,1.44,1.17,1.44a1.61,1.61,0,0,0,1.65-.93v-4.61h1.09v6.34h-1Z"/><path class="cls-7" d="M261.06,242.52a.8.8,0,0,0-.33-.68,3.19,3.19,0,0,0-1.16-.42,5.94,5.94,0,0,1-1.31-.42,1.85,1.85,0,0,1-.71-.59,1.45,1.45,0,0,1-.23-.81,1.65,1.65,0,0,1,.66-1.32,2.57,2.57,0,0,1,1.68-.54,2.66,2.66,0,0,1,1.75.56,1.76,1.76,0,0,1,.67,1.42H261a1,1,0,0,0-.38-.76,1.39,1.39,0,0,0-.95-.33,1.48,1.48,0,0,0-.92.26.8.8,0,0,0-.34.68.67.67,0,0,0,.31.59,3.91,3.91,0,0,0,1.12.38,5.67,5.67,0,0,1,1.32.43,1.88,1.88,0,0,1,.75.61,1.5,1.5,0,0,1,.24.86,1.65,1.65,0,0,1-.68,1.37,2.85,2.85,0,0,1-1.76.51,3.19,3.19,0,0,1-1.35-.27,2.21,2.21,0,0,1-.92-.75,1.84,1.84,0,0,1-.33-1.05h1.09a1.11,1.11,0,0,0,.43.86,1.65,1.65,0,0,0,1.08.32,1.67,1.67,0,0,0,1-.25A.75.75,0,0,0,261.06,242.52Z"/><path class="cls-7" d="M265,236.33v1.53h1.19v.84H265v3.94a.92.92,0,0,0,.16.57.67.67,0,0,0,.54.19,2.41,2.41,0,0,0,.52-.07v.87a3.15,3.15,0,0,1-.84.12,1.34,1.34,0,0,1-1.09-.44,1.87,1.87,0,0,1-.37-1.25V238.7h-1.15v-.84h1.15v-1.53Z"/><path class="cls-7" d="M270.1,244.32a2.72,2.72,0,0,1-2.09-.85,3.13,3.13,0,0,1-.81-2.26V241a3.85,3.85,0,0,1,.36-1.69,2.78,2.78,0,0,1,1-1.16,2.5,2.5,0,0,1,1.4-.42,2.39,2.39,0,0,1,1.92.82,3.5,3.5,0,0,1,.69,2.33v.45h-4.3a2.29,2.29,0,0,0,.55,1.52,1.72,1.72,0,0,0,1.33.57,1.83,1.83,0,0,0,1-.23,2.43,2.43,0,0,0,.7-.62l.66.51A2.65,2.65,0,0,1,270.1,244.32Zm-.13-5.69a1.43,1.43,0,0,0-1.1.48,2.32,2.32,0,0,0-.55,1.34h3.17v-.08a2.08,2.08,0,0,0-.44-1.28A1.39,1.39,0,0,0,270,238.63Z"/><path class="cls-7" d="M276.89,238.83a4.24,4.24,0,0,0-.53,0,1.45,1.45,0,0,0-1.45.91v4.5h-1.08v-6.34h1.05l0,.73a1.71,1.71,0,0,1,1.51-.85,1,1,0,0,1,.48.09Z"/><path class="cls-7" d="M283.49,244.32a2.76,2.76,0,0,1-2.1-.85,3.17,3.17,0,0,1-.8-2.26V241a3.85,3.85,0,0,1,.36-1.69,2.83,2.83,0,0,1,1-1.16,2.56,2.56,0,0,1,1.41-.42,2.39,2.39,0,0,1,1.92.82,3.5,3.5,0,0,1,.68,2.33v.45h-4.29a2.29,2.29,0,0,0,.55,1.52,1.72,1.72,0,0,0,1.33.57,1.83,1.83,0,0,0,1-.23,2.43,2.43,0,0,0,.7-.62l.66.51A2.66,2.66,0,0,1,283.49,244.32Zm-.13-5.69a1.43,1.43,0,0,0-1.1.48,2.32,2.32,0,0,0-.55,1.34h3.17v-.08a2.08,2.08,0,0,0-.44-1.28A1.39,1.39,0,0,0,283.36,238.63Z"/><path class="cls-7" d="M287,241a3.71,3.71,0,0,1,.68-2.37,2.23,2.23,0,0,1,1.84-.87,2.25,2.25,0,0,1,1.78.76l0-.64h1v8.78h-1.09v-3a2.27,2.27,0,0,1-1.74.7,2.17,2.17,0,0,1-1.83-.9,3.75,3.75,0,0,1-.68-2.37Zm1.08.12a2.78,2.78,0,0,0,.46,1.71,1.45,1.45,0,0,0,1.24.62,1.6,1.6,0,0,0,1.47-.85v-3.11a1.62,1.62,0,0,0-1.46-.84,1.48,1.48,0,0,0-1.25.63A3,3,0,0,0,288,241.1Z"/><path class="cls-7" d="M298,243.57a2.28,2.28,0,0,1-1.85.75,2,2,0,0,1-1.55-.59A2.53,2.53,0,0,1,294,242v-4.13h1.08V242q0,1.44,1.17,1.44a1.61,1.61,0,0,0,1.65-.93v-4.61H299v6.34h-1Z"/><path class="cls-7" d="M304.57,244.2a2.39,2.39,0,0,1-.15-.67,2.42,2.42,0,0,1-1.81.79,2.27,2.27,0,0,1-1.54-.53,1.73,1.73,0,0,1-.6-1.35,1.76,1.76,0,0,1,.76-1.53,3.49,3.49,0,0,1,2.11-.55h1.06v-.5a1.22,1.22,0,0,0-.34-.91,1.39,1.39,0,0,0-1-.33,1.58,1.58,0,0,0-1,.29.87.87,0,0,0-.39.71H300.6a1.48,1.48,0,0,1,.34-.92,2.31,2.31,0,0,1,.91-.7,3.13,3.13,0,0,1,1.27-.26,2.55,2.55,0,0,1,1.72.55,2,2,0,0,1,.64,1.51v2.92a3.56,3.56,0,0,0,.23,1.39v.09Zm-1.8-.82a1.9,1.9,0,0,0,1-.27,1.6,1.6,0,0,0,.66-.68v-1.3h-.85c-1.33,0-2,.38-2,1.16a1,1,0,0,0,.34.8A1.29,1.29,0,0,0,302.77,243.38Z"/><path class="cls-7" d="M308.36,244.2h-1.08v-9h1.08Z"/><path class="cls-7" d="M313.79,242.52a.8.8,0,0,0-.34-.68,3.05,3.05,0,0,0-1.15-.42A5.94,5.94,0,0,1,311,241a1.85,1.85,0,0,1-.71-.59,1.38,1.38,0,0,1-.23-.81,1.65,1.65,0,0,1,.66-1.32,2.57,2.57,0,0,1,1.68-.54,2.66,2.66,0,0,1,1.75.56,1.76,1.76,0,0,1,.67,1.42h-1.09a1,1,0,0,0-.38-.76,1.39,1.39,0,0,0-.95-.33,1.53,1.53,0,0,0-.93.26.82.82,0,0,0-.33.68.65.65,0,0,0,.31.59,3.91,3.91,0,0,0,1.12.38,5.84,5.84,0,0,1,1.32.43,2,2,0,0,1,.75.61,1.5,1.5,0,0,1,.24.86,1.65,1.65,0,0,1-.68,1.37,2.85,2.85,0,0,1-1.76.51,3.19,3.19,0,0,1-1.35-.27,2.21,2.21,0,0,1-.92-.75,1.84,1.84,0,0,1-.33-1.05h1.08a1.12,1.12,0,0,0,.44.86,1.65,1.65,0,0,0,1.08.32,1.67,1.67,0,0,0,1-.25A.75.75,0,0,0,313.79,242.52Z"/><path class="cls-7" d="M178,250.73v1.53h1.18v.84H178V257a.86.86,0,0,0,.16.57.68.68,0,0,0,.54.19,3.17,3.17,0,0,0,.51-.07v.87a3,3,0,0,1-.83.12,1.34,1.34,0,0,1-1.09-.44A1.87,1.87,0,0,1,177,257V253.1H175.8v-.84H177v-1.53Z"/><path class="cls-7" d="M181.57,253a2.32,2.32,0,0,1,1.88-.89c1.34,0,2,.76,2,2.27v4.19h-1.09v-4.19a1.48,1.48,0,0,0-.31-1,1.27,1.27,0,0,0-1-.33,1.59,1.59,0,0,0-.92.28,2,2,0,0,0-.63.74v4.52h-1.08v-9h1.08Z"/><path class="cls-7" d="M189.73,258.72a2.76,2.76,0,0,1-2.1-.85,3.13,3.13,0,0,1-.81-2.26v-.2a3.85,3.85,0,0,1,.36-1.69,2.86,2.86,0,0,1,1-1.16,2.53,2.53,0,0,1,1.41-.42,2.39,2.39,0,0,1,1.92.82,3.56,3.56,0,0,1,.68,2.33v.45h-4.29a2.24,2.24,0,0,0,.55,1.52,1.72,1.72,0,0,0,1.33.57,1.93,1.93,0,0,0,1-.23,2.43,2.43,0,0,0,.7-.62l.66.51A2.66,2.66,0,0,1,189.73,258.72ZM189.6,253a1.46,1.46,0,0,0-1.11.48,2.39,2.39,0,0,0-.55,1.34h3.18v-.08a2,2,0,0,0-.45-1.28A1.35,1.35,0,0,0,189.6,253Z"/><path class="cls-7" d="M198.52,257.13l1.57-4.87h1.11l-2.28,6.34h-.82l-2.3-6.34h1.11Z"/><path class="cls-7" d="M206.07,258.6a2,2,0,0,1-.16-.67,2.38,2.38,0,0,1-1.8.79,2.25,2.25,0,0,1-1.54-.53,1.73,1.73,0,0,1-.6-1.35,1.8,1.8,0,0,1,.75-1.54,3.61,3.61,0,0,1,2.12-.54h1.06v-.5a1.26,1.26,0,0,0-.34-.91,1.4,1.4,0,0,0-1-.33,1.55,1.55,0,0,0-1,.29.86.86,0,0,0-.39.71H202.1a1.48,1.48,0,0,1,.34-.92,2.31,2.31,0,0,1,.91-.7,3.13,3.13,0,0,1,1.27-.26,2.55,2.55,0,0,1,1.72.55,2,2,0,0,1,.64,1.51v2.92a3.58,3.58,0,0,0,.22,1.39v.09Zm-1.8-.83a1.82,1.82,0,0,0,1-.26,1.57,1.57,0,0,0,.67-.68v-1.31h-.85c-1.33,0-2,.39-2,1.17a1,1,0,0,0,.34.8A1.33,1.33,0,0,0,204.27,257.77Z"/><path class="cls-7" d="M209.86,258.6h-1.09v-9h1.09Z"/><path class="cls-7" d="M215.51,258a2.32,2.32,0,0,1-1.86.75,2,2,0,0,1-1.55-.59,2.53,2.53,0,0,1-.53-1.74v-4.13h1.08v4.1q0,1.44,1.17,1.44a1.64,1.64,0,0,0,1.66-.93v-4.61h1.08v6.34h-1Z"/><path class="cls-7" d="M220.84,258.72a2.76,2.76,0,0,1-2.1-.85,3.13,3.13,0,0,1-.81-2.26v-.2a3.85,3.85,0,0,1,.36-1.69,2.86,2.86,0,0,1,1-1.16,2.52,2.52,0,0,1,1.4-.42,2.37,2.37,0,0,1,1.92.82,3.5,3.5,0,0,1,.69,2.33v.45H219a2.23,2.23,0,0,0,.54,1.52,1.75,1.75,0,0,0,1.34.57,2,2,0,0,0,1-.23,2.56,2.56,0,0,0,.7-.62l.66.51A2.66,2.66,0,0,1,220.84,258.72ZM220.7,253a1.46,1.46,0,0,0-1.1.48,2.32,2.32,0,0,0-.55,1.34h3.18v-.08a2,2,0,0,0-.45-1.28A1.36,1.36,0,0,0,220.7,253Z"/><text class="cls-1" transform="translate(180.39 54.59)">Knot Types</text><line class="cls-2" x1="299.57" y1="77.23" x2="299.57" y2="185.79"/><path class="cls-7" d="M397.34,201.5h4v.92h-5.17v-8.53h1.13Z"/><path class="cls-7" d="M402.21,199.19a3.76,3.76,0,0,1,.36-1.67,2.68,2.68,0,0,1,2.51-1.55,2.66,2.66,0,0,1,2.1.89,3.47,3.47,0,0,1,.8,2.39v.07a3.71,3.71,0,0,1-.36,1.66,2.63,2.63,0,0,1-1,1.15,2.82,2.82,0,0,1-1.51.41,2.66,2.66,0,0,1-2.09-.9,3.39,3.39,0,0,1-.8-2.37Zm1.09.13a2.7,2.7,0,0,0,.49,1.7,1.65,1.65,0,0,0,2.62,0,3,3,0,0,0,.48-1.82,2.73,2.73,0,0,0-.49-1.69,1.58,1.58,0,0,0-1.32-.64,1.55,1.55,0,0,0-1.29.64A2.9,2.9,0,0,0,403.3,199.32Z"/><path class="cls-7" d="M410.36,196.08l0,.8a2.3,2.3,0,0,1,1.9-.91c1.34,0,2,.75,2,2.26v4.19h-1.08v-4.19a1.48,1.48,0,0,0-.31-1,1.31,1.31,0,0,0-1-.32,1.57,1.57,0,0,0-.93.28,1.88,1.88,0,0,0-.62.74v4.51h-1.08v-6.34Z"/><path class="cls-7" d="M415.7,199.2a3.72,3.72,0,0,1,.69-2.36,2.18,2.18,0,0,1,1.81-.87,2.16,2.16,0,0,1,1.81.82l.06-.71h1v6.19a2.6,2.6,0,0,1-.73,1.94,2.71,2.71,0,0,1-2,.71,3.3,3.3,0,0,1-1.34-.29,2.36,2.36,0,0,1-1-.81l.57-.65a2.09,2.09,0,0,0,1.7.86,1.63,1.63,0,0,0,1.23-.44,1.69,1.69,0,0,0,.45-1.25v-.55a2.25,2.25,0,0,1-1.78.75,2.16,2.16,0,0,1-1.8-.9A3.89,3.89,0,0,1,415.7,199.2Zm1.09.12a2.88,2.88,0,0,0,.44,1.69,1.41,1.41,0,0,0,1.23.61,1.6,1.6,0,0,0,1.51-.93v-2.9a1.62,1.62,0,0,0-1.5-.9,1.43,1.43,0,0,0-1.23.61A3.07,3.07,0,0,0,416.79,199.32Z"/><path class="cls-7" d="M428,198.46l-1,1.08v2.88h-1.13v-8.53H427v4.22l3.79-4.22h1.36l-3.36,3.77,3.62,4.76H431Z"/><path class="cls-7" d="M434.08,196.08l0,.8A2.32,2.32,0,0,1,436,196c1.34,0,2,.75,2,2.26v4.19H437v-4.19a1.48,1.48,0,0,0-.31-1,1.29,1.29,0,0,0-1-.32,1.52,1.52,0,0,0-.92.28,1.82,1.82,0,0,0-.63.74v4.51h-1.08v-6.34Z"/><path class="cls-7" d="M439.38,199.19a3.76,3.76,0,0,1,.37-1.67,2.73,2.73,0,0,1,1-1.15,2.77,2.77,0,0,1,1.49-.4,2.69,2.69,0,0,1,2.1.89,3.47,3.47,0,0,1,.8,2.39v.07a3.71,3.71,0,0,1-.36,1.66,2.63,2.63,0,0,1-1,1.15,2.86,2.86,0,0,1-1.52.41,2.67,2.67,0,0,1-2.09-.9,3.43,3.43,0,0,1-.8-2.37Zm1.09.13A2.77,2.77,0,0,0,441,201a1.66,1.66,0,0,0,2.63,0,3,3,0,0,0,.48-1.82,2.73,2.73,0,0,0-.49-1.69,1.58,1.58,0,0,0-1.32-.64,1.53,1.53,0,0,0-1.29.64A2.9,2.9,0,0,0,440.47,199.32Z"/><path class="cls-7" d="M448,194.55v1.53h1.18v.84H448v3.94a.92.92,0,0,0,.15.57.67.67,0,0,0,.54.19,2.41,2.41,0,0,0,.52-.07v.87a3.08,3.08,0,0,1-.83.12,1.37,1.37,0,0,1-1.1-.44,1.92,1.92,0,0,1-.37-1.25v-3.93h-1.15v-.84h1.15v-1.53Z"/><path class="cls-7" d="M453.37,199a8.91,8.91,0,0,1,.35-2.54,7.46,7.46,0,0,1,1.06-2.22,4.43,4.43,0,0,1,1.46-1.4l.22.71a4.67,4.67,0,0,0-1.4,2,8.5,8.5,0,0,0-.6,3v.5a8.62,8.62,0,0,0,.83,3.93,4.57,4.57,0,0,0,1.18,1.55l-.22.67a4.65,4.65,0,0,1-1.49-1.46A8.12,8.12,0,0,1,453.37,199Z"/><path class="cls-7" d="M458.81,201.5h4v.92h-5.17v-8.53h1.13Z"/><path class="cls-7" d="M466.47,199a9,9,0,0,1-.35,2.5,7.28,7.28,0,0,1-1,2.22,4.86,4.86,0,0,1-1.48,1.44l-.23-.67a4.73,4.73,0,0,0,1.45-2.14,9.47,9.47,0,0,0,.56-3.23V199a9.79,9.79,0,0,0-.26-2.29,7.65,7.65,0,0,0-.72-1.9,4.52,4.52,0,0,0-1-1.3l.23-.66a4.58,4.58,0,0,1,1.47,1.43,7.21,7.21,0,0,1,1.05,2.2A9.42,9.42,0,0,1,466.47,199Z"/><path class="cls-7" d="M468.1,201.85a.67.67,0,0,1,.17-.46.62.62,0,0,1,.5-.19.66.66,0,0,1,.51.19.67.67,0,0,1,.17.46.61.61,0,0,1-.68.64.65.65,0,0,1-.5-.18A.69.69,0,0,1,468.1,201.85Zm0-5.17a.69.69,0,0,1,.16-.47.68.68,0,0,1,.51-.19.64.64,0,0,1,.68.66.61.61,0,0,1-.18.45.65.65,0,0,1-.5.18.67.67,0,0,1-.51-.18A.64.64,0,0,1,468.11,196.68Z"/><path class="cls-7" d="M396.8,207.71l.62.42a2.8,2.8,0,0,0-.56,1.61v.8h-1.08v-.68a2.69,2.69,0,0,1,.28-1.19A2.87,2.87,0,0,1,396.8,207.71Z"/><path class="cls-7" d="M399.73,215.9h4v.92H398.6v-8.53h1.13Z"/><path class="cls-7" d="M403,210.69l-.62-.42a2.84,2.84,0,0,0,.57-1.6v-.85H404v.77a2.72,2.72,0,0,1-.29,1.16A2.69,2.69,0,0,1,403,210.69Z"/><path class="cls-7" d="M410.06,213.89l-.68.71v2.22h-1.09v-9h1.09v5.45l.58-.7,2-2.09h1.32l-2.46,2.65,2.75,3.69h-1.27Z"/><path class="cls-7" d="M415.4,210.48l0,.8a2.32,2.32,0,0,1,1.9-.91c1.34,0,2,.75,2,2.26v4.19h-1.09v-4.19a1.43,1.43,0,0,0-.31-1,1.29,1.29,0,0,0-1-.32,1.52,1.52,0,0,0-.92.28,1.73,1.73,0,0,0-.62.74v4.51h-1.09v-6.34Z"/><path class="cls-7" d="M420.71,213.59a3.79,3.79,0,0,1,.36-1.67,2.68,2.68,0,0,1,2.51-1.55,2.71,2.71,0,0,1,2.1.89,3.49,3.49,0,0,1,.8,2.39v.07a3.71,3.71,0,0,1-.36,1.66,2.58,2.58,0,0,1-1,1.15,2.86,2.86,0,0,1-1.52.41,2.67,2.67,0,0,1-2.09-.9,3.41,3.41,0,0,1-.79-2.37Zm1.08.13a2.77,2.77,0,0,0,.49,1.7,1.66,1.66,0,0,0,2.63,0,3,3,0,0,0,.48-1.82,2.73,2.73,0,0,0-.49-1.69,1.58,1.58,0,0,0-1.32-.64,1.55,1.55,0,0,0-1.29.64A2.9,2.9,0,0,0,421.79,213.72Z"/><path class="cls-7" d="M429.31,209v1.53h1.18v.84h-1.18v3.94a.92.92,0,0,0,.15.57.67.67,0,0,0,.54.19,2.41,2.41,0,0,0,.52-.07v.87a3.08,3.08,0,0,1-.83.12,1.37,1.37,0,0,1-1.1-.44,1.92,1.92,0,0,1-.37-1.25v-3.93h-1.15v-.84h1.15V209Z"/><path class="cls-7" d="M435.45,215.14a.8.8,0,0,0-.33-.68A3.3,3.3,0,0,0,434,214a5.67,5.67,0,0,1-1.3-.42,1.82,1.82,0,0,1-.72-.59,1.41,1.41,0,0,1-.23-.81,1.62,1.62,0,0,1,.66-1.31,2.57,2.57,0,0,1,1.68-.54,2.66,2.66,0,0,1,1.75.55,1.77,1.77,0,0,1,.67,1.43h-1.09a1,1,0,0,0-.38-.77,1.37,1.37,0,0,0-.95-.32,1.48,1.48,0,0,0-.92.25.82.82,0,0,0-.34.68.67.67,0,0,0,.31.59,3.88,3.88,0,0,0,1.13.38,6.08,6.08,0,0,1,1.31.43,1.88,1.88,0,0,1,.75.61,1.53,1.53,0,0,1,.24.87,1.63,1.63,0,0,1-.68,1.36,2.85,2.85,0,0,1-1.76.51,3.19,3.19,0,0,1-1.35-.27,2.21,2.21,0,0,1-.92-.75,1.81,1.81,0,0,1-.33-1h1.09a1.13,1.13,0,0,0,.43.87,1.71,1.71,0,0,0,1.08.32,1.81,1.81,0,0,0,1-.25A.79.79,0,0,0,435.45,215.14Z"/><path class="cls-7" d="M444.83,216.82a2,2,0,0,1-.15-.66,2.45,2.45,0,0,1-1.81.78,2.27,2.27,0,0,1-1.54-.53,1.71,1.71,0,0,1-.6-1.34,1.78,1.78,0,0,1,.76-1.54,3.49,3.49,0,0,1,2.11-.55h1.06v-.5a1.22,1.22,0,0,0-.34-.9,1.35,1.35,0,0,0-1-.34,1.65,1.65,0,0,0-1,.29.87.87,0,0,0-.39.71h-1.09a1.48,1.48,0,0,1,.34-.92,2.41,2.41,0,0,1,.91-.7,3.13,3.13,0,0,1,1.27-.25,2.55,2.55,0,0,1,1.72.54,2,2,0,0,1,.64,1.51v2.92a3.74,3.74,0,0,0,.22,1.39v.09ZM443,216a1.9,1.9,0,0,0,1-.27,1.6,1.6,0,0,0,.66-.68v-1.3h-.85c-1.33,0-2,.39-2,1.16a1,1,0,0,0,.34.8A1.29,1.29,0,0,0,443,216Z"/><path class="cls-7" d="M452.8,213.72a3.76,3.76,0,0,1-.67,2.34,2.1,2.1,0,0,1-1.79.88,2.3,2.3,0,0,1-1.81-.73v3h-1.09v-8.78h1l.05.71a2.24,2.24,0,0,1,1.84-.82,2.14,2.14,0,0,1,1.81.86,3.77,3.77,0,0,1,.67,2.39Zm-1.09-.12a2.82,2.82,0,0,0-.45-1.69,1.48,1.48,0,0,0-1.26-.62,1.58,1.58,0,0,0-1.47.87v3a1.59,1.59,0,0,0,1.48.87,1.46,1.46,0,0,0,1.24-.62A3,3,0,0,0,451.71,213.6Z"/><path class="cls-7" d="M459.53,213.72a3.82,3.82,0,0,1-.66,2.34,2.12,2.12,0,0,1-1.8.88,2.3,2.3,0,0,1-1.81-.73v3h-1.09v-8.78h1l.06.71a2.22,2.22,0,0,1,1.84-.82,2.13,2.13,0,0,1,1.8.86,3.77,3.77,0,0,1,.67,2.39Zm-1.08-.12a2.82,2.82,0,0,0-.46-1.69,1.46,1.46,0,0,0-1.26-.62,1.59,1.59,0,0,0-1.47.87v3a1.59,1.59,0,0,0,1.49.87,1.48,1.48,0,0,0,1.24-.62A3.12,3.12,0,0,0,458.45,213.6Z"/><path class="cls-7" d="M463.54,216.94a2.76,2.76,0,0,1-2.1-.85,3.13,3.13,0,0,1-.81-2.26v-.2A3.77,3.77,0,0,1,461,212a2.73,2.73,0,0,1,1-1.16,2.52,2.52,0,0,1,1.4-.42,2.36,2.36,0,0,1,1.92.81,3.5,3.5,0,0,1,.69,2.33V214h-4.3a2.29,2.29,0,0,0,.55,1.52,1.75,1.75,0,0,0,1.34.58,1.86,1.86,0,0,0,1-.24,2.41,2.41,0,0,0,.7-.62l.66.52A2.67,2.67,0,0,1,463.54,216.94Zm-.14-5.68a1.47,1.47,0,0,0-1.1.47,2.32,2.32,0,0,0-.55,1.34h3.18V213a2.09,2.09,0,0,0-.45-1.28A1.37,1.37,0,0,0,463.4,211.26Z"/><path class="cls-7" d="M471.18,216.82a2,2,0,0,1-.15-.66,2.45,2.45,0,0,1-1.81.78,2.27,2.27,0,0,1-1.54-.53,1.71,1.71,0,0,1-.6-1.34,1.79,1.79,0,0,1,.75-1.54A3.54,3.54,0,0,1,470,213H471v-.5a1.22,1.22,0,0,0-.34-.9,1.35,1.35,0,0,0-1-.34,1.65,1.65,0,0,0-1,.29.87.87,0,0,0-.39.71h-1.09a1.48,1.48,0,0,1,.34-.92,2.41,2.41,0,0,1,.91-.7,3.13,3.13,0,0,1,1.27-.25,2.55,2.55,0,0,1,1.72.54,2,2,0,0,1,.64,1.51v2.92a3.74,3.74,0,0,0,.22,1.39v.09Zm-1.8-.82a1.9,1.9,0,0,0,1-.27,1.6,1.6,0,0,0,.66-.68v-1.3h-.85c-1.33,0-2,.39-2,1.16a1,1,0,0,0,.34.8A1.29,1.29,0,0,0,469.38,216Z"/><path class="cls-7" d="M476.86,211.46a3.12,3.12,0,0,0-.54,0,1.42,1.42,0,0,0-1.44.9v4.5h-1.09v-6.34h1.06v.74a1.69,1.69,0,0,1,1.52-.85,1,1,0,0,1,.48.08Z"/><path class="cls-7" d="M484.74,216.82a1.94,1.94,0,0,1-.16-.66,2.41,2.41,0,0,1-1.8.78,2.25,2.25,0,0,1-1.54-.53,1.71,1.71,0,0,1-.6-1.34,1.79,1.79,0,0,1,.75-1.54,3.54,3.54,0,0,1,2.12-.55h1.06v-.5a1.22,1.22,0,0,0-.34-.9,1.36,1.36,0,0,0-1-.34,1.62,1.62,0,0,0-1,.29.87.87,0,0,0-.39.71h-1.09a1.48,1.48,0,0,1,.34-.92,2.41,2.41,0,0,1,.91-.7,3.13,3.13,0,0,1,1.27-.25,2.55,2.55,0,0,1,1.72.54,2,2,0,0,1,.64,1.51v2.92a3.55,3.55,0,0,0,.22,1.39v.09Zm-1.8-.82a1.84,1.84,0,0,0,1-.27,1.57,1.57,0,0,0,.67-.68v-1.3h-.85c-1.33,0-2,.39-2,1.16a1,1,0,0,0,.34.8A1.33,1.33,0,0,0,482.94,216Z"/><path class="cls-7" d="M488.53,216.82h-1.09v-9h1.09Z"/><path class="cls-7" d="M490,213.59a3.79,3.79,0,0,1,.37-1.67,2.66,2.66,0,0,1,1-1.15,2.77,2.77,0,0,1,1.49-.4,2.72,2.72,0,0,1,2.1.89,3.49,3.49,0,0,1,.8,2.39v.07a3.71,3.71,0,0,1-.36,1.66,2.58,2.58,0,0,1-1,1.15,2.86,2.86,0,0,1-1.52.41,2.67,2.67,0,0,1-2.09-.9,3.42,3.42,0,0,1-.8-2.37Zm1.09.13a2.77,2.77,0,0,0,.49,1.7,1.66,1.66,0,0,0,2.63,0,3,3,0,0,0,.48-1.82,2.73,2.73,0,0,0-.49-1.69,1.58,1.58,0,0,0-1.32-.64,1.53,1.53,0,0,0-1.29.64A2.9,2.9,0,0,0,491.06,213.72Z"/><path class="cls-7" d="M498.13,210.48l0,.8a2.29,2.29,0,0,1,1.89-.91c1.34,0,2,.75,2,2.26v4.19H501v-4.19a1.48,1.48,0,0,0-.32-1,1.27,1.27,0,0,0-.95-.32,1.55,1.55,0,0,0-.93.28,1.8,1.8,0,0,0-.62.74v4.51h-1.08v-6.34Z"/><path class="cls-7" d="M506.36,216.94a2.76,2.76,0,0,1-2.1-.85,3.13,3.13,0,0,1-.81-2.26v-.2a3.77,3.77,0,0,1,.36-1.68,2.73,2.73,0,0,1,1-1.16,2.52,2.52,0,0,1,1.4-.42,2.36,2.36,0,0,1,1.92.81,3.5,3.5,0,0,1,.69,2.33V214h-4.29a2.23,2.23,0,0,0,.54,1.52,1.75,1.75,0,0,0,1.34.58,1.86,1.86,0,0,0,1-.24,2.41,2.41,0,0,0,.7-.62l.66.52A2.67,2.67,0,0,1,506.36,216.94Zm-.14-5.68a1.48,1.48,0,0,0-1.1.47,2.32,2.32,0,0,0-.55,1.34h3.18V213a2.09,2.09,0,0,0-.45-1.28A1.35,1.35,0,0,0,506.22,211.26Z"/><path class="cls-7" d="M510.12,218.52l-.62-.42a2.85,2.85,0,0,0,.58-1.58v-1h1.06v.85a2.7,2.7,0,0,1-.29,1.18A2.74,2.74,0,0,1,510.12,218.52Zm-.21-7.44a.7.7,0,0,1,.17-.47.65.65,0,0,1,.5-.19.62.62,0,0,1,.68.66.64.64,0,0,1-.17.45.69.69,0,0,1-.51.18.6.6,0,0,1-.67-.63Z"/><path class="cls-7" d="M517.06,209v1.53h1.19v.84h-1.19v3.94a.92.92,0,0,0,.16.57.67.67,0,0,0,.54.19,2.48,2.48,0,0,0,.52-.07v.87a3.15,3.15,0,0,1-.84.12,1.34,1.34,0,0,1-1.09-.44,1.87,1.87,0,0,1-.37-1.25v-3.93h-1.16v-.84H516V209Z"/><path class="cls-7" d="M520.6,211.25a2.29,2.29,0,0,1,1.87-.88c1.34,0,2,.75,2,2.26v4.19h-1.09v-4.19a1.43,1.43,0,0,0-.31-1,1.28,1.28,0,0,0-1-.32,1.52,1.52,0,0,0-.92.28,1.73,1.73,0,0,0-.62.74v4.51h-1.09v-9h1.09Z"/><path class="cls-7" d="M528.75,216.94a2.76,2.76,0,0,1-2.1-.85,3.17,3.17,0,0,1-.8-2.26v-.2a3.77,3.77,0,0,1,.36-1.68,2.71,2.71,0,0,1,1-1.16,2.56,2.56,0,0,1,1.41-.42,2.39,2.39,0,0,1,1.92.81,3.5,3.5,0,0,1,.68,2.33V214h-4.29a2.29,2.29,0,0,0,.55,1.52,1.73,1.73,0,0,0,1.33.58,1.84,1.84,0,0,0,1-.24,2.29,2.29,0,0,0,.7-.62l.66.52A2.67,2.67,0,0,1,528.75,216.94Zm-.13-5.68a1.45,1.45,0,0,0-1.1.47,2.39,2.39,0,0,0-.56,1.34h3.18V213a2.08,2.08,0,0,0-.44-1.28A1.38,1.38,0,0,0,528.62,211.26Z"/><path class="cls-7" d="M397.06,224.88l0,.8a2.29,2.29,0,0,1,1.9-.91c1.34,0,2,.75,2,2.26v4.19h-1.08V227a1.48,1.48,0,0,0-.31-1,1.31,1.31,0,0,0-1-.32,1.57,1.57,0,0,0-.93.28,1.88,1.88,0,0,0-.62.74v4.51H396v-6.34Z"/><path class="cls-7" d="M406.57,230.6a2.32,2.32,0,0,1-1.86.74,2,2,0,0,1-1.54-.59,2.58,2.58,0,0,1-.54-1.74v-4.13h1.09V229q0,1.44,1.17,1.44a1.61,1.61,0,0,0,1.65-.93v-4.61h1.09v6.34h-1Z"/><path class="cls-7" d="M410.29,224.88l0,.71a2.34,2.34,0,0,1,1.88-.82,1.81,1.81,0,0,1,1.81,1,2.28,2.28,0,0,1,.83-.74,2.37,2.37,0,0,1,1.2-.28c1.39,0,2.09.73,2.12,2.2v4.25h-1.09V227a1.47,1.47,0,0,0-.31-1,1.38,1.38,0,0,0-1-.33,1.43,1.43,0,0,0-1,.36,1.47,1.47,0,0,0-.47,1v4.2h-1.09v-4.15a1.21,1.21,0,0,0-1.35-1.38,1.45,1.45,0,0,0-1.46.9v4.63h-1.08v-6.34Z"/><path class="cls-7" d="M425.16,228.12a3.76,3.76,0,0,1-.67,2.34,2.13,2.13,0,0,1-1.79.88,2.21,2.21,0,0,1-1.86-.85l0,.73h-1v-9h1.09v3.36a2.19,2.19,0,0,1,1.81-.81,2.14,2.14,0,0,1,1.81.87,3.88,3.88,0,0,1,.66,2.39Zm-1.09-.12a3,3,0,0,0-.42-1.71,1.43,1.43,0,0,0-1.23-.6,1.58,1.58,0,0,0-1.54,1v2.74a1.62,1.62,0,0,0,1.55,1,1.41,1.41,0,0,0,1.21-.6A3.14,3.14,0,0,0,424.07,228Z"/><path class="cls-7" d="M429.15,231.34a2.74,2.74,0,0,1-2.09-.85,3.13,3.13,0,0,1-.81-2.26V228a3.85,3.85,0,0,1,.36-1.69,2.78,2.78,0,0,1,1-1.16,2.6,2.6,0,0,1,1.4-.41,2.39,2.39,0,0,1,1.92.81,3.5,3.5,0,0,1,.69,2.33v.45h-4.3a2.29,2.29,0,0,0,.55,1.52,1.73,1.73,0,0,0,1.33.58,1.87,1.87,0,0,0,1-.24,2.53,2.53,0,0,0,.69-.62l.66.52A2.66,2.66,0,0,1,429.15,231.34Zm-.13-5.68a1.45,1.45,0,0,0-1.1.47,2.32,2.32,0,0,0-.55,1.34h3.17v-.08a2.08,2.08,0,0,0-.44-1.28A1.38,1.38,0,0,0,429,225.66Z"/><path class="cls-7" d="M436,225.86a3.1,3.1,0,0,0-.54-.05,1.45,1.45,0,0,0-1.45.91v4.5h-1.08v-6.34h1.06v.74a1.69,1.69,0,0,1,1.51-.85,1.06,1.06,0,0,1,.49.08Z"/><path class="cls-7" d="M439.62,228a3.76,3.76,0,0,1,.37-1.67,2.68,2.68,0,0,1,2.51-1.55,2.67,2.67,0,0,1,2.1.89,3.47,3.47,0,0,1,.8,2.39v.07a3.71,3.71,0,0,1-.36,1.66,2.63,2.63,0,0,1-1,1.15,2.86,2.86,0,0,1-1.52.41,2.67,2.67,0,0,1-2.09-.9,3.43,3.43,0,0,1-.8-2.37Zm1.09.13a2.77,2.77,0,0,0,.49,1.7,1.66,1.66,0,0,0,2.63,0,3,3,0,0,0,.48-1.82,2.73,2.73,0,0,0-.49-1.69,1.58,1.58,0,0,0-1.32-.64,1.55,1.55,0,0,0-1.29.64A2.9,2.9,0,0,0,440.71,228.12Z"/><path class="cls-7" d="M447.29,231.22v-5.5h-1v-.84h1v-.65a2.15,2.15,0,0,1,.54-1.57,2.09,2.09,0,0,1,1.55-.56,2.74,2.74,0,0,1,.74.1l-.06.87a3.61,3.61,0,0,0-.59,0,1,1,0,0,0-.81.31,1.24,1.24,0,0,0-.29.88v.67h1.36v.84h-1.36v5.5Z"/><path class="cls-7" d="M455.36,223.35v1.53h1.19v.84h-1.19v3.94a.92.92,0,0,0,.16.57.67.67,0,0,0,.54.19,2.41,2.41,0,0,0,.52-.07v.87a3.15,3.15,0,0,1-.84.12,1.34,1.34,0,0,1-1.09-.44,1.87,1.87,0,0,1-.37-1.25v-3.93h-1.16v-.84h1.16v-1.53Z"/><path class="cls-7" d="M461.73,230.6a2.33,2.33,0,0,1-1.86.74,2,2,0,0,1-1.54-.59,2.48,2.48,0,0,1-.54-1.74v-4.13h1.08V229q0,1.44,1.17,1.44a1.64,1.64,0,0,0,1.66-.93v-4.61h1.08v6.34h-1Z"/><path class="cls-7" d="M467.49,225.86a2.89,2.89,0,0,0-.53-.05,1.45,1.45,0,0,0-1.45.91v4.5h-1.08v-6.34h1.05l0,.74a1.69,1.69,0,0,1,1.51-.85,1,1,0,0,1,.48.08Z"/><path class="cls-7" d="M469.51,224.88l0,.8a2.3,2.3,0,0,1,1.9-.91c1.34,0,2,.75,2,2.26v4.19h-1.08V227a1.48,1.48,0,0,0-.31-1,1.31,1.31,0,0,0-1-.32,1.57,1.57,0,0,0-.93.28,1.88,1.88,0,0,0-.62.74v4.51h-1.08v-6.34Z"/><path class="cls-7" d="M478.8,229.54a.8.8,0,0,0-.33-.68,3.32,3.32,0,0,0-1.15-.42A5.77,5.77,0,0,1,476,228a2,2,0,0,1-.72-.59,1.41,1.41,0,0,1-.23-.81,1.65,1.65,0,0,1,.66-1.32,2.63,2.63,0,0,1,1.69-.53,2.68,2.68,0,0,1,1.75.55,1.8,1.8,0,0,1,.67,1.43h-1.09a1,1,0,0,0-.38-.77,1.38,1.38,0,0,0-.95-.32,1.49,1.49,0,0,0-.93.25.83.83,0,0,0-.33.68.65.65,0,0,0,.31.59,3.79,3.79,0,0,0,1.12.38,6.08,6.08,0,0,1,1.31.43,1.88,1.88,0,0,1,.75.61,1.52,1.52,0,0,1,.24.86,1.63,1.63,0,0,1-.67,1.37,2.9,2.9,0,0,1-1.77.51,3.19,3.19,0,0,1-1.35-.27,2.18,2.18,0,0,1-.91-.75,1.81,1.81,0,0,1-.33-1h1.08a1.13,1.13,0,0,0,.44.87,1.7,1.7,0,0,0,1.07.32,1.81,1.81,0,0,0,1-.25A.77.77,0,0,0,478.8,229.54Z"/><path class="cls-7" d="M484.27,223.2a.68.68,0,0,1,.16-.44.7.7,0,0,1,1,0,.64.64,0,0,1,.17.44.67.67,0,0,1-1.13.44A.66.66,0,0,1,484.27,223.2Zm1.18,8h-1.09v-6.34h1.09Z"/><path class="cls-7" d="M488.21,224.88l0,.8a2.3,2.3,0,0,1,1.9-.91c1.34,0,2,.75,2,2.26v4.19h-1.09V227a1.48,1.48,0,0,0-.31-1,1.31,1.31,0,0,0-1-.32,1.57,1.57,0,0,0-.93.28,1.88,1.88,0,0,0-.62.74v4.51h-1.08v-6.34Z"/><path class="cls-7" d="M498.24,223.35v1.53h1.19v.84h-1.19v3.94a.86.86,0,0,0,.16.57.67.67,0,0,0,.54.19,2.48,2.48,0,0,0,.52-.07v.87a3.15,3.15,0,0,1-.84.12,1.34,1.34,0,0,1-1.09-.44,1.87,1.87,0,0,1-.37-1.25v-3.93H496v-.84h1.16v-1.53Z"/><path class="cls-7" d="M501.78,225.65a2.29,2.29,0,0,1,1.87-.88c1.34,0,2,.75,2,2.26v4.19h-1.09V227a1.43,1.43,0,0,0-.31-1,1.28,1.28,0,0,0-1-.32,1.52,1.52,0,0,0-.92.28,1.73,1.73,0,0,0-.62.74v4.51h-1.09v-9h1.09Z"/><path class="cls-7" d="M509.93,231.34a2.76,2.76,0,0,1-2.1-.85,3.12,3.12,0,0,1-.8-2.26V228a3.85,3.85,0,0,1,.36-1.69,2.83,2.83,0,0,1,1-1.16,2.63,2.63,0,0,1,1.41-.41,2.39,2.39,0,0,1,1.92.81,3.5,3.5,0,0,1,.68,2.33v.45h-4.29a2.24,2.24,0,0,0,.55,1.52,1.73,1.73,0,0,0,1.33.58,1.84,1.84,0,0,0,1-.24,2.43,2.43,0,0,0,.7-.62l.66.52A2.67,2.67,0,0,1,509.93,231.34Zm-.13-5.68a1.45,1.45,0,0,0-1.1.47,2.32,2.32,0,0,0-.56,1.34h3.18v-.08a2.08,2.08,0,0,0-.44-1.28A1.38,1.38,0,0,0,509.8,225.66Z"/><path class="cls-7" d="M518.4,228.29l-.68.71v2.22h-1.09v-9h1.09v5.45l.58-.7,2-2.09h1.32l-2.47,2.65,2.76,3.69h-1.27Z"/><path class="cls-7" d="M523.74,224.88l0,.8a2.32,2.32,0,0,1,1.9-.91c1.34,0,2,.75,2,2.26v4.19h-1.09V227a1.48,1.48,0,0,0-.31-1,1.29,1.29,0,0,0-1-.32,1.52,1.52,0,0,0-.92.28,1.82,1.82,0,0,0-.63.74v4.51h-1.08v-6.34Z"/><path class="cls-7" d="M529,228a3.76,3.76,0,0,1,.37-1.67,2.68,2.68,0,0,1,2.51-1.55,2.67,2.67,0,0,1,2.1.89,3.47,3.47,0,0,1,.8,2.39v.07a3.71,3.71,0,0,1-.36,1.66,2.63,2.63,0,0,1-1,1.15,2.86,2.86,0,0,1-1.52.41,2.67,2.67,0,0,1-2.09-.9,3.43,3.43,0,0,1-.8-2.37Zm1.09.13a2.77,2.77,0,0,0,.49,1.7,1.66,1.66,0,0,0,2.63,0,3,3,0,0,0,.48-1.82,2.73,2.73,0,0,0-.49-1.69,1.58,1.58,0,0,0-1.32-.64,1.55,1.55,0,0,0-1.29.64A2.9,2.9,0,0,0,530.13,228.12Z"/><path class="cls-7" d="M537.65,223.35v1.53h1.18v.84h-1.18v3.94a.92.92,0,0,0,.15.57.67.67,0,0,0,.54.19,2.41,2.41,0,0,0,.52-.07v.87a3.08,3.08,0,0,1-.83.12,1.37,1.37,0,0,1-1.1-.44,1.92,1.92,0,0,1-.37-1.25v-3.93h-1.15v-.84h1.15v-1.53Z"/><path class="cls-7" d="M398.67,245.74a2.76,2.76,0,0,1-2.1-.85,3.13,3.13,0,0,1-.81-2.26v-.2a3.77,3.77,0,0,1,.36-1.68,2.73,2.73,0,0,1,1-1.16,2.52,2.52,0,0,1,1.4-.42,2.39,2.39,0,0,1,1.93.81,3.56,3.56,0,0,1,.68,2.33v.45h-4.29a2.23,2.23,0,0,0,.54,1.52,1.75,1.75,0,0,0,1.34.58,1.86,1.86,0,0,0,1-.24,2.56,2.56,0,0,0,.7-.62l.66.52A2.67,2.67,0,0,1,398.67,245.74Zm-.14-5.68a1.48,1.48,0,0,0-1.1.47,2.32,2.32,0,0,0-.55,1.34h3.18v-.08a2,2,0,0,0-.45-1.28A1.35,1.35,0,0,0,398.53,240.06Z"/><path class="cls-7" d="M402.13,242.4a3.68,3.68,0,0,1,.69-2.36,2.42,2.42,0,0,1,3.61-.12l.05-.64h1v8.78h-1.08v-3a2.28,2.28,0,0,1-1.75.7,2.21,2.21,0,0,1-1.83-.89,3.85,3.85,0,0,1-.68-2.37Zm1.08.12a2.85,2.85,0,0,0,.46,1.71,1.46,1.46,0,0,0,1.24.63,1.63,1.63,0,0,0,1.48-.86v-3.11a1.63,1.63,0,0,0-1.46-.83,1.46,1.46,0,0,0-1.25.62A3.06,3.06,0,0,0,403.21,242.52Z"/><path class="cls-7" d="M413.13,245a2.32,2.32,0,0,1-1.86.74,2,2,0,0,1-1.54-.59,2.53,2.53,0,0,1-.54-1.74v-4.13h1.09v4.1q0,1.44,1.17,1.44a1.61,1.61,0,0,0,1.65-.93v-4.61h1.08v6.34h-1Z"/><path class="cls-7" d="M419.74,245.62a2.3,2.3,0,0,1-.15-.66,2.41,2.41,0,0,1-1.8.78,2.25,2.25,0,0,1-1.54-.53,1.71,1.71,0,0,1-.6-1.34,1.79,1.79,0,0,1,.75-1.54,3.52,3.52,0,0,1,2.12-.55h1.05v-.5a1.18,1.18,0,0,0-.34-.9,1.33,1.33,0,0,0-1-.34,1.62,1.62,0,0,0-1,.29.87.87,0,0,0-.39.71h-1.09a1.53,1.53,0,0,1,.33-.92,2.45,2.45,0,0,1,.92-.7,3.1,3.1,0,0,1,1.27-.25,2.51,2.51,0,0,1,1.71.54,2,2,0,0,1,.65,1.51v2.92a3.55,3.55,0,0,0,.22,1.39v.09ZM418,244.8a1.84,1.84,0,0,0,1-.27,1.49,1.49,0,0,0,.66-.68v-1.3h-.85c-1.32,0-2,.39-2,1.16a1,1,0,0,0,.34.8A1.33,1.33,0,0,0,418,244.8Z"/><path class="cls-7" d="M423.54,245.62h-1.09v-9h1.09Z"/><path class="cls-7" d="M429,243.94a.8.8,0,0,0-.33-.68,3.32,3.32,0,0,0-1.15-.42,5.77,5.77,0,0,1-1.31-.42,2,2,0,0,1-.72-.59,1.41,1.41,0,0,1-.23-.81,1.62,1.62,0,0,1,.66-1.31,2.58,2.58,0,0,1,1.69-.54,2.66,2.66,0,0,1,1.75.55,1.8,1.8,0,0,1,.67,1.43H428.9a1,1,0,0,0-.38-.77,1.38,1.38,0,0,0-.95-.32,1.49,1.49,0,0,0-.93.25.83.83,0,0,0-.33.68.65.65,0,0,0,.31.59,3.79,3.79,0,0,0,1.12.38,6.08,6.08,0,0,1,1.31.43,1.88,1.88,0,0,1,.75.61,1.53,1.53,0,0,1,.24.87,1.62,1.62,0,0,1-.67,1.36,2.9,2.9,0,0,1-1.77.51,3.19,3.19,0,0,1-1.35-.27,2.18,2.18,0,0,1-.91-.75,1.81,1.81,0,0,1-.33-1.05h1.08a1.11,1.11,0,0,0,.44.87,1.7,1.7,0,0,0,1.07.32,1.81,1.81,0,0,0,1-.25A.77.77,0,0,0,429,243.94Z"/><path class="cls-7" d="M435.9,237.75v1.53h1.18v.84H435.9v3.94a.86.86,0,0,0,.16.57.64.64,0,0,0,.54.19,2.41,2.41,0,0,0,.51-.07v.87a3,3,0,0,1-.83.12,1.37,1.37,0,0,1-1.1-.44,1.92,1.92,0,0,1-.37-1.25v-3.93h-1.15v-.84h1.15v-1.53Z"/><path class="cls-7" d="M439.43,240.05a2.31,2.31,0,0,1,1.88-.88c1.34,0,2,.75,2,2.26v4.19h-1.08v-4.19a1.48,1.48,0,0,0-.31-1,1.31,1.31,0,0,0-1-.32,1.57,1.57,0,0,0-.93.28,1.88,1.88,0,0,0-.62.74v4.51h-1.08v-9h1.08Z"/><path class="cls-7" d="M447.59,245.74a2.76,2.76,0,0,1-2.1-.85,3.13,3.13,0,0,1-.81-2.26v-.2a3.77,3.77,0,0,1,.36-1.68,2.73,2.73,0,0,1,1-1.16,2.52,2.52,0,0,1,1.4-.42,2.39,2.39,0,0,1,1.93.81,3.56,3.56,0,0,1,.68,2.33v.45h-4.29a2.23,2.23,0,0,0,.54,1.52,1.75,1.75,0,0,0,1.34.58,1.86,1.86,0,0,0,1-.24,2.56,2.56,0,0,0,.7-.62l.66.52A2.67,2.67,0,0,1,447.59,245.74Zm-.14-5.68a1.48,1.48,0,0,0-1.1.47,2.32,2.32,0,0,0-.55,1.34H449v-.08a2,2,0,0,0-.45-1.28A1.35,1.35,0,0,0,447.45,240.06Z"/><path class="cls-7" d="M456.38,244.15l1.57-4.87h1.1l-2.27,6.34H456l-2.3-6.34h1.11Z"/><path class="cls-7" d="M463.92,245.62a2.3,2.3,0,0,1-.15-.66,2.41,2.41,0,0,1-1.8.78,2.25,2.25,0,0,1-1.54-.53,1.71,1.71,0,0,1-.6-1.34,1.79,1.79,0,0,1,.75-1.54,3.52,3.52,0,0,1,2.12-.55h1.05v-.5a1.18,1.18,0,0,0-.34-.9,1.33,1.33,0,0,0-1-.34,1.62,1.62,0,0,0-1,.29.87.87,0,0,0-.39.71H460a1.53,1.53,0,0,1,.33-.92,2.45,2.45,0,0,1,.92-.7,3.1,3.1,0,0,1,1.27-.25,2.51,2.51,0,0,1,1.71.54,2,2,0,0,1,.65,1.51v2.92a3.55,3.55,0,0,0,.22,1.39v.09Zm-1.8-.82a1.87,1.87,0,0,0,1-.27,1.49,1.49,0,0,0,.66-.68v-1.3h-.85c-1.32,0-2,.39-2,1.16a1,1,0,0,0,.34.8A1.32,1.32,0,0,0,462.12,244.8Z"/><path class="cls-7" d="M467.71,245.62h-1.08v-9h1.08Z"/><path class="cls-7" d="M473.36,245a2.31,2.31,0,0,1-1.85.74,2,2,0,0,1-1.55-.59,2.53,2.53,0,0,1-.53-1.74v-4.13h1.08v4.1q0,1.44,1.17,1.44a1.61,1.61,0,0,0,1.65-.93v-4.61h1.09v6.34h-1Z"/><path class="cls-7" d="M478.7,245.74a2.76,2.76,0,0,1-2.1-.85,3.13,3.13,0,0,1-.81-2.26v-.2a3.77,3.77,0,0,1,.36-1.68,2.73,2.73,0,0,1,1-1.16,2.52,2.52,0,0,1,1.4-.42,2.37,2.37,0,0,1,1.92.81,3.5,3.5,0,0,1,.69,2.33v.45h-4.3a2.29,2.29,0,0,0,.55,1.52,1.73,1.73,0,0,0,1.33.58,1.87,1.87,0,0,0,1-.24,2.53,2.53,0,0,0,.69-.62l.67.52A2.68,2.68,0,0,1,478.7,245.74Zm-.14-5.68a1.47,1.47,0,0,0-1.1.47,2.32,2.32,0,0,0-.55,1.34h3.17v-.08a2.08,2.08,0,0,0-.44-1.28A1.38,1.38,0,0,0,478.56,240.06Z"/><path class="cls-7" d="M485.11,242.39a3.76,3.76,0,0,1,.36-1.67,2.68,2.68,0,0,1,2.51-1.55,2.67,2.67,0,0,1,2.1.89,3.49,3.49,0,0,1,.8,2.39v.07a3.71,3.71,0,0,1-.36,1.66,2.63,2.63,0,0,1-1,1.15,2.86,2.86,0,0,1-1.52.41,2.64,2.64,0,0,1-2.08-.9,3.37,3.37,0,0,1-.8-2.37Zm1.09.13a2.76,2.76,0,0,0,.48,1.7,1.66,1.66,0,0,0,2.63,0,3,3,0,0,0,.48-1.82,2.73,2.73,0,0,0-.49-1.69,1.58,1.58,0,0,0-1.32-.64,1.55,1.55,0,0,0-1.29.64A2.9,2.9,0,0,0,486.2,242.52Z"/><path class="cls-7" d="M492.77,245.62v-5.5h-1v-.84h1v-.65a2.15,2.15,0,0,1,.54-1.57,2.09,2.09,0,0,1,1.55-.56,2.69,2.69,0,0,1,.74.1l-.06.87a3.58,3.58,0,0,0-.58-.05,1,1,0,0,0-.82.31,1.24,1.24,0,0,0-.29.88v.67h1.36v.84h-1.36v5.5Z"/><path class="cls-7" d="M500.84,237.75v1.53H502v.84h-1.19v3.94a.92.92,0,0,0,.16.57.67.67,0,0,0,.54.19,2.41,2.41,0,0,0,.52-.07v.87a3.15,3.15,0,0,1-.84.12,1.36,1.36,0,0,1-1.09-.44,1.87,1.87,0,0,1-.37-1.25v-3.93h-1.15v-.84h1.15v-1.53Z"/><path class="cls-7" d="M504.38,240.05a2.29,2.29,0,0,1,1.87-.88c1.34,0,2,.75,2,2.26v4.19H507.2v-4.19a1.48,1.48,0,0,0-.32-1,1.28,1.28,0,0,0-1-.32,1.52,1.52,0,0,0-.92.28,1.8,1.8,0,0,0-.62.74v4.51h-1.09v-9h1.09Z"/><path class="cls-7" d="M512.53,245.74a2.72,2.72,0,0,1-2.09-.85,3.13,3.13,0,0,1-.81-2.26v-.2a3.77,3.77,0,0,1,.36-1.68,2.67,2.67,0,0,1,1-1.16,2.5,2.5,0,0,1,1.4-.42,2.39,2.39,0,0,1,1.92.81,3.5,3.5,0,0,1,.69,2.33v.45h-4.3a2.29,2.29,0,0,0,.55,1.52,1.73,1.73,0,0,0,1.33.58,1.84,1.84,0,0,0,1-.24,2.43,2.43,0,0,0,.7-.62l.66.52A2.66,2.66,0,0,1,512.53,245.74Zm-.13-5.68a1.45,1.45,0,0,0-1.1.47,2.32,2.32,0,0,0-.55,1.34h3.17v-.08a2.08,2.08,0,0,0-.44-1.28A1.38,1.38,0,0,0,512.4,240.06Z"/><path class="cls-7" d="M397.81,257.09l-.68.71V260H396v-9h1.09v5.45l.58-.7,2-2.09H401l-2.47,2.65,2.76,3.69H400Z"/><path class="cls-7" d="M403.14,253.68l0,.8a2.3,2.3,0,0,1,1.9-.91c1.34,0,2,.75,2,2.26V260H406v-4.19a1.48,1.48,0,0,0-.31-1,1.27,1.27,0,0,0-1-.32,1.57,1.57,0,0,0-.93.28,1.92,1.92,0,0,0-.62.73V260h-1.08v-6.34Z"/><path class="cls-7" d="M408.45,256.79a3.76,3.76,0,0,1,.37-1.67,2.66,2.66,0,0,1,1-1.15,2.75,2.75,0,0,1,1.49-.4,2.65,2.65,0,0,1,2.09.89,3.42,3.42,0,0,1,.8,2.39v.07a3.71,3.71,0,0,1-.35,1.66,2.7,2.7,0,0,1-1,1.15,2.86,2.86,0,0,1-1.52.41,2.67,2.67,0,0,1-2.09-.9,3.43,3.43,0,0,1-.8-2.37Zm1.09.13a2.77,2.77,0,0,0,.49,1.7,1.58,1.58,0,0,0,1.31.63,1.55,1.55,0,0,0,1.31-.64,2.94,2.94,0,0,0,.49-1.82,2.73,2.73,0,0,0-.49-1.69,1.58,1.58,0,0,0-1.32-.64,1.54,1.54,0,0,0-1.29.63A3,3,0,0,0,409.54,256.92Z"/><path class="cls-7" d="M417.05,252.15v1.53h1.19v.84h-1.19v3.94a.92.92,0,0,0,.16.57.67.67,0,0,0,.54.19,2.41,2.41,0,0,0,.52-.07V260a3.08,3.08,0,0,1-.83.12,1.37,1.37,0,0,1-1.1-.44,1.87,1.87,0,0,1-.37-1.25v-3.93h-1.15v-.84H416v-1.53Z"/><line class="cls-2" x1="510.41" y1="75.09" x2="510.41" y2="183.65"/><path class="cls-7" d="M607.89,199.82h-3.58v3.76h-1.13v-8.53h5.29V196h-4.16v2.93h3.58Z"/><path class="cls-7" d="M609.65,195.56a.64.64,0,1,1,1.28,0,.64.64,0,1,1-1.28,0Zm1.17,8h-1.08v-6.34h1.08Z"/><path class="cls-7" d="M612.3,200.36A3.78,3.78,0,0,1,613,198a2.21,2.21,0,0,1,1.82-.87,2.17,2.17,0,0,1,1.81.82l0-.71h1v6.19a2.56,2.56,0,0,1-.73,1.94,2.69,2.69,0,0,1-2,.71,3.37,3.37,0,0,1-1.34-.29,2.33,2.33,0,0,1-1-.81l.56-.65a2.12,2.12,0,0,0,1.71.86,1.63,1.63,0,0,0,1.23-.44,1.69,1.69,0,0,0,.44-1.25V203a2.21,2.21,0,0,1-1.77.75,2.16,2.16,0,0,1-1.8-.9A3.89,3.89,0,0,1,612.3,200.36Zm1.09.12a2.8,2.8,0,0,0,.44,1.69,1.41,1.41,0,0,0,1.23.61,1.58,1.58,0,0,0,1.5-.93V199a1.6,1.6,0,0,0-1.49-.9,1.44,1.44,0,0,0-1.24.61A3.15,3.15,0,0,0,613.39,200.48Z"/><path class="cls-7" d="M623.2,203a2.32,2.32,0,0,1-1.86.74,2,2,0,0,1-1.54-.59,2.58,2.58,0,0,1-.54-1.74v-4.13h1.09v4.1q0,1.44,1.17,1.44a1.61,1.61,0,0,0,1.65-.93v-4.61h1.09v6.34h-1Z"/><path class="cls-7" d="M629,198.22a3,3,0,0,0-.54-.05,1.42,1.42,0,0,0-1.44.91v4.5H625.9v-6.34H627l0,.74a1.66,1.66,0,0,1,1.51-.85,1,1,0,0,1,.48.08Z"/><path class="cls-7" d="M632.48,203.7a2.72,2.72,0,0,1-2.09-.85,3.13,3.13,0,0,1-.81-2.26v-.2a3.77,3.77,0,0,1,.36-1.68,2.67,2.67,0,0,1,1-1.16,2.5,2.5,0,0,1,1.4-.42,2.39,2.39,0,0,1,1.92.81,3.5,3.5,0,0,1,.69,2.33v.45h-4.3a2.29,2.29,0,0,0,.55,1.52,1.73,1.73,0,0,0,1.33.58,1.84,1.84,0,0,0,1-.24,2.43,2.43,0,0,0,.7-.62l.66.52A2.66,2.66,0,0,1,632.48,203.7Zm-.13-5.68a1.45,1.45,0,0,0-1.1.47,2.32,2.32,0,0,0-.55,1.34h3.17v-.08a2.08,2.08,0,0,0-.44-1.28A1.38,1.38,0,0,0,632.35,198Z"/><path class="cls-7" d="M638.47,200.4h-2.86v-.88h2.86Z"/><path class="cls-7" d="M644.51,199.64h-3.69v3h4.29v.92h-5.42v-8.53h5.36V196h-4.23v2.75h3.69Z"/><path class="cls-7" d="M646.35,195.56a.63.63,0,0,1,.16-.44.61.61,0,0,1,.48-.19.6.6,0,0,1,.64.63.59.59,0,0,1-.64.62.6.6,0,0,1-.48-.18A.61.61,0,0,1,646.35,195.56Zm1.17,8h-1.09v-6.34h1.09Z"/><path class="cls-7" d="M649,200.36a3.72,3.72,0,0,1,.68-2.36,2.37,2.37,0,0,1,3.63-.05l.05-.71h1v6.19a2.56,2.56,0,0,1-.73,1.94,2.71,2.71,0,0,1-2,.71,3.33,3.33,0,0,1-1.34-.29,2.33,2.33,0,0,1-1-.81l.56-.65a2.09,2.09,0,0,0,1.7.86,1.67,1.67,0,0,0,1.24-.44,1.73,1.73,0,0,0,.44-1.25V203a2.21,2.21,0,0,1-1.77.75,2.17,2.17,0,0,1-1.81-.9A3.89,3.89,0,0,1,649,200.36Zm1.08.12a2.88,2.88,0,0,0,.44,1.69,1.44,1.44,0,0,0,1.23.61,1.59,1.59,0,0,0,1.51-.93V199a1.6,1.6,0,0,0-1.49-.9,1.44,1.44,0,0,0-1.24.61A3.07,3.07,0,0,0,650.08,200.48Z"/><path class="cls-7" d="M657.07,198a2.29,2.29,0,0,1,1.87-.88c1.34,0,2,.75,2,2.26v4.19h-1.08v-4.19a1.48,1.48,0,0,0-.32-1,1.27,1.27,0,0,0-1-.32,1.55,1.55,0,0,0-.93.28,1.8,1.8,0,0,0-.62.74v4.51H656v-9h1.08Z"/><path class="cls-7" d="M664.07,195.71v1.53h1.18v.84h-1.18V202a.92.92,0,0,0,.15.57.67.67,0,0,0,.54.19,2.41,2.41,0,0,0,.52-.07v.87a3.08,3.08,0,0,1-.83.12,1.37,1.37,0,0,1-1.1-.44A1.87,1.87,0,0,1,663,202v-3.93h-1.15v-.84H663v-1.53Z"/><path class="cls-7" d="M671.82,199.62l-1,1.08v2.88h-1.12v-8.53h1.12v4.22l3.79-4.22h1.36l-3.36,3.77,3.62,4.76h-1.34Z"/><path class="cls-7" d="M677.9,197.24l0,.8a2.32,2.32,0,0,1,1.9-.91c1.34,0,2,.75,2,2.26v4.19h-1.08v-4.19a1.48,1.48,0,0,0-.32-1,1.28,1.28,0,0,0-1-.32,1.52,1.52,0,0,0-.92.28,1.8,1.8,0,0,0-.62.74v4.51h-1.09v-6.34Z"/><path class="cls-7" d="M683.21,200.35a3.76,3.76,0,0,1,.36-1.67,2.68,2.68,0,0,1,2.51-1.55,2.66,2.66,0,0,1,2.1.89,3.49,3.49,0,0,1,.8,2.39v.07a3.71,3.71,0,0,1-.36,1.66,2.63,2.63,0,0,1-1,1.15,2.82,2.82,0,0,1-1.51.41,2.66,2.66,0,0,1-2.09-.9,3.37,3.37,0,0,1-.8-2.37Zm1.09.13a2.7,2.7,0,0,0,.49,1.7,1.65,1.65,0,0,0,2.62,0,3,3,0,0,0,.49-1.82,2.74,2.74,0,0,0-.5-1.69,1.58,1.58,0,0,0-1.32-.64,1.55,1.55,0,0,0-1.29.64A2.9,2.9,0,0,0,684.3,200.48Z"/><path class="cls-7" d="M691.81,195.71v1.53H693v.84h-1.18V202a.86.86,0,0,0,.16.57.64.64,0,0,0,.54.19,2.41,2.41,0,0,0,.51-.07v.87a3,3,0,0,1-.83.12,1.38,1.38,0,0,1-1.1-.44,1.92,1.92,0,0,1-.36-1.25v-3.93h-1.16v-.84h1.16v-1.53Z"/><path class="cls-7" d="M697.19,200.12a9.27,9.27,0,0,1,.35-2.54,7.46,7.46,0,0,1,1.06-2.22,4.53,4.53,0,0,1,1.46-1.4l.22.71a4.67,4.67,0,0,0-1.4,2,8.5,8.5,0,0,0-.6,3v.5a8.76,8.76,0,0,0,.83,3.93,4.7,4.7,0,0,0,1.18,1.55l-.22.67a4.65,4.65,0,0,1-1.49-1.46A8.12,8.12,0,0,1,697.19,200.12Z"/><path class="cls-7" d="M706.32,199.64h-3.69v3h4.29v.92H701.5v-8.53h5.36V196h-4.23v2.75h3.69Z"/><path class="cls-7" d="M710.65,200.18a9,9,0,0,1-.34,2.5,7.54,7.54,0,0,1-1,2.22,4.65,4.65,0,0,1-1.48,1.44l-.23-.67a4.58,4.58,0,0,0,1.45-2.14,9,9,0,0,0,.56-3.23v-.19a9.8,9.8,0,0,0-.25-2.29,8.53,8.53,0,0,0-.72-1.9,4.37,4.37,0,0,0-1-1.3l.23-.66a4.51,4.51,0,0,1,1.48,1.43,7.42,7.42,0,0,1,1,2.2A9.06,9.06,0,0,1,710.65,200.18Z"/><path class="cls-7" d="M712.29,203a.63.63,0,0,1,.17-.46.61.61,0,0,1,.5-.19.62.62,0,0,1,.5.19.63.63,0,0,1,.18.46.62.62,0,0,1-.68.64.61.61,0,0,1-.67-.64Zm0-5.17a.7.7,0,0,1,.17-.47.65.65,0,0,1,.5-.19.62.62,0,0,1,.68.66.64.64,0,0,1-.17.45.69.69,0,0,1-.51.18.6.6,0,0,1-.67-.63Z"/><path class="cls-7" d="M603.77,208.87l.62.42a2.8,2.8,0,0,0-.56,1.61v.8h-1.08V211a2.71,2.71,0,0,1,.29-1.19A2.84,2.84,0,0,1,603.77,208.87Z"/><path class="cls-7" d="M610.4,214h-3.7v3H611V218h-5.42v-8.53h5.36v.92H606.7v2.75h3.7Z"/><path class="cls-7" d="M612.3,211.85l-.61-.42a2.82,2.82,0,0,0,.56-1.6V209h1.07v.77a2.89,2.89,0,0,1-1,2.1Z"/><path class="cls-7" d="M619.36,215.05l-.68.71V218H617.6v-9h1.08v5.45l.58-.7,2-2.09h1.32l-2.47,2.65,2.75,3.69h-1.27Z"/><path class="cls-7" d="M624.7,211.64l0,.8a2.29,2.29,0,0,1,1.9-.91c1.34,0,2,.75,2,2.26V218h-1.08v-4.19a1.48,1.48,0,0,0-.31-1,1.31,1.31,0,0,0-1-.32,1.57,1.57,0,0,0-.93.28,2,2,0,0,0-.62.74V218h-1.08v-6.34Z"/><path class="cls-7" d="M630,214.75a3.66,3.66,0,0,1,.37-1.67,2.66,2.66,0,0,1,1-1.15,2.75,2.75,0,0,1,1.49-.4,2.68,2.68,0,0,1,2.09.89,3.44,3.44,0,0,1,.8,2.39v.07a3.93,3.93,0,0,1-.35,1.67,2.69,2.69,0,0,1-1,1.14,2.82,2.82,0,0,1-1.51.41,2.66,2.66,0,0,1-2.09-.9,3.42,3.42,0,0,1-.8-2.37Zm1.09.13a2.7,2.7,0,0,0,.49,1.7,1.58,1.58,0,0,0,1.31.64,1.55,1.55,0,0,0,1.31-.65,2.94,2.94,0,0,0,.49-1.82,2.74,2.74,0,0,0-.5-1.69,1.57,1.57,0,0,0-1.31-.64,1.55,1.55,0,0,0-1.3.64A2.9,2.9,0,0,0,631.1,214.88Z"/><path class="cls-7" d="M638.61,210.11v1.53h1.19v.84h-1.19v3.94a.92.92,0,0,0,.16.57.67.67,0,0,0,.54.19,2.48,2.48,0,0,0,.52-.07V218a3.15,3.15,0,0,1-.84.12,1.34,1.34,0,0,1-1.09-.44,1.87,1.87,0,0,1-.37-1.25v-3.93h-1.16v-.84h1.16v-1.53Z"/><path class="cls-7" d="M644.75,216.3a.8.8,0,0,0-.33-.68,3.23,3.23,0,0,0-1.15-.42,5.77,5.77,0,0,1-1.31-.42,1.85,1.85,0,0,1-.71-.59,1.34,1.34,0,0,1-.24-.81,1.62,1.62,0,0,1,.66-1.31,2.58,2.58,0,0,1,1.69-.54,2.66,2.66,0,0,1,1.75.55,1.8,1.8,0,0,1,.67,1.43h-1.09a1,1,0,0,0-.38-.77,1.38,1.38,0,0,0-.95-.32,1.51,1.51,0,0,0-.93.25.83.83,0,0,0-.33.68.65.65,0,0,0,.31.59,3.91,3.91,0,0,0,1.12.38,6.39,6.39,0,0,1,1.32.43,2,2,0,0,1,.74.61,1.46,1.46,0,0,1,.25.87,1.63,1.63,0,0,1-.68,1.36,2.88,2.88,0,0,1-1.77.51,3.18,3.18,0,0,1-1.34-.27,2.21,2.21,0,0,1-.92-.75,1.81,1.81,0,0,1-.33-1.05h1.08a1.14,1.14,0,0,0,.44.87,1.7,1.7,0,0,0,1.07.32,1.81,1.81,0,0,0,1-.25A.77.77,0,0,0,644.75,216.3Z"/><path class="cls-7" d="M653.28,212.62a2.93,2.93,0,0,0-.53,0,1.44,1.44,0,0,0-1.45.9V218h-1.08v-6.34h1l0,.74a1.69,1.69,0,0,1,1.51-.85,1,1,0,0,1,.48.08Z"/><path class="cls-7" d="M656.8,218.1a2.76,2.76,0,0,1-2.1-.85,3.13,3.13,0,0,1-.81-2.26v-.2a3.77,3.77,0,0,1,.36-1.68,2.73,2.73,0,0,1,1-1.16,2.53,2.53,0,0,1,1.41-.42,2.39,2.39,0,0,1,1.92.81,3.56,3.56,0,0,1,.68,2.33v.45H655a2.24,2.24,0,0,0,.55,1.52,1.73,1.73,0,0,0,1.33.58,1.84,1.84,0,0,0,1-.24,2.29,2.29,0,0,0,.7-.62l.66.52A2.67,2.67,0,0,1,656.8,218.1Zm-.13-5.68a1.49,1.49,0,0,0-1.11.47,2.39,2.39,0,0,0-.55,1.34h3.18v-.08a2,2,0,0,0-.45-1.28A1.35,1.35,0,0,0,656.67,212.42Z"/><path class="cls-7" d="M665.88,214.88a3.82,3.82,0,0,1-.66,2.34,2.12,2.12,0,0,1-1.79.88,2.32,2.32,0,0,1-1.82-.73v3h-1.08v-8.78h1l.05.71a2.22,2.22,0,0,1,1.84-.82,2.16,2.16,0,0,1,1.81.86,3.84,3.84,0,0,1,.66,2.39Zm-1.08-.12a2.76,2.76,0,0,0-.46-1.69,1.45,1.45,0,0,0-1.25-.62,1.6,1.6,0,0,0-1.48.87v3a1.59,1.59,0,0,0,1.49.87,1.48,1.48,0,0,0,1.24-.62A3.12,3.12,0,0,0,664.8,214.76Z"/><path class="cls-7" d="M670.32,212.62a2.93,2.93,0,0,0-.53,0,1.44,1.44,0,0,0-1.45.9V218h-1.08v-6.34h1l0,.74a1.69,1.69,0,0,1,1.51-.85,1,1,0,0,1,.48.08Z"/><path class="cls-7" d="M673.84,218.1a2.76,2.76,0,0,1-2.1-.85,3.13,3.13,0,0,1-.81-2.26v-.2a3.77,3.77,0,0,1,.36-1.68,2.73,2.73,0,0,1,1-1.16,2.52,2.52,0,0,1,1.4-.42,2.39,2.39,0,0,1,1.93.81,3.56,3.56,0,0,1,.68,2.33v.45H672a2.23,2.23,0,0,0,.54,1.52,1.75,1.75,0,0,0,1.34.58,1.86,1.86,0,0,0,1-.24,2.29,2.29,0,0,0,.7-.62l.66.52A2.67,2.67,0,0,1,673.84,218.1Zm-.14-5.68a1.48,1.48,0,0,0-1.1.47,2.39,2.39,0,0,0-.55,1.34h3.18v-.08a2,2,0,0,0-.45-1.28A1.35,1.35,0,0,0,673.7,212.42Z"/><path class="cls-7" d="M681.26,216.3a.8.8,0,0,0-.33-.68,3.3,3.3,0,0,0-1.16-.42,5.94,5.94,0,0,1-1.31-.42,1.85,1.85,0,0,1-.71-.59,1.41,1.41,0,0,1-.23-.81,1.62,1.62,0,0,1,.66-1.31,2.57,2.57,0,0,1,1.68-.54,2.66,2.66,0,0,1,1.75.55,1.77,1.77,0,0,1,.67,1.43h-1.09a1,1,0,0,0-.38-.77,1.37,1.37,0,0,0-.95-.32,1.48,1.48,0,0,0-.92.25.82.82,0,0,0-.34.68.67.67,0,0,0,.31.59,3.88,3.88,0,0,0,1.13.38,6.27,6.27,0,0,1,1.31.43,2,2,0,0,1,.75.61,1.53,1.53,0,0,1,.24.87,1.63,1.63,0,0,1-.68,1.36,2.85,2.85,0,0,1-1.76.51,3.19,3.19,0,0,1-1.35-.27,2.21,2.21,0,0,1-.92-.75,1.81,1.81,0,0,1-.33-1.05h1.09a1.13,1.13,0,0,0,.43.87,1.71,1.71,0,0,0,1.08.32,1.75,1.75,0,0,0,1-.25A.78.78,0,0,0,681.26,216.3Z"/><path class="cls-7" d="M686.38,218.1a2.74,2.74,0,0,1-2.09-.85,3.13,3.13,0,0,1-.81-2.26v-.2a3.77,3.77,0,0,1,.36-1.68,2.67,2.67,0,0,1,1-1.16,2.52,2.52,0,0,1,1.4-.42,2.39,2.39,0,0,1,1.92.81,3.5,3.5,0,0,1,.69,2.33v.45h-4.3a2.29,2.29,0,0,0,.55,1.52,1.73,1.73,0,0,0,1.33.58,1.87,1.87,0,0,0,1-.24,2.37,2.37,0,0,0,.69-.62l.66.52A2.66,2.66,0,0,1,686.38,218.1Zm-.13-5.68a1.45,1.45,0,0,0-1.1.47,2.32,2.32,0,0,0-.55,1.34h3.17v-.08a2.08,2.08,0,0,0-.44-1.28A1.38,1.38,0,0,0,686.25,212.42Z"/><path class="cls-7" d="M691.14,211.64l0,.8a2.32,2.32,0,0,1,1.9-.91c1.34,0,2,.75,2,2.26V218H694v-4.19a1.48,1.48,0,0,0-.31-1,1.31,1.31,0,0,0-1-.32,1.52,1.52,0,0,0-.92.28,1.89,1.89,0,0,0-.63.74V218h-1.08v-6.34Z"/><path class="cls-7" d="M698.2,210.11v1.53h1.19v.84H698.2v3.94a.86.86,0,0,0,.16.57.67.67,0,0,0,.54.19,2.48,2.48,0,0,0,.52-.07V218a3.15,3.15,0,0,1-.84.12,1.34,1.34,0,0,1-1.09-.44,1.87,1.87,0,0,1-.37-1.25v-3.93H696v-.84h1.16v-1.53Z"/><path class="cls-7" d="M705.09,210.11v1.53h1.19v.84h-1.19v3.94a.92.92,0,0,0,.16.57.67.67,0,0,0,.54.19,2.41,2.41,0,0,0,.52-.07V218a3.15,3.15,0,0,1-.84.12,1.34,1.34,0,0,1-1.09-.44,1.87,1.87,0,0,1-.37-1.25v-3.93h-1.16v-.84H704v-1.53Z"/><path class="cls-7" d="M708.63,212.41a2.29,2.29,0,0,1,1.87-.88c1.34,0,2,.75,2,2.26V218h-1.09v-4.19a1.43,1.43,0,0,0-.31-1,1.28,1.28,0,0,0-1-.32,1.52,1.52,0,0,0-.92.28,1.79,1.79,0,0,0-.62.74V218h-1.09v-9h1.09Z"/><path class="cls-7" d="M716.78,218.1a2.76,2.76,0,0,1-2.1-.85,3.17,3.17,0,0,1-.8-2.26v-.2a3.77,3.77,0,0,1,.36-1.68,2.71,2.71,0,0,1,1-1.16,2.56,2.56,0,0,1,1.41-.42,2.39,2.39,0,0,1,1.92.81,3.5,3.5,0,0,1,.68,2.33v.45H715a2.29,2.29,0,0,0,.55,1.52,1.73,1.73,0,0,0,1.33.58,1.84,1.84,0,0,0,1-.24,2.29,2.29,0,0,0,.7-.62l.66.52A2.67,2.67,0,0,1,716.78,218.1Zm-.13-5.68a1.45,1.45,0,0,0-1.1.47,2.32,2.32,0,0,0-.55,1.34h3.17v-.08a2.08,2.08,0,0,0-.44-1.28A1.38,1.38,0,0,0,716.65,212.42Z"/><path class="cls-7" d="M604,226l0,.8a2.32,2.32,0,0,1,1.9-.91c1.34,0,2,.75,2,2.26v4.19h-1.09v-4.19a1.48,1.48,0,0,0-.31-1,1.29,1.29,0,0,0-1-.32,1.52,1.52,0,0,0-.92.28,1.82,1.82,0,0,0-.63.74v4.51H603V226Z"/><path class="cls-7" d="M613.55,231.76a2.35,2.35,0,0,1-1.86.74,2,2,0,0,1-1.55-.59,2.53,2.53,0,0,1-.53-1.74V226h1.08v4.1q0,1.44,1.17,1.44a1.64,1.64,0,0,0,1.66-.93V226h1.08v6.34h-1Z"/><path class="cls-7" d="M617.27,226l0,.71a2.32,2.32,0,0,1,1.88-.82,1.82,1.82,0,0,1,1.81,1,2.25,2.25,0,0,1,.82-.74,2.42,2.42,0,0,1,1.2-.28c1.39,0,2.1.73,2.12,2.2v4.25h-1.08V228.2a1.52,1.52,0,0,0-.31-1,1.41,1.41,0,0,0-1-.33,1.44,1.44,0,0,0-1,.36,1.42,1.42,0,0,0-.46,1v4.2h-1.09v-4.15a1.21,1.21,0,0,0-1.36-1.38,1.44,1.44,0,0,0-1.45.9v4.63h-1.09V226Z"/><path class="cls-7" d="M632.13,229.28a3.76,3.76,0,0,1-.67,2.34,2.12,2.12,0,0,1-1.79.88,2.21,2.21,0,0,1-1.86-.85l0,.73h-1v-9h1.09v3.36a2.2,2.2,0,0,1,1.81-.81,2.14,2.14,0,0,1,1.81.87,3.88,3.88,0,0,1,.66,2.39Zm-1.08-.12a2.88,2.88,0,0,0-.43-1.71,1.43,1.43,0,0,0-1.23-.6,1.58,1.58,0,0,0-1.54,1v2.74a1.63,1.63,0,0,0,1.55,1,1.39,1.39,0,0,0,1.21-.6A3.13,3.13,0,0,0,631.05,229.16Z"/><path class="cls-7" d="M636.13,232.5a2.76,2.76,0,0,1-2.1-.85,3.13,3.13,0,0,1-.81-2.26v-.2a3.85,3.85,0,0,1,.36-1.69,2.86,2.86,0,0,1,1-1.16,2.6,2.6,0,0,1,1.4-.41,2.39,2.39,0,0,1,1.93.81,3.56,3.56,0,0,1,.68,2.33v.45h-4.29a2.23,2.23,0,0,0,.54,1.52,1.75,1.75,0,0,0,1.34.58,1.86,1.86,0,0,0,1-.24,2.56,2.56,0,0,0,.7-.62l.66.52A2.67,2.67,0,0,1,636.13,232.5Zm-.14-5.68a1.48,1.48,0,0,0-1.1.47,2.32,2.32,0,0,0-.55,1.34h3.18v-.08a2,2,0,0,0-.45-1.28A1.35,1.35,0,0,0,636,226.82Z"/><path class="cls-7" d="M642.92,227a3,3,0,0,0-.53-.05,1.43,1.43,0,0,0-1.45.91v4.5h-1.09V226h1.06l0,.74a1.68,1.68,0,0,1,1.51-.85,1,1,0,0,1,.48.08Z"/><path class="cls-7" d="M650.34,232.38h-1.09v-7.22l-2.19.8v-1l3.11-1.17h.17Z"/><path class="cls-7" d="M653.59,234.08l-.62-.42a2.85,2.85,0,0,0,.58-1.58v-1h1.06V232a2.7,2.7,0,0,1-.29,1.18A2.86,2.86,0,0,1,653.59,234.08Z"/><path class="cls-7" d="M662.86,232.38a2.3,2.3,0,0,1-.15-.67,2.38,2.38,0,0,1-1.8.79,2.25,2.25,0,0,1-1.54-.53,1.71,1.71,0,0,1-.6-1.34,1.78,1.78,0,0,1,.75-1.54,3.52,3.52,0,0,1,2.12-.55h1.05V228a1.18,1.18,0,0,0-.34-.9,1.33,1.33,0,0,0-1-.34,1.62,1.62,0,0,0-1,.29.87.87,0,0,0-.39.71H658.9a1.53,1.53,0,0,1,.33-.92,2.45,2.45,0,0,1,.92-.7,3.1,3.1,0,0,1,1.27-.25,2.51,2.51,0,0,1,1.71.54,2,2,0,0,1,.65,1.51v2.92a3.55,3.55,0,0,0,.22,1.39v.09Zm-1.79-.82a1.84,1.84,0,0,0,1-.27,1.49,1.49,0,0,0,.66-.68v-1.3h-.85c-1.32,0-2,.39-2,1.16a1,1,0,0,0,.34.8A1.33,1.33,0,0,0,661.07,231.56Z"/><path class="cls-7" d="M666.5,226l0,.8a2.3,2.3,0,0,1,1.9-.91c1.34,0,2,.75,2,2.26v4.19h-1.08v-4.19a1.48,1.48,0,0,0-.31-1,1.31,1.31,0,0,0-1-.32,1.57,1.57,0,0,0-.93.28,1.88,1.88,0,0,0-.62.74v4.51h-1.08V226Z"/><path class="cls-7" d="M671.83,229.16a3.75,3.75,0,0,1,.7-2.35,2.36,2.36,0,0,1,3.57-.12v-3.31h1.08v9h-1l-.05-.68a2.23,2.23,0,0,1-1.81.8,2.16,2.16,0,0,1-1.8-.9,3.78,3.78,0,0,1-.7-2.36Zm1.09.12a2.88,2.88,0,0,0,.44,1.69,1.44,1.44,0,0,0,1.23.61,1.59,1.59,0,0,0,1.51-.93v-2.91a1.58,1.58,0,0,0-1.49-.89,1.46,1.46,0,0,0-1.25.61A3.15,3.15,0,0,0,672.92,229.28Z"/><path class="cls-7" d="M681.57,229.16a3.75,3.75,0,0,1,.69-2.35,2.21,2.21,0,0,1,1.82-.88,2.18,2.18,0,0,1,1.76.76v-3.31h1.08v9h-1l-.06-.68a2.2,2.2,0,0,1-1.81.8,2.16,2.16,0,0,1-1.79-.9,3.72,3.72,0,0,1-.7-2.36Zm1.09.12a2.88,2.88,0,0,0,.44,1.69,1.44,1.44,0,0,0,1.23.61,1.59,1.59,0,0,0,1.51-.93v-2.91a1.59,1.59,0,0,0-1.5-.89,1.44,1.44,0,0,0-1.24.61A3.15,3.15,0,0,0,682.66,229.28Z"/><path class="cls-7" d="M688.32,229.15a3.76,3.76,0,0,1,.36-1.67,2.68,2.68,0,0,1,2.51-1.55,2.66,2.66,0,0,1,2.1.89,3.47,3.47,0,0,1,.8,2.39v.07a3.71,3.71,0,0,1-.36,1.66,2.63,2.63,0,0,1-1,1.15,2.82,2.82,0,0,1-1.51.41,2.66,2.66,0,0,1-2.09-.9,3.39,3.39,0,0,1-.8-2.37Zm1.09.13a2.7,2.7,0,0,0,.49,1.7,1.65,1.65,0,0,0,2.62,0,3,3,0,0,0,.48-1.82,2.73,2.73,0,0,0-.49-1.69,1.58,1.58,0,0,0-1.32-.64,1.55,1.55,0,0,0-1.29.64A2.9,2.9,0,0,0,689.41,229.28Z"/><path class="cls-7" d="M696.47,226l0,.8a2.3,2.3,0,0,1,1.9-.91c1.34,0,2,.75,2,2.26v4.19h-1.08v-4.19a1.48,1.48,0,0,0-.31-1,1.31,1.31,0,0,0-1-.32,1.57,1.57,0,0,0-.93.28,1.88,1.88,0,0,0-.62.74v4.51h-1.08V226Z"/><path class="cls-7" d="M701.68,226.25l-.62-.42a2.82,2.82,0,0,0,.56-1.6v-.85h1.08v.76a2.77,2.77,0,0,1-.29,1.17A2.69,2.69,0,0,1,701.68,226.25Z"/><path class="cls-7" d="M705.47,224.51V226h1.18v.84h-1.18v3.94a.86.86,0,0,0,.16.57.64.64,0,0,0,.54.19,2.41,2.41,0,0,0,.51-.07v.87a3,3,0,0,1-.83.12,1.37,1.37,0,0,1-1.1-.44,1.92,1.92,0,0,1-.37-1.25v-3.93h-1.15V226h1.15v-1.53Z"/><path class="cls-7" d="M713.43,231.62a1.51,1.51,0,0,0,1-.36,1.21,1.21,0,0,0,.48-.88h1a2,2,0,0,1-.37,1,2.57,2.57,0,0,1-.93.79,2.71,2.71,0,0,1-1.22.29,2.63,2.63,0,0,1-2.06-.86,3.46,3.46,0,0,1-.76-2.37v-.18a3.77,3.77,0,0,1,.34-1.65,2.59,2.59,0,0,1,1-1.12,2.84,2.84,0,0,1,1.5-.39,2.57,2.57,0,0,1,1.78.63,2.29,2.29,0,0,1,.75,1.66h-1a1.49,1.49,0,0,0-.46-1,1.48,1.48,0,0,0-1-.39,1.51,1.51,0,0,0-1.28.59,2.82,2.82,0,0,0-.45,1.72v.21a2.71,2.71,0,0,0,.45,1.68A1.52,1.52,0,0,0,713.43,231.62Z"/><path class="cls-7" d="M716.88,229.15a3.63,3.63,0,0,1,.37-1.67,2.66,2.66,0,0,1,1-1.15,2.75,2.75,0,0,1,1.49-.4,2.65,2.65,0,0,1,2.09.89,3.42,3.42,0,0,1,.8,2.39v.07a3.71,3.71,0,0,1-.35,1.66,2.76,2.76,0,0,1-1,1.15,2.86,2.86,0,0,1-1.52.41,2.66,2.66,0,0,1-2.09-.9,3.43,3.43,0,0,1-.8-2.37Zm1.09.13a2.7,2.7,0,0,0,.49,1.7,1.58,1.58,0,0,0,1.31.64,1.55,1.55,0,0,0,1.31-.65,2.94,2.94,0,0,0,.49-1.82,2.74,2.74,0,0,0-.5-1.69,1.65,1.65,0,0,0-2.61,0A3,3,0,0,0,718,229.28Z"/><path class="cls-7" d="M725,226l0,.71a2.34,2.34,0,0,1,1.88-.82,1.81,1.81,0,0,1,1.81,1,2.28,2.28,0,0,1,.83-.74,2.35,2.35,0,0,1,1.19-.28c1.4,0,2.1.73,2.13,2.2v4.25h-1.09V228.2a1.47,1.47,0,0,0-.31-1,1.38,1.38,0,0,0-1-.33,1.43,1.43,0,0,0-1,.36,1.47,1.47,0,0,0-.47,1v4.2H727.9v-4.15a1.21,1.21,0,0,0-1.35-1.38,1.45,1.45,0,0,0-1.46.9v4.63H724V226Z"/><path class="cls-7" d="M737.16,232.5a2.76,2.76,0,0,1-2.1-.85,3.13,3.13,0,0,1-.81-2.26v-.2a3.85,3.85,0,0,1,.37-1.69,2.83,2.83,0,0,1,1-1.16,2.61,2.61,0,0,1,1.41-.41,2.39,2.39,0,0,1,1.92.81,3.5,3.5,0,0,1,.68,2.33v.45h-4.29a2.24,2.24,0,0,0,.55,1.52,1.73,1.73,0,0,0,1.33.58,1.84,1.84,0,0,0,1-.24,2.43,2.43,0,0,0,.7-.62l.66.52A2.67,2.67,0,0,1,737.16,232.5Zm-.13-5.68a1.49,1.49,0,0,0-1.11.47,2.39,2.39,0,0,0-.55,1.34h3.18v-.08a2,2,0,0,0-.45-1.28A1.35,1.35,0,0,0,737,226.82Z"/><path class="cls-7" d="M603,238.76a.63.63,0,0,1,.16-.44.61.61,0,0,1,.48-.19.6.6,0,0,1,.64.63.59.59,0,0,1-.64.62.6.6,0,0,1-.48-.18A.61.61,0,0,1,603,238.76Zm1.17,8H603.1v-6.34h1.09Z"/><path class="cls-7" d="M607,240.44l0,.8a2.32,2.32,0,0,1,1.9-.91c1.34,0,2,.75,2,2.26v4.19h-1.08v-4.19a1.48,1.48,0,0,0-.32-1,1.28,1.28,0,0,0-1-.32,1.52,1.52,0,0,0-.92.28,1.8,1.8,0,0,0-.62.74v4.51h-1.09v-6.34Z"/><path class="cls-7" d="M618.06,246a1.54,1.54,0,0,0,1-.36,1.21,1.21,0,0,0,.48-.87h1a2,2,0,0,1-.38,1,2.53,2.53,0,0,1-.92.79,2.74,2.74,0,0,1-1.22.29A2.62,2.62,0,0,1,616,246a3.47,3.47,0,0,1-.77-2.37v-.18a3.92,3.92,0,0,1,.34-1.65,2.61,2.61,0,0,1,1-1.12,2.79,2.79,0,0,1,1.5-.39,2.56,2.56,0,0,1,1.77.63,2.3,2.3,0,0,1,.76,1.66h-1a1.49,1.49,0,0,0-.46-1,1.48,1.48,0,0,0-1-.39,1.53,1.53,0,0,0-1.28.59,2.82,2.82,0,0,0-.45,1.72v.21a2.71,2.71,0,0,0,.45,1.68A1.52,1.52,0,0,0,618.06,246Z"/><path class="cls-7" d="M623,246.78h-1.08v-9H623Z"/><path class="cls-7" d="M628.62,246.16a2.32,2.32,0,0,1-1.86.74,2,2,0,0,1-1.54-.59,2.58,2.58,0,0,1-.54-1.74v-4.13h1.09v4.1q0,1.44,1.17,1.44a1.61,1.61,0,0,0,1.65-.93v-4.61h1.09v6.34h-1Z"/><path class="cls-7" d="M635,245.1a.8.8,0,0,0-.33-.68,3.23,3.23,0,0,0-1.15-.42,5.77,5.77,0,0,1-1.31-.42,1.85,1.85,0,0,1-.71-.59,1.34,1.34,0,0,1-.23-.81,1.62,1.62,0,0,1,.66-1.31,2.57,2.57,0,0,1,1.68-.54,2.66,2.66,0,0,1,1.75.55,1.77,1.77,0,0,1,.67,1.43H635a1,1,0,0,0-.38-.77,1.38,1.38,0,0,0-1-.32,1.53,1.53,0,0,0-.93.25.83.83,0,0,0-.33.68.65.65,0,0,0,.31.59,3.91,3.91,0,0,0,1.12.38,6.39,6.39,0,0,1,1.32.43,2,2,0,0,1,.75.61,1.53,1.53,0,0,1,.24.87,1.63,1.63,0,0,1-.68,1.36,2.85,2.85,0,0,1-1.76.51,3.19,3.19,0,0,1-1.35-.27,2.21,2.21,0,0,1-.92-.75,1.81,1.81,0,0,1-.33-1h1.08a1.14,1.14,0,0,0,.44.87,1.71,1.71,0,0,0,1.08.32,1.78,1.78,0,0,0,1-.25A.77.77,0,0,0,635,245.1Z"/><path class="cls-7" d="M639,238.91v1.53h1.19v.84H639v3.94a.86.86,0,0,0,.16.57.66.66,0,0,0,.54.19,2.33,2.33,0,0,0,.51-.07v.87a3,3,0,0,1-.83.12,1.34,1.34,0,0,1-1.09-.44,1.87,1.87,0,0,1-.37-1.25v-3.93h-1.16v-.84h1.16v-1.53Z"/><path class="cls-7" d="M644.06,246.9a2.76,2.76,0,0,1-2.1-.85,3.12,3.12,0,0,1-.8-2.26v-.2a3.77,3.77,0,0,1,.36-1.68,2.71,2.71,0,0,1,1-1.16,2.56,2.56,0,0,1,1.41-.42,2.39,2.39,0,0,1,1.92.81,3.5,3.5,0,0,1,.68,2.33v.45h-4.29a2.24,2.24,0,0,0,.55,1.52,1.73,1.73,0,0,0,1.33.58,1.84,1.84,0,0,0,1-.24,2.29,2.29,0,0,0,.7-.62l.66.52A2.67,2.67,0,0,1,644.06,246.9Zm-.13-5.68a1.45,1.45,0,0,0-1.1.47,2.32,2.32,0,0,0-.56,1.34h3.18V243a2,2,0,0,0-.45-1.28A1.35,1.35,0,0,0,643.93,241.22Z"/><path class="cls-7" d="M650.85,241.42a2.93,2.93,0,0,0-.53,0,1.44,1.44,0,0,0-1.45.9v4.5h-1.08v-6.34h1.05l0,.74a1.69,1.69,0,0,1,1.51-.85,1,1,0,0,1,.48.08Z"/><path class="cls-7" d="M655.54,245.1a.8.8,0,0,0-.33-.68,3.3,3.3,0,0,0-1.16-.42,5.84,5.84,0,0,1-1.3-.42A2,2,0,0,1,652,243a1.41,1.41,0,0,1-.23-.81,1.62,1.62,0,0,1,.66-1.31,2.58,2.58,0,0,1,1.69-.54,2.63,2.63,0,0,1,1.74.55,1.78,1.78,0,0,1,.68,1.43h-1.09a1,1,0,0,0-.38-.77,1.38,1.38,0,0,0-1-.32,1.49,1.49,0,0,0-.93.25.83.83,0,0,0-.33.68.65.65,0,0,0,.31.59,3.79,3.79,0,0,0,1.12.38,6.08,6.08,0,0,1,1.31.43,1.88,1.88,0,0,1,.75.61,1.53,1.53,0,0,1,.24.87,1.61,1.61,0,0,1-.68,1.36,2.85,2.85,0,0,1-1.76.51,3.19,3.19,0,0,1-1.35-.27,2.18,2.18,0,0,1-.91-.75,1.83,1.83,0,0,1-.34-1h1.09a1.11,1.11,0,0,0,.44.87,1.7,1.7,0,0,0,1.07.32,1.81,1.81,0,0,0,1-.25A.77.77,0,0,0,655.54,245.1Z"/><line class="cls-2" x1="726.01" y1="74.81" x2="726.01" y2="183.37"/><ellipse class="cls-7" cx="299.57" cy="131.26" rx="2.79" ry="2.81"/><ellipse class="cls-7" cx="299.57" cy="124.08" rx="2.79" ry="2.81"/><path class="cls-2" d="M313.36,128.08c9.71-.26,16.21-8.6,17.92-17.56"/><path class="cls-2" d="M312.58,128.43l5.75,2.83"/><line class="cls-2" x1="312.46" y1="128.75" x2="318.99" y2="123.7"/><text class="cls-8" transform="translate(315.72 77.88)">2s in the tens <tspan x="0" y="13.2">place = 20</tspan></text><path class="cls-6" d="M431.57,65.11c.05,17.12-1.41,34.18-2.88,51.22-.3,3.41-.6,6.83-1,10.24-.41,3.8-1,7.58-1.09,11.41-.16,7.71,2.32,17,9.7,20.78a11.16,11.16,0,0,0,12.34-1.22c3.75-2.95,5.77-7.51,6.82-12.06a106.23,106.23,0,0,0,2-15.6,158.68,158.68,0,0,0,.46-16.17,136.44,136.44,0,0,0-1.35-16c-.7-4.83-1.46-9.94-3.27-14.51a15.9,15.9,0,0,0-3.5-5.68,12,12,0,0,0-6.33-3.08,34.57,34.57,0,0,0-12.17-.3,12.38,12.38,0,0,0-9.07,6.33,16.29,16.29,0,0,0-.72,11A9.69,9.69,0,0,0,424.11,96c2.33,2.21,5.87-1.31,3.53-3.53a6.09,6.09,0,0,1-1.43-3.31,14.6,14.6,0,0,1-.13-4A6.69,6.69,0,0,1,431,79.35c3.09-.95,6.45-.7,9.67-.32,1.73.2,3.7.45,5.13,1.54a9.67,9.67,0,0,1,2.88,4.3,64.11,64.11,0,0,1,3,13.22A124.32,124.32,0,0,1,453,112.52a143.63,143.63,0,0,1-1.8,29.22c-.69,4-1.8,8.25-4.78,11.19a6.37,6.37,0,0,1-8.41,1c-5.8-3.73-6.62-11.67-6.25-17.78s1.33-12.51,1.88-18.74c1.3-15,2.66-29.94,2.92-44.95q.06-3.66.05-7.34c0-3.21-5-3.22-5,0Z"/><path class="cls-6" d="M436,98.18c1.37,1.87,2.55,5.41.31,7.13-1.16.89-2.82,1.15-4.16,1.64a25.93,25.93,0,0,0-4.84,2.24c-5.14,3.19-11.6,12.72-5.61,18a2.55,2.55,0,0,0,3.54,0,2.52,2.52,0,0,0,0-3.53c-2.11-1.86.09-5.23,1.37-7.16,1.69-2.53,4.6-4,7.39-4.93,3.45-1.19,6.71-2.34,8-6.08a11.11,11.11,0,0,0-1.71-9.84,2.58,2.58,0,0,0-3.42-.9,2.53,2.53,0,0,0-.9,3.42Z"/><path class="cls-6" d="M440.66,152.21a24.86,24.86,0,0,0,2.57-4.29,4.15,4.15,0,0,1,.94-1.36s.58-.39.59-.32-.75.08-.42-.2c.12-.11.3,1,.31,1.09.09.8.07,1.62.09,2.42.05,1.95.06,3.89,0,5.84a132.13,132.13,0,0,1-2.36,22.7,2.57,2.57,0,0,0,1.75,3.08,2.53,2.53,0,0,0,3.07-1.75,139.9,139.9,0,0,0,2.56-27.92c0-3.61.32-10-4.78-10.24a6.22,6.22,0,0,0-4.88,2.32c-1.29,1.53-1.74,3.58-3,5.09a2.58,2.58,0,0,0,0,3.54,2.53,2.53,0,0,0,3.54,0Z"/><path class="cls-6" d="M432.9,134.21c1.11.87,2.55,2.11,2.7,3.62-.05-.18-.06-.11,0,.2,0-.2,0-.15-.07.16.12-.21,0,0-.16.12a8.07,8.07,0,0,1-2.23,1.4,32.52,32.52,0,0,0-4.81,2.18,13,13,0,0,0-4.27,4.26,11.44,11.44,0,0,0-.72,10.08c1.51,3.42,5.38,4.47,8.72,3.15a2.58,2.58,0,0,0,1.75-3.08,2.52,2.52,0,0,0-3.07-1.75,2.87,2.87,0,0,1-2.42.25c-.68-.37-.83-1.91-.81-2.88.06-2.82,1.74-4.9,4.27-6.25,3-1.62,7.1-2.29,8.47-5.89,1.3-3.44-1.17-7.06-3.78-9.11a2.59,2.59,0,0,0-3.54,0,2.53,2.53,0,0,0,0,3.54Z"/><circle class="cls-9" cx="510.46" cy="170.97" r="3.5"/><text class="cls-8" transform="translate(527.74 119.87)">4L in the ones <tspan x="0" y="13.2">place = 4</tspan></text><path class="cls-6" d="M643.68,102.32A59.44,59.44,0,0,0,635,123.73c-1.41,7.3-2.51,16.31,2.49,22.51a49.6,49.6,0,0,0,4.11,4.22,38.92,38.92,0,0,0,4.41,4c3.45,2.48,7.82,1.58,11.28-.39,6.18-3.52,9.9-10.38,11.1-17.22a50.1,50.1,0,0,0,.21-14.05c-.43-3.91-.87-8.34-4-11.09a2.55,2.55,0,0,0-3.53,0,2.5,2.5,0,0,0,0,3.53c2.09,1.82,2.27,5,2.56,7.56a52.57,52.57,0,0,1,.24,10.64c-.53,5.69-2.8,11.68-7.46,15.25-1.9,1.47-5,3.23-7.34,1.79a20.44,20.44,0,0,1-3.39-3.06c-1.28-1.25-2.61-2.47-3.82-3.79a12.11,12.11,0,0,1-2.93-8.28,48,48,0,0,1,.84-9.87,56,56,0,0,1,8.3-20.65c1.78-2.7-2.55-5.2-4.31-2.52Z"/><path class="cls-6" d="M660,107.09c-2.06-5.94-7.45-8.46-12-12.13-2-1.57-4-3.55-4.63-6.09a7.11,7.11,0,0,1,.37-3.87,9.06,9.06,0,0,1,2-3.86c2.31-2.25-1.23-5.78-3.53-3.53a12.2,12.2,0,0,0-2.73,4.61,15,15,0,0,0-1.2,5.52,13.13,13.13,0,0,0,4,8.7c2.19,2.32,4.91,4,7.5,5.83,2.23,1.58,4.58,3.48,5.51,6.15a2.56,2.56,0,0,0,3.08,1.75,2.53,2.53,0,0,0,1.74-3.08Z"/><path class="cls-6" d="M655.43,83.67c1.51.21,2.27,1.25,2.91,2.79a27.52,27.52,0,0,1,1.42,5.65,47.25,47.25,0,0,1,.74,13.37A21.9,21.9,0,0,1,656,117a60.92,60.92,0,0,0-4.54,5.72,28.22,28.22,0,0,0-2.88,7.12c-1.55,5.43-3.31,11.57-1.14,17.08a2.57,2.57,0,0,0,3.07,1.75,2.52,2.52,0,0,0,1.75-3.08c-1.89-4.8-.12-10.14,1.26-14.85a20.2,20.2,0,0,1,3.11-6.74c1.54-2,3.37-3.82,4.76-6,5.36-8.25,4.83-18.84,3-28.09-.84-4.3-2.47-10.43-7.67-11.14a2.58,2.58,0,0,0-3.07,1.74c-.32,1.17.4,2.89,1.74,3.08Z"/><path class="cls-6" d="M648.53,160.82a88,88,0,0,0,.32,14.06,2.56,2.56,0,0,0,2.5,2.5,2.52,2.52,0,0,0,2.5-2.5,88,88,0,0,1-.32-14.06,2.52,2.52,0,0,0-2.5-2.5,2.56,2.56,0,0,0-2.5,2.5Z"/><path class="cls-6" d="M646.73,63.71c.29,9.31,1.36,18.61,1.15,27.93-.07,3.22,4.93,3.22,5,0,.21-9.32-.86-18.62-1.15-27.93-.11-3.21-5.11-3.22-5,0Z"/><circle class="cls-10" cx="726.48" cy="90.14" r="3.5"/><path class="cls-2" d="M753.21,106.62c-1.49-9.6-10.57-15-19.68-15.56"/><path class="cls-2" d="M753.38,106.69l2.9-5.72"/><line class="cls-2" x1="753.38" y1="107.17" x2="747.94" y2="100.97"/><text class="cls-8" transform="translate(736.53 124.38)">1E in the <tspan x="0" y="13.2">hund</tspan><tspan class="cls-11" x="24.4" y="13.2">r</tspan><tspan x="28.02" y="13.2">eds </tspan><tspan x="0" y="26.4">place = 100</tspan></text><path class="cls-2" d="M532,163.68c9.71-.26,16.21-8.6,17.92-17.56"/><path class="cls-2" d="M531.24,164l5.75,2.83"/><line class="cls-2" x1="531.12" y1="164.35" x2="537.65" y2="159.3"/><ellipse class="cls-7" cx="118" cy="159.28" rx="2.79" ry="2.81"/><ellipse class="cls-7" cx="118" cy="152.1" rx="2.79" ry="2.81"/><circle class="cls-9" cx="117.69" cy="208.08" r="3.5"/><circle class="cls-10" cx="118.09" cy="100.97" r="3.5"/><text class="cls-12" transform="translate(88 256.18)"><tspan class="cls-13">T</tspan><tspan x="5.71" y="0">otal = 124</tspan></text><text class="cls-14" transform="translate(359.89 14.95)">Legend</text></svg>