<?xml version="1.0" encoding="utf-8"?>
<!-- Generator: Adobe Illustrator 23.1.1, SVG Export Plug-In . SVG Version: 6.00 Build 0)  -->
<svg version="1.1" id="Layer_1" xmlns="http://www.w3.org/2000/svg" xmlns:xlink="http://www.w3.org/1999/xlink" x="0px" y="0px"
	 viewBox="0 0 800 281.5" style="enable-background:new 0 0 800 281.5;" xml:space="preserve">
<style type="text/css">
	.st0{fill:#231F20;}
	.st1{font-family:'OpenSans-Regular';}
	.st2{font-size:14px;}
	.st3{fill:none;stroke:#231F20;stroke-miterlimit:10;}
	.st4{font-family:'Roboto-Regular';}
	.st5{font-size:12px;}
	.st6{fill:#4A5158;}
	.st7{font-family:'OpenSans-SemiBold';}
	.st8{font-size:15px;}
	.st9{fill:none;stroke:#D9D9D8;}
	.st10{fill:#010101;}
	.st11{font-family:'Roboto-Italic';}
	.st12{fill:none;stroke:#BF9E75;stroke-width:2;}
	.st13{fill:#8D6A4B;}
	.st14{fill:#FFFFFF;stroke:#B33B49;stroke-miterlimit:10;}
	.st15{fill:#B33B49;}
	.st16{fill:none;stroke:#221F1F;stroke-miterlimit:10;}
	.st17{font-size:11px;}
	.st18{fill:none;stroke:#DAD9D8;stroke-width:3;stroke-miterlimit:10;}
</style>
<title>knot</title>
<text transform="matrix(1 0 0 1 14.79 60.5)" class="st0 st1 st2">Knot Placement</text>
<line class="st3" x1="101.4" y1="84.1" x2="101.4" y2="229.1"/>
<g>
	<text transform="matrix(1 0 0 1 18.48 105.48)" class="st0 st4 st5">Hund</text>
	<text transform="matrix(1 0 0 1 47.04 105.48)" class="st0 st4 st5">r</text>
	<text transform="matrix(1 0 0 1 50.99 105.48)" class="st0 st4 st5">eds</text>
	<text transform="matrix(1 0 0 1 29.98 119.88)" class="st0 st4 st5">place</text>
</g>
<g>
	<text transform="matrix(1 0 0 1 15.62 158.74)" class="st0 st4 st5">T</text>
	<text transform="matrix(1 0 0 1 22.2 158.74)" class="st0 st4 st5">ens place</text>
</g>
<text transform="matrix(1 0 0 1 14.79 211.49)" class="st0 st4 st5">Ones place</text>
<path class="st6" d="M398.4,79.2v25.6c0,3.2,5,3.2,5,0V79.2C403.4,76,398.4,76,398.4,79.2z"/>
<path class="st6" d="M398.4,118.8v9.6c0,3,0.7,6.8-1.3,9.2c-1.7,2.1-4.6,3.1-7.2,3.4c-3.1,0.3-6.2-0.1-9.1-1.3
	c-2.8-1.1-5.2-3.1-6.8-5.6c-1.7-3.1-2.8-6.4-3.1-9.9c-0.8-6.6,0.5-13.9,4.8-19.2c4.5-5.6,11.4-8.7,18.6-8.3c1.4,0,2.5-1.1,2.5-2.5
	s-1.1-2.5-2.5-2.5c-7.8-0.3-15.4,2.7-20.8,8.4c-5.6,6-8.5,14.1-7.8,22.4c0.5,8.1,3.4,16.7,10.8,20.9c6.4,3.6,15.5,4.3,21.8,0
	c1.7-1.1,3.1-2.6,4-4.4c0.9-2.3,1.3-4.8,1.2-7.2V119C403.5,115.6,398.5,115.6,398.4,118.8L398.4,118.8z"/>
<path class="st6" d="M405.5,96.2c1.1,0.8,1.9,2,2.2,3.4c0.6,1.8,0.8,3.7,0.5,5.5c-0.2,1.3-1,2.5-2.2,3.2c-0.8,0.3-1.7,0.4-2.6,0.5
	c-1,0.1-2,0.3-3,0.7c-7.3,2.6-12.6,9.7-15.4,16.6c-1.6,4-2.3,8.2-2.1,12.4c0.1,3.2,5.1,3.2,5,0c-0.3-7.5,2.6-14.8,8-20.1
	c1.3-1.4,2.9-2.6,4.6-3.5c1.8-1,3.7-1.1,5.7-1.4c4.4-0.8,7-4.9,7.1-9.2S412,94.4,408,92C405.2,90.2,402.7,94.6,405.5,96.2
	L405.5,96.2z"/>
<path class="st6" d="M382,148.8l1.2,22.4c0,1.4,1.1,2.5,2.5,2.5s2.5-1.1,2.5-2.5l-1.2-22.4c0-1.4-1.1-2.5-2.5-2.5
	S382,147.4,382,148.8z"/>
<text transform="matrix(1 0 0 1 358.19 27.03)" class="st0 st1 st2">Knot Types</text>
<path class="st6" d="M540.3,62.9c0,17.1-1.4,34.2-2.9,51.2c-0.3,3.4-0.6,6.8-1,10.2c-0.4,3.8-1,7.6-1.1,11.4
	c-0.2,7.7,2.3,17,9.7,20.8c4,2.1,8.9,1.6,12.3-1.2c3.8-3,5.8-7.5,6.8-12.1c1.1-5.1,1.7-10.4,2-15.6c0.4-5.4,0.6-10.8,0.5-16.2
	s-0.6-10.7-1.3-16c-0.7-4.8-1.5-9.9-3.3-14.5c-0.7-2.1-1.9-4.1-3.5-5.7c-1.8-1.6-4-2.7-6.3-3.1c-4-0.8-8.1-0.9-12.2-0.3
	c-3.8,0.6-7.2,2.9-9,6.3c-1.5,3.5-1.8,7.4-0.7,11c0.4,1.7,1.3,3.3,2.6,4.5c2.3,2.2,5.9-1.3,3.5-3.5c-0.8-0.9-1.3-2.1-1.4-3.3
	c-0.2-1.3-0.3-2.7-0.1-4c0.3-2.8,2.2-5.1,4.9-5.8c3.1-1,6.5-0.7,9.7-0.3c1.7,0.2,3.7,0.4,5.1,1.5c1.3,1.1,2.3,2.6,2.9,4.3
	c1.5,4.3,2.5,8.7,3,13.2c0.7,4.8,1.2,9.6,1.3,14.4c0.4,9.8-0.2,19.6-1.8,29.2c-0.7,4-1.8,8.2-4.8,11.2c-2.1,2.4-5.8,2.8-8.4,1
	c-5.8-3.7-6.6-11.7-6.2-17.8s1.3-12.5,1.9-18.7c1.3-15,2.7-29.9,2.9-45c0-2.4,0.1-4.9,0-7.3C545.4,59.8,540.4,59.7,540.3,62.9
	L540.3,62.9z"/>
<path class="st6" d="M544.7,96c1.4,1.9,2.5,5.4,0.3,7.1c-1.2,0.9-2.8,1.2-4.2,1.6c-1.7,0.6-3.3,1.3-4.8,2.2
	c-5.1,3.2-11.6,12.7-5.6,18c1,1,2.6,1,3.5,0c1-1,1-2.5,0-3.5c-2.1-1.9,0.1-5.2,1.4-7.2c1.7-2.5,4.6-4,7.4-4.9c3.5-1.2,6.7-2.3,8-6.1
	c1-3.4,0.4-7-1.7-9.9c-0.7-1.2-2.2-1.6-3.4-0.9C544.4,93.2,544,94.8,544.7,96L544.7,96z"/>
<path class="st6" d="M549.4,150c1-1.3,1.9-2.8,2.6-4.3c0.2-0.5,0.5-1,0.9-1.4c0,0,0.6-0.4,0.6-0.3s-0.8,0.1-0.4-0.2
	c0.1-0.1,0.3,1,0.3,1.1c0.1,0.8,0.1,1.6,0.1,2.4c0,1.9,0.1,3.9,0,5.8c-0.1,7.6-0.9,15.2-2.4,22.7c-0.3,1.3,0.4,2.7,1.8,3.1
	c1.3,0.3,2.7-0.4,3.1-1.8c1.8-9.2,2.6-18.6,2.6-27.9c0-3.6,0.3-10-4.8-10.2c-1.9,0-3.7,0.8-4.9,2.3c-1.3,1.5-1.7,3.6-3,5.1
	c-0.9,1-0.9,2.5,0,3.5C546.8,151,548.4,151,549.4,150L549.4,150z"/>
<path class="st6" d="M541.6,132c1.1,0.9,2.5,2.1,2.7,3.6c0-0.2-0.1-0.1,0,0.2c0-0.2,0-0.1-0.1,0.2c0.1-0.2,0,0-0.2,0.1
	c-0.7,0.6-1.4,1.1-2.2,1.4c-1.7,0.6-3.3,1.3-4.8,2.2c-1.7,1.1-3.2,2.5-4.3,4.3c-1.8,3.1-2.1,6.8-0.7,10.1c1.5,3.4,5.4,4.5,8.7,3.1
	c1.3-0.4,2.1-1.8,1.8-3.1c-0.4-1.3-1.7-2.1-3.1-1.8c-0.7,0.4-1.6,0.5-2.4,0.2c-0.7-0.4-0.8-1.9-0.8-2.9c0.1-2.8,1.7-4.9,4.3-6.2
	c3-1.6,7.1-2.3,8.5-5.9c1.3-3.4-1.2-7.1-3.8-9.1c-1-0.9-2.5-0.9-3.5,0C540.7,129.4,540.7,131,541.6,132L541.6,132z"/>
<path class="st6" d="M205.4,99c-4.3,6.5-7.2,13.8-8.7,21.4c-1.4,7.3-2.5,16.3,2.5,22.5c1.3,1.5,2.7,2.9,4.1,4.2
	c1.4,1.4,2.8,2.8,4.4,4c3.4,2.5,7.8,1.6,11.3-0.4c6.2-3.5,9.9-10.4,11.1-17.2c0.7-4.6,0.8-9.3,0.2-14c-0.4-3.9-0.9-8.3-4-11.1
	c-1-1-2.5-1-3.5,0s-1,2.6,0,3.5c2.1,1.8,2.3,5,2.6,7.6c0.4,3.5,0.5,7.1,0.2,10.6c-0.5,5.7-2.8,11.7-7.5,15.2c-1.9,1.5-5,3.2-7.3,1.8
	c-1.2-0.9-2.4-1.9-3.4-3.1c-1.3-1.2-2.6-2.5-3.8-3.8c-2-2.3-3-5.3-2.9-8.3c-0.1-3.3,0.2-6.6,0.8-9.9c1.4-7.4,4.2-14.4,8.3-20.7
	C211.6,98.9,207.2,96.4,205.4,99L205.4,99z"/>
<path class="st6" d="M221.7,103.8c-2.1-5.9-7.4-8.5-12-12.1c-2-1.6-4-3.6-4.6-6.1c-0.2-1.3-0.1-2.6,0.4-3.9c0.3-1.4,1-2.8,2-3.9
	c2.3-2.2-1.2-5.8-3.5-3.5c-1.2,1.3-2.2,2.9-2.7,4.6c-0.7,1.7-1.1,3.6-1.2,5.5c0.2,3.3,1.6,6.4,4,8.7c2.3,2.2,4.8,4.1,7.5,5.8
	c2.2,1.6,4.6,3.5,5.5,6.2c0.4,1.3,1.8,2.1,3.1,1.8c1.3-0.4,2.1-1.8,1.7-3.1H221.7z"/>
<path class="st6" d="M217.1,80.3c1.5,0.2,2.3,1.2,2.9,2.8c0.7,1.8,1.1,3.7,1.4,5.7c0.9,4.4,1.1,8.9,0.7,13.4
	c-0.4,4.2-1.9,8.2-4.5,11.5c-1.6,1.8-3.1,3.7-4.5,5.7c-1.3,2.2-2.3,4.6-2.9,7.1c-1.6,5.4-3.3,11.6-1.1,17.1c0.4,1.3,1.7,2.1,3.1,1.8
	c1.3-0.4,2.1-1.7,1.8-3.1c-1.9-4.8-0.1-10.1,1.3-14.8c0.6-2.4,1.7-4.7,3.1-6.7c1.5-2,3.4-3.8,4.8-6c5.4-8.2,4.8-18.8,3-28.1
	c-0.8-4.3-2.5-10.4-7.7-11.1c-1.3-0.3-2.7,0.4-3.1,1.7C215,78.3,215.8,80.1,217.1,80.3L217.1,80.3z"/>
<path class="st6" d="M210.2,157.5c-0.3,4.7-0.2,9.4,0.3,14.1c0,1.4,1.1,2.5,2.5,2.5s2.5-1.1,2.5-2.5c-0.5-4.7-0.6-9.4-0.3-14.1
	c0-1.4-1.1-2.5-2.5-2.5C211.4,155,210.3,156.1,210.2,157.5z"/>
<path class="st6" d="M208.4,60.4c0.3,9.3,1.4,18.6,1.1,27.9c-0.1,3.2,4.9,3.2,5,0c0.2-9.3-0.9-18.6-1.1-27.9
	C213.3,57.2,208.3,57.2,208.4,60.4z"/>
<text transform="matrix(1 0 0 1 2.57 16.55)" class="st0 st7 st8">Legend</text>
<line class="st3" x1="97.2" y1="98.5" x2="105.7" y2="108.3"/>
<line class="st3" x1="97.4" y1="108.7" x2="104.8" y2="98.1"/>
<line class="st3" x1="97.2" y1="148.8" x2="105.7" y2="158.6"/>
<line class="st3" x1="97.4" y1="159.1" x2="104.8" y2="148.4"/>
<line class="st3" x1="97.2" y1="202.4" x2="105.7" y2="212.2"/>
<line class="st3" x1="97.4" y1="212.6" x2="104.8" y2="202"/>
<line class="st9" x1="78.6" y1="102" x2="91.9" y2="102.1"/>
<line class="st9" x1="78.1" y1="155.1" x2="91.5" y2="155.2"/>
<line class="st9" x1="79" y1="207.8" x2="92.3" y2="207.8"/>
<text transform="matrix(1 0 0 1 157.67 204.25)" class="st10 st11 st5">E</text>
<text transform="matrix(1 0 0 1 164.34 204.25)" class="st10 st4 st5"> knots </text>
<text transform="matrix(1 0 0 1 199.94 204.25)" class="st10 st4 st5">r</text>
<text transform="matrix(1 0 0 1 203.89 204.25)" class="st10 st4 st5">ep</text>
<text transform="matrix(1 0 0 1 216.98 204.25)" class="st10 st4 st5">r</text>
<text transform="matrix(1 0 0 1 220.93 204.25)" class="st10 st4 st5">esent the </text>
<text transform="matrix(1 0 0 1 157.67 218.65)" class="st10 st4 st5">number </text>
<text transform="matrix(1 0 0 1 201.55 218.65)" class="st10 st11 st5">one</text>
<text transform="matrix(1 0 0 1 157.67 247.45)" class="st10 st4 st5">Symbol:</text>
<text transform="matrix(1 0 0 1 324.27 197.54)" class="st10 st11 st5">S</text>
<text transform="matrix(1 0 0 1 331.24 197.54)" class="st10 st4 st5"> knots can be isolated or </text>
<text transform="matrix(1 0 0 1 324.27 211.94)" class="st10 st4 st5">in clusters; the number of </text>
<text transform="matrix(1 0 0 1 324.27 226.34)" class="st10 st4 st5">knots in the cluster equals </text>
<text transform="matrix(1 0 0 1 324.27 240.74)" class="st10 st4 st5">the </text>
<text transform="matrix(1 0 0 1 344.13 240.74)" class="st10 st4 st5">v</text>
<text transform="matrix(1 0 0 1 349.85 240.74)" class="st10 st4 st5">alue (</text>
<text transform="matrix(1 0 0 1 379.34 240.74)" class="st10 st4 st5">r</text>
<text transform="matrix(1 0 0 1 383.16 240.74)" class="st10 st4 st5">ange is 1-9)</text>
<text transform="matrix(1 0 0 1 324.27 269.54)" class="st10 st4 st5">Symbol:</text>
<text transform="matrix(1 0 0 1 508.29 196.54)" class="st10 st11 st5">L</text>
<text transform="matrix(1 0 0 1 514.61 196.54)" class="st10 st4 st5"> knots appear alone; </text>
<text transform="matrix(1 0 0 1 508.29 210.94)" class="st10 st4 st5">the number of turns in </text>
<text transform="matrix(1 0 0 1 508.29 225.34)" class="st10 st4 st5">the knot equals the </text>
<text transform="matrix(1 0 0 1 508.29 239.74)" class="st10 st4 st5">v</text>
<text transform="matrix(1 0 0 1 514.01 239.74)" class="st10 st4 st5">alue (</text>
<text transform="matrix(1 0 0 1 543.5 239.74)" class="st10 st4 st5">r</text>
<text transform="matrix(1 0 0 1 547.33 239.74)" class="st10 st4 st5">ange is 2-9)</text>
<text transform="matrix(1 0 0 1 508.29 268.54)" class="st10 st4 st5">Symbol:</text>
<text transform="matrix(1 0 0 1 157.76 50.13)" class="st10 st11 st5">Figu</text>
<text transform="matrix(1 0 0 1 180.2 50.13)" class="st10 st11 st5">r</text>
<text transform="matrix(1 0 0 1 184.09 50.13)" class="st10 st11 st5">e-Eight </text>
<text transform="matrix(1 0 0 1 223 50.13)" class="st10 st11 st5">K</text>
<text transform="matrix(1 0 0 1 230.22 50.13)" class="st10 st11 st5">not (E):</text>
<text transform="matrix(1 0 0 1 353.09 65.31)" class="st10 st11 st5">Single </text>
<text transform="matrix(1 0 0 1 388.06 65.31)" class="st10 st11 st5">K</text>
<text transform="matrix(1 0 0 1 395.28 65.31)" class="st10 st11 st5">not (s):</text>
<text transform="matrix(1 0 0 1 507.74 54.98)" class="st10 st11 st5">Long </text>
<text transform="matrix(1 0 0 1 536.77 54.98)" class="st10 st11 st5">K</text>
<text transform="matrix(1 0 0 1 543.99 54.98)" class="st10 st11 st5">not (L):</text>
<path class="st12" d="M715.5,267.7V31"/>
<ellipse class="st13" cx="715.2" cy="151.1" rx="1.9" ry="1.8"/>
<circle class="st14" cx="209.9" cy="243.8" r="3.5"/>
<ellipse class="st13" cx="377.8" cy="265.4" rx="1.9" ry="1.8"/>
<circle class="st15" cx="563" cy="264.6" r="3.5"/>
<text transform="matrix(1 0 0 1 735.93 40.65)" class="st10 st11 st5">Example</text>
<ellipse class="st13" cx="715.5" cy="144.4" rx="1.9" ry="1.8"/>
<path class="st16" d="M725,226.3c9.7-0.3,16.2-8.6,17.9-17.6"/>
<path class="st16" d="M724.2,226.6l5.8,2.8"/>
<line class="st16" x1="724.1" y1="226.9" x2="730.6" y2="221.9"/>
<circle class="st15" cx="715.6" cy="228.5" r="3.5"/>
<path class="st16" d="M723,147.9c9.7-0.3,16.2-8.6,17.9-17.6"/>
<path class="st16" d="M722.2,148.2l5.8,2.8"/>
<line class="st16" x1="722.1" y1="148.6" x2="728.6" y2="143.5"/>
<path class="st16" d="M708,59c-9.1,0.6-18.2,6-19.7,15.6"/>
<path class="st16" d="M685.2,68.9l2.9,5.7"/>
<line class="st16" x1="693.6" y1="68.9" x2="688.1" y2="75.1"/>
<text transform="matrix(1 0 0 1 654.85 89.69)" class="st10 st4 st17">No knot </text>
<text transform="matrix(1 0 0 1 642.7 102.89)" class="st10 st4 st17">indicates the </text>
<text transform="matrix(1 0 0 1 643.38 116.09)" class="st10 st4 st17">number </text>
<text transform="matrix(1 0 0 1 683.59 116.09)" class="st10 st4 st17">z</text>
<text transform="matrix(1 0 0 1 688.96 116.09)" class="st10 st4 st17">e</text>
<text transform="matrix(1 0 0 1 694.79 116.09)" class="st10 st4 st17">r</text>
<text transform="matrix(1 0 0 1 698.4 116.09)" class="st10 st4 st17">o</text>
<text transform="matrix(1 0 0 1 718.27 109.56)" class="st10 st4 st17">2s in the tens </text>
<text transform="matrix(1 0 0 1 725.85 122.76)" class="st10 st4 st17">place = 20</text>
<text transform="matrix(1 0 0 1 721.38 187.74)" class="st10 st4 st17">4L in the ones </text>
<text transform="matrix(1 0 0 1 733.51 200.94)" class="st10 st4 st17">place = 4</text>
<rect class="st18" width="800" height="281.5"/>
</svg>
