<svg id="Layer_1" data-name="Layer 1" xmlns="http://www.w3.org/2000/svg" viewBox="0 0 800 281.49"><defs><style>.cls-1,.cls-3,.cls-4,.cls-5,.cls-6,.cls-8{isolation:isolate;}.cls-1{font-size:14px;font-family:OpenSans-Regular, Open Sans;}.cls-1,.cls-4,.cls-5,.cls-6,.cls-8{fill:#231f20;}.cls-18,.cls-2,.cls-22,.cls-26,.cls-9{fill:none;}.cls-2{stroke:#231f20;}.cls-2,.cls-20,.cls-22,.cls-26{stroke-miterlimit:10;}.cls-10,.cls-4,.cls-5,.cls-6{font-size:12px;}.cls-11,.cls-12,.cls-23,.cls-4,.cls-5,.cls-6{font-family:Roboto-Regular, Roboto;}.cls-5{letter-spacing:-0.01em;}.cls-6{letter-spacing:-0.07em;}.cls-7{fill:#4a5158;}.cls-8{font-size:15px;font-family:OpenSans-SemiBold, Open Sans;font-weight:600;}.cls-9{stroke:#d9d9d8;}.cls-10,.cls-23{fill:#010101;}.cls-10,.cls-13{font-family:Roboto-Italic, Roboto;font-style:italic;}.cls-11,.cls-12{font-style:normal;}.cls-12,.cls-16{letter-spacing:-0.01em;}.cls-14{letter-spacing:-0.01em;}.cls-15{letter-spacing:-0.02em;}.cls-17{letter-spacing:-0.01em;}.cls-18{stroke:#bf9e75;stroke-width:2px;}.cls-19{fill:#8d6a4b;}.cls-20{fill:#fff;stroke:#b33b49;}.cls-21{fill:#b33b49;}.cls-22{stroke:#221f1f;}.cls-23{font-size:11px;}.cls-24{letter-spacing:-0.01em;}.cls-25{letter-spacing:-0.01em;}.cls-26{stroke:#dad9d8;stroke-width:3px;}</style></defs><title>knot</title><text class="cls-1" transform="translate(14.79 60.5)">Knot Placement</text><line class="cls-2" x1="101.44" y1="84.14" x2="101.44" y2="229.06"/><g class="cls-3"><text class="cls-4" transform="translate(18.48 105.48)">Hund</text><text class="cls-5" transform="translate(47.04 105.48)">r</text><text class="cls-4" transform="translate(50.99 105.48)">eds </text><text class="cls-4" transform="translate(29.98 119.88)">place</text></g><g class="cls-3"><text class="cls-6" transform="translate(15.62 158.74)">T</text><text class="cls-4" transform="translate(22.2 158.74)">ens place</text></g><text class="cls-4" transform="translate(14.79 211.49)">Ones place</text><path class="cls-7" d="M398.43,79.2v25.55c0,3.21,5,3.22,5,0V79.2C403.43,76,398.43,76,398.43,79.2Z"/><path class="cls-7" d="M398.43,118.84v9.57c0,3,.69,6.8-1.33,9.25-1.71,2.07-4.64,3.06-7.23,3.35a19,19,0,0,1-9.14-1.28,13.93,13.93,0,0,1-6.79-5.65,26.24,26.24,0,0,1-3.14-9.93c-.84-6.63.51-13.91,4.84-19.17a22.37,22.37,0,0,1,18.62-8.35,2.5,2.5,0,0,0,0-5A27,27,0,0,0,373.5,100a29.47,29.47,0,0,0-7.84,22.37c.5,8.09,3.37,16.72,10.81,20.89,6.38,3.57,15.55,4.33,21.81,0a11.66,11.66,0,0,0,4-4.45,16.09,16.09,0,0,0,1.17-7.22V118.84c0-3.22-5-3.22-5,0Z"/><path class="cls-7" d="M405.46,96.19a5.19,5.19,0,0,1,2.16,3.37,12.69,12.69,0,0,1,.54,5.51,4.23,4.23,0,0,1-2.17,3.16,9.57,9.57,0,0,1-2.59.49,14.65,14.65,0,0,0-3,.68C393.13,112,387.75,119.07,385,126a30.22,30.22,0,0,0-2.11,12.44c.13,3.21,5.13,3.22,5,0a26.88,26.88,0,0,1,8-20.14,19.46,19.46,0,0,1,4.6-3.52c1.84-1,3.7-1.06,5.7-1.43,4.43-.82,7-4.92,7.11-9.21S412,94.24,408,91.87c-2.78-1.64-5.3,2.68-2.52,4.32Z"/><path class="cls-7" d="M382,148.81l1.24,22.36a2.5,2.5,0,0,0,5,0L387,148.81a2.55,2.55,0,0,0-2.5-2.5,2.51,2.51,0,0,0-2.5,2.5Z"/><text class="cls-1" transform="translate(358.19 27.03)">Knot Types</text><path class="cls-7" d="M540.31,62.9c.05,17.12-1.41,34.18-2.88,51.22-.3,3.41-.6,6.83-1,10.24-.41,3.8-1,7.58-1.09,11.41-.16,7.71,2.32,17,9.7,20.78a11.16,11.16,0,0,0,12.34-1.22c3.75-3,5.77-7.51,6.82-12.06a106.34,106.34,0,0,0,2-15.6,158.68,158.68,0,0,0,.46-16.17,133.82,133.82,0,0,0-1.35-16c-.7-4.83-1.46-9.94-3.27-14.51a15.77,15.77,0,0,0-3.5-5.68,12,12,0,0,0-6.33-3.08,34.56,34.56,0,0,0-12.17-.3A12.38,12.38,0,0,0,531,78.26a16.33,16.33,0,0,0-.72,11,9.75,9.75,0,0,0,2.6,4.53c2.33,2.21,5.87-1.31,3.53-3.53A6.07,6.07,0,0,1,535,87a14.89,14.89,0,0,1-.13-4,6.69,6.69,0,0,1,4.92-5.81c3.09-1,6.45-.7,9.67-.32,1.73.2,3.7.45,5.13,1.54a9.56,9.56,0,0,1,2.88,4.3,63.78,63.78,0,0,1,3,13.22,124.59,124.59,0,0,1,1.32,14.43,142.92,142.92,0,0,1-1.8,29.22c-.69,4-1.8,8.25-4.78,11.19a6.37,6.37,0,0,1-8.41,1c-5.8-3.73-6.62-11.67-6.25-17.78s1.33-12.51,1.88-18.74c1.3-15,2.66-29.94,2.92-44.95q.06-3.66.05-7.34c0-3.21-5-3.22-5,0Z"/><path class="cls-7" d="M544.74,96c1.37,1.87,2.55,5.41.31,7.13-1.16.89-2.82,1.15-4.16,1.64a26.22,26.22,0,0,0-4.84,2.24c-5.14,3.19-11.6,12.72-5.61,18a2.55,2.55,0,0,0,3.54,0,2.52,2.52,0,0,0,0-3.53c-2.11-1.86.09-5.23,1.37-7.16,1.69-2.53,4.6-4,7.39-4.93,3.45-1.19,6.71-2.34,8-6.08A11.09,11.09,0,0,0,549,93.44a2.58,2.58,0,0,0-3.42-.9,2.53,2.53,0,0,0-.9,3.42Z"/><path class="cls-7" d="M549.4,150a24.86,24.86,0,0,0,2.57-4.29,4.25,4.25,0,0,1,.94-1.36s.58-.39.59-.32-.75.08-.42-.2c.12-.11.3,1,.31,1.09.09.8.07,1.62.09,2.42,0,1.95.06,3.89,0,5.84a132.13,132.13,0,0,1-2.36,22.7,2.57,2.57,0,0,0,1.75,3.08,2.53,2.53,0,0,0,3.07-1.75,139.16,139.16,0,0,0,2.56-27.92c0-3.61.32-10-4.78-10.24a6.22,6.22,0,0,0-4.88,2.32c-1.29,1.53-1.74,3.58-3,5.09a2.59,2.59,0,0,0,0,3.54,2.54,2.54,0,0,0,3.54,0Z"/><path class="cls-7" d="M541.64,132c1.11.87,2.55,2.11,2.7,3.62-.05-.18-.06-.11,0,.2,0-.2,0-.15-.07.16.12-.21,0,0-.16.12a7.84,7.84,0,0,1-2.23,1.4,31.52,31.52,0,0,0-4.81,2.18,13.07,13.07,0,0,0-4.27,4.26,11.47,11.47,0,0,0-.72,10.08c1.51,3.42,5.38,4.47,8.72,3.15a2.57,2.57,0,0,0,1.75-3.08,2.52,2.52,0,0,0-3.07-1.75,2.86,2.86,0,0,1-2.42.25c-.68-.37-.83-1.91-.81-2.88.06-2.82,1.74-4.9,4.27-6.25,3-1.62,7.1-2.29,8.47-5.89,1.3-3.44-1.17-7.06-3.78-9.11a2.59,2.59,0,0,0-3.54,0,2.54,2.54,0,0,0,0,3.54Z"/><path class="cls-7" d="M205.39,99a59.59,59.59,0,0,0-8.68,21.41c-1.41,7.3-2.51,16.31,2.49,22.51a52.79,52.79,0,0,0,4.11,4.22,39.8,39.8,0,0,0,4.41,4c3.45,2.48,7.82,1.58,11.28-.39,6.18-3.52,9.9-10.38,11.1-17.22a50.1,50.1,0,0,0,.21-14c-.43-3.91-.87-8.34-4-11.09a2.54,2.54,0,0,0-3.53,0,2.5,2.5,0,0,0,0,3.53c2.09,1.82,2.27,5,2.56,7.56a52.55,52.55,0,0,1,.24,10.64c-.53,5.69-2.8,11.68-7.46,15.25-1.9,1.47-5,3.23-7.34,1.79a20.53,20.53,0,0,1-3.39-3.06c-1.28-1.25-2.61-2.47-3.82-3.79a12.13,12.13,0,0,1-2.93-8.28,48,48,0,0,1,.84-9.87,56,56,0,0,1,8.3-20.65c1.78-2.7-2.55-5.2-4.31-2.52Z"/><path class="cls-7" d="M221.71,103.75c-2.06-5.94-7.45-8.46-12-12.13-2-1.57-4-3.55-4.63-6.09a7.1,7.1,0,0,1,.37-3.87,9.1,9.1,0,0,1,2-3.86c2.31-2.25-1.23-5.78-3.53-3.53a12.2,12.2,0,0,0-2.73,4.61A15.15,15.15,0,0,0,200,84.4a13.15,13.15,0,0,0,4,8.7,47.69,47.69,0,0,0,7.5,5.83c2.23,1.58,4.58,3.48,5.51,6.15a2.57,2.57,0,0,0,3.08,1.75,2.53,2.53,0,0,0,1.74-3.08Z"/><path class="cls-7" d="M217.14,80.33c1.51.21,2.27,1.25,2.91,2.79a27.35,27.35,0,0,1,1.42,5.65,47.23,47.23,0,0,1,.74,13.37,21.86,21.86,0,0,1-4.5,11.52,61.26,61.26,0,0,0-4.54,5.72,28.07,28.07,0,0,0-2.88,7.12c-1.55,5.43-3.31,11.57-1.14,17.08a2.58,2.58,0,0,0,3.07,1.75,2.52,2.52,0,0,0,1.75-3.08c-1.89-4.8-.12-10.14,1.26-14.85a20.2,20.2,0,0,1,3.11-6.74c1.54-2,3.37-3.82,4.76-6,5.36-8.25,4.83-18.84,3-28.09-.84-4.3-2.47-10.43-7.67-11.14a2.58,2.58,0,0,0-3.07,1.74c-.32,1.17.4,2.89,1.74,3.08Z"/><path class="cls-7" d="M210.24,157.48a88,88,0,0,0,.32,14.06,2.57,2.57,0,0,0,2.5,2.5,2.52,2.52,0,0,0,2.5-2.5,88,88,0,0,1-.32-14.06,2.51,2.51,0,0,0-2.5-2.5A2.55,2.55,0,0,0,210.24,157.48Z"/><path class="cls-7" d="M208.44,60.37c.29,9.31,1.36,18.61,1.15,27.93-.07,3.22,4.93,3.22,5,0,.21-9.32-.86-18.62-1.15-27.93C213.33,57.16,208.33,57.15,208.44,60.37Z"/><text class="cls-8" transform="translate(2.57 16.55)">Legend</text><line class="cls-2" x1="97.18" y1="98.5" x2="105.7" y2="108.28"/><line class="cls-2" x1="97.45" y1="108.72" x2="104.82" y2="98.05"/><line class="cls-2" x1="97.18" y1="148.83" x2="105.7" y2="158.61"/><line class="cls-2" x1="97.45" y1="159.05" x2="104.82" y2="148.38"/><line class="cls-2" x1="97.18" y1="202.43" x2="105.7" y2="212.21"/><line class="cls-2" x1="97.45" y1="212.65" x2="104.82" y2="201.99"/><line class="cls-9" x1="78.55" y1="102.04" x2="91.89" y2="102.1"/><line class="cls-9" x1="78.12" y1="155.11" x2="91.46" y2="155.18"/><line class="cls-9" x1="78.98" y1="207.75" x2="92.33" y2="207.81"/><text class="cls-10" transform="translate(157.67 204.25)">E<tspan class="cls-11" x="6.67" y="0" xml:space="preserve"> knots </tspan><tspan class="cls-12" x="42.27" y="0">r</tspan><tspan class="cls-11" x="46.22" y="0">ep</tspan><tspan class="cls-12" x="59.31" y="0">r</tspan><tspan class="cls-11" x="63.26" y="0">esent the </tspan><tspan class="cls-11"><tspan x="0" y="14.4">number </tspan><tspan class="cls-13" x="43.88" y="14.4">one</tspan><tspan x="0" y="43.2">Symbol:</tspan></tspan></text><text class="cls-10" transform="translate(324.27 197.54)">S<tspan class="cls-11" x="6.97" y="0" xml:space="preserve"> knots can be isolated or </tspan><tspan class="cls-11"><tspan x="0" y="14.4">in clusters; the number of </tspan><tspan x="0" y="28.8">knots in the cluster equals </tspan><tspan x="0" y="43.2">the </tspan><tspan class="cls-14" x="19.86" y="43.2">v</tspan><tspan x="25.58" y="43.2">alue (</tspan><tspan class="cls-15" x="55.07" y="43.2">r</tspan><tspan x="58.89" y="43.2">ange is 1-9)</tspan><tspan x="0" y="72">Symbol:</tspan></tspan></text><text class="cls-10" transform="translate(508.29 196.54)">L<tspan class="cls-11" x="6.32" y="0" xml:space="preserve"> knots appear alone; </tspan><tspan class="cls-11"><tspan x="0" y="14.4">the number of turns in </tspan><tspan x="0" y="28.8">the knot equals the </tspan><tspan class="cls-14" x="0" y="43.2">v</tspan><tspan x="5.72" y="43.2">alue (</tspan><tspan class="cls-15" x="35.21" y="43.2">r</tspan><tspan x="39.04" y="43.2">ange is 2-9)</tspan><tspan x="0" y="72">Symbol: </tspan></tspan></text><text class="cls-10" transform="translate(157.76 50.13)">Figu<tspan class="cls-16" x="22.44" y="0">r</tspan><tspan x="26.33" y="0">e-Eight </tspan><tspan class="cls-17" x="65.24" y="0">K</tspan><tspan x="72.46" y="0">not (E):</tspan></text><text class="cls-10" transform="translate(353.09 65.31)">Single <tspan class="cls-17" x="34.97" y="0">K</tspan><tspan x="42.19" y="0">not (s):</tspan></text><text class="cls-10" transform="translate(507.74 54.98)">Long <tspan class="cls-17" x="29.03" y="0">K</tspan><tspan x="36.25" y="0">not (L):</tspan></text><path class="cls-18" d="M715.48,267.69V31"/><ellipse class="cls-19" cx="715.18" cy="151.09" rx="1.9" ry="1.8"/><circle class="cls-20" cx="209.9" cy="243.83" r="3.5"/><ellipse class="cls-19" cx="377.76" cy="265.42" rx="1.9" ry="1.8"/><circle class="cls-21" cx="562.99" cy="264.57" r="3.5"/><text class="cls-10" transform="translate(735.93 40.65)">Example</text><ellipse class="cls-19" cx="715.48" cy="144.35" rx="1.9" ry="1.8"/><path class="cls-22" d="M725,226.26c9.71-.26,16.21-8.6,17.92-17.56"/><path class="cls-22" d="M724.23,226.58l5.75,2.83"/><line class="cls-22" x1="724.11" y1="226.93" x2="730.64" y2="221.88"/><circle class="cls-21" cx="715.61" cy="228.48" r="3.5"/><path class="cls-22" d="M723,147.89c9.71-.26,16.21-8.6,17.92-17.56"/><path class="cls-22" d="M722.23,148.24l5.75,2.83"/><line class="cls-22" x1="722.11" y1="148.56" x2="728.64" y2="143.51"/><path class="cls-22" d="M708,59c-9.11.56-18.19,6-19.68,15.56"/><path class="cls-22" d="M685.22,68.89l2.9,5.72"/><line class="cls-22" x1="693.56" y1="68.89" x2="688.12" y2="75.09"/><text class="cls-23" transform="translate(654.85 89.69)">No knot <tspan x="-12.15" y="13.2">indicates the </tspan><tspan x="-11.47" y="26.4">number </tspan><tspan class="cls-24" x="28.74" y="26.4">z</tspan><tspan x="34.11" y="26.4">e</tspan><tspan class="cls-25" x="39.94" y="26.4">r</tspan><tspan x="43.55" y="26.4">o </tspan></text><text class="cls-23" transform="translate(718.27 109.56)">2s in the tens <tspan x="7.58" y="13.2">place = 20</tspan></text><text class="cls-23" transform="translate(721.38 187.74)">4L in the ones <tspan x="12.13" y="13.2">place = 4</tspan></text><rect class="cls-26" width="800" height="281.49"/></svg>