<?xml version="1.0" encoding="utf-8"?>
<!-- Generator: Adobe Illustrator 23.1.1, SVG Export Plug-In . SVG Version: 6.00 Build 0)  -->
<svg version="1.1" id="Layer_1" xmlns="http://www.w3.org/2000/svg" xmlns:xlink="http://www.w3.org/1999/xlink" x="0px" y="0px"
	 viewBox="0 0 1260 800" style="enable-background:new 0 0 1260 800;" xml:space="preserve">
<style type="text/css">
	.st0{fill:#F0EFEB;}
	.st1{fill:none;stroke:#BF9673;stroke-width:2;}
	.st2{fill:none;stroke:#BF9E75;stroke-width:2;}
	.st3{fill:none;stroke:#A7A5A6;stroke-miterlimit:10;}
	.st4{fill:#FFFFFF;stroke:#B23A48;stroke-miterlimit:10;}
	.st5{fill:#8C694A;}
	.st6{fill:none;stroke:#D9D9D9;}
	.st7{fill:none;}
	.st8{font-family:'Roboto-Regular';}
	.st9{font-size:12px;}
	.st10{fill:#4C4C4C;}
	.st11{font-family:'Roboto-Italic';}
	.st12{font-size:11px;}
	.st13{fill:none;stroke:#221F1F;stroke-miterlimit:10;}
	.st14{fill:none;stroke:#BF9E75;}
	.st15{fill:none;stroke:#CCCCCC;stroke-miterlimit:10;}
	.st16{fill:none;stroke:#8C8C8C;stroke-width:0.5;stroke-miterlimit:10;}
	.st17{fill:#8C8C8C;}
	.st18{font-family:'OpenSans-Regular';}
	.st19{fill:#B23A48;}
	.st20{fill:none;stroke:#231F20;stroke-width:0.25;stroke-miterlimit:10;}
</style>
<rect class="st0" width="1260" height="800"/>
<path class="st1" d="M630,40"/>
<path class="st1" d="M630,40"/>
<path class="st1" d="M630,40"/>
<path class="st1" d="M630,40"/>
<path class="st1" d="M630,40"/>
<path class="st1" d="M630,40"/>
<path class="st1" d="M630,40"/>
<path class="st1" d="M630,40"/>
<path class="st1" d="M630,40"/>
<path class="st1" d="M630,40"/>
<path class="st1" d="M630,40"/>
<path class="st1" d="M630,40"/>
<path class="st1" d="M630,40"/>
<path class="st1" d="M630,40"/>
<path class="st1" d="M630,40"/>
<path class="st1" d="M630,40"/>
<path class="st1" d="M630,40"/>
<path class="st1" d="M630,40"/>
<path class="st1" d="M630,40"/>
<path class="st1" d="M630,40"/>
<path class="st1" d="M630,40"/>
<path class="st1" d="M630,40"/>
<path class="st1" d="M630,40"/>
<path class="st1" d="M630,40"/>
<path class="st1" d="M630,40"/>
<path class="st1" d="M630,40"/>
<path class="st1" d="M630,40"/>
<path class="st1" d="M630,40"/>
<path class="st1" d="M630,40"/>
<path class="st1" d="M630,40"/>
<path class="st1" d="M630,40"/>
<path class="st1" d="M630,40"/>
<path class="st1" d="M630,40"/>
<path class="st1" d="M630,40"/>
<path class="st1" d="M630,40"/>
<path class="st1" d="M630,40"/>
<path class="st1" d="M630,40"/>
<path class="st1" d="M630,40"/>
<path class="st1" d="M630,40"/>
<path class="st1" d="M630,40"/>
<path class="st1" d="M630,40"/>
<path class="st1" d="M630,40"/>
<path class="st1" d="M630,40"/>
<path class="st1" d="M630,40"/>
<path class="st1" d="M630,40"/>
<path class="st1" d="M630,40"/>
<path class="st1" d="M630,40"/>
<path class="st1" d="M630,40"/>
<path class="st1" d="M630,40"/>
<path class="st1" d="M630,40"/>
<path class="st1" d="M630,40"/>
<path class="st1" d="M630,40"/>
<path class="st1" d="M630,40"/>
<path class="st1" d="M630,40"/>
<path class="st1" d="M630,40"/>
<path class="st1" d="M630,40"/>
<path class="st1" d="M630,40"/>
<path class="st1" d="M630,40"/>
<path class="st1" d="M630,40"/>
<path class="st1" d="M630,40"/>
<path class="st1" d="M630,40"/>
<path class="st1" d="M630,40"/>
<path class="st1" d="M630,40"/>
<path class="st1" d="M630,40"/>
<path class="st1" d="M630,40"/>
<path class="st1" d="M630,40"/>
<path class="st1" d="M630,40"/>
<path class="st1" d="M630,40"/>
<path class="st1" d="M630,40"/>
<path class="st1" d="M630,40"/>
<path class="st1" d="M630,40"/>
<path class="st1" d="M630,40"/>
<path class="st1" d="M630,40"/>
<path class="st1" d="M630,40"/>
<path class="st1" d="M630,40"/>
<path class="st1" d="M630,40"/>
<path class="st1" d="M630,40"/>
<path class="st1" d="M630,40"/>
<path class="st1" d="M630,40"/>
<path class="st1" d="M630,40"/>
<path class="st1" d="M630,40"/>
<path class="st1" d="M630,40"/>
<path class="st1" d="M630,40"/>
<path class="st1" d="M630,40"/>
<path class="st1" d="M630,40"/>
<path class="st1" d="M630,40"/>
<path class="st1" d="M630,40"/>
<path class="st1" d="M630,40"/>
<path class="st1" d="M630,40"/>
<path class="st1" d="M630,40"/>
<path class="st1" d="M630,40"/>
<path class="st1" d="M630,40"/>
<path class="st1" d="M630,40"/>
<path class="st1" d="M630,40"/>
<path class="st1" d="M630,40"/>
<path class="st1" d="M630,40"/>
<path class="st1" d="M630,40"/>
<path class="st1" d="M630,40"/>
<path class="st1" d="M630,40"/>
<path class="st1" d="M630,40"/>
<path class="st1" d="M630,40"/>
<path class="st1" d="M630,40"/>
<path class="st1" d="M630,40"/>
<path class="st1" d="M630,40"/>
<path class="st1" d="M630,40"/>
<path class="st1" d="M630,40"/>
<path class="st1" d="M630,40"/>
<path class="st1" d="M630,40"/>
<g>
	<path class="st1" d="M92.3,174.7"/>
	<path class="st1" d="M101.3,174.7"/>
	<path class="st1" d="M110.4,174.7"/>
	<path class="st1" d="M119.4,174.7"/>
	<path class="st1" d="M128.5,174.7"/>
	<path class="st1" d="M137.5,174.7"/>
	<path class="st1" d="M146.6,174.7"/>
	<path class="st1" d="M155.7,174.7"/>
	<path class="st1" d="M164.7,174.7"/>
	<path class="st1" d="M173.8,174.7"/>
	<path class="st1" d="M182.8,174.7"/>
	<path class="st1" d="M191.9,174.7"/>
	<path class="st1" d="M200.9,174.7"/>
	<path class="st1" d="M210,174.7"/>
	<path class="st1" d="M219.1,174.7"/>
	<path class="st1" d="M228.1,174.7"/>
	<path class="st1" d="M255.3,174.7"/>
	<path class="st1" d="M282.5,174.7"/>
	<path class="st1" d="M309.6,174.7"/>
	<path class="st1" d="M336.8,174.7"/>
	<path class="st1" d="M345.8,174.7"/>
	<path class="st1" d="M354.9,174.7"/>
	<path class="st1" d="M364,174.7"/>
	<path class="st1" d="M373,174.7"/>
	<path class="st1" d="M382.1,174.7"/>
	<path class="st1" d="M391.1,174.7"/>
	<path class="st1" d="M400.2,174.7"/>
	<path class="st1" d="M409.2,174.7"/>
	<path class="st1" d="M418.3,174.7"/>
	<path class="st1" d="M427.4,174.7"/>
	<path class="st1" d="M436.4,174.7"/>
	<path class="st1" d="M445.5,174.7"/>
	<path class="st1" d="M454.5,174.7"/>
	<path class="st1" d="M463.6,174.7"/>
	<path class="st1" d="M472.6,174.7"/>
	<path class="st1" d="M488.5,174.7"/>
	<path class="st1" d="M502.1,174.7"/>
	<path class="st1" d="M515.7,174.7"/>
	<path class="st1" d="M531.5,174.7"/>
	<path class="st1" d="M545.1,174.7"/>
	<path class="st1" d="M556.4,174.7"/>
	<path class="st1" d="M567.7,174.7"/>
	<path class="st1" d="M576.8,174.7"/>
	<path class="st1" d="M585.8,174.7"/>
	<path class="st1" d="M594.9,174.7"/>
	<path class="st1" d="M604,174.7"/>
	<path class="st1" d="M613,174.7"/>
	<path class="st1" d="M622.1,174.7"/>
	<path class="st1" d="M631.1,174.7"/>
	<path class="st1" d="M640.2,174.7"/>
	<path class="st1" d="M649.2,174.7"/>
	<path class="st1" d="M658.3,174.7"/>
	<path class="st1" d="M667.4,174.7"/>
	<path class="st1" d="M676.4,174.7"/>
	<path class="st1" d="M685.5,174.7"/>
	<path class="st1" d="M694.5,174.7"/>
	<path class="st1" d="M703.6,174.7"/>
	<path class="st1" d="M712.6,174.7"/>
	<path class="st1" d="M721.7,174.7"/>
	<path class="st1" d="M730.8,174.7"/>
	<path class="st1" d="M739.8,174.7"/>
	<path class="st1" d="M748.9,174.7"/>
	<path class="st1" d="M757.9,174.7"/>
	<path class="st1" d="M767,174.7"/>
	<path class="st1" d="M776,174.7"/>
	<path class="st1" d="M785.1,174.7"/>
	<path class="st1" d="M794.2,174.7"/>
	<path class="st1" d="M803.2,174.7"/>
	<path class="st1" d="M812.3,174.7"/>
	<path class="st1" d="M821.3,174.7"/>
	<path class="st1" d="M830.4,174.7"/>
	<path class="st1" d="M839.4,174.7"/>
	<path class="st1" d="M848.5,174.7"/>
	<path class="st1" d="M859.8,174.7"/>
	<path class="st1" d="M868.9,174.7"/>
	<path class="st1" d="M877.9,174.7"/>
	<path class="st1" d="M887,174.7"/>
	<path class="st1" d="M896,174.7"/>
	<path class="st1" d="M905.1,174.7"/>
	<path class="st1" d="M914.2,174.7"/>
	<path class="st1" d="M923.2,174.7"/>
	<path class="st1" d="M932.3,174.7"/>
	<path class="st1" d="M941.3,174.7"/>
	<path class="st1" d="M950.4,174.7"/>
	<path class="st1" d="M959.4,174.7"/>
	<path class="st1" d="M968.5,174.7"/>
	<path class="st1" d="M977.5,174.7"/>
	<path class="st1" d="M986.6,174.7"/>
	<path class="st1" d="M995.7,174.7"/>
	<path class="st1" d="M1004.7,174.7"/>
	<path class="st1" d="M1013.8,174.7"/>
	<path class="st1" d="M1022.8,174.7"/>
	<path class="st1" d="M1031.9,174.7"/>
	<path class="st1" d="M1040.9,174.7"/>
	<path class="st1" d="M1050,174.7"/>
	<path class="st1" d="M1059.1,174.7"/>
	<path class="st1" d="M1068.1,174.7"/>
	<path class="st1" d="M1077.2,174.7"/>
	<path class="st1" d="M1086.2,174.7"/>
	<path class="st1" d="M1095.3,174.7"/>
	<path class="st1" d="M1104.3,174.7"/>
	<path class="st1" d="M1113.4,174.7"/>
	<path class="st1" d="M1122.5,174.7"/>
	<path class="st1" d="M1131.5,174.7"/>
	<path class="st1" d="M1140.6,174.7"/>
	<path class="st1" d="M1149.6,174.7"/>
	<path class="st1" d="M1158.7,174.7"/>
	<path class="st1" d="M1167.7,174.7"/>
	<path class="st2" d="M92.3,411.3c0-118.3,0-118.3,0-236.7"/>
	<path class="st2" d="M101.3,411.3c0-118.3,0-118.3,0-236.7"/>
	<path class="st2" d="M110.4,411.3c0-118.3,0-118.3,0-236.7"/>
	<path class="st2" d="M119.4,411.3c0-118.3,0-118.3,0-236.7"/>
	<path class="st2" d="M128.5,411.3c0-118.3,0-118.3,0-236.7"/>
	<path class="st2" d="M137.5,411.3c0-118.3,0-118.3,0-236.7"/>
	<path class="st2" d="M146.6,411.3c0-118.3,0-118.3,0-236.7"/>
	<path class="st2" d="M155.7,411.3c0-118.3,0-118.3,0-236.7"/>
	<path class="st2" d="M164.7,411.3c0-118.3,0-118.3,0-236.7"/>
	<path class="st2" d="M173.8,411.3c0-118.3,0-118.3,0-236.7"/>
	<path class="st2" d="M182.8,411.3c0-118.3,0-118.3,0-236.7"/>
	<path class="st2" d="M191.9,411.3c0-118.3,0-118.3,0-236.7"/>
	<path class="st2" d="M200.9,411.3c0-118.3,0-118.3,0-236.7"/>
	<path class="st2" d="M210,411.3c0-118.3,0-118.3,0-236.7"/>
	<path class="st2" d="M219.1,411.3c0-118.3,0-118.3,0-236.7"/>
	<path class="st2" d="M228.1,411.3c0-118.3,0-118.3,0-236.7"/>
	<path class="st2" d="M255.3,411.3c0-118.3,0-118.3,0-236.7"/>
	<path class="st2" d="M282.5,411.3c0-118.3,0-118.3,0-236.7"/>
	<path class="st2" d="M309.6,411.3c0-118.3,0-118.3,0-236.7"/>
	<path class="st2" d="M336.8,411.3c0-118.3,0-118.3,0-236.7"/>
	<path class="st2" d="M345.8,411.3c0-118.3,0-118.3,0-236.7"/>
	<path class="st2" d="M354.9,411.3c0-118.3,0-118.3,0-236.7"/>
	<path class="st2" d="M364,411.3c0-118.3,0-118.3,0-236.7"/>
	<path class="st2" d="M373,411.3c0-118.3,0-118.3,0-236.7"/>
	<path class="st2" d="M382.1,411.3c0-118.3,0-118.3,0-236.7"/>
	<path class="st2" d="M391.1,411.3c0-118.3,0-118.3,0-236.7"/>
	<path class="st2" d="M400.2,411.3c0-118.3,0-118.3,0-236.7"/>
	<path class="st2" d="M409.2,411.3c0-118.3,0-118.3,0-236.7"/>
	<path class="st2" d="M418.3,411.3c0-118.3,0-118.3,0-236.7"/>
	<path class="st2" d="M427.4,411.3c0-118.3,0-118.3,0-236.7"/>
	<path class="st2" d="M436.4,411.3c0-118.3,0-118.3,0-236.7"/>
	<path class="st2" d="M445.5,411.3c0-118.3,0-118.3,0-236.7"/>
	<path class="st2" d="M454.5,411.3c0-118.3,0-118.3,0-236.7"/>
	<path class="st2" d="M463.6,411.3c0-118.3,0-118.3,0-236.7"/>
	<path class="st2" d="M472.6,411.3c0-118.3,0-118.3,0-236.7"/>
	<path class="st2" d="M488.5,411.3c0-118.3,0-118.3,0-236.7"/>
	<path class="st2" d="M502.1,411.3c0-118.3,0-118.3,0-236.7"/>
	<path class="st2" d="M515.7,411.3c0-118.3,0-118.3,0-236.7"/>
	<path class="st2" d="M531.5,411.3c0-118.3,0-118.3,0-236.7"/>
	<path class="st2" d="M545.1,411.3c0-118.3,0-118.3,0-236.7"/>
	<path class="st2" d="M556.4,411.3c0-118.3,0-118.3,0-236.7"/>
	<path class="st2" d="M567.7,411.3c0-118.3,0-118.3,0-236.7"/>
	<path class="st2" d="M576.8,411.3c0-118.3,0-118.3,0-236.7"/>
	<path class="st2" d="M585.8,411.3c0-118.3,0-118.3,0-236.7"/>
	<path class="st2" d="M594.9,411.3c0-118.3,0-118.3,0-236.7"/>
	<path class="st2" d="M604,411.3c0-118.3,0-118.3,0-236.7"/>
	<path class="st2" d="M613,411.3c0-118.3,0-118.3,0-236.7"/>
	<path class="st2" d="M622.1,411.3c0-118.3,0-118.3,0-236.7"/>
	<path class="st2" d="M631.1,411.3c0-118.3,0-118.3,0-236.7"/>
	<path class="st2" d="M640.2,411.3c0-118.3,0-118.3,0-236.7"/>
	<path class="st2" d="M649.2,411.3c0-118.3,0-118.3,0-236.7"/>
	<path class="st2" d="M658.3,411.3c0-118.3,0-118.3,0-236.7"/>
	<path class="st2" d="M667.4,411.3c0-118.3,0-118.3,0-236.7"/>
	<path class="st2" d="M676.4,411.3c0-118.3,0-118.3,0-236.7"/>
	<path class="st2" d="M685.5,411.3c0-118.3,0-118.3,0-236.7"/>
	<path class="st2" d="M694.5,411.3c0-118.3,0-118.3,0-236.7"/>
	<path class="st2" d="M703.6,411.3c0-118.3,0-118.3,0-236.7"/>
	<path class="st2" d="M712.6,411.3c0-118.3,0-118.3,0-236.7"/>
	<path class="st2" d="M721.7,411.3c0-118.3,0-118.3,0-236.7"/>
	<path class="st2" d="M730.8,411.3c0-118.3,0-118.3,0-236.7"/>
	<path class="st2" d="M739.8,411.3c0-118.3,0-118.3,0-236.7"/>
	<path class="st2" d="M748.9,411.3c0-118.3,0-118.3,0-236.7"/>
	<path class="st2" d="M757.9,411.3c0-118.3,0-118.3,0-236.7"/>
	<path class="st2" d="M767,411.3c0-118.3,0-118.3,0-236.7"/>
	<path class="st2" d="M776,411.3c0-118.3,0-118.3,0-236.7"/>
	<path class="st2" d="M785.1,411.3c0-118.3,0-118.3,0-236.7"/>
	<path class="st2" d="M794.2,411.3c0-118.3,0-118.3,0-236.7"/>
	<path class="st2" d="M803.2,411.3c0-118.3,0-118.3,0-236.7"/>
	<path class="st2" d="M812.3,411.3c0-118.3,0-118.3,0-236.7"/>
	<path class="st2" d="M821.3,411.3c0-118.3,0-118.3,0-236.7"/>
	<path class="st2" d="M830.4,411.3c0-118.3,0-118.3,0-236.7"/>
	<path class="st2" d="M839.4,411.3c0-118.3,0-118.3,0-236.7"/>
	<path class="st2" d="M848.5,411.3c0-118.3,0-118.3,0-236.7"/>
	<path class="st2" d="M859.8,411.3c0-118.3,0-118.3,0-236.7"/>
	<path class="st2" d="M868.9,411.3c0-118.3,0-118.3,0-236.7"/>
	<path class="st2" d="M877.9,411.3c0-118.3,0-118.3,0-236.7"/>
	<path class="st2" d="M887,411.3c0-118.3,0-118.3,0-236.7"/>
	<path class="st2" d="M896,411.3c0-118.3,0-118.3,0-236.7"/>
	<path class="st2" d="M905.1,411.3c0-118.3,0-118.3,0-236.7"/>
	<path class="st2" d="M914.2,411.3c0-118.3,0-118.3,0-236.7"/>
	<path class="st2" d="M923.2,411.3c0-118.3,0-118.3,0-236.7"/>
	<path class="st2" d="M932.3,411.3c0-118.3,0-118.3,0-236.7"/>
	<path class="st2" d="M941.3,411.3c0-118.3,0-118.3,0-236.7"/>
	<path class="st2" d="M950.4,411.3c0-118.3,0-118.3,0-236.7"/>
	<path class="st2" d="M959.4,411.3c0-118.3,0-118.3,0-236.7"/>
	<path class="st2" d="M968.5,411.3c0-118.3,0-118.3,0-236.7"/>
	<path class="st2" d="M977.5,411.3c0-118.3,0-118.3,0-236.7"/>
	<path class="st2" d="M986.6,411.3c0-118.3,0-118.3,0-236.7"/>
	<path class="st2" d="M995.7,411.3c0-118.3,0-118.3,0-236.7"/>
	<path class="st2" d="M1004.7,411.3c0-118.3,0-118.3,0-236.7"/>
	<path class="st2" d="M1013.8,411.3c0-118.3,0-118.3,0-236.7"/>
	<path class="st2" d="M1022.8,411.3c0-118.3,0-118.3,0-236.7"/>
	<path class="st2" d="M1031.9,411.3c0-118.3,0-118.3,0-236.7"/>
	<path class="st2" d="M1040.9,411.3c0-118.3,0-118.3,0-236.7"/>
	<path class="st2" d="M1050,411.3c0-118.3,0-118.3,0-236.7"/>
	<path class="st2" d="M1059.1,411.3c0-118.3,0-118.3,0-236.7"/>
	<path class="st2" d="M1068.1,411.3c0-118.3,0-118.3,0-236.7"/>
	<path class="st2" d="M1077.2,411.3c0-118.3,0-118.3,0-236.7"/>
	<path class="st2" d="M1086.2,411.3c0-118.3,0-118.3,0-236.7"/>
	<path class="st2" d="M1095.3,411.3c0-118.3,0-118.3,0-236.7"/>
	<path class="st2" d="M1104.3,411.3c0-118.3,0-118.3,0-236.7"/>
	<path class="st2" d="M1113.4,411.3c0-118.3,0-118.3,0-236.7"/>
	<path class="st2" d="M1122.5,411.3c0-118.3,0-118.3,0-236.7"/>
	<path class="st2" d="M1131.5,411.3c0-118.3,0-118.3,0-236.7"/>
	<path class="st2" d="M1140.6,411.3c0-118.3,0-118.3,0-236.7"/>
	<path class="st2" d="M1149.6,411.3c0-118.3,0-118.3,0-236.7"/>
	<path class="st2" d="M1158.7,411.3c0-118.3,0-118.3,0-236.7"/>
	<path class="st2" d="M1167.7,411.3c0-118.3,0-118.3,0-236.7"/>
	<path class="st1" d="M200.9,648c0-118.3,0-118.3,0-236.7"/>
	<path class="st1" d="M219.1,648c0-118.3,9.1-118.3,9.1-236.7"/>
	<path class="st1" d="M223.6,648c0-118.3,4.5-118.3,4.5-236.7"/>
	<path class="st1" d="M228.1,648c0-118.3,0-118.3,0-236.7"/>
	<path class="st1" d="M232.6,648c0-118.3-4.5-118.3-4.5-236.7"/>
	<path class="st1" d="M237.2,648c0-118.3-9.1-118.3-9.1-236.7"/>
	<path class="st1" d="M246.2,648c0-118.3,9.1-118.3,9.1-236.7"/>
	<path class="st1" d="M250.8,648c0-118.3,4.5-118.3,4.5-236.7"/>
	<path class="st1" d="M255.3,648c0-118.3,0-118.3,0-236.7"/>
	<path class="st1" d="M259.8,648c0-118.3-4.5-118.3-4.5-236.7"/>
	<path class="st1" d="M264.3,648c0-118.3-9.1-118.3-9.1-236.7"/>
	<path class="st1" d="M273.4,648c0-118.3,9.1-118.3,9.1-236.7"/>
	<path class="st1" d="M277.9,648c0-118.3,4.5-118.3,4.5-236.7"/>
	<path class="st1" d="M282.5,648c0-118.3,0-118.3,0-236.7"/>
	<path class="st1" d="M287,648c0-118.3-4.5-118.3-4.5-236.7"/>
	<path class="st1" d="M291.5,648c0-118.3-9.1-118.3-9.1-236.7"/>
	<path class="st1" d="M300.6,648c0-118.3,9.1-118.3,9.1-236.7"/>
	<path class="st1" d="M305.1,648c0-118.3,4.5-118.3,4.5-236.7"/>
	<path class="st1" d="M309.6,648c0-118.3,0-118.3,0-236.7"/>
	<path class="st1" d="M314.2,648c0-118.3-4.5-118.3-4.5-236.7"/>
	<path class="st1" d="M318.7,648c0-118.3-9.1-118.3-9.1-236.7"/>
	<path class="st1" d="M327.7,648c0-118.3,9.1-118.3,9.1-236.7"/>
	<path class="st1" d="M332.3,648c0-118.3,4.5-118.3,4.5-236.7"/>
	<path class="st1" d="M336.8,648c0-118.3,0-118.3,0-236.7"/>
	<path class="st1" d="M341.3,648c0-118.3-4.5-118.3-4.5-236.7"/>
	<path class="st1" d="M345.8,648c0-118.3-9.1-118.3-9.1-236.7"/>
	<path class="st1" d="M468.1,648c0-118.3,4.5-118.3,4.5-236.7"/>
	<path class="st1" d="M472.6,648c0-118.3,0-118.3,0-236.7"/>
	<path class="st1" d="M477.2,648c0-118.3-4.5-118.3-4.5-236.7"/>
	<path class="st1" d="M486.2,648c0-118.3,2.3-118.3,2.3-236.7"/>
	<path class="st1" d="M490.8,648c0-118.3-2.3-118.3-2.3-236.7"/>
	<path class="st1" d="M499.8,648c0-118.3,2.3-118.3,2.3-236.7"/>
	<path class="st1" d="M504.3,648c0-118.3-2.3-118.3-2.3-236.7"/>
	<path class="st1" d="M513.4,648c0-118.3,2.3-118.3,2.3-236.7"/>
	<path class="st1" d="M517.9,648c0-118.3-2.3-118.3-2.3-236.7"/>
	<path class="st1" d="M527,648c0-118.3,4.5-118.3,4.5-236.7"/>
	<path class="st1" d="M531.5,648c0-118.3,0-118.3,0-236.7"/>
	<path class="st1" d="M536,648c0-118.3-4.5-118.3-4.5-236.7"/>
	<path class="st1" d="M545.1,648c0-118.3,0-118.3,0-236.7"/>
	<path class="st1" d="M554.2,648c0-118.3,2.3-118.3,2.3-236.7"/>
	<path class="st1" d="M558.7,648c0-118.3-2.3-118.3-2.3-236.7"/>
	<path class="st1" d="M567.7,648c0-118.3,0-118.3,0-236.7"/>
	<path class="st1" d="M576.8,648c0-118.3,0-118.3,0-236.7"/>
	<path class="st1" d="M585.8,648c0-118.3,0-118.3,0-236.7"/>
	<path class="st1" d="M594.9,648c0-118.3,0-118.3,0-236.7"/>
	<path class="st1" d="M604,648c0-118.3,0-118.3,0-236.7"/>
	<path class="st1" d="M613,648c0-118.3,0-118.3,0-236.7"/>
	<path class="st1" d="M622.1,648c0-118.3,0-118.3,0-236.7"/>
	<path class="st1" d="M631.1,648c0-118.3,0-118.3,0-236.7"/>
	<path class="st1" d="M676.4,648c0-118.3,0-118.3,0-236.7"/>
	<path class="st1" d="M746.6,648c0-118.3,2.3-118.3,2.3-236.7"/>
	<path class="st1" d="M751.1,648c0-118.3-2.3-118.3-2.3-236.7"/>
	<path class="st1" d="M773.8,648c0-118.3,2.3-118.3,2.3-236.7"/>
	<path class="st1" d="M778.3,648c0-118.3-2.3-118.3-2.3-236.7"/>
	<path class="st1" d="M800.9,648c0-118.3,2.3-118.3,2.3-236.7"/>
	<path class="st1" d="M805.5,648c0-118.3-2.3-118.3-2.3-236.7"/>
	<path class="st1" d="M828.1,648c0-118.3,2.3-118.3,2.3-236.7"/>
	<path class="st1" d="M832.6,648c0-118.3-2.3-118.3-2.3-236.7"/>
	<path class="st1" d="M846.2,648c0-118.3,2.3-118.3,2.3-236.7"/>
	<path class="st1" d="M850.8,648c0-118.3-2.3-118.3-2.3-236.7"/>
	<path class="st1" d="M859.8,648c0-118.3,0-118.3,0-236.7"/>
	<path class="st1" d="M877.9,648c0-118.3,0-118.3,0-236.7"/>
	<path class="st1" d="M896,648c0-118.3,0-118.3,0-236.7"/>
	<path class="st1" d="M914.2,648c0-118.3,0-118.3,0-236.7"/>
	<path class="st1" d="M932.3,648c0-118.3,0-118.3,0-236.7"/>
	<path class="st1" d="M950.4,648c0-118.3,0-118.3,0-236.7"/>
	<path class="st1" d="M959.4,648c0-118.3,0-118.3,0-236.7"/>
	<path class="st1" d="M968.5,648c0-118.3,0-118.3,0-236.7"/>
	<path class="st1" d="M977.5,648c0-118.3,0-118.3,0-236.7"/>
	<path class="st1" d="M986.6,648c0-118.3,0-118.3,0-236.7"/>
	<path class="st1" d="M1086.2,648c0-118.3,0-118.3,0-236.7"/>
</g>
<line class="st3" x1="58.3" y1="173.7" x2="1201.7" y2="173.7"/>
<circle class="st4" cx="128.5" cy="380.1" r="3.5"/>
<ellipse class="st5" cx="237.2" cy="611.5" rx="1.9" ry="1.8"/>
<ellipse class="st5" cx="264.3" cy="611.5" rx="1.9" ry="1.8"/>
<ellipse class="st5" cx="264.3" cy="606.9" rx="1.9" ry="1.8"/>
<ellipse class="st5" cx="264.3" cy="616" rx="1.9" ry="1.8"/>
<ellipse class="st5" cx="291.5" cy="611.5" rx="1.9" ry="1.8"/>
<ellipse class="st5" cx="291.5" cy="606.9" rx="1.9" ry="1.8"/>
<ellipse class="st5" cx="291.5" cy="616" rx="1.9" ry="1.8"/>
<ellipse class="st5" cx="291.5" cy="602.3" rx="1.9" ry="1.8"/>
<ellipse class="st5" cx="291.5" cy="620.4" rx="1.9" ry="1.8"/>
<ellipse class="st5" cx="318.7" cy="611.5" rx="1.9" ry="1.8"/>
<ellipse class="st5" cx="341.3" cy="613.2" rx="1.9" ry="1.8"/>
<ellipse class="st5" cx="341.3" cy="608.7" rx="1.9" ry="1.8"/>
<circle class="st4" cx="345.8" cy="381.6" r="3.5"/>
<ellipse class="st5" cx="436.4" cy="311.6" rx="1.9" ry="1.8"/>
<ellipse class="st5" cx="436.4" cy="307" rx="1.9" ry="1.8"/>
<ellipse class="st5" cx="436.2" cy="316" rx="1.9" ry="1.8"/>
<ellipse class="st5" cx="436.4" cy="302.4" rx="1.9" ry="1.8"/>
<ellipse class="st5" cx="436.4" cy="320.5" rx="1.9" ry="1.8"/>
<ellipse class="st5" cx="445.5" cy="310" rx="1.9" ry="1.8"/>
<ellipse class="st5" cx="445.5" cy="305.5" rx="1.9" ry="1.8"/>
<ellipse class="st5" cx="454.6" cy="304.3" rx="1.9" ry="1.8"/>
<ellipse class="st5" cx="454.6" cy="299.7" rx="1.9" ry="1.8"/>
<ellipse class="st5" cx="454.4" cy="308.7" rx="1.9" ry="1.8"/>
<ellipse class="st5" cx="454.6" cy="295.1" rx="1.9" ry="1.8"/>
<ellipse class="st5" cx="454.6" cy="313.2" rx="1.9" ry="1.8"/>
<ellipse class="st5" cx="454.6" cy="322.3" rx="1.9" ry="1.8"/>
<ellipse class="st5" cx="454.6" cy="317.7" rx="1.9" ry="1.8"/>
<ellipse class="st5" cx="463.6" cy="309.8" rx="1.9" ry="1.8"/>
<ellipse class="st5" cx="472.6" cy="314.1" rx="1.9" ry="1.8"/>
<ellipse class="st5" cx="472.6" cy="309.5" rx="1.9" ry="1.8"/>
<ellipse class="st5" cx="472.6" cy="304.9" rx="1.9" ry="1.8"/>
<ellipse class="st5" cx="477.2" cy="615" rx="1.9" ry="1.8"/>
<ellipse class="st5" cx="477.2" cy="610.4" rx="1.9" ry="1.8"/>
<ellipse class="st5" cx="488.5" cy="314.1" rx="1.9" ry="1.8"/>
<ellipse class="st5" cx="488.5" cy="309.5" rx="1.9" ry="1.8"/>
<ellipse class="st5" cx="488.5" cy="304.9" rx="1.9" ry="1.8"/>
<circle class="st4" cx="486.2" cy="639.3" r="3.5"/>
<ellipse class="st5" cx="490.8" cy="610.4" rx="1.9" ry="1.8"/>
<ellipse class="st5" cx="502.1" cy="313.3" rx="1.9" ry="1.8"/>
<ellipse class="st5" cx="502.1" cy="308.7" rx="1.9" ry="1.8"/>
<ellipse class="st5" cx="502.1" cy="304.2" rx="1.9" ry="1.8"/>
<ellipse class="st5" cx="504.3" cy="614.4" rx="1.9" ry="1.8"/>
<ellipse class="st5" cx="504.3" cy="609.9" rx="1.9" ry="1.8"/>
<ellipse class="st5" cx="515.7" cy="309.5" rx="1.9" ry="1.8"/>
<ellipse class="st5" cx="515.7" cy="304.9" rx="1.9" ry="1.8"/>
<ellipse class="st5" cx="517.9" cy="609.9" rx="1.9" ry="1.8"/>
<ellipse class="st5" cx="531.5" cy="313.3" rx="1.9" ry="1.8"/>
<ellipse class="st5" cx="531.5" cy="308.7" rx="1.9" ry="1.8"/>
<ellipse class="st5" cx="531.5" cy="304.2" rx="1.9" ry="1.8"/>
<ellipse class="st5" cx="536" cy="609.9" rx="1.9" ry="1.8"/>
<ellipse class="st5" cx="545.1" cy="313.3" rx="1.9" ry="1.8"/>
<ellipse class="st5" cx="545.1" cy="308.7" rx="1.9" ry="1.8"/>
<ellipse class="st5" cx="545.1" cy="304.2" rx="1.9" ry="1.8"/>
<circle class="st4" cx="545.1" cy="640.7" r="3.5"/>
<ellipse class="st5" cx="556.4" cy="313.3" rx="1.9" ry="1.8"/>
<ellipse class="st5" cx="556.4" cy="308.7" rx="1.9" ry="1.8"/>
<ellipse class="st5" cx="556.4" cy="304.2" rx="1.9" ry="1.8"/>
<circle class="st4" cx="558.7" cy="637.7" r="3.5"/>
<circle class="st4" cx="567.7" cy="640.7" r="3.5"/>
<circle class="st4" cx="576.8" cy="637.7" r="3.5"/>
<circle class="st4" cx="585.8" cy="640.7" r="3.5"/>
<circle class="st4" cx="594.9" cy="636.7" r="3.5"/>
<circle class="st4" cx="604" cy="640.7" r="3.5"/>
<circle class="st4" cx="613" cy="636.7" r="3.5"/>
<circle class="st4" cx="622.1" cy="640.7" r="3.5"/>
<ellipse class="st5" cx="567.7" cy="304.3" rx="1.9" ry="1.8"/>
<ellipse class="st5" cx="567.7" cy="313.5" rx="1.9" ry="1.8"/>
<ellipse class="st5" cx="567.7" cy="309" rx="1.9" ry="1.8"/>
<ellipse class="st5" cx="576.8" cy="310" rx="1.9" ry="1.8"/>
<ellipse class="st5" cx="585.8" cy="303.9" rx="1.9" ry="1.8"/>
<ellipse class="st5" cx="585.8" cy="313.1" rx="1.9" ry="1.8"/>
<ellipse class="st5" cx="585.8" cy="308.6" rx="1.9" ry="1.8"/>
<ellipse class="st5" cx="594.9" cy="310" rx="1.9" ry="1.8"/>
<ellipse class="st5" cx="613" cy="310" rx="1.9" ry="1.8"/>
<circle class="st4" cx="640.2" cy="377.6" r="3.5"/>
<circle class="st4" cx="658.1" cy="377.6" r="3.5"/>
<ellipse class="st5" cx="685.5" cy="307.7" rx="1.9" ry="1.8"/>
<ellipse class="st5" cx="685.5" cy="312.4" rx="1.9" ry="1.8"/>
<ellipse class="st5" cx="685.5" cy="370.4" rx="1.9" ry="1.8"/>
<ellipse class="st5" cx="685.5" cy="379.6" rx="1.9" ry="1.8"/>
<ellipse class="st5" cx="685.5" cy="375.1" rx="1.9" ry="1.8"/>
<circle class="st4" cx="694.5" cy="377.6" r="3.5"/>
<circle class="st4" cx="712.8" cy="378" r="3.5"/>
<circle class="st4" cx="730.7" cy="377.1" r="3.5"/>
<ellipse class="st5" cx="746.6" cy="609.8" rx="1.9" ry="1.8"/>
<circle class="st4" cx="746.6" cy="640.7" r="3.5"/>
<ellipse class="st5" cx="776" cy="309" rx="1.9" ry="1.8"/>
<ellipse class="st5" cx="773.8" cy="610.6" rx="1.9" ry="1.8"/>
<circle class="st4" cx="773.8" cy="641.4" r="3.5"/>
<circle class="st4" cx="778.3" cy="634.2" r="3.5"/>
<ellipse class="st5" cx="803.2" cy="303" rx="1.9" ry="1.8"/>
<ellipse class="st5" cx="803.2" cy="312.2" rx="1.9" ry="1.8"/>
<ellipse class="st5" cx="803.2" cy="307.7" rx="1.9" ry="1.8"/>
<ellipse class="st5" cx="800.9" cy="611.6" rx="1.9" ry="1.8"/>
<circle class="st4" cx="800.9" cy="641.4" r="3.5"/>
<circle class="st4" cx="821.3" cy="379.6" r="3.5"/>
<circle class="st4" cx="832.6" cy="634.2" r="3.5"/>
<circle class="st4" cx="839.4" cy="379.6" r="3.5"/>
<circle class="st4" cx="846.2" cy="641.8" r="3.5"/>
<circle class="st4" cx="850.8" cy="634.6" r="3.5"/>
<ellipse class="st5" cx="846.2" cy="610.6" rx="1.9" ry="1.8"/>
<circle class="st4" cx="859.8" cy="641.4" r="3.5"/>
<circle class="st4" cx="868.9" cy="371.6" r="3.5"/>
<circle class="st4" cx="886.8" cy="371" r="3.5"/>
<circle class="st4" cx="914.2" cy="634.6" r="3.5"/>
<circle class="st4" cx="914.4" cy="379" r="3.5"/>
<ellipse class="st5" cx="950.4" cy="302.1" rx="1.9" ry="1.8"/>
<ellipse class="st5" cx="950.4" cy="237" rx="1.9" ry="1.8"/>
<ellipse class="st5" cx="959.4" cy="237" rx="1.9" ry="1.8"/>
<ellipse class="st5" cx="959.4" cy="298.7" rx="1.9" ry="1.8"/>
<ellipse class="st5" cx="959.4" cy="303.4" rx="1.9" ry="1.8"/>
<ellipse class="st5" cx="968.5" cy="237" rx="1.9" ry="1.8"/>
<ellipse class="st5" cx="968.4" cy="301.5" rx="1.9" ry="1.8"/>
<ellipse class="st5" cx="968.3" cy="305.7" rx="1.9" ry="1.8"/>
<ellipse class="st5" cx="968.5" cy="292.1" rx="1.9" ry="1.8"/>
<ellipse class="st5" cx="968.5" cy="310.2" rx="1.9" ry="1.8"/>
<ellipse class="st5" cx="968.5" cy="319.2" rx="1.9" ry="1.8"/>
<ellipse class="st5" cx="968.5" cy="314.7" rx="1.9" ry="1.8"/>
<ellipse class="st5" cx="968.5" cy="296.4" rx="1.9" ry="1.8"/>
<ellipse class="st5" cx="968.5" cy="324.5" rx="1.9" ry="1.8"/>
<ellipse class="st5" cx="968.4" cy="626.4" rx="1.9" ry="1.8"/>
<ellipse class="st5" cx="968.4" cy="636.1" rx="1.9" ry="1.8"/>
<ellipse class="st5" cx="968.4" cy="631.5" rx="1.9" ry="1.8"/>
<ellipse class="st5" cx="968.4" cy="621.3" rx="1.9" ry="1.8"/>
<ellipse class="st5" cx="968.4" cy="641.3" rx="1.9" ry="1.8"/>
<ellipse class="st5" cx="977.4" cy="310.7" rx="1.9" ry="1.8"/>
<ellipse class="st5" cx="977.6" cy="297.1" rx="1.9" ry="1.8"/>
<ellipse class="st5" cx="977.6" cy="301.5" rx="1.9" ry="1.8"/>
<ellipse class="st5" cx="977.4" cy="306.7" rx="1.9" ry="1.8"/>
<ellipse class="st5" cx="986.6" cy="298" rx="1.9" ry="1.8"/>
<ellipse class="st5" cx="986.5" cy="302.2" rx="1.9" ry="1.8"/>
<ellipse class="st5" cx="986.7" cy="306.7" rx="1.9" ry="1.8"/>
<ellipse class="st5" cx="986.7" cy="311.2" rx="1.9" ry="1.8"/>
<ellipse class="st5" cx="986.7" cy="293" rx="1.9" ry="1.8"/>
<ellipse class="st5" cx="995.7" cy="237" rx="1.9" ry="1.8"/>
<ellipse class="st5" cx="995.7" cy="298.7" rx="1.9" ry="1.8"/>
<ellipse class="st5" cx="995.7" cy="303.4" rx="1.9" ry="1.8"/>
<ellipse class="st5" cx="1004.7" cy="301.6" rx="1.9" ry="1.8"/>
<ellipse class="st5" cx="1004.6" cy="305.8" rx="1.9" ry="1.8"/>
<ellipse class="st5" cx="1004.8" cy="292.2" rx="1.9" ry="1.8"/>
<ellipse class="st5" cx="1004.8" cy="310.3" rx="1.9" ry="1.8"/>
<ellipse class="st5" cx="1004.8" cy="319.4" rx="1.9" ry="1.8"/>
<ellipse class="st5" cx="1004.8" cy="314.8" rx="1.9" ry="1.8"/>
<ellipse class="st5" cx="1004.8" cy="296.6" rx="1.9" ry="1.8"/>
<ellipse class="st5" cx="1004.8" cy="324.6" rx="1.9" ry="1.8"/>
<ellipse class="st5" cx="1004.8" cy="237" rx="1.9" ry="1.8"/>
<ellipse class="st5" cx="1013.8" cy="292.6" rx="1.9" ry="1.8"/>
<ellipse class="st5" cx="1013.7" cy="296.8" rx="1.9" ry="1.8"/>
<ellipse class="st5" cx="1013.9" cy="301.3" rx="1.9" ry="1.8"/>
<ellipse class="st5" cx="1013.9" cy="305.8" rx="1.9" ry="1.8"/>
<ellipse class="st5" cx="1013.9" cy="236.6" rx="1.9" ry="1.8"/>
<ellipse class="st5" cx="1013.9" cy="241" rx="1.9" ry="1.8"/>
<path class="st5" d="M1022.8,290.5c1,0,1.9,0.8,1.9,1.8s-0.9,1.8-1.9,1.8s-1.9-0.8-1.9-1.8S1021.8,290.5,1022.8,290.5z"/>
<path class="st5" d="M1022.7,294.7c1,0,1.9,0.8,1.9,1.8s-0.9,1.8-1.9,1.8s-1.9-0.8-1.9-1.8S1021.7,294.7,1022.7,294.7z"/>
<ellipse class="st5" cx="1022.9" cy="301" rx="1.9" ry="1.8"/>
<ellipse class="st5" cx="1022.9" cy="305.5" rx="1.9" ry="1.8"/>
<ellipse class="st5" cx="1031.9" cy="292" rx="1.9" ry="1.8"/>
<ellipse class="st5" cx="1031.8" cy="296.2" rx="1.9" ry="1.8"/>
<ellipse class="st5" cx="1032" cy="300.7" rx="1.9" ry="1.8"/>
<ellipse class="st5" cx="1032" cy="305.2" rx="1.9" ry="1.8"/>
<ellipse class="st5" cx="1032" cy="310.2" rx="1.9" ry="1.8"/>
<ellipse class="st5" cx="1050" cy="292.1" rx="1.9" ry="1.8"/>
<ellipse class="st5" cx="1059.1" cy="292.5" rx="1.9" ry="1.8"/>
<ellipse class="st5" cx="1059" cy="296.7" rx="1.9" ry="1.8"/>
<ellipse class="st5" cx="1059.2" cy="301.2" rx="1.9" ry="1.8"/>
<ellipse class="st5" cx="1059.2" cy="236.6" rx="1.9" ry="1.8"/>
<ellipse class="st5" cx="1077.2" cy="294.4" rx="1.9" ry="1.8"/>
<ellipse class="st5" cx="1077.2" cy="298.6" rx="1.9" ry="1.8"/>
<ellipse class="st5" cx="1086.2" cy="292.9" rx="1.9" ry="1.8"/>
<ellipse class="st5" cx="1095" cy="296.1" rx="1.9" ry="1.8"/>
<ellipse class="st5" cx="1104" cy="294.7" rx="1.9" ry="1.8"/>
<ellipse class="st5" cx="1113.4" cy="294.8" rx="1.9" ry="1.8"/>
<circle class="st4" cx="1103.9" cy="371" r="3.5"/>
<ellipse class="st5" cx="1122.5" cy="236.6" rx="1.9" ry="1.8"/>
<line class="st6" x1="66.8" y1="166.4" x2="92.3" y2="138.9"/>
<rect x="90.3" y="121.1" class="st7" width="66.4" height="23.2"/>
<text transform="matrix(1 0 0 1 90.2993 130.0518)" class="st8 st9">main cord</text>
<line class="st6" x1="57.4" y1="385.2" x2="82.8" y2="357.7"/>
<rect x="12.4" y="390.3" class="st7" width="66.4" height="34"/>
<text transform="matrix(1 0 0 1 12.417 399.2972)" class="st8 st9">pendant </text>
<text transform="matrix(1 0 0 1 12.417 413.6973)" class="st8 st9">cord</text>
<line class="st6" x1="164.7" y1="592.1" x2="190.2" y2="564.6"/>
<rect x="119.7" y="597.2" class="st7" width="66.4" height="34"/>
<text transform="matrix(1 0 0 1 119.745 606.1614)" class="st8 st9">subsidiary </text>
<text transform="matrix(1 0 0 1 119.745 620.5614)" class="st8 st9">cord</text>
<rect x="855.4" y="18.5" class="st7" width="59.3" height="16.2"/>
<text transform="matrix(1 0 0 1 866.2483 26.7731)" class="st10 st11 st12">Cord 85</text>
<g>
	<path class="st13" d="M958.8,168.3c0-9.7-8.2-16.4-17.1-18.3"/>
	<path class="st13" d="M959.6,158.5"/>
	<path class="st13" d="M959.2,169.1c1-1.9,2-3.8,3-5.7"/>
	<line class="st13" x1="959.5" y1="169.2" x2="954.6" y2="162.6"/>
</g>
<path class="st14" d="M887,155.6c0-50.6,0-50.6,0-101.3"/>
<ellipse class="st5" cx="887" cy="60" rx="1.9" ry="1.8"/>
<ellipse class="st5" cx="887" cy="101.7" rx="1.9" ry="1.8"/>
<ellipse class="st5" cx="887" cy="95.2" rx="1.9" ry="1.8"/>
<circle class="st15" cx="885.5" cy="99.6" r="64.9"/>
<rect x="859.8" y="54.2" class="st7" width="13.4" height="12.6"/>
<text transform="matrix(1 0 0 1 860.5371 62.4336)" class="st8 st12">1s</text>
<rect x="859.8" y="93" class="st7" width="13.4" height="12.6"/>
<text transform="matrix(1 0 0 1 860.5371 101.2797)" class="st8 st12">2s</text>
<rect x="859.8" y="138.5" class="st7" width="13.4" height="12.6"/>
<text transform="matrix(1 0 0 1 860.4131 146.7823)" class="st8 st12">5L</text>
<g>
	<line class="st16" x1="914.2" y1="141.7" x2="913.7" y2="65.4"/>
	<g>
		<line class="st16" x1="902.5" y1="65.4" x2="913.9" y2="65.4"/>
		<line class="st16" x1="902.5" y1="141.4" x2="913.9" y2="141.4"/>
	</g>
</g>
<rect x="915.9" y="97" class="st7" width="33.5" height="17.8"/>
<text transform="matrix(1 0 0 1 915.9133 105.3895)" class="st17 st18 st12">= 125</text>
<rect x="902.6" y="719.8" class="st7" width="59.3" height="16.2"/>
<text transform="matrix(1 0 0 1 907.6682 728.0017)" class="st10 st11 st12">Cord 62s1</text>
<g>
	<path class="st13" d="M746.5,655.1c0.3,9.7,8.6,16.2,17.6,17.9"/>
	<path class="st13" d="M746,664.9"/>
	<path class="st13" d="M746.2,654.3c-0.9,1.9-1.9,3.8-2.8,5.8"/>
	<line class="st13" x1="745.9" y1="654.2" x2="751.1" y2="659"/>
</g>
<path class="st14" d="M821.6,777.9c0-50.6,0-50.6,0-101.3"/>
<ellipse class="st5" cx="821.6" cy="723.9" rx="1.9" ry="1.8"/>
<circle class="st15" cx="820.2" cy="721.8" r="64.9"/>
<rect x="794.4" y="715.2" class="st7" width="13.4" height="12.6"/>
<text transform="matrix(1 0 0 1 795.2046 723.491)" class="st8 st12">1s</text>
<rect x="794.4" y="760.7" class="st7" width="13.4" height="12.6"/>
<text transform="matrix(1 0 0 1 794.9136 768.9937)" class="st8 st12">1E</text>
<g>
	<line class="st16" x1="848.9" y1="763.9" x2="848.3" y2="687.6"/>
	<g>
		<line class="st16" x1="837.1" y1="687.6" x2="848.6" y2="687.6"/>
		<line class="st16" x1="837.1" y1="763.6" x2="848.6" y2="763.6"/>
	</g>
</g>
<rect x="850.7" y="718.9" class="st7" width="35" height="13.5"/>
<text transform="matrix(1 0 0 1 850.6567 727.2258)" class="st17 st18 st12"> = 11</text>
<rect x="695.6" y="440" class="st7" width="59.3" height="16.2"/>
<text transform="matrix(1 0 0 1 706.469 448.2625)" class="st10 st11 st12">Cord 62</text>
<g>
	<path class="st13" d="M744.2,412.3c-6.7,5.9-11.7,14.1-11,21.7"/>
	<path class="st13" d="M735.1,416.1"/>
	<path class="st13" d="M744.7,411.6c-0.2,0-2.7,0.8-6.8,1.2"/>
	<line class="st13" x1="744.7" y1="411.3" x2="742.9" y2="419"/>
</g>
<circle class="st4" cx="821.6" cy="765.2" r="3.5"/>
<rect x="1003.7" y="754.6" class="st7" width="244.7" height="37.3"/>
<rect x="21.2" y="758.6" class="st7" width="366.8" height="30.8"/>
<rect x="14.8" y="756.8" class="st7" width="379.2" height="30.4"/>
<text transform="matrix(1 0 0 1 14.7906 765.797)" class="st10 st11 st9">This is a graphical representation of object USNM #A365240-0 from the </text>
<text transform="matrix(1 0 0 1 14.7906 780.197)" class="st10 st11 st9">Anthropology Department of The National Museum of Natural History</text>
<g>
	<circle class="st19" cx="1184.4" cy="45.4" r="3.5"/>
	<path class="st20" d="M1181.6,43.9c-0.4-0.3-0.6-0.7-0.4-1.1s0.8-0.7,1.4-0.3"/>
	<path class="st20" d="M1181,45.4c-0.5-0.2-0.7-0.6-0.7-1c0.1-0.5,0.7-0.8,1.3-0.6"/>
	<path class="st20" d="M1181.4,46.8c-0.4,0.2-0.9,0.1-1.2-0.2c-0.3-0.4-0.2-1.1,0.4-1.4"/>
	<path class="st20" d="M1182.3,48.2c-0.3,0.4-0.8,0.4-1.2,0.2c-0.4-0.3-0.5-1-0.1-1.5"/>
	<path class="st20" d="M1184,48.8c-0.1,0.5-0.5,0.8-0.9,0.7c-0.5,0-0.9-0.6-0.7-1.3"/>
	<path class="st20" d="M1185.7,48.5c0.1,0.5-0.2,0.9-0.5,1c-0.4,0.1-1.1-0.2-1.2-0.9"/>
	<path class="st20" d="M1187.1,47.4c0.3,0.4,0.4,0.9,0.2,1.2c-0.3,0.4-1,0.5-1.5,0"/>
	<path class="st20" d="M1187.9,46.1c0.4,0.2,0.7,0.7,0.6,1c-0.1,0.5-0.7,0.8-1.4,0.5"/>
	<path class="st20" d="M1187.8,44.4c0.5-0.1,0.9,0.2,1,0.5c0.2,0.4-0.2,1.1-0.8,1.2"/>
</g>
<g>
	<circle class="st19" cx="92.7" cy="380.8" r="3.5"/>
	<path class="st20" d="M89.8,379.3c-0.4-0.3-0.6-0.7-0.4-1.1s0.8-0.7,1.4-0.3"/>
	<path class="st20" d="M89.2,380.7c-0.5-0.2-0.7-0.6-0.7-1c0.1-0.5,0.7-0.8,1.3-0.6"/>
	<path class="st20" d="M89.6,382.2c-0.4,0.2-0.9,0.1-1.2-0.2c-0.3-0.4-0.2-1.1,0.4-1.4"/>
	<path class="st20" d="M90.5,383.5c-0.3,0.4-0.8,0.4-1.2,0.2c-0.4-0.3-0.5-1-0.1-1.5"/>
	<path class="st20" d="M92.2,384.1c-0.1,0.5-0.5,0.8-0.9,0.7c-0.5,0-0.9-0.6-0.7-1.3"/>
	<path class="st20" d="M93.9,383.9c0.1,0.5-0.2,0.9-0.5,1c-0.4,0.1-1.1-0.2-1.2-0.9"/>
</g>
<g>
	<circle class="st19" cx="1184" cy="59.3" r="3.5"/>
	<path class="st20" d="M1181.2,57.8c-0.4-0.3-0.6-0.7-0.4-1.1c0.2-0.4,0.8-0.7,1.4-0.3"/>
</g>
<g>
	<circle class="st19" cx="101.7" cy="375.7" r="3.5"/>
	<path class="st20" d="M98.9,374.2c-0.4-0.3-0.6-0.7-0.4-1.1s0.8-0.7,1.4-0.3"/>
	<path class="st20" d="M98.3,375.7c-0.5-0.2-0.7-0.6-0.7-1c0.1-0.5,0.7-0.8,1.3-0.6"/>
	<path class="st20" d="M98.7,377.1c-0.4,0.2-0.9,0.1-1.2-0.2c-0.3-0.4-0.2-1.1,0.4-1.4"/>
</g>
<g>
	<circle class="st19" cx="111" cy="381.3" r="3.5"/>
	<path class="st20" d="M108.1,379.8c-0.4-0.3-0.6-0.7-0.4-1.1s0.8-0.7,1.4-0.3"/>
	<path class="st20" d="M107.6,381.3c-0.5-0.2-0.7-0.6-0.7-1c0.1-0.5,0.7-0.8,1.3-0.6"/>
	<path class="st20" d="M108,382.7c-0.4,0.2-0.9,0.1-1.2-0.2c-0.3-0.4-0.2-1.1,0.4-1.4"/>
	<path class="st20" d="M108.8,384.1c-0.3,0.4-0.8,0.4-1.2,0.2c-0.4-0.3-0.5-1-0.1-1.5"/>
	<path class="st20" d="M110.5,384.7c-0.1,0.5-0.5,0.8-0.9,0.7c-0.5,0-0.9-0.6-0.7-1.3"/>
	<path class="st20" d="M112.2,384.4c0.1,0.5-0.2,0.9-0.5,1c-0.4,0.1-1.1-0.2-1.2-0.9"/>
	<path class="st20" d="M113.6,383.3c0.3,0.4,0.4,0.9,0.2,1.2c-0.3,0.4-1,0.5-1.5,0"/>
</g>
<g>
	<circle class="st19" cx="119.8" cy="375.5" r="3.5"/>
	<path class="st20" d="M117,374c-0.4-0.3-0.6-0.7-0.4-1.1s0.8-0.7,1.4-0.3"/>
	<path class="st20" d="M116.4,375.5c-0.5-0.2-0.7-0.6-0.7-1c0.1-0.5,0.7-0.8,1.3-0.6"/>
	<path class="st20" d="M116.8,377c-0.4,0.2-0.9,0.1-1.2-0.2c-0.3-0.4-0.2-1.1,0.4-1.4"/>
</g>
<g>
	<circle class="st19" cx="137.9" cy="375.1" r="3.5"/>
	<path class="st20" d="M135.1,373.6c-0.4-0.3-0.6-0.7-0.4-1.1c0.2-0.4,0.8-0.7,1.4-0.3"/>
	<path class="st20" d="M134.5,375.1c-0.5-0.2-0.7-0.6-0.7-1c0.1-0.5,0.7-0.8,1.3-0.6"/>
	<path class="st20" d="M134.9,376.6c-0.4,0.2-0.9,0.1-1.2-0.2c-0.3-0.4-0.2-1.1,0.4-1.4"/>
	<path class="st20" d="M135.8,377.9c-0.3,0.4-0.8,0.4-1.2,0.2c-0.4-0.3-0.5-1-0.1-1.5"/>
	<path class="st20" d="M137.4,378.5c-0.1,0.5-0.5,0.8-0.9,0.7c-0.5,0-0.9-0.6-0.7-1.3"/>
</g>
<g>
	<circle class="st19" cx="156.1" cy="375.2" r="3.5"/>
	<path class="st20" d="M153.3,373.7c-0.4-0.3-0.6-0.7-0.4-1.1c0.2-0.4,0.8-0.7,1.4-0.3"/>
	<path class="st20" d="M152.7,375.2c-0.5-0.2-0.7-0.6-0.7-1c0.1-0.5,0.7-0.8,1.3-0.6"/>
	<path class="st20" d="M153.1,376.7c-0.4,0.2-0.9,0.1-1.2-0.2c-0.3-0.4-0.2-1.1,0.4-1.4"/>
	<path class="st20" d="M154,378c-0.3,0.4-0.8,0.4-1.2,0.2c-0.4-0.3-0.5-1-0.1-1.5"/>
	<path class="st20" d="M155.6,378.6c-0.1,0.5-0.5,0.8-0.9,0.7c-0.5,0-0.9-0.6-0.7-1.3"/>
</g>
<g>
	<circle class="st19" cx="147" cy="380.4" r="3.5"/>
	<path class="st20" d="M144.2,378.9c-0.4-0.3-0.6-0.7-0.4-1.1c0.2-0.4,0.8-0.7,1.4-0.3"/>
	<path class="st20" d="M143.6,380.4c-0.5-0.2-0.7-0.6-0.7-1c0.1-0.5,0.7-0.8,1.3-0.6"/>
	<path class="st20" d="M144,381.9c-0.4,0.2-0.9,0.1-1.2-0.2c-0.3-0.4-0.2-1.1,0.4-1.4"/>
	<path class="st20" d="M144.9,383.2c-0.3,0.4-0.8,0.4-1.2,0.2c-0.4-0.3-0.5-1-0.1-1.5"/>
</g>
<g>
	<circle class="st19" cx="165" cy="380.6" r="3.5"/>
	<path class="st20" d="M162.1,379.1c-0.4-0.3-0.6-0.7-0.4-1.1c0.2-0.4,0.8-0.7,1.4-0.3"/>
	<path class="st20" d="M161.6,380.6c-0.5-0.2-0.7-0.6-0.7-1c0.1-0.5,0.7-0.8,1.3-0.6"/>
</g>
<g>
	<circle class="st19" cx="174.1" cy="375.1" r="3.5"/>
	<path class="st20" d="M171.2,373.6c-0.4-0.3-0.6-0.7-0.4-1.1c0.2-0.4,0.8-0.7,1.4-0.3"/>
	<path class="st20" d="M170.7,375.1c-0.5-0.2-0.7-0.6-0.7-1c0.1-0.5,0.7-0.8,1.3-0.6"/>
</g>
<g>
	<circle class="st19" cx="183.2" cy="381.2" r="3.5"/>
	<path class="st20" d="M180.4,379.7c-0.4-0.3-0.6-0.7-0.4-1.1c0.2-0.4,0.8-0.7,1.4-0.3"/>
	<path class="st20" d="M179.8,381.2c-0.5-0.2-0.7-0.6-0.7-1c0.1-0.5,0.7-0.8,1.3-0.6"/>
	<path class="st20" d="M180.2,382.6c-0.4,0.2-0.9,0.1-1.2-0.2c-0.3-0.4-0.2-1.1,0.4-1.4"/>
	<path class="st20" d="M181.1,383.9c-0.3,0.4-0.8,0.4-1.2,0.2c-0.4-0.3-0.5-1-0.1-1.5"/>
</g>
<g>
	<circle class="st19" cx="192.3" cy="375" r="3.5"/>
	<path class="st20" d="M189.5,373.5c-0.4-0.3-0.6-0.7-0.4-1.1c0.2-0.4,0.8-0.7,1.4-0.3"/>
	<path class="st20" d="M188.9,375c-0.5-0.2-0.7-0.6-0.7-1c0.1-0.5,0.7-0.8,1.3-0.6"/>
	<path class="st20" d="M189.3,376.5c-0.4,0.2-0.9,0.1-1.2-0.2c-0.3-0.4-0.2-1.1,0.4-1.4"/>
	<path class="st20" d="M190.2,377.8c-0.3,0.4-0.8,0.4-1.2,0.2c-0.4-0.3-0.5-1-0.1-1.5"/>
</g>
<g>
	<circle class="st19" cx="201.6" cy="381.5" r="3.5"/>
	<path class="st20" d="M198.7,380c-0.4-0.3-0.6-0.7-0.4-1.1c0.2-0.4,0.8-0.7,1.4-0.3"/>
	<path class="st20" d="M198.1,381.5c-0.5-0.2-0.7-0.6-0.7-1c0.1-0.5,0.7-0.8,1.3-0.6"/>
	<path class="st20" d="M198.5,382.9c-0.4,0.2-0.9,0.1-1.2-0.2c-0.3-0.4-0.2-1.1,0.4-1.4"/>
	<path class="st20" d="M199.4,384.3c-0.3,0.4-0.8,0.4-1.2,0.2c-0.4-0.3-0.5-1-0.1-1.5"/>
</g>
<g>
	<circle class="st19" cx="201.3" cy="639.6" r="3.5"/>
	<path class="st20" d="M198.5,638.1c-0.4-0.3-0.6-0.7-0.4-1.1c0.2-0.4,0.8-0.7,1.4-0.3"/>
	<path class="st20" d="M197.9,639.6c-0.5-0.2-0.7-0.6-0.7-1c0.1-0.5,0.7-0.8,1.3-0.6"/>
	<path class="st20" d="M198.3,641c-0.4,0.2-0.9,0.1-1.2-0.2c-0.3-0.4-0.2-1.1,0.4-1.4"/>
	<path class="st20" d="M199.2,642.3c-0.3,0.4-0.8,0.4-1.2,0.2c-0.4-0.3-0.5-1-0.1-1.5"/>
	<path class="st20" d="M200.8,643c-0.1,0.5-0.5,0.8-0.9,0.7c-0.5,0-0.9-0.6-0.7-1.3"/>
</g>
<g>
	<circle class="st19" cx="228.7" cy="375.5" r="3.5"/>
	<path class="st20" d="M225.8,374c-0.4-0.3-0.6-0.7-0.4-1.1c0.2-0.4,0.8-0.7,1.4-0.3"/>
	<path class="st20" d="M225.2,375.5c-0.5-0.2-0.7-0.6-0.7-1c0.1-0.5,0.7-0.8,1.3-0.6"/>
	<path class="st20" d="M225.6,377c-0.4,0.2-0.9,0.1-1.2-0.2c-0.3-0.4-0.2-1.1,0.4-1.4"/>
	<path class="st20" d="M226.5,378.3c-0.3,0.4-0.8,0.4-1.2,0.2c-0.4-0.3-0.5-1-0.1-1.5"/>
</g>
<g>
	
		<ellipse transform="matrix(0.1602 -0.9871 0.9871 0.1602 -155.8112 567.6659)" class="st19" cx="255.7" cy="375.4" rx="3.5" ry="3.5"/>
	<path class="st20" d="M252.9,373.9c-0.4-0.3-0.6-0.7-0.4-1.1c0.2-0.4,0.8-0.7,1.4-0.3"/>
	<path class="st20" d="M252.3,375.4c-0.5-0.2-0.7-0.6-0.7-1c0.1-0.5,0.7-0.8,1.3-0.6"/>
	<path class="st20" d="M252.7,376.9c-0.4,0.2-0.9,0.1-1.2-0.2c-0.3-0.4-0.2-1.1,0.4-1.4"/>
	<path class="st20" d="M253.6,378.2c-0.3,0.4-0.8,0.4-1.2,0.2c-0.4-0.3-0.5-1-0.1-1.5"/>
</g>
<g>
	<circle class="st19" cx="282.9" cy="375.4" r="3.5"/>
	<path class="st20" d="M280.1,373.9c-0.4-0.3-0.6-0.7-0.4-1.1s0.8-0.7,1.4-0.3"/>
	<path class="st20" d="M279.5,375.4c-0.5-0.2-0.7-0.6-0.7-1c0.1-0.5,0.7-0.8,1.3-0.6"/>
	<path class="st20" d="M279.9,376.9c-0.4,0.2-0.9,0.1-1.2-0.2c-0.3-0.4-0.2-1.1,0.4-1.4"/>
	<path class="st20" d="M280.8,378.2c-0.3,0.4-0.8,0.4-1.2,0.2c-0.4-0.3-0.5-1-0.1-1.5"/>
	<path class="st20" d="M282.4,378.8c-0.1,0.5-0.5,0.8-0.9,0.7c-0.5,0-0.9-0.6-0.7-1.3"/>
</g>
<g>
	<circle class="st19" cx="310" cy="375.3" r="3.5"/>
	<path class="st20" d="M307.2,373.8c-0.4-0.3-0.6-0.7-0.4-1.1s0.8-0.7,1.4-0.3"/>
	<path class="st20" d="M306.6,375.3c-0.5-0.2-0.7-0.6-0.7-1c0.1-0.5,0.7-0.8,1.3-0.6"/>
	<path class="st20" d="M307,376.7c-0.4,0.2-0.9,0.1-1.2-0.2c-0.3-0.4-0.2-1.1,0.4-1.4"/>
</g>
<g>
	<circle class="st19" cx="337.2" cy="375.5" r="3.5"/>
	<path class="st20" d="M334.4,374c-0.4-0.3-0.6-0.7-0.4-1.1s0.8-0.7,1.4-0.3"/>
	<path class="st20" d="M333.8,375.5c-0.5-0.2-0.7-0.6-0.7-1c0.1-0.5,0.7-0.8,1.3-0.6"/>
	<path class="st20" d="M334.2,377c-0.4,0.2-0.9,0.1-1.2-0.2c-0.3-0.4-0.2-1.1,0.4-1.4"/>
</g>
<g>
	<circle class="st19" cx="355.3" cy="375.4" r="3.5"/>
	<path class="st20" d="M352.5,373.9c-0.4-0.3-0.6-0.7-0.4-1.1s0.8-0.7,1.4-0.3"/>
	<path class="st20" d="M351.9,375.4c-0.5-0.2-0.7-0.6-0.7-1c0.1-0.5,0.7-0.8,1.3-0.6"/>
	<path class="st20" d="M352.3,376.9c-0.4,0.2-0.9,0.1-1.2-0.2c-0.3-0.4-0.2-1.1,0.4-1.4"/>
</g>
<g>
	<circle class="st19" cx="364.4" cy="381.8" r="3.5"/>
	<path class="st20" d="M361.6,380.3c-0.4-0.3-0.6-0.7-0.4-1.1s0.8-0.7,1.4-0.3"/>
	<path class="st20" d="M361,381.8c-0.5-0.2-0.7-0.6-0.7-1c0.1-0.5,0.7-0.8,1.3-0.6"/>
	<path class="st20" d="M361.4,383.3c-0.4,0.2-0.9,0.1-1.2-0.2c-0.3-0.4-0.2-1.1,0.4-1.4"/>
</g>
<g>
	<circle class="st19" cx="391.1" cy="375.5" r="3.5"/>
	<path class="st20" d="M388.3,374c-0.4-0.3-0.6-0.7-0.4-1.1s0.8-0.7,1.4-0.3"/>
	<path class="st20" d="M387.7,375.5c-0.5-0.2-0.7-0.6-0.7-1c0.1-0.5,0.7-0.8,1.3-0.6"/>
</g>
<g>
	<circle class="st19" cx="400.6" cy="381.7" r="3.5"/>
	<path class="st20" d="M397.8,380.2c-0.4-0.3-0.6-0.7-0.4-1.1s0.8-0.7,1.4-0.3"/>
	<path class="st20" d="M397.2,381.7c-0.5-0.2-0.7-0.6-0.7-1c0.1-0.5,0.7-0.8,1.3-0.6"/>
	<path class="st20" d="M397.6,383.1c-0.4,0.2-0.9,0.1-1.2-0.2c-0.3-0.4-0.2-1.1,0.4-1.4"/>
	<path class="st20" d="M398.5,384.5c-0.3,0.4-0.8,0.4-1.2,0.2c-0.4-0.3-0.5-1-0.1-1.5"/>
</g>
<g>
	<circle class="st19" cx="409.6" cy="375.4" r="3.5"/>
	<path class="st20" d="M406.8,373.9c-0.4-0.3-0.6-0.7-0.4-1.1s0.8-0.7,1.4-0.3"/>
	<path class="st20" d="M406.2,375.4c-0.5-0.2-0.7-0.6-0.7-1c0.1-0.5,0.7-0.8,1.3-0.6"/>
	<path class="st20" d="M406.6,376.9c-0.4,0.2-0.9,0.1-1.2-0.2c-0.3-0.4-0.2-1.1,0.4-1.4"/>
	<path class="st20" d="M407.5,378.2c-0.3,0.4-0.8,0.4-1.2,0.2c-0.4-0.3-0.5-1-0.1-1.5"/>
</g>
<g>
	<circle class="st19" cx="473" cy="641.2" r="3.5"/>
	<path class="st20" d="M470.1,639.7c-0.4-0.3-0.6-0.7-0.4-1.1c0.2-0.4,0.8-0.7,1.4-0.3"/>
	<path class="st20" d="M469.6,641.2c-0.5-0.2-0.7-0.6-0.7-1c0.1-0.5,0.7-0.8,1.3-0.6"/>
</g>
<g>
	<circle class="st19" cx="490.9" cy="630" r="3.5"/>
	<path class="st20" d="M488.1,628.5c-0.4-0.3-0.6-0.7-0.4-1.1c0.2-0.4,0.8-0.7,1.4-0.3"/>
	<path class="st20" d="M487.5,630c-0.5-0.2-0.7-0.6-0.7-1c0.1-0.5,0.7-0.8,1.3-0.6"/>
	<path class="st20" d="M487.9,631.5c-0.4,0.2-0.9,0.1-1.2-0.2c-0.3-0.4-0.2-1.1,0.4-1.4"/>
	<path class="st20" d="M488.8,632.8c-0.3,0.4-0.8,0.4-1.2,0.2c-0.4-0.3-0.5-1-0.1-1.5"/>
	<path class="st20" d="M490.5,633.4c-0.1,0.5-0.5,0.8-0.9,0.7c-0.5,0-0.9-0.6-0.7-1.3"/>
	<path class="st20" d="M492.2,633.1c0.1,0.5-0.2,0.9-0.5,1c-0.4,0.1-1.1-0.2-1.2-0.9"/>
	<path class="st20" d="M493.6,632c0.3,0.4,0.4,0.9,0.2,1.2c-0.3,0.4-1,0.5-1.5,0"/>
	<path class="st20" d="M494.4,630.7c0.4,0.2,0.7,0.7,0.6,1c-0.1,0.5-0.7,0.8-1.4,0.5"/>
</g>
<g>
	<circle class="st19" cx="500.1" cy="641.2" r="3.5"/>
	<path class="st20" d="M497.2,639.7c-0.4-0.3-0.6-0.7-0.4-1.1c0.2-0.4,0.8-0.7,1.4-0.3"/>
	<path class="st20" d="M496.7,641.2c-0.5-0.2-0.7-0.6-0.7-1c0.1-0.5,0.7-0.8,1.3-0.6"/>
</g>
<g>
	<circle class="st19" cx="504.6" cy="631.5" r="3.5"/>
	<path class="st20" d="M501.7,630c-0.4-0.3-0.6-0.7-0.4-1.1c0.2-0.4,0.8-0.7,1.4-0.3"/>
	<path class="st20" d="M501.2,631.5c-0.5-0.2-0.7-0.6-0.7-1c0.1-0.5,0.7-0.8,1.3-0.6"/>
</g>
<g>
	<circle class="st19" cx="516" cy="376.9" r="3.5"/>
	<path class="st20" d="M513.2,375.4c-0.4-0.3-0.6-0.7-0.4-1.1c0.2-0.4,0.8-0.7,1.4-0.3"/>
	<path class="st20" d="M512.6,376.9c-0.5-0.2-0.7-0.6-0.7-1c0.1-0.5,0.7-0.8,1.3-0.6"/>
	<path class="st20" d="M513,378.4c-0.4,0.2-0.9,0.1-1.2-0.2c-0.3-0.4-0.2-1.1,0.4-1.4"/>
	<path class="st20" d="M513.9,379.7c-0.3,0.4-0.8,0.4-1.2,0.2c-0.4-0.3-0.5-1-0.1-1.5"/>
	<path class="st20" d="M515.5,380.3c-0.1,0.5-0.5,0.8-0.9,0.7c-0.5,0-0.9-0.6-0.7-1.3"/>
	<path class="st20" d="M517.3,380c0.1,0.5-0.2,0.9-0.5,1c-0.4,0.1-1.1-0.2-1.2-0.9"/>
	<path class="st20" d="M518.6,378.9c0.3,0.4,0.4,0.9,0.2,1.2c-0.3,0.4-1,0.5-1.5,0"/>
</g>
<g>
	<circle class="st19" cx="518.2" cy="631.5" r="3.5"/>
	<path class="st20" d="M515.3,630c-0.4-0.3-0.6-0.7-0.4-1.1c0.2-0.4,0.8-0.7,1.4-0.3"/>
	<path class="st20" d="M514.8,631.5c-0.5-0.2-0.7-0.6-0.7-1c0.1-0.5,0.7-0.8,1.3-0.6"/>
</g>
<g>
	<circle class="st19" cx="527.3" cy="641.2" r="3.5"/>
	<path class="st20" d="M524.4,639.7c-0.4-0.3-0.6-0.7-0.4-1.1c0.2-0.4,0.8-0.7,1.4-0.3"/>
	<path class="st20" d="M523.8,641.2c-0.5-0.2-0.7-0.6-0.7-1c0.1-0.5,0.7-0.8,1.3-0.6"/>
</g>
<g>
	<circle class="st19" cx="536.5" cy="641.2" r="3.5"/>
	<path class="st20" d="M533.6,639.7c-0.4-0.3-0.6-0.7-0.4-1.1c0.2-0.4,0.8-0.7,1.4-0.3"/>
	<path class="st20" d="M533,641.2c-0.5-0.2-0.7-0.6-0.7-1c0.1-0.5,0.7-0.8,1.3-0.6"/>
</g>
<g>
	<circle class="st19" cx="577.1" cy="376.7" r="3.5"/>
	<path class="st20" d="M574.2,375.2c-0.4-0.3-0.6-0.7-0.4-1.1c0.2-0.4,0.8-0.7,1.4-0.3"/>
	<path class="st20" d="M573.7,376.7c-0.5-0.2-0.7-0.6-0.7-1c0.1-0.5,0.7-0.8,1.3-0.6"/>
</g>
<g>
	<circle class="st19" cx="604.4" cy="377.3" r="3.5"/>
	<path class="st20" d="M601.6,375.8c-0.4-0.3-0.6-0.7-0.4-1.1c0.2-0.4,0.8-0.7,1.4-0.3"/>
	<path class="st20" d="M601,377.2c-0.5-0.2-0.7-0.6-0.7-1c0.1-0.5,0.7-0.8,1.3-0.6"/>
	<path class="st20" d="M601.4,378.7c-0.4,0.2-0.9,0.1-1.2-0.2c-0.3-0.4-0.2-1.1,0.4-1.4"/>
	<path class="st20" d="M602.3,380c-0.3,0.4-0.8,0.4-1.2,0.2c-0.4-0.3-0.5-1-0.1-1.5"/>
	<path class="st20" d="M603.9,380.6c-0.1,0.5-0.5,0.8-0.9,0.7c-0.5,0-0.9-0.6-0.7-1.3"/>
	<path class="st20" d="M605.7,380.4c0.1,0.5-0.2,0.9-0.5,1c-0.4,0.1-1.1-0.2-1.2-0.9"/>
	<path class="st20" d="M607,379.3c0.3,0.4,0.4,0.9,0.2,1.2c-0.3,0.4-1,0.5-1.5,0"/>
</g>
<g>
	<circle class="st19" cx="622.5" cy="377.1" r="3.5"/>
	<path class="st20" d="M619.7,375.6c-0.4-0.3-0.6-0.7-0.4-1.1c0.2-0.4,0.8-0.7,1.4-0.3"/>
	<path class="st20" d="M619.1,377.1c-0.5-0.2-0.7-0.6-0.7-1c0.1-0.5,0.7-0.8,1.3-0.6"/>
	<path class="st20" d="M619.5,378.6c-0.4,0.2-0.9,0.1-1.2-0.2c-0.3-0.4-0.2-1.1,0.4-1.4"/>
	<path class="st20" d="M620.4,379.9c-0.3,0.4-0.8,0.4-1.2,0.2c-0.4-0.3-0.5-1-0.1-1.5"/>
</g>
<g>
	<circle class="st19" cx="631.4" cy="373.3" r="3.5"/>
	<path class="st20" d="M628.6,371.8c-0.4-0.3-0.6-0.7-0.4-1.1s0.8-0.7,1.4-0.3"/>
	<path class="st20" d="M628,373.3c-0.5-0.2-0.7-0.6-0.7-1c0.1-0.5,0.7-0.8,1.3-0.6"/>
</g>
<g>
	<circle class="st19" cx="649.2" cy="372.2" r="3.5"/>
	<path class="st20" d="M646.3,370.7c-0.4-0.3-0.6-0.7-0.4-1.1c0.2-0.4,0.8-0.7,1.4-0.3"/>
	<path class="st20" d="M645.7,372.2c-0.5-0.2-0.7-0.6-0.7-1c0.1-0.5,0.7-0.8,1.3-0.6"/>
	<path class="st20" d="M646.2,373.6c-0.4,0.2-0.9,0.1-1.2-0.2c-0.3-0.4-0.2-1.1,0.4-1.4"/>
	<path class="st20" d="M647,374.9c-0.3,0.4-0.8,0.4-1.2,0.2c-0.4-0.3-0.5-1-0.1-1.5"/>
	<path class="st20" d="M648.7,375.5c-0.1,0.5-0.5,0.8-0.9,0.7c-0.5,0-0.9-0.6-0.7-1.3"/>
	<path class="st20" d="M650.4,375.3c0.1,0.5-0.2,0.9-0.5,1c-0.4,0.1-1.1-0.2-1.2-0.9"/>
	<path class="st20" d="M651.8,374.2c0.3,0.4,0.4,0.9,0.2,1.2c-0.3,0.4-1,0.5-1.5,0"/>
	<path class="st20" d="M652.6,372.9c0.4,0.2,0.7,0.7,0.6,1c-0.1,0.5-0.7,0.8-1.4,0.5"/>
	<path class="st20" d="M652.5,371.2c0.5-0.1,0.9,0.2,1,0.5c0.2,0.4-0.2,1.1-0.8,1.2"/>
</g>
<g>
	<circle class="st19" cx="667.6" cy="371.8" r="3.5"/>
	<path class="st20" d="M664.7,370.3c-0.4-0.3-0.6-0.7-0.4-1.1c0.2-0.4,0.8-0.7,1.4-0.3"/>
	<path class="st20" d="M664.1,371.8c-0.5-0.2-0.7-0.6-0.7-1c0.1-0.5,0.7-0.8,1.3-0.6"/>
	<path class="st20" d="M664.6,373.2c-0.4,0.2-0.9,0.1-1.2-0.2c-0.3-0.4-0.2-1.1,0.4-1.4"/>
	<path class="st20" d="M665.4,374.5c-0.3,0.4-0.8,0.4-1.2,0.2c-0.4-0.3-0.5-1-0.1-1.5"/>
	<path class="st20" d="M667.1,375.1c-0.1,0.5-0.5,0.8-0.9,0.7c-0.5,0-0.9-0.6-0.7-1.3"/>
	<path class="st20" d="M668.8,374.9c0.1,0.5-0.2,0.9-0.5,1c-0.4,0.1-1.1-0.2-1.2-0.9"/>
	<path class="st20" d="M670.2,373.8c0.3,0.4,0.4,0.9,0.2,1.2c-0.3,0.4-1,0.5-1.5,0"/>
	<path class="st20" d="M671,372.5c0.4,0.2,0.7,0.7,0.6,1c-0.1,0.5-0.7,0.8-1.4,0.5"/>
	<path class="st20" d="M670.9,370.8c0.5-0.1,0.9,0.2,1,0.5c0.2,0.4-0.2,1.1-0.8,1.2"/>
</g>
<g>
	<circle class="st19" cx="676.7" cy="376.8" r="3.5"/>
	<path class="st20" d="M673.9,375.3c-0.4-0.3-0.6-0.7-0.4-1.1s0.8-0.7,1.4-0.3"/>
	<path class="st20" d="M673.3,376.8c-0.5-0.2-0.7-0.6-0.7-1c0.1-0.5,0.7-0.8,1.3-0.6"/>
</g>
<g>
	<circle class="st19" cx="676.8" cy="640.7" r="3.5"/>
	<path class="st20" d="M674,639.2c-0.4-0.3-0.6-0.7-0.4-1.1c0.2-0.4,0.8-0.7,1.4-0.3"/>
	<path class="st20" d="M673.4,640.6c-0.5-0.2-0.7-0.6-0.7-1c0.1-0.5,0.7-0.8,1.3-0.6"/>
	<path class="st20" d="M673.8,642.1c-0.4,0.2-0.9,0.1-1.2-0.2c-0.3-0.4-0.2-1.1,0.4-1.4"/>
</g>
<g>
	<circle class="st19" cx="703.7" cy="371.8" r="3.5"/>
	<path class="st20" d="M700.9,370.3c-0.4-0.3-0.6-0.7-0.4-1.1c0.2-0.4,0.8-0.7,1.4-0.3"/>
	<path class="st20" d="M700.3,371.8c-0.5-0.2-0.7-0.6-0.7-1c0.1-0.5,0.7-0.8,1.3-0.6"/>
	<path class="st20" d="M700.7,373.3c-0.4,0.2-0.9,0.1-1.2-0.2c-0.3-0.4-0.2-1.1,0.4-1.4"/>
	<path class="st20" d="M701.6,374.6c-0.3,0.4-0.8,0.4-1.2,0.2c-0.4-0.3-0.5-1-0.1-1.5"/>
	<path class="st20" d="M703.3,375.2c-0.1,0.5-0.5,0.8-0.9,0.7c-0.5,0-0.9-0.6-0.7-1.3"/>
	<path class="st20" d="M705,374.9c0.1,0.5-0.2,0.9-0.5,1c-0.4,0.1-1.1-0.2-1.2-0.9"/>
	<path class="st20" d="M706.4,373.8c0.3,0.4,0.4,0.9,0.2,1.2c-0.3,0.4-1,0.5-1.5,0"/>
	<path class="st20" d="M707.2,372.5c0.4,0.2,0.7,0.7,0.6,1c-0.1,0.5-0.7,0.8-1.4,0.5"/>
</g>
<g>
	<circle class="st19" cx="721.8" cy="371.4" r="3.5"/>
	<path class="st20" d="M719,369.9c-0.4-0.3-0.6-0.7-0.4-1.1c0.2-0.4,0.8-0.7,1.4-0.3"/>
	<path class="st20" d="M718.4,371.4c-0.5-0.2-0.7-0.6-0.7-1c0.1-0.5,0.7-0.8,1.3-0.6"/>
	<path class="st20" d="M718.8,372.9c-0.4,0.2-0.9,0.1-1.2-0.2c-0.3-0.4-0.2-1.1,0.4-1.4"/>
	<path class="st20" d="M719.7,374.2c-0.3,0.4-0.8,0.4-1.2,0.2c-0.4-0.3-0.5-1-0.1-1.5"/>
	<path class="st20" d="M721.4,374.8c-0.1,0.5-0.5,0.8-0.9,0.7c-0.5,0-0.9-0.6-0.7-1.3"/>
	<path class="st20" d="M723.1,374.5c0.1,0.5-0.2,0.9-0.5,1c-0.4,0.1-1.1-0.2-1.2-0.9"/>
	<path class="st20" d="M724.5,373.4c0.3,0.4,0.4,0.9,0.2,1.2c-0.3,0.4-1,0.5-1.5,0"/>
	<path class="st20" d="M725.3,372.1c0.4,0.2,0.7,0.7,0.6,1c-0.1,0.5-0.7,0.8-1.4,0.5"/>
</g>
<g>
	<circle class="st19" cx="740.2" cy="371.3" r="3.5"/>
	<path class="st20" d="M737.4,369.8c-0.4-0.3-0.6-0.7-0.4-1.1c0.2-0.4,0.8-0.7,1.4-0.3"/>
	<path class="st20" d="M736.8,371.2c-0.5-0.2-0.7-0.6-0.7-1c0.1-0.5,0.7-0.8,1.3-0.6"/>
	<path class="st20" d="M737.2,372.7c-0.4,0.2-0.9,0.1-1.2-0.2c-0.3-0.4-0.2-1.1,0.4-1.4"/>
</g>
<g>
	<circle class="st19" cx="749.1" cy="376.5" r="3.5"/>
	<path class="st20" d="M746.2,375c-0.4-0.3-0.6-0.7-0.4-1.1c0.2-0.4,0.8-0.7,1.4-0.3"/>
	<path class="st20" d="M745.6,376.5c-0.5-0.2-0.7-0.6-0.7-1c0.1-0.5,0.7-0.8,1.3-0.6"/>
	<path class="st20" d="M746,378c-0.4,0.2-0.9,0.1-1.2-0.2c-0.3-0.4-0.2-1.1,0.4-1.4"/>
	<path class="st20" d="M746.9,379.3c-0.3,0.4-0.8,0.4-1.2,0.2c-0.4-0.3-0.5-1-0.1-1.5"/>
	<path class="st20" d="M748.6,379.9c-0.1,0.5-0.5,0.8-0.9,0.7c-0.5,0-0.9-0.6-0.7-1.3"/>
	<path class="st20" d="M750.3,379.6c0.1,0.5-0.2,0.9-0.5,1c-0.4,0.1-1.1-0.2-1.2-0.9"/>
</g>
<g>
	<circle class="st19" cx="758.2" cy="372.2" r="3.5"/>
	<path class="st20" d="M755.4,370.7c-0.4-0.3-0.6-0.7-0.4-1.1s0.8-0.7,1.4-0.3"/>
	<path class="st20" d="M754.8,372.2c-0.5-0.2-0.7-0.6-0.7-1c0.1-0.5,0.7-0.8,1.3-0.6"/>
</g>
<g>
	<circle class="st19" cx="767.4" cy="377.1" r="3.5"/>
	<path class="st20" d="M764.6,375.6c-0.4-0.3-0.6-0.7-0.4-1.1c0.2-0.4,0.8-0.7,1.4-0.3"/>
	<path class="st20" d="M764,377.1c-0.5-0.2-0.7-0.6-0.7-1c0.1-0.5,0.7-0.8,1.3-0.6"/>
	<path class="st20" d="M764.4,378.6c-0.4,0.2-0.9,0.1-1.2-0.2c-0.3-0.4-0.2-1.1,0.4-1.4"/>
	<path class="st20" d="M765.3,379.9c-0.3,0.4-0.8,0.4-1.2,0.2c-0.4-0.3-0.5-1-0.1-1.5"/>
</g>
<g>
	<circle class="st19" cx="776.1" cy="371.7" r="3.5"/>
	<path class="st20" d="M773.3,370.2c-0.4-0.3-0.6-0.7-0.4-1.1c0.2-0.4,0.8-0.7,1.4-0.3"/>
	<path class="st20" d="M772.7,371.7c-0.5-0.2-0.7-0.6-0.7-1c0.1-0.5,0.7-0.8,1.3-0.6"/>
	<path class="st20" d="M773.1,373.2c-0.4,0.2-0.9,0.1-1.2-0.2c-0.3-0.4-0.2-1.1,0.4-1.4"/>
	<path class="st20" d="M774,374.5c-0.3,0.4-0.8,0.4-1.2,0.2c-0.4-0.3-0.5-1-0.1-1.5"/>
	<path class="st20" d="M775.7,375.1c-0.1,0.5-0.5,0.8-0.9,0.7c-0.5,0-0.9-0.6-0.7-1.3"/>
	<path class="st20" d="M777.4,374.8c0.1,0.5-0.2,0.9-0.5,1c-0.4,0.1-1.1-0.2-1.2-0.9"/>
	<path class="st20" d="M778.8,373.7c0.3,0.4,0.4,0.9,0.2,1.2c-0.3,0.4-1,0.5-1.5,0"/>
	<path class="st20" d="M779.6,372.4c0.4,0.2,0.7,0.7,0.6,1c-0.1,0.5-0.7,0.8-1.4,0.5"/>
</g>
<g>
	<circle class="st19" cx="794.8" cy="372.1" r="3.5"/>
	<path class="st20" d="M791.9,370.6c-0.4-0.3-0.6-0.7-0.4-1.1c0.2-0.4,0.8-0.7,1.4-0.3"/>
	<path class="st20" d="M791.3,372.1c-0.5-0.2-0.7-0.6-0.7-1c0.1-0.5,0.7-0.8,1.3-0.6"/>
	<path class="st20" d="M791.7,373.6c-0.4,0.2-0.9,0.1-1.2-0.2c-0.3-0.4-0.2-1.1,0.4-1.4"/>
	<path class="st20" d="M792.6,374.9c-0.3,0.4-0.8,0.4-1.2,0.2c-0.4-0.3-0.5-1-0.1-1.5"/>
	<path class="st20" d="M794.3,375.5c-0.1,0.5-0.5,0.8-0.9,0.7c-0.5,0-0.9-0.6-0.7-1.3"/>
</g>
<g>
	<circle class="st19" cx="785.5" cy="377.2" r="3.5"/>
	<path class="st20" d="M782.7,375.7c-0.4-0.3-0.6-0.7-0.4-1.1c0.2-0.4,0.8-0.7,1.4-0.3"/>
	<path class="st20" d="M782.1,377.1c-0.5-0.2-0.7-0.6-0.7-1c0.1-0.5,0.7-0.8,1.3-0.6"/>
	<path class="st20" d="M782.5,378.6c-0.4,0.2-0.9,0.1-1.2-0.2c-0.3-0.4-0.2-1.1,0.4-1.4"/>
</g>
<g>
	<circle class="st19" cx="805.9" cy="633.7" r="3.5"/>
	<path class="st20" d="M803.1,632.2c-0.4-0.3-0.6-0.7-0.4-1.1c0.2-0.4,0.8-0.7,1.4-0.3"/>
	<path class="st20" d="M802.5,633.7c-0.5-0.2-0.7-0.6-0.7-1c0.1-0.5,0.7-0.8,1.3-0.6"/>
	<path class="st20" d="M802.9,635.2c-0.4,0.2-0.9,0.1-1.2-0.2c-0.3-0.4-0.2-1.1,0.4-1.4"/>
	<path class="st20" d="M803.8,636.5c-0.3,0.4-0.8,0.4-1.2,0.2c-0.4-0.3-0.5-1-0.1-1.5"/>
</g>
<g>
	<circle class="st19" cx="830.8" cy="372.4" r="3.5"/>
	<path class="st20" d="M828,370.9c-0.4-0.3-0.6-0.7-0.4-1.1c0.2-0.4,0.8-0.7,1.4-0.3"/>
	<path class="st20" d="M827.4,372.3c-0.5-0.2-0.7-0.6-0.7-1c0.1-0.5,0.7-0.8,1.3-0.6"/>
	<path class="st20" d="M827.8,373.8c-0.4,0.2-0.9,0.1-1.2-0.2c-0.3-0.4-0.2-1.1,0.4-1.4"/>
</g>
<g>
	<circle class="st19" cx="828.6" cy="641.5" r="3.5"/>
	<path class="st20" d="M825.7,640c-0.4-0.3-0.6-0.7-0.4-1.1c0.2-0.4,0.8-0.7,1.4-0.3"/>
	<path class="st20" d="M825.1,641.5c-0.5-0.2-0.7-0.6-0.7-1c0.1-0.5,0.7-0.8,1.3-0.6"/>
	<path class="st20" d="M825.5,643c-0.4,0.2-0.9,0.1-1.2-0.2c-0.3-0.4-0.2-1.1,0.4-1.4"/>
	<path class="st20" d="M826.4,644.3c-0.3,0.4-0.8,0.4-1.2,0.2c-0.4-0.3-0.5-1-0.1-1.5"/>
	<path class="st20" d="M828.1,644.9c-0.1,0.5-0.5,0.8-0.9,0.7c-0.5,0-0.9-0.6-0.7-1.3"/>
	<path class="st20" d="M829.8,644.6c0.1,0.5-0.2,0.9-0.5,1c-0.4,0.1-1.1-0.2-1.2-0.9"/>
</g>
<g>
	<circle class="st19" cx="848.9" cy="373.1" r="3.5"/>
	<path class="st20" d="M846.1,371.6c-0.4-0.3-0.6-0.7-0.4-1.1c0.2-0.4,0.8-0.7,1.4-0.3"/>
	<path class="st20" d="M845.5,373.1c-0.5-0.2-0.7-0.6-0.7-1c0.1-0.5,0.7-0.8,1.3-0.6"/>
	<path class="st20" d="M845.9,374.6c-0.4,0.2-0.9,0.1-1.2-0.2c-0.3-0.4-0.2-1.1,0.4-1.4"/>
	<path class="st20" d="M846.8,375.9c-0.3,0.4-0.8,0.4-1.2,0.2c-0.4-0.3-0.5-1-0.1-1.5"/>
</g>
<g>
	<circle class="st19" cx="860.2" cy="379.6" r="3.5"/>
	<path class="st20" d="M857.4,378.1c-0.4-0.3-0.6-0.7-0.4-1.1c0.2-0.4,0.8-0.7,1.4-0.3"/>
	<path class="st20" d="M856.8,379.5c-0.5-0.2-0.7-0.6-0.7-1c0.1-0.5,0.7-0.8,1.3-0.6"/>
	<path class="st20" d="M857.2,381c-0.4,0.2-0.9,0.1-1.2-0.2c-0.3-0.4-0.2-1.1,0.4-1.4"/>
</g>
<g>
	<circle class="st19" cx="878.4" cy="380.2" r="3.5"/>
	<path class="st20" d="M875.6,378.7c-0.4-0.3-0.6-0.7-0.4-1.1c0.2-0.4,0.8-0.7,1.4-0.3"/>
	<path class="st20" d="M875,380.1c-0.5-0.2-0.7-0.6-0.7-1c0.1-0.5,0.7-0.8,1.3-0.6"/>
	<path class="st20" d="M875.4,381.6c-0.4,0.2-0.9,0.1-1.2-0.2c-0.3-0.4-0.2-1.1,0.4-1.4"/>
</g>
<g>
	<circle class="st19" cx="878.2" cy="636" r="3.5"/>
	<path class="st20" d="M875.4,634.5c-0.4-0.3-0.6-0.7-0.4-1.1c0.2-0.4,0.8-0.7,1.4-0.3"/>
	<path class="st20" d="M874.8,636c-0.5-0.2-0.7-0.6-0.7-1c0.1-0.5,0.7-0.8,1.3-0.6"/>
</g>
<g>
	<circle class="st19" cx="896.5" cy="379.3" r="3.5"/>
	<path class="st20" d="M893.6,377.8c-0.4-0.3-0.6-0.7-0.4-1.1c0.2-0.4,0.8-0.7,1.4-0.3"/>
	<path class="st20" d="M893,379.3c-0.5-0.2-0.7-0.6-0.7-1c0.1-0.5,0.7-0.8,1.3-0.6"/>
	<path class="st20" d="M893.4,380.8c-0.4,0.2-0.9,0.1-1.2-0.2c-0.3-0.4-0.2-1.1,0.4-1.4"/>
	<path class="st20" d="M894.3,382.1c-0.3,0.4-0.8,0.4-1.2,0.2c-0.4-0.3-0.5-1-0.1-1.5"/>
	<path class="st20" d="M896,382.7c-0.1,0.5-0.5,0.8-0.9,0.7c-0.5,0-0.9-0.6-0.7-1.3"/>
	<path class="st20" d="M897.7,382.4c0.1,0.5-0.2,0.9-0.5,1c-0.4,0.1-1.1-0.2-1.2-0.9"/>
</g>
<g>
	<circle class="st19" cx="896.7" cy="635.8" r="3.5"/>
	<path class="st20" d="M893.8,634.3c-0.4-0.3-0.6-0.7-0.4-1.1c0.2-0.4,0.8-0.7,1.4-0.3"/>
	<path class="st20" d="M893.2,635.8c-0.5-0.2-0.7-0.6-0.7-1c0.1-0.5,0.7-0.8,1.3-0.6"/>
	<path class="st20" d="M893.6,637.3c-0.4,0.2-0.9,0.1-1.2-0.2c-0.3-0.4-0.2-1.1,0.4-1.4"/>
	<path class="st20" d="M894.5,638.6c-0.3,0.4-0.8,0.4-1.2,0.2c-0.4-0.3-0.5-1-0.1-1.5"/>
	<path class="st20" d="M896.2,639.2c-0.1,0.5-0.5,0.8-0.9,0.7c-0.5,0-0.9-0.6-0.7-1.3"/>
</g>
<g>
	<circle class="st19" cx="905.6" cy="370.9" r="3.5"/>
	<path class="st20" d="M902.7,369.4c-0.4-0.3-0.6-0.7-0.4-1.1c0.2-0.4,0.8-0.7,1.4-0.3"/>
	<path class="st20" d="M902.1,370.9c-0.5-0.2-0.7-0.6-0.7-1c0.1-0.5,0.7-0.8,1.3-0.6"/>
	<path class="st20" d="M902.5,372.4c-0.4,0.2-0.9,0.1-1.2-0.2c-0.3-0.4-0.2-1.1,0.4-1.4"/>
	<path class="st20" d="M903.4,373.7c-0.3,0.4-0.8,0.4-1.2,0.2c-0.4-0.3-0.5-1-0.1-1.5"/>
	<path class="st20" d="M905.1,374.3c-0.1,0.5-0.5,0.8-0.9,0.7c-0.5,0-0.9-0.6-0.7-1.3"/>
	<path class="st20" d="M906.8,374c0.1,0.5-0.2,0.9-0.5,1c-0.4,0.1-1.1-0.2-1.2-0.9"/>
</g>
<g>
	<circle class="st19" cx="923.4" cy="371.2" r="3.5"/>
	<path class="st20" d="M920.5,369.7c-0.4-0.3-0.6-0.7-0.4-1.1c0.2-0.4,0.8-0.7,1.4-0.3"/>
	<path class="st20" d="M919.9,371.2c-0.5-0.2-0.7-0.6-0.7-1c0.1-0.5,0.7-0.8,1.3-0.6"/>
	<path class="st20" d="M920.4,372.6c-0.4,0.2-0.9,0.1-1.2-0.2c-0.3-0.4-0.2-1.1,0.4-1.4"/>
	<path class="st20" d="M921.2,373.9c-0.3,0.4-0.8,0.4-1.2,0.2c-0.4-0.3-0.5-1-0.1-1.5"/>
	<path class="st20" d="M922.9,374.5c-0.1,0.5-0.5,0.8-0.9,0.7c-0.5,0-0.9-0.6-0.7-1.3"/>
	<path class="st20" d="M924.6,374.3c0.1,0.5-0.2,0.9-0.5,1c-0.4,0.1-1.1-0.2-1.2-0.9"/>
	<path class="st20" d="M926,373.2c0.3,0.4,0.4,0.9,0.2,1.2c-0.3,0.4-1,0.5-1.5,0"/>
	<path class="st20" d="M926.8,371.9c0.4,0.2,0.7,0.7,0.6,1c-0.1,0.5-0.7,0.8-1.4,0.5"/>
	<path class="st20" d="M926.7,370.2c0.5-0.1,0.9,0.2,1,0.5c0.2,0.4-0.2,1.1-0.8,1.2"/>
</g>
<g>
	<circle class="st19" cx="932.7" cy="379" r="3.5"/>
	<path class="st20" d="M929.9,377.5c-0.4-0.3-0.6-0.7-0.4-1.1s0.8-0.7,1.4-0.3"/>
	<path class="st20" d="M929.3,379c-0.5-0.2-0.7-0.6-0.7-1c0.1-0.5,0.7-0.8,1.3-0.6"/>
</g>
<g>
	<circle class="st19" cx="941.4" cy="370.5" r="3.5"/>
	<path class="st20" d="M938.6,369c-0.4-0.3-0.6-0.7-0.4-1.1c0.2-0.4,0.8-0.7,1.4-0.3"/>
	<path class="st20" d="M938,370.5c-0.5-0.2-0.7-0.6-0.7-1c0.1-0.5,0.7-0.8,1.3-0.6"/>
	<path class="st20" d="M938.4,372c-0.4,0.2-0.9,0.1-1.2-0.2c-0.3-0.4-0.2-1.1,0.4-1.4"/>
	<path class="st20" d="M939.3,373.3c-0.3,0.4-0.8,0.4-1.2,0.2c-0.4-0.3-0.5-1-0.1-1.5"/>
	<path class="st20" d="M941,373.9c-0.1,0.5-0.5,0.8-0.9,0.7c-0.5,0-0.9-0.6-0.7-1.3"/>
	<path class="st20" d="M942.7,373.6c0.1,0.5-0.2,0.9-0.5,1c-0.4,0.1-1.1-0.2-1.2-0.9"/>
	<path class="st20" d="M944.1,372.5c0.3,0.4,0.4,0.9,0.2,1.2c-0.3,0.4-1,0.5-1.5,0"/>
	<path class="st20" d="M944.9,371.2c0.4,0.2,0.7,0.7,0.6,1c-0.1,0.5-0.7,0.8-1.4,0.5"/>
</g>
<g>
	<circle class="st19" cx="950.9" cy="378.7" r="3.5"/>
	<path class="st20" d="M948,377.2c-0.4-0.3-0.6-0.7-0.4-1.1c0.2-0.4,0.8-0.7,1.4-0.3"/>
	<path class="st20" d="M947.4,378.7c-0.5-0.2-0.7-0.6-0.7-1c0.1-0.5,0.7-0.8,1.3-0.6"/>
	<path class="st20" d="M947.8,380.2c-0.4,0.2-0.9,0.1-1.2-0.2c-0.3-0.4-0.2-1.1,0.4-1.4"/>
	<path class="st20" d="M948.7,381.5c-0.3,0.4-0.8,0.4-1.2,0.2c-0.4-0.3-0.5-1-0.1-1.5"/>
	<path class="st20" d="M950.4,382.1c-0.1,0.5-0.5,0.8-0.9,0.7c-0.5,0-0.9-0.6-0.7-1.3"/>
	<path class="st20" d="M952.1,381.8c0.1,0.5-0.2,0.9-0.5,1c-0.4,0.1-1.1-0.2-1.2-0.9"/>
</g>
<g>
	<circle class="st19" cx="959.9" cy="371" r="3.5"/>
	<path class="st20" d="M957,369.5c-0.4-0.3-0.6-0.7-0.4-1.1c0.2-0.4,0.8-0.7,1.4-0.3"/>
	<path class="st20" d="M956.4,371c-0.5-0.2-0.7-0.6-0.7-1c0.1-0.5,0.7-0.8,1.3-0.6"/>
	<path class="st20" d="M956.8,372.5c-0.4,0.2-0.9,0.1-1.2-0.2c-0.3-0.4-0.2-1.1,0.4-1.4"/>
	<path class="st20" d="M957.7,373.8c-0.3,0.4-0.8,0.4-1.2,0.2c-0.4-0.3-0.5-1-0.1-1.5"/>
	<path class="st20" d="M959.4,374.4c-0.1,0.5-0.5,0.8-0.9,0.7c-0.5,0-0.9-0.6-0.7-1.3"/>
</g>
<g>
	<circle class="st19" cx="968.9" cy="379" r="3.5"/>
	<path class="st20" d="M966.1,377.5c-0.4-0.3-0.6-0.7-0.4-1.1c0.2-0.4,0.8-0.7,1.4-0.3"/>
	<path class="st20" d="M965.5,378.9c-0.5-0.2-0.7-0.6-0.7-1c0.1-0.5,0.7-0.8,1.3-0.6"/>
	<path class="st20" d="M965.9,380.4c-0.4,0.2-0.9,0.1-1.2-0.2c-0.3-0.4-0.2-1.1,0.4-1.4"/>
</g>
<g>
	<circle class="st19" cx="996.2" cy="378.5" r="3.5"/>
	<path class="st20" d="M993.3,377c-0.4-0.3-0.6-0.7-0.4-1.1c0.2-0.4,0.8-0.7,1.4-0.3"/>
	<path class="st20" d="M992.7,378.5c-0.5-0.2-0.7-0.6-0.7-1c0.1-0.5,0.7-0.8,1.3-0.6"/>
	<path class="st20" d="M993.1,380c-0.4,0.2-0.9,0.1-1.2-0.2c-0.3-0.4-0.2-1.1,0.4-1.4"/>
	<path class="st20" d="M994,381.3c-0.3,0.4-0.8,0.4-1.2,0.2c-0.4-0.3-0.5-1-0.1-1.5"/>
	<path class="st20" d="M995.7,381.9c-0.1,0.5-0.5,0.8-0.9,0.7c-0.5,0-0.9-0.6-0.7-1.3"/>
</g>
<g>
	<circle class="st19" cx="1005" cy="372.5" r="3.5"/>
	<path class="st20" d="M1002.2,371c-0.4-0.3-0.6-0.7-0.4-1.1c0.2-0.4,0.8-0.7,1.4-0.3"/>
	<path class="st20" d="M1001.6,372.5c-0.5-0.2-0.7-0.6-0.7-1c0.1-0.5,0.7-0.8,1.3-0.6"/>
</g>
<g>
	<circle class="st19" cx="1014.3" cy="378.3" r="3.5"/>
	<path class="st20" d="M1011.5,376.8c-0.4-0.3-0.6-0.7-0.4-1.1c0.2-0.4,0.8-0.7,1.4-0.3"/>
	<path class="st20" d="M1010.9,378.3c-0.5-0.2-0.7-0.6-0.7-1c0.1-0.5,0.7-0.8,1.3-0.6"/>
	<path class="st20" d="M1011.3,379.8c-0.4,0.2-0.9,0.1-1.2-0.2c-0.3-0.4-0.2-1.1,0.4-1.4"/>
	<path class="st20" d="M1012.2,381.1c-0.3,0.4-0.8,0.4-1.2,0.2c-0.4-0.3-0.5-1-0.1-1.5"/>
	<path class="st20" d="M1013.9,381.7c-0.1,0.5-0.5,0.8-0.9,0.7c-0.5,0-0.9-0.6-0.7-1.3"/>
	<path class="st20" d="M1015.6,381.4c0.1,0.5-0.2,0.9-0.5,1c-0.4,0.1-1.1-0.2-1.2-0.9"/>
	<path class="st20" d="M1017,380.3c0.3,0.4,0.4,0.9,0.2,1.2c-0.3,0.4-1,0.5-1.5,0"/>
	<path class="st20" d="M1017.8,379c0.4,0.2,0.7,0.7,0.6,1c-0.1,0.5-0.7,0.8-1.4,0.5"/>
</g>
<g>
	<circle class="st19" cx="1041.2" cy="372.2" r="3.5"/>
	<path class="st20" d="M1038.3,370.7c-0.4-0.3-0.6-0.7-0.4-1.1c0.2-0.4,0.8-0.7,1.4-0.3"/>
	<path class="st20" d="M1037.7,372.2c-0.5-0.2-0.7-0.6-0.7-1c0.1-0.5,0.7-0.8,1.3-0.6"/>
	<path class="st20" d="M1038.2,373.7c-0.4,0.2-0.9,0.1-1.2-0.2c-0.3-0.4-0.2-1.1,0.4-1.4"/>
	<path class="st20" d="M1039,375c-0.3,0.4-0.8,0.4-1.2,0.2c-0.4-0.3-0.5-1-0.1-1.5"/>
	<path class="st20" d="M1040.7,375.6c-0.1,0.5-0.5,0.8-0.9,0.7c-0.5,0-0.9-0.6-0.7-1.3"/>
	<path class="st20" d="M1042.4,375.3c0.1,0.5-0.2,0.9-0.5,1c-0.4,0.1-1.1-0.2-1.2-0.9"/>
	<path class="st20" d="M1043.8,374.2c0.3,0.4,0.4,0.9,0.2,1.2c-0.3,0.4-1,0.5-1.5,0"/>
</g>
<g>
	<circle class="st19" cx="1050.5" cy="377.5" r="3.5"/>
	<path class="st20" d="M1047.6,376c-0.4-0.3-0.6-0.7-0.4-1.1c0.2-0.4,0.8-0.7,1.4-0.3"/>
	<path class="st20" d="M1047,377.5c-0.5-0.2-0.7-0.6-0.7-1c0.1-0.5,0.7-0.8,1.3-0.6"/>
	<path class="st20" d="M1047.4,379c-0.4,0.2-0.9,0.1-1.2-0.2c-0.3-0.4-0.2-1.1,0.4-1.4"/>
	<path class="st20" d="M1048.3,380.3c-0.3,0.4-0.8,0.4-1.2,0.2c-0.4-0.3-0.5-1-0.1-1.5"/>
	<path class="st20" d="M1050,380.9c-0.1,0.5-0.5,0.8-0.9,0.7c-0.5,0-0.9-0.6-0.7-1.3"/>
	<path class="st20" d="M1051.7,380.6c0.1,0.5-0.2,0.9-0.5,1c-0.4,0.1-1.1-0.2-1.2-0.9"/>
</g>
<g>
	<circle class="st19" cx="1086.5" cy="372.2" r="3.5"/>
	<path class="st20" d="M1083.7,370.7c-0.4-0.3-0.6-0.7-0.4-1.1s0.8-0.7,1.4-0.3"/>
	<path class="st20" d="M1083.1,372.2c-0.5-0.2-0.7-0.6-0.7-1c0.1-0.5,0.7-0.8,1.3-0.6"/>
</g>
<g>
	<circle class="st19" cx="1086.2" cy="640.7" r="3.5"/>
	<path class="st20" d="M1083.3,639.2c-0.4-0.3-0.6-0.7-0.4-1.1c0.2-0.4,0.8-0.7,1.4-0.3"/>
	<path class="st20" d="M1082.7,640.7c-0.5-0.2-0.7-0.6-0.7-1c0.1-0.5,0.7-0.8,1.3-0.6"/>
	<path class="st20" d="M1083.2,642.1c-0.4,0.2-0.9,0.1-1.2-0.2c-0.3-0.4-0.2-1.1,0.4-1.4"/>
	<path class="st20" d="M1084,643.4c-0.3,0.4-0.8,0.4-1.2,0.2c-0.4-0.3-0.5-1-0.1-1.5"/>
	<path class="st20" d="M1085.7,644c-0.1,0.5-0.5,0.8-0.9,0.7c-0.5,0-0.9-0.6-0.7-1.3"/>
	<path class="st20" d="M1087.4,643.8c0.1,0.5-0.2,0.9-0.5,1c-0.4,0.1-1.1-0.2-1.2-0.9"/>
	<path class="st20" d="M1088.8,642.7c0.3,0.4,0.4,0.9,0.2,1.2c-0.3,0.4-1,0.5-1.5,0"/>
	<path class="st20" d="M1089.6,641.4c0.4,0.2,0.7,0.7,0.6,1c-0.1,0.5-0.7,0.8-1.4,0.5"/>
	<path class="st20" d="M1089.5,639.7c0.5-0.1,0.9,0.2,1,0.5c0.2,0.4-0.2,1.1-0.8,1.2"/>
</g>
<g>
	<circle class="st19" cx="1095.5" cy="376.8" r="3.5"/>
	<path class="st20" d="M1092.7,375.3c-0.4-0.3-0.6-0.7-0.4-1.1c0.2-0.4,0.8-0.7,1.4-0.3"/>
	<path class="st20" d="M1092.1,376.8c-0.5-0.2-0.7-0.6-0.7-1c0.1-0.5,0.7-0.8,1.3-0.6"/>
</g>
<g>
	<circle class="st19" cx="1122.6" cy="376.3" r="3.5"/>
	<path class="st20" d="M1119.8,374.8c-0.4-0.3-0.6-0.7-0.4-1.1s0.8-0.7,1.4-0.3"/>
	<path class="st20" d="M1119.2,376.3c-0.5-0.2-0.7-0.6-0.7-1c0.1-0.5,0.7-0.8,1.3-0.6"/>
	<path class="st20" d="M1119.6,377.8c-0.4,0.2-0.9,0.1-1.2-0.2c-0.3-0.4-0.2-1.1,0.4-1.4"/>
	<path class="st20" d="M1120.5,379.1c-0.3,0.4-0.8,0.4-1.2,0.2c-0.4-0.3-0.5-1-0.1-1.5"/>
	<path class="st20" d="M1122.2,379.7c-0.1,0.5-0.5,0.8-0.9,0.7c-0.5,0-0.9-0.6-0.7-1.3"/>
	<path class="st20" d="M1123.9,379.4c0.1,0.5-0.2,0.9-0.5,1c-0.4,0.1-1.1-0.2-1.2-0.9"/>
	<path class="st20" d="M1125.3,378.3c0.3,0.4,0.4,0.9,0.2,1.2c-0.3,0.4-1,0.5-1.5,0"/>
	<path class="st20" d="M1126.1,377c0.4,0.2,0.7,0.7,0.6,1c-0.1,0.5-0.7,0.8-1.4,0.5"/>
</g>
<g>
	<circle class="st19" cx="887.5" cy="143.9" r="3.5"/>
	<path class="st20" d="M884.6,142.4c-0.4-0.3-0.6-0.7-0.4-1.1c0.2-0.4,0.8-0.7,1.4-0.3"/>
	<path class="st20" d="M884,143.9c-0.5-0.2-0.7-0.6-0.7-1c0.1-0.5,0.7-0.8,1.3-0.6"/>
	<path class="st20" d="M884.4,145.4c-0.4,0.2-0.9,0.1-1.2-0.2c-0.3-0.4-0.2-1.1,0.4-1.4"/>
	<path class="st20" d="M885.3,146.7c-0.3,0.4-0.8,0.4-1.2,0.2c-0.4-0.3-0.5-1-0.1-1.5"/>
	<path class="st20" d="M887,147.3c-0.1,0.5-0.5,0.8-0.9,0.7c-0.5,0-0.9-0.6-0.7-1.3"/>
</g>
<rect x="1043.5" y="21.4" class="st7" width="203" height="22.9"/>
<text transform="matrix(1 0 0 1 1043.5145 29.6154)"><tspan x="0" y="0" class="st10 st11 st12">L knot representation, each black semi-</tspan><tspan x="0" y="13.2" class="st10 st11 st12">circle equals one turn</tspan></text>
<rect x="1193.5" y="39.8" class="st7" width="34.9" height="14.8"/>
<text transform="matrix(1 0 0 1 1193.474 48.0493)" class="st11 st12">9 turns</text>
<rect x="1193.5" y="55.4" class="st7" width="34.9" height="14.8"/>
<text transform="matrix(1 0 0 1 1193.474 63.6567)" class="st11 st12">1 turn</text>
</svg>
