<svg id="Layer_1" data-name="Layer 1" xmlns="http://www.w3.org/2000/svg" viewBox="0 0 800 250"><defs><style>.cls-1{font-size:14px;}.cls-1,.cls-3,.cls-5,.cls-6{fill:#231f20;}.cls-1,.cls-3,.cls-6{font-family:OpenSans-Regular, Open Sans;}.cls-2{fill:none;stroke:#231f20;}.cls-2,.cls-8{stroke-miterlimit:10;}.cls-3{font-size:12px;}.cls-4,.cls-9{fill:#495057;}.cls-6,.cls-9{font-size:11px;}.cls-7{fill:#b33b49;}.cls-8{fill:#fff;stroke:#b33b49;}.cls-9{font-family:Arial-ItalicMT, Arial;font-style:italic;}.cls-10{letter-spacing:-0.09em;}</style></defs><title>knot_mockup</title><text class="cls-1" transform="translate(33.99 23.11)">Knot Placement</text><line class="cls-2" x1="118" y1="51.63" x2="118" y2="196.55"/><text class="cls-3" transform="translate(33.12 73.08)">Hundreds <tspan x="13.07" y="14.4">place</tspan></text><text class="cls-3" transform="translate(31.4 126.35)">Tens place</text><text class="cls-3" transform="translate(30.05 179.09)">Ones place</text><path class="cls-4" d="M229.2,45.74V71.29c0,3.22,5,3.22,5,0V45.74c0-3.22-5-3.22-5,0Z"/><path class="cls-4" d="M229.2,85.38l0,9.57c0,3,.69,6.8-1.33,9.25-1.71,2.07-4.64,3.06-7.23,3.36a18.92,18.92,0,0,1-9.14-1.29,13.88,13.88,0,0,1-6.79-5.65,26.07,26.07,0,0,1-3.14-9.93c-.84-6.63.51-13.91,4.84-19.17a22.41,22.41,0,0,1,18.62-8.35,2.52,2.52,0,0,0,2.5-2.5,2.55,2.55,0,0,0-2.5-2.5,27,27,0,0,0-20.79,8.29,29.51,29.51,0,0,0-7.84,22.37c.5,8.09,3.37,16.72,10.81,20.89,6.38,3.58,15.55,4.33,21.81,0a11.6,11.6,0,0,0,4-4.44,16.18,16.18,0,0,0,1.17-7.22q0-6.37,0-12.73c0-3.22-5-3.22-5,0Z"/><path class="cls-4" d="M236.23,62.73a5.23,5.23,0,0,1,2.16,3.37,12.74,12.74,0,0,1,.54,5.51,4.22,4.22,0,0,1-2.17,3.16,9.08,9.08,0,0,1-2.59.5,14.36,14.36,0,0,0-3,.67c-7.27,2.59-12.65,9.67-15.42,16.61A30.25,30.25,0,0,0,213.6,105c.13,3.21,5.13,3.22,5,0a26.93,26.93,0,0,1,8-20.14,19.62,19.62,0,0,1,4.6-3.51c1.84-1,3.7-1.07,5.7-1.44,4.43-.82,7-4.92,7.11-9.21s-1.24-9.9-5.26-12.28c-2.78-1.63-5.3,2.69-2.52,4.32Z"/><path class="cls-4" d="M212.76,115.35l1.2,22.36a2.55,2.55,0,0,0,2.5,2.5,2.53,2.53,0,0,0,2.5-2.5l-1.2-22.36a2.55,2.55,0,0,0-2.5-2.5,2.53,2.53,0,0,0-2.5,2.5Z"/><path class="cls-5" d="M181.76,167.35a2.09,2.09,0,0,1-.82,1.77,3.58,3.58,0,0,1-2.23.63,5.62,5.62,0,0,1-2.34-.39v-1a6.42,6.42,0,0,0,2.38.48,2.51,2.51,0,0,0,1.5-.38,1.22,1.22,0,0,0,.5-1.05,1.43,1.43,0,0,0-.17-.73,1.67,1.67,0,0,0-.6-.53,8.3,8.3,0,0,0-1.28-.54,4.12,4.12,0,0,1-1.7-1,2.2,2.2,0,0,1-.52-1.53,1.9,1.9,0,0,1,.75-1.58,3.08,3.08,0,0,1,2-.59,5.79,5.79,0,0,1,2.34.47l-.31.87a5.22,5.22,0,0,0-2.06-.45,2,2,0,0,0-1.23.34,1.14,1.14,0,0,0-.45,1,1.44,1.44,0,0,0,.16.73,1.58,1.58,0,0,0,.56.52,6.83,6.83,0,0,0,1.19.52,4.71,4.71,0,0,1,1.85,1A2,2,0,0,1,181.76,167.35Z"/><path class="cls-5" d="M183.29,161.47a.66.66,0,0,1,.16-.49.59.59,0,0,1,.41-.15.54.54,0,0,1,.4.16.59.59,0,0,1,.17.48.62.62,0,0,1-.17.49.54.54,0,0,1-.4.16.56.56,0,0,1-.41-.16A.66.66,0,0,1,183.29,161.47Zm1.05,8.16h-1v-6.42h1Z"/><path class="cls-5" d="M190.8,169.63v-4.15a1.67,1.67,0,0,0-.36-1.17,1.45,1.45,0,0,0-1.12-.39,1.85,1.85,0,0,0-1.48.55,2.75,2.75,0,0,0-.46,1.79v3.37h-1v-6.42h.79l.16.88h.05a1.93,1.93,0,0,1,.84-.73,2.65,2.65,0,0,1,1.2-.27,2.44,2.44,0,0,1,1.74.56,2.4,2.4,0,0,1,.59,1.79v4.19Z"/><path class="cls-5" d="M199,163.21v.62l-1.19.14a2,2,0,0,1,.3.53,2.18,2.18,0,0,1,.13.75,1.92,1.92,0,0,1-.65,1.51,2.63,2.63,0,0,1-1.77.56,3.1,3.1,0,0,1-.54,0,1,1,0,0,0-.62.83.43.43,0,0,0,.22.39,1.62,1.62,0,0,0,.74.12h1.14a2.56,2.56,0,0,1,1.6.44,1.55,1.55,0,0,1,.56,1.28,1.84,1.84,0,0,1-.85,1.63,4.63,4.63,0,0,1-2.5.56,3.41,3.41,0,0,1-1.94-.47,1.52,1.52,0,0,1-.69-1.33,1.49,1.49,0,0,1,.38-1,1.87,1.87,0,0,1,1-.58,1,1,0,0,1-.41-.35.89.89,0,0,1-.17-.54,1.08,1.08,0,0,1,.19-.62,2.21,2.21,0,0,1,.59-.51,1.68,1.68,0,0,1-.81-.69,2.32,2.32,0,0,1,.32-2.75,2.58,2.58,0,0,1,1.79-.58,3.18,3.18,0,0,1,.91.12Zm-5.12,7.5a.87.87,0,0,0,.44.79,2.41,2.41,0,0,0,1.26.27,3.6,3.6,0,0,0,1.82-.36,1.13,1.13,0,0,0,.58-1,.77.77,0,0,0-.32-.72,2.43,2.43,0,0,0-1.21-.2H195.3a1.55,1.55,0,0,0-1,.31A1.16,1.16,0,0,0,193.9,170.71Zm.53-5.44a1.32,1.32,0,0,0,.38,1,1.52,1.52,0,0,0,1.06.34,1.24,1.24,0,0,0,1.42-1.38,1.28,1.28,0,0,0-1.44-1.45,1.44,1.44,0,0,0-1,.37A1.48,1.48,0,0,0,194.43,165.27Z"/><path class="cls-5" d="M201.31,169.63h-1v-9.11h1Z"/><path class="cls-5" d="M206.09,169.75a3,3,0,0,1-2.25-.87,3.33,3.33,0,0,1-.82-2.4,3.72,3.72,0,0,1,.76-2.47,2.55,2.55,0,0,1,2.06-.92,2.43,2.43,0,0,1,1.91.8,3,3,0,0,1,.7,2.09v.62H204a2.59,2.59,0,0,0,.57,1.72,2,2,0,0,0,1.52.58,5.18,5.18,0,0,0,2.06-.43v.86a4.85,4.85,0,0,1-1,.32A5.13,5.13,0,0,1,206.09,169.75Zm-.26-5.84a1.62,1.62,0,0,0-1.24.5,2.41,2.41,0,0,0-.54,1.4h3.36a2.14,2.14,0,0,0-.41-1.41A1.45,1.45,0,0,0,205.83,163.91Z"/><path class="cls-5" d="M219.56,169.63h-1.17l-3.12-4.15-.9.8v3.35h-1v-8.56h1v4.25l3.88-4.25h1.18L216,164.79Z"/><path class="cls-5" d="M225,169.63v-4.15a1.67,1.67,0,0,0-.36-1.17,1.45,1.45,0,0,0-1.12-.39,1.85,1.85,0,0,0-1.48.55,2.74,2.74,0,0,0-.47,1.79v3.37h-1v-6.42h.79l.16.88h.05a1.93,1.93,0,0,1,.84-.73,2.65,2.65,0,0,1,1.2-.27,2.44,2.44,0,0,1,1.74.56,2.4,2.4,0,0,1,.59,1.79v4.19Z"/><path class="cls-5" d="M233.5,166.42a3.54,3.54,0,0,1-.79,2.45,2.79,2.79,0,0,1-2.19.88,2.91,2.91,0,0,1-1.53-.4,2.78,2.78,0,0,1-1-1.16,4.11,4.11,0,0,1-.36-1.77,3.55,3.55,0,0,1,.78-2.45,2.8,2.8,0,0,1,2.18-.88,2.73,2.73,0,0,1,2.15.9A3.54,3.54,0,0,1,233.5,166.42Zm-4.89,0a3,3,0,0,0,.49,1.87,1.94,1.94,0,0,0,2.9,0,3,3,0,0,0,.49-1.87,3,3,0,0,0-.49-1.86,2,2,0,0,0-2.91,0A3.05,3.05,0,0,0,228.61,166.42Z"/><path class="cls-5" d="M237.28,169a2.74,2.74,0,0,0,.5,0l.38-.08v.75a1.75,1.75,0,0,1-.47.12,3.86,3.86,0,0,1-.55.05c-1.24,0-1.86-.65-1.86-2V164h-.92v-.47l.92-.41.41-1.37h.56v1.49h1.86V164h-1.86v3.78a1.33,1.33,0,0,0,.27.89A1,1,0,0,0,237.28,169Z"/><path class="cls-5" d="M242,166.35a9.15,9.15,0,0,1,.45-2.91,7.19,7.19,0,0,1,1.31-2.37h.95a8.44,8.44,0,0,0-1.27,2.48,9.32,9.32,0,0,0-.42,2.78,8.83,8.83,0,0,0,.43,2.75,8.59,8.59,0,0,0,1.25,2.45h-.94a7,7,0,0,1-1.31-2.32A8.88,8.88,0,0,1,242,166.35Z"/><path class="cls-5" d="M251.09,167.35a2.09,2.09,0,0,1-.82,1.77,3.58,3.58,0,0,1-2.23.63,5.62,5.62,0,0,1-2.34-.39v-1a6.2,6.2,0,0,0,1.15.35,6.42,6.42,0,0,0,1.23.13,2.51,2.51,0,0,0,1.5-.38,1.25,1.25,0,0,0,.5-1.05,1.34,1.34,0,0,0-.18-.73,1.72,1.72,0,0,0-.59-.53,8.3,8.3,0,0,0-1.28-.54,4.17,4.17,0,0,1-1.71-1,2.24,2.24,0,0,1-.51-1.53,1.92,1.92,0,0,1,.74-1.58,3.12,3.12,0,0,1,2-.59,5.8,5.8,0,0,1,2.35.47l-.31.87a5.22,5.22,0,0,0-2.06-.45,2.05,2.05,0,0,0-1.24.34,1.15,1.15,0,0,0-.44,1,1.44,1.44,0,0,0,.16.73,1.58,1.58,0,0,0,.56.52,6.5,6.5,0,0,0,1.19.52,4.71,4.71,0,0,1,1.85,1A2,2,0,0,1,251.09,167.35Z"/><path class="cls-5" d="M254.73,166.35a8.94,8.94,0,0,1-.45,2.87,6.81,6.81,0,0,1-1.31,2.31H252a8.29,8.29,0,0,0,1.25-2.44,8.94,8.94,0,0,0,.43-2.76,9.32,9.32,0,0,0-.42-2.78,8.21,8.21,0,0,0-1.27-2.48H253a7.14,7.14,0,0,1,1.31,2.38A9.13,9.13,0,0,1,254.73,166.35Z"/><path class="cls-5" d="M256.11,163.84c0-.53.23-.79.69-.79s.72.26.72.79a.8.8,0,0,1-.2.58.66.66,0,0,1-.52.21.71.71,0,0,1-.5-.18A.83.83,0,0,1,256.11,163.84Zm0,5.17a.9.9,0,0,1,.17-.59.64.64,0,0,1,.52-.2.69.69,0,0,1,.53.2.85.85,0,0,1,.19.59.83.83,0,0,1-.2.59.65.65,0,0,1-.52.2.71.71,0,0,1-.5-.18A.81.81,0,0,1,256.11,169Z"/><path class="cls-5" d="M176,178.4l-.07-.13a11.47,11.47,0,0,1,.41-1.31c.19-.52.4-1,.62-1.49h.72a29.41,29.41,0,0,0-.61,2.93Z"/><path class="cls-5" d="M183.8,181.75a2.09,2.09,0,0,1-.82,1.77,3.58,3.58,0,0,1-2.23.63,5.62,5.62,0,0,1-2.34-.39v-1a6.2,6.2,0,0,0,1.15.35,6.42,6.42,0,0,0,1.23.13,2.51,2.51,0,0,0,1.5-.38,1.25,1.25,0,0,0,.5-1.05,1.34,1.34,0,0,0-.18-.73,1.55,1.55,0,0,0-.59-.53,8.3,8.3,0,0,0-1.28-.54,4.24,4.24,0,0,1-1.71-1,2.28,2.28,0,0,1-.51-1.53,1.9,1.9,0,0,1,.75-1.58,3.07,3.07,0,0,1,2-.59,5.8,5.8,0,0,1,2.35.47l-.31.87a5.22,5.22,0,0,0-2.06-.45,2.05,2.05,0,0,0-1.24.34,1.15,1.15,0,0,0-.44,1,1.46,1.46,0,0,0,.16.73,1.58,1.58,0,0,0,.56.52,6.5,6.5,0,0,0,1.19.52,4.71,4.71,0,0,1,1.85,1A2,2,0,0,1,183.8,181.75Z"/><path class="cls-5" d="M186.19,175.47l.08.13a12.28,12.28,0,0,1-.44,1.36c-.19.52-.39,1-.59,1.44h-.72c.27-1.11.47-2.09.6-2.93Z"/><path class="cls-5" d="M191.52,180.75c.17-.24.43-.55.77-.94l2.08-2.2h1.15l-2.6,2.74L195.7,184h-1.18l-2.26-3-.74.63V184h-1v-9.11h1v4.83c0,.21,0,.55,0,1Z"/><path class="cls-5" d="M201.26,184v-4.15a1.66,1.66,0,0,0-.36-1.17,1.45,1.45,0,0,0-1.12-.39,1.85,1.85,0,0,0-1.48.55,2.74,2.74,0,0,0-.47,1.79V184h-1v-6.42h.79l.16.88h.05a2,2,0,0,1,.84-.74,2.75,2.75,0,0,1,1.2-.26,2.44,2.44,0,0,1,1.74.56,2.4,2.4,0,0,1,.59,1.79V184Z"/><path class="cls-5" d="M209.77,180.82a3.54,3.54,0,0,1-.79,2.45,2.79,2.79,0,0,1-2.19.88,2.91,2.91,0,0,1-1.53-.4,2.71,2.71,0,0,1-1-1.16,4.11,4.11,0,0,1-.36-1.77,3.55,3.55,0,0,1,.78-2.45,2.8,2.8,0,0,1,2.18-.88,2.73,2.73,0,0,1,2.15.9A3.59,3.59,0,0,1,209.77,180.82Zm-4.89,0a3,3,0,0,0,.49,1.87,1.94,1.94,0,0,0,2.9,0,3,3,0,0,0,.49-1.87,3,3,0,0,0-.49-1.86,2,2,0,0,0-2.91,0A3.05,3.05,0,0,0,204.88,180.82Z"/><path class="cls-5" d="M213.55,183.35a4,4,0,0,0,.5,0l.38-.08V184a1.41,1.41,0,0,1-.47.13,3.86,3.86,0,0,1-.55.05c-1.24,0-1.87-.65-1.87-2v-3.82h-.92v-.47l.92-.41.42-1.37h.56v1.49h1.86v.76h-1.86v3.78a1.33,1.33,0,0,0,.27.89A1,1,0,0,0,213.55,183.35Z"/><path class="cls-5" d="M219.85,182.28a1.6,1.6,0,0,1-.66,1.38,3.11,3.11,0,0,1-1.88.49,4.05,4.05,0,0,1-2-.4v-.91a4.69,4.69,0,0,0,1,.37,4.23,4.23,0,0,0,1,.14,2.28,2.28,0,0,0,1.18-.25.83.83,0,0,0,.08-1.38,5,5,0,0,0-1.27-.63,6.93,6.93,0,0,1-1.27-.58,1.78,1.78,0,0,1-.56-.57,1.39,1.39,0,0,1-.19-.75,1.42,1.42,0,0,1,.64-1.24,3,3,0,0,1,1.75-.46,5,5,0,0,1,2,.43l-.35.79a4.56,4.56,0,0,0-1.75-.4,1.94,1.94,0,0,0-1,.22.65.65,0,0,0-.35.59.72.72,0,0,0,.13.44,1.39,1.39,0,0,0,.42.35,8.61,8.61,0,0,0,1.13.47,4.27,4.27,0,0,1,1.54.84A1.47,1.47,0,0,1,219.85,182.28Z"/><path class="cls-5" d="M227.12,184.15a2.75,2.75,0,0,1-2.16-.86,3.52,3.52,0,0,1-.76-2.43,3.64,3.64,0,0,1,.77-2.49,2.83,2.83,0,0,1,2.21-.88,4.9,4.9,0,0,1,.93.1,3.27,3.27,0,0,1,.73.24l-.3.82a6,6,0,0,0-.71-.21,2.83,2.83,0,0,0-.67-.08c-1.3,0-2,.83-2,2.49a3,3,0,0,0,.48,1.82,1.67,1.67,0,0,0,1.42.63,4.3,4.3,0,0,0,1.64-.34v.86A3.54,3.54,0,0,1,227.12,184.15Z"/><path class="cls-5" d="M234.21,184l-.19-.91H234a2.88,2.88,0,0,1-.95.82,3,3,0,0,1-1.2.21,2.13,2.13,0,0,1-1.49-.49,1.81,1.81,0,0,1-.54-1.4c0-1.3,1-2,3.11-2l1.09,0v-.39a1.61,1.61,0,0,0-.33-1.12,1.34,1.34,0,0,0-1-.36,4.25,4.25,0,0,0-1.82.49l-.29-.74a4.18,4.18,0,0,1,1-.41,4.32,4.32,0,0,1,1.13-.14,2.43,2.43,0,0,1,1.7.51,2.11,2.11,0,0,1,.56,1.63V184Zm-2.19-.68a2,2,0,0,0,1.42-.5,1.83,1.83,0,0,0,.52-1.39v-.58l-1,0a3.36,3.36,0,0,0-1.67.36,1.09,1.09,0,0,0-.52,1,1,1,0,0,0,.32.8A1.31,1.31,0,0,0,232,183.35Z"/><path class="cls-5" d="M241.33,184v-4.15a1.7,1.7,0,0,0-.35-1.17,1.45,1.45,0,0,0-1.12-.39,1.83,1.83,0,0,0-1.48.55,2.74,2.74,0,0,0-.47,1.79V184h-1v-6.42h.79l.16.88h.05a1.93,1.93,0,0,1,.83-.74,2.78,2.78,0,0,1,1.2-.26,2.45,2.45,0,0,1,1.75.56,2.4,2.4,0,0,1,.59,1.79V184Z"/><path class="cls-5" d="M250.41,177.51a2.39,2.39,0,0,1,2,.86,3.84,3.84,0,0,1,.7,2.45,3.8,3.8,0,0,1-.71,2.45,2.36,2.36,0,0,1-2,.88,2.88,2.88,0,0,1-1.15-.23,2.28,2.28,0,0,1-.87-.71h-.07l-.2.82h-.7v-9.11h1v2.21c0,.5,0,.94,0,1.34h0A2.33,2.33,0,0,1,250.41,177.51Zm-.14.81a1.72,1.72,0,0,0-1.44.57,3.24,3.24,0,0,0-.44,1.93,3.13,3.13,0,0,0,.46,1.93,1.7,1.7,0,0,0,1.44.59,1.5,1.5,0,0,0,1.34-.66,3.37,3.37,0,0,0,.44-1.88,3.23,3.23,0,0,0-.44-1.86A1.56,1.56,0,0,0,250.27,178.32Z"/><path class="cls-5" d="M257.49,184.15a3,3,0,0,1-2.25-.87,3.33,3.33,0,0,1-.82-2.4,3.72,3.72,0,0,1,.76-2.47,2.55,2.55,0,0,1,2.06-.92,2.43,2.43,0,0,1,1.91.8,3,3,0,0,1,.7,2.09V181h-4.42a2.54,2.54,0,0,0,.57,1.71,1.94,1.94,0,0,0,1.52.59,5.13,5.13,0,0,0,2.05-.43v.86a4.58,4.58,0,0,1-1,.32A5.13,5.13,0,0,1,257.49,184.15Zm-.27-5.84a1.61,1.61,0,0,0-1.23.5,2.28,2.28,0,0,0-.54,1.4h3.36a2.14,2.14,0,0,0-.41-1.41A1.46,1.46,0,0,0,257.22,178.31Z"/><path class="cls-5" d="M264.54,175.87a.66.66,0,0,1,.17-.49.58.58,0,0,1,.41-.15.59.59,0,0,1,.4.15.79.79,0,0,1,0,1,.55.55,0,0,1-.4.16.54.54,0,0,1-.41-.16A.66.66,0,0,1,264.54,175.87ZM265.6,184h-1v-6.42h1Z"/><path class="cls-5" d="M271.8,182.28a1.59,1.59,0,0,1-.67,1.38,3.08,3.08,0,0,1-1.87.49,4.05,4.05,0,0,1-2-.4v-.91a4.69,4.69,0,0,0,1,.37,4.16,4.16,0,0,0,1,.14,2.28,2.28,0,0,0,1.18-.25.83.83,0,0,0,.08-1.38,5,5,0,0,0-1.27-.63,6.93,6.93,0,0,1-1.27-.58,1.93,1.93,0,0,1-.57-.57,1.49,1.49,0,0,1-.18-.75,1.42,1.42,0,0,1,.64-1.24,3,3,0,0,1,1.75-.46,5,5,0,0,1,2,.43l-.35.79a4.56,4.56,0,0,0-1.75-.4,1.94,1.94,0,0,0-1,.22.65.65,0,0,0-.35.59.72.72,0,0,0,.13.44,1.39,1.39,0,0,0,.42.35,8.61,8.61,0,0,0,1.13.47,4.27,4.27,0,0,1,1.54.84A1.47,1.47,0,0,1,271.8,182.28Z"/><path class="cls-5" d="M278.93,180.82a3.59,3.59,0,0,1-.79,2.45,2.79,2.79,0,0,1-2.19.88,2.91,2.91,0,0,1-1.53-.4,2.71,2.71,0,0,1-1-1.16,4.11,4.11,0,0,1-.36-1.77,3.55,3.55,0,0,1,.78-2.45,2.8,2.8,0,0,1,2.18-.88,2.71,2.71,0,0,1,2.14.9A3.54,3.54,0,0,1,278.93,180.82Zm-4.89,0a3,3,0,0,0,.49,1.87,1.93,1.93,0,0,0,2.89,0,3,3,0,0,0,.5-1.87,3,3,0,0,0-.5-1.86,2,2,0,0,0-2.9,0A3.05,3.05,0,0,0,274,180.82Z"/><path class="cls-5" d="M281.61,184h-1v-9.11h1Z"/><path class="cls-5" d="M287.62,184l-.2-.91h0a2.81,2.81,0,0,1-1,.82,3,3,0,0,1-1.19.21,2.14,2.14,0,0,1-1.5-.49,1.81,1.81,0,0,1-.54-1.4c0-1.3,1-2,3.11-2l1.09,0v-.39a1.61,1.61,0,0,0-.33-1.12,1.32,1.32,0,0,0-1-.36,4.18,4.18,0,0,0-1.81.49l-.3-.74a4.18,4.18,0,0,1,1-.41,4.37,4.37,0,0,1,1.13-.14,2.42,2.42,0,0,1,1.7.51,2.11,2.11,0,0,1,.56,1.63V184Zm-2.2-.68a2,2,0,0,0,1.43-.5,1.86,1.86,0,0,0,.52-1.39v-.58l-1,0a3.36,3.36,0,0,0-1.67.36,1.08,1.08,0,0,0-.51,1,1,1,0,0,0,.32.8A1.28,1.28,0,0,0,285.42,183.35Z"/><path class="cls-5" d="M292.42,183.35a3.89,3.89,0,0,0,.49,0,3.43,3.43,0,0,0,.38-.08V184a1.34,1.34,0,0,1-.46.13,4,4,0,0,1-.55.05c-1.25,0-1.87-.65-1.87-2v-3.82h-.92v-.47l.92-.41.41-1.37h.56v1.49h1.87v.76h-1.87v3.78a1.34,1.34,0,0,0,.28.89A1,1,0,0,0,292.42,183.35Z"/><path class="cls-5" d="M297.29,184.15a3,3,0,0,1-2.25-.87,3.37,3.37,0,0,1-.82-2.4,3.73,3.73,0,0,1,.77-2.47,2.53,2.53,0,0,1,2.05-.92,2.43,2.43,0,0,1,1.91.8,3,3,0,0,1,.7,2.09V181h-4.42a2.54,2.54,0,0,0,.57,1.71,2,2,0,0,0,1.53.59,5.17,5.17,0,0,0,2.05-.43v.86a4.85,4.85,0,0,1-1,.32A5.13,5.13,0,0,1,297.29,184.15Zm-.26-5.84a1.62,1.62,0,0,0-1.24.5,2.41,2.41,0,0,0-.54,1.4h3.36a2.14,2.14,0,0,0-.41-1.41A1.42,1.42,0,0,0,297,178.31Z"/><path class="cls-5" d="M305.68,183.17h-.05a2.29,2.29,0,0,1-2,1,2.4,2.4,0,0,1-2-.86,4.64,4.64,0,0,1,0-4.92,2.6,2.6,0,0,1,4,.07h.07l0-.46,0-.45v-2.61h1V184h-.79Zm-1.94.17a1.74,1.74,0,0,0,1.44-.55,2.72,2.72,0,0,0,.45-1.75v-.2a3.18,3.18,0,0,0-.46-2,1.71,1.71,0,0,0-1.45-.58,1.47,1.47,0,0,0-1.3.66,3.27,3.27,0,0,0-.46,1.88,3.19,3.19,0,0,0,.45,1.86A1.53,1.53,0,0,0,303.74,183.34Z"/><path class="cls-5" d="M317.32,180.82a3.54,3.54,0,0,1-.79,2.45,2.75,2.75,0,0,1-2.18.88,2.86,2.86,0,0,1-1.53-.4,2.65,2.65,0,0,1-1-1.16,4,4,0,0,1-.37-1.77,3.55,3.55,0,0,1,.79-2.45,2.79,2.79,0,0,1,2.18-.88,2.71,2.71,0,0,1,2.14.9A3.54,3.54,0,0,1,317.32,180.82Zm-4.89,0a3.09,3.09,0,0,0,.49,1.87,1.94,1.94,0,0,0,2.9,0,3,3,0,0,0,.5-1.87,3,3,0,0,0-.5-1.86,1.73,1.73,0,0,0-1.46-.64,1.7,1.7,0,0,0-1.44.63A3,3,0,0,0,312.43,180.82Z"/><path class="cls-5" d="M322,177.49a4.49,4.49,0,0,1,.77.07l-.14.91a3.2,3.2,0,0,0-.7-.09,1.69,1.69,0,0,0-1.33.63,2.31,2.31,0,0,0-.56,1.58V184h-1v-6.42h.8l.11,1.19H320a2.93,2.93,0,0,1,.86-1A2,2,0,0,1,322,177.49Z"/><path class="cls-5" d="M176.7,190.27a.66.66,0,0,1,.16-.49.59.59,0,0,1,.41-.15.57.57,0,0,1,.41.16.62.62,0,0,1,.17.48.66.66,0,0,1-.17.49.57.57,0,0,1-.41.16.56.56,0,0,1-.41-.16A.66.66,0,0,1,176.7,190.27Zm1.05,8.16h-1V192h1Z"/><path class="cls-5" d="M184.21,198.43v-4.15a1.67,1.67,0,0,0-.36-1.17,1.44,1.44,0,0,0-1.12-.39,1.81,1.81,0,0,0-1.47.55,2.74,2.74,0,0,0-.47,1.79v3.37h-1V192h.79l.16.88h0a1.93,1.93,0,0,1,.84-.73,2.65,2.65,0,0,1,1.2-.27,2.47,2.47,0,0,1,1.75.56,2.39,2.39,0,0,1,.58,1.79v4.19Z"/><path class="cls-5" d="M192.87,198.55a2.75,2.75,0,0,1-2.16-.86,3.52,3.52,0,0,1-.77-2.43,3.64,3.64,0,0,1,.78-2.49,2.81,2.81,0,0,1,2.21-.88,4.9,4.9,0,0,1,.93.1,3.16,3.16,0,0,1,.72.24l-.3.82a5.81,5.81,0,0,0-.7-.21,2.89,2.89,0,0,0-.67-.08c-1.31,0-2,.83-2,2.49a3,3,0,0,0,.48,1.82,1.66,1.66,0,0,0,1.41.63,4.31,4.31,0,0,0,1.65-.34v.86A3.54,3.54,0,0,1,192.87,198.55Z"/><path class="cls-5" d="M197,198.43h-1v-9.11h1Z"/><path class="cls-5" d="M200,192v4.17a1.67,1.67,0,0,0,.36,1.17,1.45,1.45,0,0,0,1.12.39,1.84,1.84,0,0,0,1.47-.55,2.79,2.79,0,0,0,.47-1.8V192h1v6.42h-.8l-.14-.86h-.06a1.91,1.91,0,0,1-.83.73,2.73,2.73,0,0,1-1.21.25,2.41,2.41,0,0,1-1.75-.56,2.35,2.35,0,0,1-.58-1.78V192Z"/><path class="cls-5" d="M210.55,196.68a1.6,1.6,0,0,1-.66,1.38,3.11,3.11,0,0,1-1.88.49,4.08,4.08,0,0,1-2-.4v-.91a4.69,4.69,0,0,0,1,.37,4.24,4.24,0,0,0,1,.14,2.26,2.26,0,0,0,1.17-.25.83.83,0,0,0,.08-1.38,4.84,4.84,0,0,0-1.27-.63,6.59,6.59,0,0,1-1.27-.58,1.78,1.78,0,0,1-.56-.57,1.39,1.39,0,0,1-.19-.75,1.42,1.42,0,0,1,.64-1.24,3,3,0,0,1,1.75-.46,5.18,5.18,0,0,1,2,.43l-.35.79a4.52,4.52,0,0,0-1.75-.4,1.94,1.94,0,0,0-1,.22.65.65,0,0,0-.35.59.7.7,0,0,0,.13.44,1.39,1.39,0,0,0,.42.35,8.61,8.61,0,0,0,1.13.47,4.18,4.18,0,0,1,1.54.84A1.47,1.47,0,0,1,210.55,196.68Z"/><path class="cls-5" d="M214.21,197.75a2.74,2.74,0,0,0,.5,0,3.43,3.43,0,0,0,.38-.08v.75a1.75,1.75,0,0,1-.47.12,3.86,3.86,0,0,1-.55.05c-1.24,0-1.86-.65-1.86-2v-3.82h-.92v-.47l.92-.41.41-1.37h.56V192H215v.76h-1.86v3.78a1.28,1.28,0,0,0,.28.89A1,1,0,0,0,214.21,197.75Z"/><path class="cls-5" d="M219.09,198.55a3,3,0,0,1-2.25-.87,3.33,3.33,0,0,1-.82-2.4,3.72,3.72,0,0,1,.76-2.47,2.53,2.53,0,0,1,2.05-.92,2.4,2.4,0,0,1,1.91.8,3,3,0,0,1,.71,2.09v.62H217a2.59,2.59,0,0,0,.57,1.72,2,2,0,0,0,1.53.58,5.13,5.13,0,0,0,2-.43v.86a4.77,4.77,0,0,1-1,.32A5.13,5.13,0,0,1,219.09,198.55Zm-.27-5.84a1.61,1.61,0,0,0-1.23.5,2.28,2.28,0,0,0-.54,1.4h3.35a2.08,2.08,0,0,0-.41-1.41A1.42,1.42,0,0,0,218.82,192.71Z"/><path class="cls-5" d="M226,191.89a4.28,4.28,0,0,1,.76.07l-.13.91a3.28,3.28,0,0,0-.71-.09,1.72,1.72,0,0,0-1.33.63,2.31,2.31,0,0,0-.55,1.58v3.44h-1V192h.8l.11,1.19h0a2.72,2.72,0,0,1,.86-1A2,2,0,0,1,226,191.89Z"/><path class="cls-5" d="M232.15,196.68a1.61,1.61,0,0,1-.67,1.38,3.11,3.11,0,0,1-1.88.49,4.08,4.08,0,0,1-2-.4v-.91a4.69,4.69,0,0,0,1,.37,4.24,4.24,0,0,0,1,.14,2.24,2.24,0,0,0,1.17-.25.83.83,0,0,0,.08-1.38,4.9,4.9,0,0,0-1.26-.63,6.46,6.46,0,0,1-1.28-.58,1.78,1.78,0,0,1-.56-.57,1.49,1.49,0,0,1-.19-.75,1.45,1.45,0,0,1,.64-1.24,3,3,0,0,1,1.75-.46,5.14,5.14,0,0,1,2,.43l-.34.79a4.61,4.61,0,0,0-1.76-.4,2,2,0,0,0-1,.22.67.67,0,0,0-.35.59.7.7,0,0,0,.13.44,1.33,1.33,0,0,0,.43.35,8.3,8.3,0,0,0,1.12.47,4.34,4.34,0,0,1,1.55.84A1.52,1.52,0,0,1,232.15,196.68Z"/><path class="cls-5" d="M234.75,197l.09.13c-.11.39-.25.85-.44,1.37s-.39,1-.6,1.44h-.73c.1-.41.22-.91.35-1.51s.21-1.07.26-1.43Z"/><path class="cls-5" d="M241.86,197.75a2.74,2.74,0,0,0,.5,0,3.43,3.43,0,0,0,.38-.08v.75a1.75,1.75,0,0,1-.47.12,3.86,3.86,0,0,1-.55.05c-1.24,0-1.86-.65-1.86-2v-3.82h-.92v-.47l.92-.41.41-1.37h.56V192h1.86v.76h-1.86v3.78a1.28,1.28,0,0,0,.28.89A1,1,0,0,0,241.86,197.75Z"/><path class="cls-5" d="M248.42,198.43v-4.15a1.67,1.67,0,0,0-.36-1.17,1.45,1.45,0,0,0-1.12-.39,1.83,1.83,0,0,0-1.48.55,2.81,2.81,0,0,0-.46,1.81v3.35h-1v-9.11h1v2.76a6.09,6.09,0,0,1-.05.82H245a2,2,0,0,1,.82-.73,2.73,2.73,0,0,1,1.21-.26,2.43,2.43,0,0,1,1.76.56,2.35,2.35,0,0,1,.59,1.77v4.19Z"/><path class="cls-5" d="M254.1,198.55a3,3,0,0,1-2.25-.87,3.37,3.37,0,0,1-.82-2.4,3.73,3.73,0,0,1,.77-2.47,2.53,2.53,0,0,1,2-.92,2.43,2.43,0,0,1,1.91.8,3,3,0,0,1,.7,2.09v.62H252a2.59,2.59,0,0,0,.57,1.72,2,2,0,0,0,1.53.58,5.17,5.17,0,0,0,2.05-.43v.86a4.85,4.85,0,0,1-1,.32A5,5,0,0,1,254.1,198.55Zm-.26-5.84a1.62,1.62,0,0,0-1.24.5,2.41,2.41,0,0,0-.54,1.4h3.36a2.14,2.14,0,0,0-.41-1.41A1.42,1.42,0,0,0,253.84,192.71Z"/><path class="cls-5" d="M265.63,198.43v-4.15a1.72,1.72,0,0,0-.35-1.17,1.47,1.47,0,0,0-1.12-.39,1.82,1.82,0,0,0-1.48.55,2.74,2.74,0,0,0-.47,1.79v3.37h-1V192H262l.16.88h0a1.93,1.93,0,0,1,.84-.73,2.65,2.65,0,0,1,1.2-.27,2.45,2.45,0,0,1,1.75.56,2.4,2.4,0,0,1,.59,1.79v4.19Z"/><path class="cls-5" d="M269.52,192v4.17a1.67,1.67,0,0,0,.36,1.17,1.43,1.43,0,0,0,1.11.39,1.85,1.85,0,0,0,1.48-.55,2.8,2.8,0,0,0,.46-1.8V192h1v6.42h-.81l-.14-.86h0a2,2,0,0,1-.83.73,2.76,2.76,0,0,1-1.21.25,2.39,2.39,0,0,1-1.75-.56,2.36,2.36,0,0,1-.59-1.78V192Z"/><path class="cls-5" d="M284.15,198.43v-4.17a1.8,1.8,0,0,0-.32-1.16,1.29,1.29,0,0,0-1-.38,1.65,1.65,0,0,0-1.35.52,2.54,2.54,0,0,0-.43,1.61v3.58h-1v-4.17a1.75,1.75,0,0,0-.33-1.16,1.29,1.29,0,0,0-1-.38,1.57,1.57,0,0,0-1.34.55,2.89,2.89,0,0,0-.43,1.79v3.37h-1V192h.79l.16.88h0a2,2,0,0,1,.78-.73,2.35,2.35,0,0,1,1.12-.27,1.91,1.91,0,0,1,2,1.09h.05a2,2,0,0,1,.83-.79,2.53,2.53,0,0,1,1.24-.3,2.17,2.17,0,0,1,1.63.56,2.48,2.48,0,0,1,.55,1.79v4.19Z"/><path class="cls-5" d="M290.12,191.91a2.36,2.36,0,0,1,2,.86,4.58,4.58,0,0,1,0,4.9,2.36,2.36,0,0,1-2,.88,2.88,2.88,0,0,1-1.15-.23,2.19,2.19,0,0,1-.87-.71H288l-.2.82h-.7v-9.11h1v2.21c0,.5,0,.94,0,1.34h0A2.33,2.33,0,0,1,290.12,191.91Zm-.14.81a1.71,1.71,0,0,0-1.44.57,3.24,3.24,0,0,0-.44,1.93,3.21,3.21,0,0,0,.45,1.93,1.74,1.74,0,0,0,1.45.59,1.51,1.51,0,0,0,1.34-.66,3.36,3.36,0,0,0,.44-1.87,3.24,3.24,0,0,0-.44-1.87A1.57,1.57,0,0,0,290,192.72Z"/><path class="cls-5" d="M297.2,198.55a3,3,0,0,1-2.25-.87,3.33,3.33,0,0,1-.82-2.4,3.72,3.72,0,0,1,.76-2.47,2.55,2.55,0,0,1,2.06-.92,2.43,2.43,0,0,1,1.91.8,3.09,3.09,0,0,1,.7,2.09v.62h-4.43a2.54,2.54,0,0,0,.58,1.72,2,2,0,0,0,1.52.58,5.13,5.13,0,0,0,2-.43v.86a4.77,4.77,0,0,1-1,.32A5.13,5.13,0,0,1,297.2,198.55Zm-.27-5.84a1.61,1.61,0,0,0-1.23.5,2.28,2.28,0,0,0-.54,1.4h3.36a2.14,2.14,0,0,0-.41-1.41A1.46,1.46,0,0,0,296.93,192.71Z"/><path class="cls-5" d="M304.15,191.89a4.28,4.28,0,0,1,.76.07l-.13.91a3.27,3.27,0,0,0-.7-.09,1.73,1.73,0,0,0-1.34.63,2.31,2.31,0,0,0-.55,1.58v3.44h-1V192h.8l.11,1.19h.05a2.82,2.82,0,0,1,.86-1A2,2,0,0,1,304.15,191.89Z"/><path class="cls-5" d="M314.78,195.22a3.54,3.54,0,0,1-.8,2.45,2.75,2.75,0,0,1-2.18.88,2.86,2.86,0,0,1-1.53-.4,2.65,2.65,0,0,1-1-1.16,4.11,4.11,0,0,1-.36-1.77,3.55,3.55,0,0,1,.78-2.45,2.79,2.79,0,0,1,2.18-.88,2.71,2.71,0,0,1,2.14.9A3.54,3.54,0,0,1,314.78,195.22Zm-4.9,0a3,3,0,0,0,.5,1.87,1.7,1.7,0,0,0,1.44.65,1.71,1.71,0,0,0,1.45-.65,3,3,0,0,0,.5-1.87,3,3,0,0,0-.5-1.86,1.72,1.72,0,0,0-1.46-.64,1.7,1.7,0,0,0-1.44.63A3,3,0,0,0,309.88,195.22Z"/><path class="cls-5" d="M319.38,192.77h-1.64v5.66h-1v-5.66h-1.15v-.44l1.15-.35v-.36q0-2.37,2.07-2.37a4.15,4.15,0,0,1,1.19.21l-.25.78a3.36,3.36,0,0,0-1-.19,1,1,0,0,0-.82.37,2.13,2.13,0,0,0-.26,1.18V192h1.64Z"/><path class="cls-5" d="M177.74,209.55c.17-.24.43-.55.77-.94l2.07-2.2h1.16l-2.6,2.74,2.78,3.68h-1.18l-2.27-3-.73.63v2.4h-1v-9.11h1v4.83c0,.22,0,.55,0,1Z"/><path class="cls-5" d="M187.47,212.83v-4.15a1.67,1.67,0,0,0-.35-1.17,1.45,1.45,0,0,0-1.12-.39,1.83,1.83,0,0,0-1.48.55,2.74,2.74,0,0,0-.47,1.79v3.37h-1v-6.42h.79l.16.88h.05a1.91,1.91,0,0,1,.83-.73,2.66,2.66,0,0,1,1.21-.27,2.44,2.44,0,0,1,1.74.56,2.4,2.4,0,0,1,.59,1.79v4.19Z"/><path class="cls-5" d="M196,209.62a3.59,3.59,0,0,1-.79,2.45A2.79,2.79,0,0,1,193,213a2.91,2.91,0,0,1-1.53-.4,2.71,2.71,0,0,1-1-1.16,4.11,4.11,0,0,1-.36-1.77,3.55,3.55,0,0,1,.78-2.45,2.8,2.8,0,0,1,2.18-.88,2.69,2.69,0,0,1,2.14.9A3.54,3.54,0,0,1,196,209.62Zm-4.89,0a3,3,0,0,0,.49,1.87,1.71,1.71,0,0,0,1.45.65,1.75,1.75,0,0,0,1.45-.64,3.05,3.05,0,0,0,.49-1.88,3,3,0,0,0-.49-1.86,2,2,0,0,0-2.91,0A3.05,3.05,0,0,0,191.1,209.62Z"/><path class="cls-5" d="M199.77,212.15a2.74,2.74,0,0,0,.5,0l.38-.08v.75a1.75,1.75,0,0,1-.47.12,3.86,3.86,0,0,1-.55,0c-1.25,0-1.87-.65-1.87-2v-3.82h-.92v-.47l.92-.41.41-1.37h.57v1.49h1.86v.76h-1.86V211a1.33,1.33,0,0,0,.27.89A1,1,0,0,0,199.77,212.15Z"/><path class="cls-5" d="M206.07,211.08a1.59,1.59,0,0,1-.67,1.38,3.08,3.08,0,0,1-1.87.49,4.05,4.05,0,0,1-2-.4v-.91a4.69,4.69,0,0,0,1,.37,4.1,4.1,0,0,0,1,.14,2.32,2.32,0,0,0,1.17-.24.81.81,0,0,0,.41-.75.79.79,0,0,0-.32-.64,5,5,0,0,0-1.27-.63,6.31,6.31,0,0,1-1.27-.58,1.72,1.72,0,0,1-.57-.57,1.49,1.49,0,0,1-.18-.75,1.42,1.42,0,0,1,.64-1.24,3,3,0,0,1,1.75-.46,5.18,5.18,0,0,1,2,.43l-.35.79a4.56,4.56,0,0,0-1.75-.4,1.94,1.94,0,0,0-1,.22.65.65,0,0,0-.35.59.7.7,0,0,0,.13.44,1.39,1.39,0,0,0,.42.35,8.61,8.61,0,0,0,1.13.47,4.27,4.27,0,0,1,1.54.84A1.47,1.47,0,0,1,206.07,211.08Z"/><path class="cls-5" d="M210.69,204.67a.66.66,0,0,1,.16-.49.59.59,0,0,1,.41-.15.57.57,0,0,1,.41.16.62.62,0,0,1,.17.48.66.66,0,0,1-.17.49.57.57,0,0,1-.41.16.56.56,0,0,1-.41-.16A.66.66,0,0,1,210.69,204.67Zm1.05,8.16h-1v-6.42h1Z"/><path class="cls-5" d="M218.2,212.83v-4.15a1.67,1.67,0,0,0-.36-1.17,1.44,1.44,0,0,0-1.12-.39,1.81,1.81,0,0,0-1.47.55,2.74,2.74,0,0,0-.47,1.79v3.37h-1v-6.42h.79l.16.88h0a1.93,1.93,0,0,1,.84-.73,2.65,2.65,0,0,1,1.2-.27,2.45,2.45,0,0,1,1.75.56,2.39,2.39,0,0,1,.58,1.79v4.19Z"/><path class="cls-5" d="M226.36,212.15a2.67,2.67,0,0,0,.5,0,3.43,3.43,0,0,0,.38-.08v.75a1.66,1.66,0,0,1-.46.12,4,4,0,0,1-.56,0c-1.24,0-1.86-.65-1.86-2v-3.82h-.92v-.47l.92-.41.41-1.37h.56v1.49h1.87v.76h-1.87V211a1.28,1.28,0,0,0,.28.89A1,1,0,0,0,226.36,212.15Z"/><path class="cls-5" d="M232.92,212.83v-4.15a1.67,1.67,0,0,0-.36-1.17,1.45,1.45,0,0,0-1.12-.39,1.83,1.83,0,0,0-1.48.55,2.81,2.81,0,0,0-.46,1.81v3.35h-1v-9.11h1v2.76a6.09,6.09,0,0,1-.05.82h.06a2,2,0,0,1,.82-.73,2.73,2.73,0,0,1,1.21-.26,2.43,2.43,0,0,1,1.76.56,2.31,2.31,0,0,1,.59,1.77v4.19Z"/><path class="cls-5" d="M238.6,213a2.93,2.93,0,0,1-2.24-.87,3.33,3.33,0,0,1-.83-2.4,3.73,3.73,0,0,1,.77-2.47,2.53,2.53,0,0,1,2-.92,2.42,2.42,0,0,1,1.91.8,3,3,0,0,1,.7,2.09v.62h-4.42a2.59,2.59,0,0,0,.57,1.72,2,2,0,0,0,1.53.58,5.17,5.17,0,0,0,2.05-.43v.87a5.24,5.24,0,0,1-1,.31A5,5,0,0,1,238.6,213Zm-.26-5.84a1.58,1.58,0,0,0-1.23.5,2.35,2.35,0,0,0-.55,1.4h3.36a2.08,2.08,0,0,0-.41-1.41A1.42,1.42,0,0,0,238.34,207.11Z"/><path class="cls-5" d="M248.31,213a2.72,2.72,0,0,1-2.16-.86,3.52,3.52,0,0,1-.77-2.43,3.64,3.64,0,0,1,.78-2.49,2.81,2.81,0,0,1,2.21-.88,4.9,4.9,0,0,1,.93.1,3,3,0,0,1,.72.24l-.3.83a4.12,4.12,0,0,0-.7-.22,2.89,2.89,0,0,0-.67-.08c-1.31,0-2,.83-2,2.49a3,3,0,0,0,.48,1.82,1.66,1.66,0,0,0,1.41.63,4.31,4.31,0,0,0,1.65-.34v.86A3.54,3.54,0,0,1,248.31,213Z"/><path class="cls-5" d="M252.43,212.83h-1v-9.11h1Z"/><path class="cls-5" d="M255.4,206.41v4.17a1.67,1.67,0,0,0,.36,1.17,1.45,1.45,0,0,0,1.12.39,1.84,1.84,0,0,0,1.47-.55,2.79,2.79,0,0,0,.47-1.8v-3.38h1v6.42H259l-.14-.86h-.06a1.88,1.88,0,0,1-.82.73,2.79,2.79,0,0,1-1.21.25,2.42,2.42,0,0,1-1.76-.56,2.35,2.35,0,0,1-.58-1.78v-4.2Z"/><path class="cls-5" d="M266,211.08a1.61,1.61,0,0,1-.67,1.38,3.11,3.11,0,0,1-1.88.49,4.08,4.08,0,0,1-2-.4v-.91a4.69,4.69,0,0,0,1,.37,4.24,4.24,0,0,0,1,.14,2.35,2.35,0,0,0,1.17-.24.82.82,0,0,0,.41-.75.8.8,0,0,0-.33-.64,4.84,4.84,0,0,0-1.27-.63,6.59,6.59,0,0,1-1.27-.58,1.69,1.69,0,0,1-.56-.57,1.39,1.39,0,0,1-.19-.75,1.45,1.45,0,0,1,.64-1.24,3,3,0,0,1,1.75-.46,5.14,5.14,0,0,1,2,.43l-.34.79a4.61,4.61,0,0,0-1.76-.4,2,2,0,0,0-1,.22.67.67,0,0,0-.35.59.7.7,0,0,0,.13.44,1.33,1.33,0,0,0,.43.35,8.3,8.3,0,0,0,1.12.47,4.18,4.18,0,0,1,1.54.84A1.48,1.48,0,0,1,266,211.08Z"/><path class="cls-5" d="M269.65,212.15a2.74,2.74,0,0,0,.5,0,3.43,3.43,0,0,0,.38-.08v.75a1.66,1.66,0,0,1-.46.12,4,4,0,0,1-.56,0c-1.24,0-1.86-.65-1.86-2v-3.82h-.92v-.47l.92-.41.41-1.37h.56v1.49h1.86v.76h-1.86V211a1.28,1.28,0,0,0,.28.89A1,1,0,0,0,269.65,212.15Z"/><path class="cls-5" d="M274.53,213a3,3,0,0,1-2.25-.87,3.33,3.33,0,0,1-.82-2.4,3.72,3.72,0,0,1,.76-2.47,2.55,2.55,0,0,1,2.06-.92,2.43,2.43,0,0,1,1.91.8,3.09,3.09,0,0,1,.7,2.09v.62h-4.43a2.54,2.54,0,0,0,.58,1.72,2,2,0,0,0,1.52.58,5.13,5.13,0,0,0,2.05-.43v.87a5.4,5.4,0,0,1-1,.31A5.13,5.13,0,0,1,274.53,213Zm-.27-5.84a1.61,1.61,0,0,0-1.23.5,2.28,2.28,0,0,0-.54,1.4h3.36a2.14,2.14,0,0,0-.41-1.41A1.46,1.46,0,0,0,274.26,207.11Z"/><path class="cls-5" d="M281.48,206.29a3.48,3.48,0,0,1,.76.08l-.13.9a3.27,3.27,0,0,0-.7-.09,1.73,1.73,0,0,0-1.34.63,2.31,2.31,0,0,0-.55,1.58v3.44h-1v-6.42h.8l.11,1.19h.05a2.82,2.82,0,0,1,.86-1A2,2,0,0,1,281.48,206.29Z"/><path class="cls-5" d="M289.28,213a3,3,0,0,1-2.25-.87,3.33,3.33,0,0,1-.82-2.4,3.72,3.72,0,0,1,.76-2.47,2.53,2.53,0,0,1,2-.92,2.42,2.42,0,0,1,1.91.8,3,3,0,0,1,.71,2.09v.62h-4.43a2.59,2.59,0,0,0,.57,1.72,2,2,0,0,0,1.53.58,5.13,5.13,0,0,0,2.05-.43v.87a5.4,5.4,0,0,1-1,.31A5.13,5.13,0,0,1,289.28,213Zm-.27-5.84a1.6,1.6,0,0,0-1.23.5,2.28,2.28,0,0,0-.54,1.4h3.35a2.08,2.08,0,0,0-.41-1.41A1.42,1.42,0,0,0,289,207.11Z"/><path class="cls-5" d="M295.57,213a2.37,2.37,0,0,1-1.94-.87,4.67,4.67,0,0,1,0-4.9,2.37,2.37,0,0,1,2-.89,2.33,2.33,0,0,1,2,1h.06l.14-.88h.77v9.31h-1V213a5.79,5.79,0,0,1,.07-1h-.08A2.3,2.3,0,0,1,295.57,213Zm.15-.81a1.8,1.8,0,0,0,1.42-.52,2.83,2.83,0,0,0,.47-1.76v-.22a3.26,3.26,0,0,0-.45-1.94,1.74,1.74,0,0,0-1.45-.59,1.49,1.49,0,0,0-1.31.66,3.35,3.35,0,0,0-.45,1.88,3.18,3.18,0,0,0,.44,1.85A1.53,1.53,0,0,0,295.72,212.14Z"/><path class="cls-5" d="M301.56,206.41v4.17a1.67,1.67,0,0,0,.36,1.17,1.45,1.45,0,0,0,1.12.39,1.84,1.84,0,0,0,1.47-.55,2.79,2.79,0,0,0,.47-1.8v-3.38h1v6.42h-.8L305,212H305a2,2,0,0,1-.83.73,2.79,2.79,0,0,1-1.21.25,2.42,2.42,0,0,1-1.76-.56,2.35,2.35,0,0,1-.58-1.78v-4.2Z"/><path class="cls-5" d="M312,212.83l-.19-.91h0a2.81,2.81,0,0,1-1,.82,2.92,2.92,0,0,1-1.19.21,2.13,2.13,0,0,1-1.49-.49,1.78,1.78,0,0,1-.55-1.4c0-1.3,1-2,3.11-2l1.09,0v-.39a1.61,1.61,0,0,0-.32-1.12,1.34,1.34,0,0,0-1-.36,4.22,4.22,0,0,0-1.82.49l-.3-.74a5,5,0,0,1,1-.41,4.94,4.94,0,0,1,1.14-.14,2.45,2.45,0,0,1,1.7.51,2.11,2.11,0,0,1,.55,1.63v4.38Zm-2.19-.68a2,2,0,0,0,1.42-.5,1.83,1.83,0,0,0,.52-1.39v-.58l-1,0a3.33,3.33,0,0,0-1.67.36,1.07,1.07,0,0,0-.52,1,1,1,0,0,0,.32.8A1.29,1.29,0,0,0,309.77,212.15Z"/><path class="cls-5" d="M315.66,212.83h-1v-9.11h1Z"/><path class="cls-5" d="M321.87,211.08a1.61,1.61,0,0,1-.67,1.38,3.11,3.11,0,0,1-1.88.49,4.08,4.08,0,0,1-2-.4v-.91a4.69,4.69,0,0,0,1,.37,4.24,4.24,0,0,0,1,.14,2.37,2.37,0,0,0,1.17-.24.82.82,0,0,0,.41-.75.8.8,0,0,0-.33-.64,4.84,4.84,0,0,0-1.27-.63,6.59,6.59,0,0,1-1.27-.58,1.69,1.69,0,0,1-.56-.57,1.39,1.39,0,0,1-.19-.75,1.45,1.45,0,0,1,.64-1.24,3,3,0,0,1,1.75-.46,5.18,5.18,0,0,1,2,.43l-.35.79a4.52,4.52,0,0,0-1.75-.4,1.94,1.94,0,0,0-1,.22.67.67,0,0,0-.35.59.7.7,0,0,0,.13.44,1.39,1.39,0,0,0,.42.35,9.27,9.27,0,0,0,1.13.47,4.18,4.18,0,0,1,1.54.84A1.48,1.48,0,0,1,321.87,211.08Z"/><path class="cls-5" d="M178.86,226.55a2.63,2.63,0,0,0,.49,0,3.43,3.43,0,0,0,.38-.08v.74a1.34,1.34,0,0,1-.46.13,4,4,0,0,1-.56,0c-1.24,0-1.86-.65-1.86-2v-3.82h-.92v-.47l.92-.41.41-1.37h.56v1.49h1.87v.76h-1.87v3.78a1.34,1.34,0,0,0,.28.89A1,1,0,0,0,178.86,226.55Z"/><path class="cls-5" d="M185.41,227.23v-4.15a1.67,1.67,0,0,0-.36-1.17,1.43,1.43,0,0,0-1.11-.39,1.82,1.82,0,0,0-1.48.55,2.81,2.81,0,0,0-.47,1.81v3.35h-1v-9.11h1v2.76a6.09,6.09,0,0,1-.05.82H182a2,2,0,0,1,.82-.73,2.63,2.63,0,0,1,1.21-.26,2.48,2.48,0,0,1,1.77.56,2.34,2.34,0,0,1,.58,1.77v4.19Z"/><path class="cls-5" d="M191.1,227.35a3,3,0,0,1-2.25-.87,3.33,3.33,0,0,1-.82-2.4,3.72,3.72,0,0,1,.76-2.47,2.53,2.53,0,0,1,2.05-.92,2.4,2.4,0,0,1,1.91.8,3,3,0,0,1,.71,2.09v.62H189a2.59,2.59,0,0,0,.57,1.72,2,2,0,0,0,1.53.58,5.13,5.13,0,0,0,2.05-.43v.86a4.77,4.77,0,0,1-1,.32A5.13,5.13,0,0,1,191.1,227.35Zm-.27-5.84a1.61,1.61,0,0,0-1.23.5,2.28,2.28,0,0,0-.54,1.4h3.35A2.08,2.08,0,0,0,192,222,1.42,1.42,0,0,0,190.83,221.51Z"/><path class="cls-5" d="M199.64,227.23l-2.44-6.42h1l1.39,3.81c.31.89.49,1.47.55,1.73h0c.05-.2.18-.63.41-1.28s.74-2.07,1.54-4.26h1l-2.43,6.42Z"/><path class="cls-5" d="M208.19,227.23l-.19-.91H208a2.88,2.88,0,0,1-.95.82,3,3,0,0,1-1.2.21,2.13,2.13,0,0,1-1.49-.49,1.78,1.78,0,0,1-.55-1.4q0-2,3.12-2l1.08,0V223a1.61,1.61,0,0,0-.32-1.12,1.34,1.34,0,0,0-1-.36,4.22,4.22,0,0,0-1.82.49l-.3-.74a4.51,4.51,0,0,1,1-.41,4.45,4.45,0,0,1,1.14-.14,2.45,2.45,0,0,1,1.7.51,2.11,2.11,0,0,1,.55,1.63v4.38Zm-2.19-.68a2,2,0,0,0,1.42-.5,1.83,1.83,0,0,0,.52-1.39v-.58l-1,0a3.36,3.36,0,0,0-1.67.36,1.07,1.07,0,0,0-.52,1,1,1,0,0,0,.32.8A1.31,1.31,0,0,0,206,226.55Z"/><path class="cls-5" d="M211.89,227.23h-1v-9.11h1Z"/><path class="cls-5" d="M214.87,220.81V225a1.72,1.72,0,0,0,.35,1.17,1.47,1.47,0,0,0,1.12.39,1.85,1.85,0,0,0,1.48-.55,2.8,2.8,0,0,0,.46-1.8v-3.38h1v6.42h-.81l-.14-.86h-.05a2,2,0,0,1-.83.73,2.76,2.76,0,0,1-1.21.25,2.39,2.39,0,0,1-1.75-.56,2.36,2.36,0,0,1-.59-1.78v-4.2Z"/><path class="cls-5" d="M224,227.35a3,3,0,0,1-2.25-.87,3.37,3.37,0,0,1-.82-2.4,3.73,3.73,0,0,1,.77-2.47,2.53,2.53,0,0,1,2.05-.92,2.43,2.43,0,0,1,1.91.8,3,3,0,0,1,.7,2.09v.62H222a2.59,2.59,0,0,0,.57,1.72,2,2,0,0,0,1.53.58,5.17,5.17,0,0,0,2.05-.43v.86a4.85,4.85,0,0,1-1,.32A5.13,5.13,0,0,1,224,227.35Zm-.26-5.84a1.62,1.62,0,0,0-1.24.5,2.41,2.41,0,0,0-.54,1.4h3.36a2.14,2.14,0,0,0-.41-1.41A1.42,1.42,0,0,0,223.77,221.51Z"/><text class="cls-1" transform="translate(201.61 23.11)">Knot Types</text><line class="cls-2" x1="299.57" y1="45.74" x2="299.57" y2="154.3"/><path class="cls-5" d="M396.39,171.06v-8.57h1v7.66h3.78v.91Z"/><path class="cls-5" d="M408,167.84a3.52,3.52,0,0,1-.79,2.45,2.79,2.79,0,0,1-2.19.88,2.91,2.91,0,0,1-1.53-.4,2.71,2.71,0,0,1-1-1.16,4.11,4.11,0,0,1-.36-1.77,3.57,3.57,0,0,1,.78-2.45,2.8,2.8,0,0,1,2.18-.87,2.75,2.75,0,0,1,2.15.89A3.59,3.59,0,0,1,408,167.84Zm-4.89,0a3,3,0,0,0,.49,1.87,1.71,1.71,0,0,0,1.45.65,1.75,1.75,0,0,0,1.45-.64,3.05,3.05,0,0,0,.49-1.88,3,3,0,0,0-.49-1.86,2,2,0,0,0-2.91,0A3.05,3.05,0,0,0,403.13,167.84Z"/><path class="cls-5" d="M414.12,171.06V166.9a1.67,1.67,0,0,0-.36-1.17,1.45,1.45,0,0,0-1.12-.39,1.81,1.81,0,0,0-1.47.55,2.7,2.7,0,0,0-.47,1.8v3.37h-1v-6.43h.8l.15.88h.05a2,2,0,0,1,.84-.73,2.64,2.64,0,0,1,1.2-.26,2.42,2.42,0,0,1,1.75.56,2.38,2.38,0,0,1,.58,1.79v4.19Z"/><path class="cls-5" d="M422.35,164.63v.62l-1.19.14a2.26,2.26,0,0,1,.29.54,2,2,0,0,1,.13.74,1.92,1.92,0,0,1-.65,1.51,2.63,2.63,0,0,1-1.77.56,2.36,2.36,0,0,1-.54-.05,1,1,0,0,0-.62.83.42.42,0,0,0,.22.39,1.63,1.63,0,0,0,.74.13h1.14a2.48,2.48,0,0,1,1.6.44,1.49,1.49,0,0,1,.56,1.27,1.82,1.82,0,0,1-.85,1.63,4.61,4.61,0,0,1-2.5.56,3.41,3.41,0,0,1-1.94-.47,1.61,1.61,0,0,1-.31-2.34,1.92,1.92,0,0,1,1.06-.58,1.06,1.06,0,0,1-.42-.34.94.94,0,0,1-.16-.55,1,1,0,0,1,.18-.61,2,2,0,0,1,.6-.51,1.74,1.74,0,0,1-.82-.7,2.13,2.13,0,0,1-.31-1.13,2.07,2.07,0,0,1,.63-1.62,2.61,2.61,0,0,1,1.8-.57,3.52,3.52,0,0,1,.9.11Zm-5.13,7.5a.86.86,0,0,0,.44.79,2.46,2.46,0,0,0,1.26.27,3.6,3.6,0,0,0,1.82-.36,1.14,1.14,0,0,0,.59-1,.79.79,0,0,0-.33-.72,2.55,2.55,0,0,0-1.21-.2h-1.17a1.5,1.5,0,0,0-1,.32A1.14,1.14,0,0,0,417.22,172.13Zm.53-5.44a1.32,1.32,0,0,0,.38,1,1.54,1.54,0,0,0,1.06.35,1.25,1.25,0,0,0,1.43-1.39,1.27,1.27,0,0,0-1.44-1.44,1.46,1.46,0,0,0-1.06.36A1.54,1.54,0,0,0,417.75,166.69Z"/><path class="cls-5" d="M433.12,171.06h-1.18l-3.12-4.16-.9.8v3.36h-1v-8.57h1v4.25l3.89-4.25H433l-3.45,3.72Z"/><path class="cls-5" d="M438.54,171.06V166.9a1.67,1.67,0,0,0-.36-1.17,1.44,1.44,0,0,0-1.12-.39,1.81,1.81,0,0,0-1.47.55,2.76,2.76,0,0,0-.47,1.8v3.37h-1v-6.43h.79l.16.88h0a2,2,0,0,1,.84-.73,2.64,2.64,0,0,1,1.2-.26,2.41,2.41,0,0,1,1.75.56,2.38,2.38,0,0,1,.58,1.79v4.19Z"/><path class="cls-5" d="M447.05,167.84a3.52,3.52,0,0,1-.79,2.45,2.75,2.75,0,0,1-2.18.88,2.86,2.86,0,0,1-1.53-.4,2.65,2.65,0,0,1-1-1.16,4.11,4.11,0,0,1-.37-1.77,3.57,3.57,0,0,1,.79-2.45,2.78,2.78,0,0,1,2.18-.87,2.73,2.73,0,0,1,2.14.89A3.54,3.54,0,0,1,447.05,167.84Zm-4.89,0a3.09,3.09,0,0,0,.49,1.87,1.71,1.71,0,0,0,1.45.65,1.74,1.74,0,0,0,1.45-.64,3.05,3.05,0,0,0,.5-1.88,3,3,0,0,0-.5-1.86,1.73,1.73,0,0,0-1.46-.64,1.7,1.7,0,0,0-1.44.63A3,3,0,0,0,442.16,167.84Z"/><path class="cls-5" d="M450.83,170.37a2.67,2.67,0,0,0,.5,0,2,2,0,0,0,.38-.08V171a1.66,1.66,0,0,1-.46.12,2.9,2.9,0,0,1-.56,0c-1.24,0-1.86-.65-1.86-2v-3.82h-.92v-.47l.92-.4.41-1.37h.56v1.48h1.87v.76H449.8v3.78a1.27,1.27,0,0,0,.28.89A.93.93,0,0,0,450.83,170.37Z"/><path class="cls-5" d="M455.56,167.77a8.88,8.88,0,0,1,.46-2.91,7.19,7.19,0,0,1,1.31-2.37h.95A8,8,0,0,0,457,165a9.08,9.08,0,0,0-.43,2.79,8.83,8.83,0,0,0,.44,2.74,8.2,8.2,0,0,0,1.24,2.45h-.93a6.81,6.81,0,0,1-1.32-2.32A8.88,8.88,0,0,1,455.56,167.77Z"/><path class="cls-5" d="M459.81,171.06v-8.57h1v7.66h3.78v.91Z"/><path class="cls-5" d="M467.93,167.77a8.9,8.9,0,0,1-.45,2.87,6.88,6.88,0,0,1-1.31,2.31h-.94a8.53,8.53,0,0,0,1.25-2.44,8.92,8.92,0,0,0,.43-2.75,9.39,9.39,0,0,0-.42-2.79,8.44,8.44,0,0,0-1.27-2.48h.95a7.24,7.24,0,0,1,1.31,2.38A9.17,9.17,0,0,1,467.93,167.77Z"/><path class="cls-5" d="M469.3,165.26c0-.53.23-.79.69-.79s.72.26.72.79a.84.84,0,0,1-.19.59.71.71,0,0,1-.53.2.69.69,0,0,1-.49-.18A.83.83,0,0,1,469.3,165.26Zm0,5.17a.85.85,0,0,1,.18-.59.66.66,0,0,1,.51-.2.69.69,0,0,1,.53.2.81.81,0,0,1,.19.59.82.82,0,0,1-.19.59.68.68,0,0,1-.53.21.7.7,0,0,1-.49-.19A.8.8,0,0,1,469.3,170.43Z"/><path class="cls-5" d="M395.43,179.82l-.07-.12c.09-.36.23-.79.42-1.32s.4-1,.61-1.49h.73a29.41,29.41,0,0,0-.61,2.93Z"/><path class="cls-5" d="M398.43,185.46v-8.57h1v7.66h3.78v.91Z"/><path class="cls-5" d="M405.29,176.89l.09.13c-.1.39-.25.84-.44,1.36s-.39,1-.59,1.44h-.72c.27-1.11.47-2.09.6-2.93Z"/><path class="cls-5" d="M410.63,182.17c.17-.24.43-.55.77-.94l2.07-2.2h1.16l-2.6,2.74,2.78,3.69h-1.18l-2.26-3-.74.63v2.41h-1v-9.12h1v4.83c0,.22,0,.55,0,1Z"/><path class="cls-5" d="M420.37,185.46V181.3a1.67,1.67,0,0,0-.36-1.17,1.45,1.45,0,0,0-1.12-.39,1.83,1.83,0,0,0-1.48.55,2.76,2.76,0,0,0-.47,1.8v3.37h-1V179h.79l.16.88H417a2,2,0,0,1,.83-.73,2.65,2.65,0,0,1,1.21-.26,2,2,0,0,1,2.33,2.35v4.19Z"/><path class="cls-5" d="M428.88,182.24a3.52,3.52,0,0,1-.79,2.45,2.79,2.79,0,0,1-2.19.88,2.91,2.91,0,0,1-1.53-.4,2.71,2.71,0,0,1-1-1.16,4.11,4.11,0,0,1-.36-1.77,3.57,3.57,0,0,1,.78-2.45,2.8,2.8,0,0,1,2.18-.87,2.69,2.69,0,0,1,2.14.89A3.54,3.54,0,0,1,428.88,182.24Zm-4.89,0a3,3,0,0,0,.49,1.87,1.71,1.71,0,0,0,1.45.65,1.75,1.75,0,0,0,1.45-.64,3.05,3.05,0,0,0,.49-1.88,3,3,0,0,0-.49-1.86,2,2,0,0,0-2.91,0A3.05,3.05,0,0,0,424,182.24Z"/><path class="cls-5" d="M432.66,184.77a2.74,2.74,0,0,0,.5,0,2.25,2.25,0,0,0,.38-.08v.75a1.75,1.75,0,0,1-.47.12,2.8,2.8,0,0,1-.55,0c-1.24,0-1.87-.65-1.87-2v-3.82h-.92v-.47l.92-.4.41-1.38h.57V179h1.86v.76h-1.86v3.78a1.32,1.32,0,0,0,.27.89A1,1,0,0,0,432.66,184.77Z"/><path class="cls-5" d="M439,183.7a1.62,1.62,0,0,1-.67,1.39,3.15,3.15,0,0,1-1.87.48,4.05,4.05,0,0,1-2-.4v-.9a5.29,5.29,0,0,0,1,.36,4.16,4.16,0,0,0,1,.14,2.39,2.39,0,0,0,1.18-.24.84.84,0,0,0,.08-1.39,5.81,5.81,0,0,0-1.27-.63,6.31,6.31,0,0,1-1.27-.58,1.91,1.91,0,0,1-.57-.56,1.55,1.55,0,0,1-.18-.76,1.43,1.43,0,0,1,.64-1.24,3,3,0,0,1,1.75-.45,5.16,5.16,0,0,1,2,.42l-.35.79a4.56,4.56,0,0,0-1.75-.4,1.94,1.94,0,0,0-1,.22.65.65,0,0,0-.35.59.7.7,0,0,0,.13.44,1.26,1.26,0,0,0,.42.35,8.61,8.61,0,0,0,1.13.47,4.27,4.27,0,0,1,1.54.84A1.47,1.47,0,0,1,439,183.7Z"/><path class="cls-5" d="M447.61,185.46l-.19-.92h-.05a2.7,2.7,0,0,1-1,.82,3,3,0,0,1-1.19.21,2.14,2.14,0,0,1-1.5-.49,1.79,1.79,0,0,1-.54-1.4c0-1.3,1-2,3.11-2l1.09,0v-.4a1.66,1.66,0,0,0-.32-1.12,1.35,1.35,0,0,0-1-.36,4.22,4.22,0,0,0-1.82.49l-.3-.74a5,5,0,0,1,1-.41,4.94,4.94,0,0,1,1.14-.14,2.45,2.45,0,0,1,1.7.51,2.11,2.11,0,0,1,.55,1.63v4.39Zm-2.2-.69a2,2,0,0,0,1.43-.5,1.83,1.83,0,0,0,.52-1.39v-.58l-1,0a3.65,3.65,0,0,0-1.68.36,1.08,1.08,0,0,0-.51,1,1,1,0,0,0,.32.8A1.28,1.28,0,0,0,445.41,184.77Z"/><path class="cls-5" d="M453.32,185.57a2.67,2.67,0,0,1-1.14-.23,2.06,2.06,0,0,1-.87-.71h-.07a8,8,0,0,1,.07,1.07v2.64h-1V179h.79l.13.88h.05a2.31,2.31,0,0,1,.87-.76,2.58,2.58,0,0,1,1.14-.23,2.39,2.39,0,0,1,2,.87,4.66,4.66,0,0,1,0,4.91A2.38,2.38,0,0,1,453.32,185.57Zm-.14-5.83a1.7,1.7,0,0,0-1.42.55,2.82,2.82,0,0,0-.45,1.73v.22a3.18,3.18,0,0,0,.45,1.93,1.71,1.71,0,0,0,1.45.59,1.5,1.5,0,0,0,1.3-.68,3.13,3.13,0,0,0,.47-1.85,3.07,3.07,0,0,0-.47-1.85A1.57,1.57,0,0,0,453.18,179.74Z"/><path class="cls-5" d="M460.68,185.57a2.72,2.72,0,0,1-1.15-.23,2.19,2.19,0,0,1-.87-.71h-.07a8,8,0,0,1,.07,1.07v2.64h-1V179h.79l.14.88h0a2.26,2.26,0,0,1,.88-.76,2.58,2.58,0,0,1,1.14-.23,2.37,2.37,0,0,1,2,.87,4.68,4.68,0,0,1,0,4.91A2.39,2.39,0,0,1,460.68,185.57Zm-.14-5.83a1.72,1.72,0,0,0-1.43.55,2.82,2.82,0,0,0-.45,1.73v.22a3.18,3.18,0,0,0,.45,1.93,1.73,1.73,0,0,0,1.45.59,1.49,1.49,0,0,0,1.3-.68,3.13,3.13,0,0,0,.48-1.85,3.07,3.07,0,0,0-.48-1.85A1.55,1.55,0,0,0,460.54,179.74Z"/><path class="cls-5" d="M467.76,185.57a3,3,0,0,1-2.25-.86,3.37,3.37,0,0,1-.82-2.41,3.72,3.72,0,0,1,.76-2.47,2.53,2.53,0,0,1,2.05-.91,2.4,2.4,0,0,1,1.91.79,3,3,0,0,1,.71,2.09v.62h-4.43a2.57,2.57,0,0,0,.57,1.72,2,2,0,0,0,1.53.58,5.13,5.13,0,0,0,2-.43v.87a6.44,6.44,0,0,1-1,.32A5.93,5.93,0,0,1,467.76,185.57Zm-.27-5.84a1.61,1.61,0,0,0-1.23.5,2.31,2.31,0,0,0-.54,1.4h3.35a2.12,2.12,0,0,0-.41-1.41A1.42,1.42,0,0,0,467.49,179.73Z"/><path class="cls-5" d="M475.72,185.46l-.19-.92h0a2.76,2.76,0,0,1-1,.82,3,3,0,0,1-1.2.21,2.13,2.13,0,0,1-1.49-.49,1.8,1.8,0,0,1-.55-1.4q0-2,3.12-2l1.09,0v-.4a1.61,1.61,0,0,0-.33-1.12,1.34,1.34,0,0,0-1-.36,4.25,4.25,0,0,0-1.82.49l-.29-.74a4.6,4.6,0,0,1,1-.41,4.79,4.79,0,0,1,1.13-.14,2.43,2.43,0,0,1,1.7.51,2.11,2.11,0,0,1,.56,1.63v4.39Zm-2.19-.69a2,2,0,0,0,1.42-.5,1.83,1.83,0,0,0,.52-1.39v-.58l-1,0a3.6,3.6,0,0,0-1.67.36,1.09,1.09,0,0,0-.52,1,1,1,0,0,0,.32.8A1.31,1.31,0,0,0,473.53,184.77Z"/><path class="cls-5" d="M481.38,178.92a3.67,3.67,0,0,1,.77.07l-.14.9a3.2,3.2,0,0,0-.7-.09,1.69,1.69,0,0,0-1.33.63,2.33,2.33,0,0,0-.56,1.58v3.45h-1V179h.8l.11,1.19h.05a2.79,2.79,0,0,1,.86-1A1.94,1.94,0,0,1,481.38,178.92Z"/><path class="cls-5" d="M490.41,185.46l-.19-.92h-.05a2.76,2.76,0,0,1-.95.82,3,3,0,0,1-1.2.21,2.13,2.13,0,0,1-1.49-.49,1.8,1.8,0,0,1-.55-1.4q0-2,3.12-2l1.09,0v-.4a1.61,1.61,0,0,0-.33-1.12,1.34,1.34,0,0,0-1-.36,4.25,4.25,0,0,0-1.82.49l-.29-.74a4.6,4.6,0,0,1,1-.41,4.79,4.79,0,0,1,1.13-.14,2.45,2.45,0,0,1,1.7.51,2.11,2.11,0,0,1,.55,1.63v4.39Zm-2.19-.69a2,2,0,0,0,1.42-.5,1.83,1.83,0,0,0,.52-1.39v-.58l-1,0a3.6,3.6,0,0,0-1.67.36,1.07,1.07,0,0,0-.52,1,1,1,0,0,0,.32.8A1.31,1.31,0,0,0,488.22,184.77Z"/><path class="cls-5" d="M494.11,185.46h-1v-9.12h1Z"/><path class="cls-5" d="M501.72,182.24a3.57,3.57,0,0,1-.79,2.45,2.79,2.79,0,0,1-2.19.88,2.91,2.91,0,0,1-1.53-.4,2.71,2.71,0,0,1-1-1.16,4.11,4.11,0,0,1-.36-1.77,3.57,3.57,0,0,1,.78-2.45,2.78,2.78,0,0,1,2.18-.87,2.7,2.7,0,0,1,2.14.89A3.54,3.54,0,0,1,501.72,182.24Zm-4.9,0a3,3,0,0,0,.5,1.87,1.7,1.7,0,0,0,1.44.65,1.74,1.74,0,0,0,1.45-.64,3.05,3.05,0,0,0,.5-1.88,3,3,0,0,0-.5-1.86,2,2,0,0,0-2.9,0A3,3,0,0,0,496.82,182.24Z"/><path class="cls-5" d="M507.82,185.46V181.3a1.67,1.67,0,0,0-.36-1.17,1.45,1.45,0,0,0-1.12-.39,1.85,1.85,0,0,0-1.48.55,2.76,2.76,0,0,0-.47,1.8v3.37h-1V179h.79l.16.88h.05a2,2,0,0,1,.84-.73,2.64,2.64,0,0,1,1.2-.26,2,2,0,0,1,2.33,2.35v4.19Z"/><path class="cls-5" d="M513.5,185.57a3,3,0,0,1-2.25-.86,3.37,3.37,0,0,1-.82-2.41,3.72,3.72,0,0,1,.76-2.47,2.55,2.55,0,0,1,2.06-.91,2.42,2.42,0,0,1,1.91.79,3,3,0,0,1,.7,2.09v.62h-4.42a2.57,2.57,0,0,0,.57,1.72,2,2,0,0,0,1.53.58,5.17,5.17,0,0,0,2.05-.43v.87a6.54,6.54,0,0,1-1,.32A5.93,5.93,0,0,1,513.5,185.57Zm-.26-5.84a1.62,1.62,0,0,0-1.24.5,2.44,2.44,0,0,0-.54,1.4h3.36a2.17,2.17,0,0,0-.41-1.41A1.45,1.45,0,0,0,513.24,179.73Z"/><path class="cls-5" d="M518.54,184.06l.09.14c-.1.39-.25.84-.44,1.36s-.39,1-.6,1.44h-.73c.1-.4.22-.91.35-1.5s.21-1.08.26-1.44Zm-1.19-4.4c0-.53.23-.79.7-.79s.72.26.72.79a.84.84,0,0,1-.2.59.69.69,0,0,1-.52.2.67.67,0,0,1-.52-.2A.89.89,0,0,1,517.35,179.66Z"/><path class="cls-5" d="M398.32,199.17a2.74,2.74,0,0,0,.5,0,2,2,0,0,0,.38-.08v.75a1.66,1.66,0,0,1-.46.12,2.9,2.9,0,0,1-.56.05c-1.24,0-1.86-.65-1.86-2v-3.82h-.92v-.47l.92-.4.41-1.37h.56v1.48h1.86v.76h-1.86V198a1.27,1.27,0,0,0,.28.89A.93.93,0,0,0,398.32,199.17Z"/><path class="cls-5" d="M404.88,199.86V195.7a1.67,1.67,0,0,0-.36-1.17,1.45,1.45,0,0,0-1.12-.39,1.87,1.87,0,0,0-1.48.55,2.81,2.81,0,0,0-.46,1.81v3.36h-1v-9.12h1v2.76a6,6,0,0,1,0,.82h.06a2,2,0,0,1,.82-.73,2.73,2.73,0,0,1,1.21-.26,2.43,2.43,0,0,1,1.76.56,2.32,2.32,0,0,1,.59,1.78v4.19Z"/><path class="cls-5" d="M410.56,200a3,3,0,0,1-2.24-.86,3.37,3.37,0,0,1-.83-2.41,3.73,3.73,0,0,1,.77-2.47,2.53,2.53,0,0,1,2.05-.91,2.41,2.41,0,0,1,1.91.79,3,3,0,0,1,.7,2.1v.61H408.5a2.57,2.57,0,0,0,.57,1.72,2,2,0,0,0,1.53.58,5.17,5.17,0,0,0,2-.43v.87a5.57,5.57,0,0,1-1,.32A5.78,5.78,0,0,1,410.56,200Zm-.26-5.84a1.58,1.58,0,0,0-1.23.5,2.38,2.38,0,0,0-.55,1.4h3.36a2.17,2.17,0,0,0-.41-1.41A1.42,1.42,0,0,0,410.3,194.13Z"/><path class="cls-5" d="M422.09,199.86V195.7a1.72,1.72,0,0,0-.35-1.17,1.47,1.47,0,0,0-1.12-.39,1.83,1.83,0,0,0-1.48.55,2.76,2.76,0,0,0-.47,1.8v3.37h-1v-6.43h.79l.16.88h.05a1.91,1.91,0,0,1,.83-.73,2.64,2.64,0,0,1,1.2-.26,2.41,2.41,0,0,1,1.75.56,2.38,2.38,0,0,1,.59,1.79v4.19Z"/><path class="cls-5" d="M426,193.43v4.17a1.67,1.67,0,0,0,.36,1.17,1.44,1.44,0,0,0,1.12.39,1.84,1.84,0,0,0,1.47-.55,2.8,2.8,0,0,0,.46-1.8v-3.38h1v6.43h-.81l-.14-.87h-.05a1.91,1.91,0,0,1-.83.73,2.73,2.73,0,0,1-1.21.25,2.45,2.45,0,0,1-1.75-.55,2.4,2.4,0,0,1-.59-1.79v-4.2Z"/><path class="cls-5" d="M440.62,199.86v-4.18a1.72,1.72,0,0,0-.33-1.15,1.26,1.26,0,0,0-1-.39,1.65,1.65,0,0,0-1.34.52,2.5,2.5,0,0,0-.44,1.61v3.59h-1v-4.18a1.72,1.72,0,0,0-.33-1.15,1.26,1.26,0,0,0-1-.39,1.6,1.6,0,0,0-1.34.55,2.92,2.92,0,0,0-.43,1.8v3.37h-1v-6.43h.79l.16.88h.05a1.94,1.94,0,0,1,.77-.73,2.34,2.34,0,0,1,1.12-.26,1.9,1.9,0,0,1,2,1.09h0a2,2,0,0,1,.83-.8,2.55,2.55,0,0,1,1.24-.29,2.18,2.18,0,0,1,1.64.56,2.5,2.5,0,0,1,.54,1.79v4.19Z"/><path class="cls-5" d="M446.58,193.33a2.42,2.42,0,0,1,2,.86,4.63,4.63,0,0,1,0,4.91,2.38,2.38,0,0,1-2,.87,2.72,2.72,0,0,1-1.15-.23,2.19,2.19,0,0,1-.87-.71h-.07l-.2.83h-.7v-9.12h1V193c0,.5,0,.94,0,1.34h0A2.33,2.33,0,0,1,446.58,193.33Zm-.14.81a1.72,1.72,0,0,0-1.44.57,3.27,3.27,0,0,0-.44,1.93,3.16,3.16,0,0,0,.46,1.94,1.73,1.73,0,0,0,1.44.58,1.5,1.5,0,0,0,1.34-.66,3.36,3.36,0,0,0,.44-1.87,3.24,3.24,0,0,0-.44-1.87A1.56,1.56,0,0,0,446.44,194.14Z"/><path class="cls-5" d="M453.66,200a3,3,0,0,1-2.25-.86,3.37,3.37,0,0,1-.82-2.41,3.72,3.72,0,0,1,.76-2.47,2.55,2.55,0,0,1,2.06-.91,2.42,2.42,0,0,1,1.91.79,3,3,0,0,1,.7,2.1v.61H451.6a2.57,2.57,0,0,0,.57,1.72,2,2,0,0,0,1.52.58,5.13,5.13,0,0,0,2.05-.43v.87a5.23,5.23,0,0,1-1,.32A5.93,5.93,0,0,1,453.66,200Zm-.27-5.84a1.61,1.61,0,0,0-1.23.5,2.31,2.31,0,0,0-.54,1.4H455a2.17,2.17,0,0,0-.41-1.41A1.46,1.46,0,0,0,453.39,194.13Z"/><path class="cls-5" d="M460.61,193.32a3.67,3.67,0,0,1,.77.07l-.14.9a3.27,3.27,0,0,0-.7-.09,1.73,1.73,0,0,0-1.34.63,2.32,2.32,0,0,0-.55,1.58v3.45h-1v-6.43h.8l.11,1.19h.05a2.78,2.78,0,0,1,.86-1A1.94,1.94,0,0,1,460.61,193.32Z"/><path class="cls-5" d="M471.24,196.64a3.57,3.57,0,0,1-.79,2.45,2.79,2.79,0,0,1-2.19.88,2.91,2.91,0,0,1-1.53-.4,2.71,2.71,0,0,1-1-1.16,4.11,4.11,0,0,1-.36-1.77,3.57,3.57,0,0,1,.78-2.45,2.78,2.78,0,0,1,2.18-.87,2.73,2.73,0,0,1,2.14.89A3.54,3.54,0,0,1,471.24,196.64Zm-4.9,0a3,3,0,0,0,.5,1.87,1.7,1.7,0,0,0,1.44.65,1.74,1.74,0,0,0,1.45-.64,3.05,3.05,0,0,0,.5-1.88,3,3,0,0,0-.5-1.86,1.72,1.72,0,0,0-1.46-.64,1.7,1.7,0,0,0-1.44.63A3,3,0,0,0,466.34,196.64Z"/><path class="cls-5" d="M475.84,194.19H474.2v5.67h-1v-5.67h-1.15v-.44l1.15-.35V193q0-2.37,2.07-2.37a4.09,4.09,0,0,1,1.19.21l-.25.78a3.24,3.24,0,0,0-1-.18,1,1,0,0,0-.82.36,2.13,2.13,0,0,0-.26,1.18v.41h1.64Z"/><path class="cls-5" d="M482.2,199.17a2.74,2.74,0,0,0,.5,0,2.25,2.25,0,0,0,.38-.08v.75a1.75,1.75,0,0,1-.47.12,2.8,2.8,0,0,1-.55.05c-1.24,0-1.86-.65-1.86-2v-3.82h-.92v-.47l.92-.4.41-1.37h.56v1.48H483v.76h-1.86V198a1.32,1.32,0,0,0,.27.89A1,1,0,0,0,482.2,199.17Z"/><path class="cls-5" d="M485.28,193.43v4.17a1.67,1.67,0,0,0,.35,1.17,1.45,1.45,0,0,0,1.12.39,1.87,1.87,0,0,0,1.48-.55,2.8,2.8,0,0,0,.46-1.8v-3.38h1v6.43h-.8l-.14-.87h-.05a2,2,0,0,1-.83.73,2.76,2.76,0,0,1-1.21.25,2.48,2.48,0,0,1-1.76-.55,2.44,2.44,0,0,1-.58-1.79v-4.2Z"/><path class="cls-5" d="M494.66,193.32a3.51,3.51,0,0,1,.76.07l-.13.9a3.27,3.27,0,0,0-.7-.09,1.73,1.73,0,0,0-1.34.63,2.32,2.32,0,0,0-.55,1.58v3.45h-1v-6.43h.8l.11,1.19h.05a2.78,2.78,0,0,1,.86-1A1.89,1.89,0,0,1,494.66,193.32Z"/><path class="cls-5" d="M501,199.86V195.7a1.67,1.67,0,0,0-.36-1.17,1.45,1.45,0,0,0-1.12-.39,1.81,1.81,0,0,0-1.47.55,2.7,2.7,0,0,0-.47,1.8v3.37h-1v-6.43h.8l.15.88h.05a2,2,0,0,1,.84-.73,2.64,2.64,0,0,1,1.2-.26,2.42,2.42,0,0,1,1.75.56,2.38,2.38,0,0,1,.58,1.79v4.19Z"/><path class="cls-5" d="M508.13,198.1a1.62,1.62,0,0,1-.67,1.39,3.15,3.15,0,0,1-1.87.48,4.05,4.05,0,0,1-2-.4v-.9a5.32,5.32,0,0,0,1,.37,4.67,4.67,0,0,0,1,.13,2.39,2.39,0,0,0,1.18-.24.84.84,0,0,0,.08-1.39,5.81,5.81,0,0,0-1.27-.63,6.31,6.31,0,0,1-1.27-.58,1.8,1.8,0,0,1-.57-.56,1.55,1.55,0,0,1-.18-.76,1.43,1.43,0,0,1,.64-1.24,3,3,0,0,1,1.75-.45,5.16,5.16,0,0,1,2,.42l-.35.79a4.56,4.56,0,0,0-1.75-.4,1.94,1.94,0,0,0-1,.22.65.65,0,0,0-.35.6.69.69,0,0,0,.13.43,1.26,1.26,0,0,0,.42.35,9.8,9.8,0,0,0,1.13.48,4.14,4.14,0,0,1,1.54.83A1.47,1.47,0,0,1,508.13,198.1Z"/><path class="cls-5" d="M512.75,191.69a.66.66,0,0,1,.16-.49.59.59,0,0,1,.41-.15.56.56,0,0,1,.41.16.62.62,0,0,1,.17.48.65.65,0,0,1-.17.49.61.61,0,0,1-.82,0A.64.64,0,0,1,512.75,191.69Zm1,8.17h-1v-6.43h1Z"/><path class="cls-5" d="M520.26,199.86V195.7a1.67,1.67,0,0,0-.36-1.17,1.43,1.43,0,0,0-1.11-.39,1.82,1.82,0,0,0-1.48.55,2.76,2.76,0,0,0-.47,1.8v3.37h-1v-6.43h.79l.16.88h0a2,2,0,0,1,.84-.73,2.64,2.64,0,0,1,1.2-.26,2.41,2.41,0,0,1,1.75.56,2.38,2.38,0,0,1,.58,1.79v4.19Z"/><path class="cls-5" d="M398.32,213.57a2.74,2.74,0,0,0,.5,0,2,2,0,0,0,.38-.08v.75a1.66,1.66,0,0,1-.46.12,2.9,2.9,0,0,1-.56.05c-1.24,0-1.86-.65-1.86-2v-3.82h-.92v-.47l.92-.4.41-1.37h.56v1.48h1.86v.76h-1.86v3.78a1.27,1.27,0,0,0,.28.89A.93.93,0,0,0,398.32,213.57Z"/><path class="cls-5" d="M404.88,214.26V210.1a1.67,1.67,0,0,0-.36-1.17,1.45,1.45,0,0,0-1.12-.39,1.87,1.87,0,0,0-1.48.55,2.81,2.81,0,0,0-.46,1.81v3.36h-1v-9.12h1v2.76a6,6,0,0,1,0,.82h.06a1.93,1.93,0,0,1,.82-.72,2.6,2.6,0,0,1,1.21-.27,2.48,2.48,0,0,1,1.76.56,2.32,2.32,0,0,1,.59,1.78v4.19Z"/><path class="cls-5" d="M410.56,214.37a3,3,0,0,1-2.24-.86,3.37,3.37,0,0,1-.83-2.41,3.73,3.73,0,0,1,.77-2.47,2.53,2.53,0,0,1,2.05-.91,2.41,2.41,0,0,1,1.91.79,3,3,0,0,1,.7,2.1v.61H408.5a2.57,2.57,0,0,0,.57,1.72,2,2,0,0,0,1.53.58,5.17,5.17,0,0,0,2-.43V214a5.57,5.57,0,0,1-1,.32A5.78,5.78,0,0,1,410.56,214.37Zm-.26-5.84a1.56,1.56,0,0,0-1.23.51,2.32,2.32,0,0,0-.55,1.39h3.36a2.17,2.17,0,0,0-.41-1.41A1.42,1.42,0,0,0,410.3,208.53Z"/><path class="cls-5" d="M418.66,211a10.92,10.92,0,0,1,.77-.94l2.07-2.2h1.16l-2.61,2.74,2.79,3.69h-1.18l-2.27-3-.73.63v2.41h-1v-9.12h1V210c0,.22,0,.55-.05,1Z"/><path class="cls-5" d="M428.39,214.26V210.1a1.72,1.72,0,0,0-.35-1.17,1.47,1.47,0,0,0-1.12-.39,1.82,1.82,0,0,0-1.48.55,2.76,2.76,0,0,0-.47,1.8v3.37h-1v-6.43h.79l.16.88h0a2,2,0,0,1,.84-.73,2.64,2.64,0,0,1,1.2-.26,2.41,2.41,0,0,1,1.75.56,2.38,2.38,0,0,1,.59,1.79v4.19Z"/><path class="cls-5" d="M436.91,211a3.57,3.57,0,0,1-.79,2.45,2.79,2.79,0,0,1-2.19.88,2.91,2.91,0,0,1-1.53-.4,2.71,2.71,0,0,1-1-1.16A4.11,4.11,0,0,1,431,211a3.57,3.57,0,0,1,.78-2.45,2.78,2.78,0,0,1,2.18-.87,2.73,2.73,0,0,1,2.14.89A3.54,3.54,0,0,1,436.91,211Zm-4.9,0a3,3,0,0,0,.5,1.87,1.7,1.7,0,0,0,1.44.65,1.74,1.74,0,0,0,1.45-.64,3.05,3.05,0,0,0,.5-1.88,3,3,0,0,0-.5-1.86,1.72,1.72,0,0,0-1.46-.64,1.7,1.7,0,0,0-1.44.63A3,3,0,0,0,432,211Z"/><path class="cls-5" d="M440.69,213.57a2.63,2.63,0,0,0,.49,0,2,2,0,0,0,.38-.08v.75a1.66,1.66,0,0,1-.46.12,2.9,2.9,0,0,1-.56.05c-1.24,0-1.86-.65-1.86-2v-3.82h-.92v-.47l.92-.4.41-1.37h.56v1.48h1.87v.76h-1.87v3.78a1.32,1.32,0,0,0,.28.89A1,1,0,0,0,440.69,213.57Z"/><path class="cls-5" d="M448.68,214.37a3,3,0,0,1-2.25-.86,3.37,3.37,0,0,1-.82-2.41,3.72,3.72,0,0,1,.76-2.47,2.55,2.55,0,0,1,2.06-.91,2.42,2.42,0,0,1,1.91.79,3.09,3.09,0,0,1,.7,2.1v.61h-4.42a2.52,2.52,0,0,0,.57,1.72,2,2,0,0,0,1.52.58,5.13,5.13,0,0,0,2.05-.43V214a5.48,5.48,0,0,1-1,.32A5.93,5.93,0,0,1,448.68,214.37Zm-.27-5.84a1.58,1.58,0,0,0-1.23.51,2.25,2.25,0,0,0-.54,1.39H450a2.17,2.17,0,0,0-.41-1.41A1.46,1.46,0,0,0,448.41,208.53Z"/><path class="cls-5" d="M455,214.37a2.34,2.34,0,0,1-1.94-.87,3.77,3.77,0,0,1-.7-2.44,3.85,3.85,0,0,1,.7-2.46,2.6,2.6,0,0,1,4,.11h.05l.14-.88H458v9.31h-1v-2.75a7.15,7.15,0,0,1,.06-1H457A2.27,2.27,0,0,1,455,214.37Zm.14-.81a1.8,1.8,0,0,0,1.42-.52,2.83,2.83,0,0,0,.48-1.76v-.22a3.25,3.25,0,0,0-.46-1.94,1.74,1.74,0,0,0-1.45-.59,1.48,1.48,0,0,0-1.31.67,3.31,3.31,0,0,0-.45,1.87,3.18,3.18,0,0,0,.45,1.85A1.49,1.49,0,0,0,455.12,213.56Z"/><path class="cls-5" d="M461,207.83V212a1.67,1.67,0,0,0,.36,1.17,1.45,1.45,0,0,0,1.12.39,1.85,1.85,0,0,0,1.48-.55,2.8,2.8,0,0,0,.46-1.8v-3.38h1v6.43h-.8l-.14-.87h-.05a2,2,0,0,1-.83.73,2.79,2.79,0,0,1-1.21.25,2.48,2.48,0,0,1-1.76-.55A2.37,2.37,0,0,1,460,212v-4.21Z"/><path class="cls-5" d="M471.37,214.26l-.2-.92h-.05a2.68,2.68,0,0,1-.95.82,3,3,0,0,1-1.2.21,2.13,2.13,0,0,1-1.49-.49,1.79,1.79,0,0,1-.54-1.4c0-1.3,1-2,3.11-2l1.09,0V210a1.61,1.61,0,0,0-.33-1.12,1.34,1.34,0,0,0-1-.36A4.32,4.32,0,0,0,468,209l-.3-.74a4.16,4.16,0,0,1,1-.4,4.33,4.33,0,0,1,1.13-.15,2.43,2.43,0,0,1,1.7.51,2.11,2.11,0,0,1,.56,1.63v4.39Zm-2.2-.69a2,2,0,0,0,1.42-.5,1.81,1.81,0,0,0,.52-1.39v-.58l-1,0a3.6,3.6,0,0,0-1.67.36,1.08,1.08,0,0,0-.51,1,1,1,0,0,0,.31.8A1.33,1.33,0,0,0,469.17,213.57Z"/><path class="cls-5" d="M475.06,214.26h-1v-9.12h1Z"/><path class="cls-5" d="M481.27,212.5a1.64,1.64,0,0,1-.67,1.39,3.19,3.19,0,0,1-1.88.48,4.08,4.08,0,0,1-2-.4v-.9a5.16,5.16,0,0,0,1,.37,4.08,4.08,0,0,0,1,.13,2.32,2.32,0,0,0,1.17-.24.81.81,0,0,0,.41-.74.82.82,0,0,0-.33-.65,5.44,5.44,0,0,0-1.26-.63,6.46,6.46,0,0,1-1.28-.58,1.66,1.66,0,0,1-.56-.56,1.53,1.53,0,0,1-.19-.76,1.46,1.46,0,0,1,.64-1.24,3,3,0,0,1,1.76-.45,5.12,5.12,0,0,1,2,.42l-.34.79a4.6,4.6,0,0,0-1.75-.4,2,2,0,0,0-1.05.22.67.67,0,0,0-.35.6.74.74,0,0,0,.13.44,1.32,1.32,0,0,0,.43.34,9.41,9.41,0,0,0,1.12.48,4.2,4.2,0,0,1,1.55.83A1.52,1.52,0,0,1,481.27,212.5Z"/><path class="cls-5" d="M488,213.57a2.74,2.74,0,0,0,.5,0,2,2,0,0,0,.38-.08v.75a1.75,1.75,0,0,1-.47.12,2.8,2.8,0,0,1-.55.05c-1.24,0-1.86-.65-1.86-2v-3.82h-.92v-.47l.92-.4.41-1.37H487v1.48h1.86v.76H487v3.78a1.27,1.27,0,0,0,.28.89A.93.93,0,0,0,488,213.57Z"/><path class="cls-5" d="M494.6,214.26V210.1a1.67,1.67,0,0,0-.36-1.17,1.45,1.45,0,0,0-1.12-.39,1.87,1.87,0,0,0-1.48.55,2.81,2.81,0,0,0-.46,1.81v3.36h-1v-9.12h1v2.76a6,6,0,0,1-.05.82h.06A2,2,0,0,1,492,208a2.66,2.66,0,0,1,1.21-.27,2.49,2.49,0,0,1,1.77.56,2.36,2.36,0,0,1,.59,1.78v4.19Z"/><path class="cls-5" d="M500.28,214.37a3,3,0,0,1-2.25-.86,3.42,3.42,0,0,1-.82-2.41,3.73,3.73,0,0,1,.77-2.47,2.53,2.53,0,0,1,2-.91,2.42,2.42,0,0,1,1.91.79,3,3,0,0,1,.7,2.1v.61h-4.42a2.57,2.57,0,0,0,.57,1.72,2,2,0,0,0,1.53.58,5.17,5.17,0,0,0,2.05-.43V214a5.57,5.57,0,0,1-1,.32A5.93,5.93,0,0,1,500.28,214.37Zm-.26-5.84a1.59,1.59,0,0,0-1.24.51,2.38,2.38,0,0,0-.54,1.39h3.36a2.17,2.17,0,0,0-.41-1.41A1.42,1.42,0,0,0,500,208.53Z"/><path class="cls-5" d="M508.82,214.26l-2.43-6.43h1l1.38,3.81a16.82,16.82,0,0,1,.55,1.74h.05a11.9,11.9,0,0,1,.41-1.29c.23-.65.74-2.07,1.54-4.26h1L510,214.26Z"/><path class="cls-5" d="M517.38,214.26l-.19-.92h-.05a2.7,2.7,0,0,1-1,.82,3,3,0,0,1-1.19.21,2.14,2.14,0,0,1-1.5-.49,1.79,1.79,0,0,1-.54-1.4c0-1.3,1-2,3.11-2l1.09,0V210a1.66,1.66,0,0,0-.32-1.12,1.35,1.35,0,0,0-1-.36A4.33,4.33,0,0,0,514,209l-.3-.74a4.32,4.32,0,0,1,1-.4,4.39,4.39,0,0,1,1.13-.15,2.46,2.46,0,0,1,1.71.51,2.11,2.11,0,0,1,.55,1.63v4.39Zm-2.2-.69a2,2,0,0,0,1.43-.5,1.85,1.85,0,0,0,.52-1.39v-.58l-1,0a3.6,3.6,0,0,0-1.67.36,1.08,1.08,0,0,0-.51,1,1,1,0,0,0,.32.8A1.28,1.28,0,0,0,515.18,213.57Z"/><path class="cls-5" d="M521.08,214.26h-1v-9.12h1Z"/><path class="cls-5" d="M524.05,207.83V212a1.67,1.67,0,0,0,.36,1.17,1.45,1.45,0,0,0,1.12.39A1.81,1.81,0,0,0,527,213a2.79,2.79,0,0,0,.47-1.8v-3.38h1v6.43h-.8l-.14-.87h0a2,2,0,0,1-.83.73,2.79,2.79,0,0,1-1.21.25,2.46,2.46,0,0,1-1.76-.55,2.37,2.37,0,0,1-.58-1.78v-4.21Z"/><path class="cls-5" d="M533.22,214.37a3,3,0,0,1-2.25-.86,3.37,3.37,0,0,1-.82-2.41,3.72,3.72,0,0,1,.76-2.47,2.54,2.54,0,0,1,2.05-.91,2.43,2.43,0,0,1,1.92.79,3.09,3.09,0,0,1,.7,2.1v.61h-4.43a2.52,2.52,0,0,0,.58,1.72,2,2,0,0,0,1.52.58,5.13,5.13,0,0,0,2-.43V214a5.48,5.48,0,0,1-1,.32A5.93,5.93,0,0,1,533.22,214.37Zm-.27-5.84a1.58,1.58,0,0,0-1.23.51,2.25,2.25,0,0,0-.54,1.39h3.36a2.12,2.12,0,0,0-.42-1.41A1.42,1.42,0,0,0,533,208.53Z"/><path class="cls-5" d="M401.79,225.44a3.52,3.52,0,0,1-.79,2.45,2.79,2.79,0,0,1-2.19.88,2.85,2.85,0,0,1-1.52-.4,2.73,2.73,0,0,1-1-1.16,4.11,4.11,0,0,1-.36-1.77,3.52,3.52,0,0,1,.79-2.45,2.78,2.78,0,0,1,2.18-.87A2.75,2.75,0,0,1,401,223,3.54,3.54,0,0,1,401.79,225.44Zm-4.89,0a3,3,0,0,0,.49,1.87,1.71,1.71,0,0,0,1.45.65,1.75,1.75,0,0,0,1.45-.64,3.05,3.05,0,0,0,.49-1.88,3,3,0,0,0-.49-1.86,2,2,0,0,0-2.91,0A3.05,3.05,0,0,0,396.9,225.44Z"/><path class="cls-5" d="M406.39,223h-1.63v5.67h-1V223h-1.15v-.44l1.15-.35v-.36q0-2.37,2.07-2.37a4.21,4.21,0,0,1,1.2.21l-.26.78a3.19,3.19,0,0,0-1-.18,1,1,0,0,0-.81.36,2,2,0,0,0-.26,1.18v.41h1.63Z"/><path class="cls-5" d="M412.75,228a2.67,2.67,0,0,0,.5,0,2,2,0,0,0,.38-.08v.75a1.66,1.66,0,0,1-.46.12,2.9,2.9,0,0,1-.56.05c-1.24,0-1.86-.65-1.86-2V223h-.92v-.47l.92-.4.41-1.37h.56v1.48h1.87V223h-1.87v3.78a1.27,1.27,0,0,0,.28.89A.93.93,0,0,0,412.75,228Z"/><path class="cls-5" d="M419.31,228.66V224.5a1.67,1.67,0,0,0-.36-1.17,1.45,1.45,0,0,0-1.12-.39,1.88,1.88,0,0,0-1.48.55,2.81,2.81,0,0,0-.46,1.81v3.36h-1v-9.12h1v2.76a6,6,0,0,1-.05.82h.06a2,2,0,0,1,.82-.73,2.73,2.73,0,0,1,1.21-.26,2.43,2.43,0,0,1,1.76.56,2.32,2.32,0,0,1,.59,1.78v4.19Z"/><path class="cls-5" d="M425,228.77a3,3,0,0,1-2.24-.86,3.37,3.37,0,0,1-.83-2.41,3.73,3.73,0,0,1,.77-2.47,2.53,2.53,0,0,1,2.05-.91,2.41,2.41,0,0,1,1.91.79,3,3,0,0,1,.71,2.09v.62h-4.43a2.57,2.57,0,0,0,.57,1.72,2,2,0,0,0,1.53.58,5.17,5.17,0,0,0,2.05-.43v.87a6.19,6.19,0,0,1-1,.32A5.78,5.78,0,0,1,425,228.77Zm-.26-5.84a1.58,1.58,0,0,0-1.23.5,2.31,2.31,0,0,0-.54,1.4h3.35a2.12,2.12,0,0,0-.41-1.41A1.42,1.42,0,0,0,424.73,222.93Z"/><path class="cls-5" d="M433.09,225.37c.17-.24.43-.55.77-.94l2.07-2.2h1.16l-2.6,2.74,2.78,3.69h-1.18l-2.27-3-.73.63v2.41h-1v-9.12h1v4.83c0,.22,0,.55,0,1Z"/><path class="cls-5" d="M442.82,228.66V224.5a1.67,1.67,0,0,0-.35-1.17,1.45,1.45,0,0,0-1.12-.39,1.83,1.83,0,0,0-1.48.55,2.76,2.76,0,0,0-.47,1.8v3.37h-1v-6.43h.79l.16.88h.05a1.91,1.91,0,0,1,.83-.73,2.64,2.64,0,0,1,1.2-.26,2.41,2.41,0,0,1,1.75.56,2.38,2.38,0,0,1,.59,1.79v4.19Z"/><path class="cls-5" d="M451.34,225.44a3.57,3.57,0,0,1-.79,2.45,2.79,2.79,0,0,1-2.19.88,2.91,2.91,0,0,1-1.53-.4,2.71,2.71,0,0,1-1-1.16,4.11,4.11,0,0,1-.36-1.77,3.57,3.57,0,0,1,.78-2.45,2.8,2.8,0,0,1,2.18-.87,2.73,2.73,0,0,1,2.14.89A3.54,3.54,0,0,1,451.34,225.44Zm-4.89,0a3,3,0,0,0,.49,1.87,1.71,1.71,0,0,0,1.44.65,1.74,1.74,0,0,0,1.45-.64,3,3,0,0,0,.5-1.88,2.91,2.91,0,0,0-.5-1.86,2,2,0,0,0-2.9,0A3.05,3.05,0,0,0,446.45,225.44Z"/><path class="cls-5" d="M455.12,228a2.74,2.74,0,0,0,.5,0,2.25,2.25,0,0,0,.38-.08v.75a1.75,1.75,0,0,1-.47.12,2.8,2.8,0,0,1-.55.05c-1.25,0-1.87-.65-1.87-2V223h-.92v-.47l.92-.4.41-1.37h.57v1.48H456V223h-1.86v3.78a1.32,1.32,0,0,0,.27.89A1,1,0,0,0,455.12,228Z"/><line class="cls-2" x1="510.41" y1="43.6" x2="510.41" y2="152.16"/><path class="cls-5" d="M604.36,172.22h-1v-8.57h4.77v.88h-3.78v3.14h3.56v.88h-3.56Z"/><path class="cls-5" d="M609.33,164.05a.66.66,0,0,1,.17-.49.58.58,0,0,1,.41-.15.55.55,0,0,1,.4.16.62.62,0,0,1,.17.48.65.65,0,0,1-.17.49.55.55,0,0,1-.4.16.54.54,0,0,1-.41-.16A.65.65,0,0,1,609.33,164.05Zm1.06,8.17h-1v-6.43h1Z"/><path class="cls-5" d="M617.71,165.79v.62l-1.19.14a2.26,2.26,0,0,1,.29.54,2,2,0,0,1,.13.74,1.92,1.92,0,0,1-.65,1.51,2.63,2.63,0,0,1-1.77.56,2.22,2.22,0,0,1-.53-.05,1,1,0,0,0-.63.83.42.42,0,0,0,.22.39,1.65,1.65,0,0,0,.75.13h1.13a2.48,2.48,0,0,1,1.6.44,1.49,1.49,0,0,1,.56,1.27,1.82,1.82,0,0,1-.85,1.63,4.61,4.61,0,0,1-2.5.56,3.43,3.43,0,0,1-1.94-.47,1.61,1.61,0,0,1-.31-2.34,1.92,1.92,0,0,1,1.06-.58,1.06,1.06,0,0,1-.42-.34.94.94,0,0,1-.16-.55,1,1,0,0,1,.18-.61,2,2,0,0,1,.6-.51,1.74,1.74,0,0,1-.82-.7,2.13,2.13,0,0,1-.31-1.13,2.07,2.07,0,0,1,.63-1.62,2.61,2.61,0,0,1,1.8-.57,3.66,3.66,0,0,1,.91.11Zm-5.13,7.5a.86.86,0,0,0,.44.79,2.46,2.46,0,0,0,1.26.27,3.58,3.58,0,0,0,1.82-.36,1.14,1.14,0,0,0,.59-1,.79.79,0,0,0-.33-.73,2.52,2.52,0,0,0-1.21-.2H614a1.51,1.51,0,0,0-1,.32A1.14,1.14,0,0,0,612.58,173.29Zm.53-5.44a1.32,1.32,0,0,0,.38,1,1.54,1.54,0,0,0,1.06.35,1.25,1.25,0,0,0,1.43-1.39,1.27,1.27,0,0,0-1.44-1.44,1.46,1.46,0,0,0-1.06.36A1.54,1.54,0,0,0,613.11,167.85Z"/><path class="cls-5" d="M619.94,165.79V170a1.67,1.67,0,0,0,.36,1.17,1.44,1.44,0,0,0,1.12.39,1.84,1.84,0,0,0,1.47-.55,2.8,2.8,0,0,0,.46-1.8v-3.38h1v6.43h-.81l-.14-.87h0a1.91,1.91,0,0,1-.83.73,2.73,2.73,0,0,1-1.21.25,2.45,2.45,0,0,1-1.75-.55A2.37,2.37,0,0,1,619,170v-4.21Z"/><path class="cls-5" d="M629.32,165.68a3.67,3.67,0,0,1,.77.07l-.14.9a3.2,3.2,0,0,0-.7-.09,1.71,1.71,0,0,0-1.33.63,2.33,2.33,0,0,0-.56,1.58v3.45h-1v-6.43h.8l.11,1.19h.05a2.89,2.89,0,0,1,.86-1A1.94,1.94,0,0,1,629.32,165.68Z"/><path class="cls-5" d="M634,172.33a3,3,0,0,1-2.25-.86,3.42,3.42,0,0,1-.82-2.41,3.73,3.73,0,0,1,.77-2.47,2.53,2.53,0,0,1,2-.91,2.42,2.42,0,0,1,1.91.79,3,3,0,0,1,.7,2.1v.61h-4.42a2.57,2.57,0,0,0,.57,1.72,2,2,0,0,0,1.53.58,5.17,5.17,0,0,0,2.05-.43v.87a5.57,5.57,0,0,1-1,.32A5.93,5.93,0,0,1,634,172.33Zm-.26-5.84a1.59,1.59,0,0,0-1.24.51,2.38,2.38,0,0,0-.54,1.39h3.36a2.17,2.17,0,0,0-.41-1.41A1.42,1.42,0,0,0,633.74,166.49Z"/><path class="cls-5" d="M637.48,169.44v-.89h2.88v.89Z"/><path class="cls-5" d="M646.8,172.22H642v-8.57h4.77v.88H643v2.76h3.56v.88H643v3.16h3.78Z"/><path class="cls-5" d="M648.47,164.05a.66.66,0,0,1,.17-.49.58.58,0,0,1,.41-.15.55.55,0,0,1,.4.16.59.59,0,0,1,.17.48.61.61,0,0,1-.17.49.55.55,0,0,1-.4.16.54.54,0,0,1-.41-.16A.65.65,0,0,1,648.47,164.05Zm1.06,8.17h-1v-6.43h1Z"/><path class="cls-5" d="M656.85,165.79v.62l-1.19.14a2.26,2.26,0,0,1,.29.54,2,2,0,0,1,.13.74,1.92,1.92,0,0,1-.65,1.51,2.6,2.6,0,0,1-1.76.56,2.26,2.26,0,0,1-.54-.05,1,1,0,0,0-.63.83.42.42,0,0,0,.22.39,1.65,1.65,0,0,0,.75.13h1.13a2.53,2.53,0,0,1,1.61.44,1.51,1.51,0,0,1,.55,1.27,1.82,1.82,0,0,1-.85,1.63,4.61,4.61,0,0,1-2.5.56,3.43,3.43,0,0,1-1.94-.47,1.61,1.61,0,0,1-.31-2.34,1.92,1.92,0,0,1,1.06-.58,1.06,1.06,0,0,1-.42-.34.94.94,0,0,1-.16-.55,1,1,0,0,1,.19-.61,1.8,1.8,0,0,1,.59-.51,1.67,1.67,0,0,1-.81-.7,2,2,0,0,1-.32-1.13,2.07,2.07,0,0,1,.63-1.62,2.61,2.61,0,0,1,1.8-.57,3.66,3.66,0,0,1,.91.11Zm-5.12,7.5a.84.84,0,0,0,.44.79,2.39,2.39,0,0,0,1.25.27,3.58,3.58,0,0,0,1.82-.36,1.14,1.14,0,0,0,.59-1,.79.79,0,0,0-.33-.73,2.52,2.52,0,0,0-1.21-.2h-1.16a1.51,1.51,0,0,0-1,.32A1.13,1.13,0,0,0,651.73,173.29Zm.52-5.44a1.32,1.32,0,0,0,.38,1,1.54,1.54,0,0,0,1.06.35,1.25,1.25,0,0,0,1.43-1.39,1.27,1.27,0,0,0-1.44-1.44,1.46,1.46,0,0,0-1.06.36A1.54,1.54,0,0,0,652.25,167.85Z"/><path class="cls-5" d="M662.56,172.22v-4.16a1.67,1.67,0,0,0-.36-1.17,1.45,1.45,0,0,0-1.12-.39,1.87,1.87,0,0,0-1.48.55,2.81,2.81,0,0,0-.46,1.81v3.36h-1V163.1h1v2.76a6,6,0,0,1,0,.82h.06A1.93,1.93,0,0,1,660,166a2.6,2.6,0,0,1,1.21-.27,2.48,2.48,0,0,1,1.76.56,2.32,2.32,0,0,1,.59,1.78v4.19Z"/><path class="cls-5" d="M667.6,171.53a2.67,2.67,0,0,0,.5,0,2,2,0,0,0,.38-.08v.75a1.66,1.66,0,0,1-.46.12,2.9,2.9,0,0,1-.56.05c-1.24,0-1.86-.65-1.86-2v-3.82h-.92v-.47l.92-.4.41-1.37h.56v1.48h1.87v.76h-1.87v3.78a1.32,1.32,0,0,0,.28.89A.93.93,0,0,0,667.6,171.53Z"/><path class="cls-5" d="M679.22,172.22h-1.17l-3.13-4.16-.89.8v3.36h-1v-8.57h1v4.25l3.88-4.25h1.18l-3.45,3.72Z"/><path class="cls-5" d="M684.64,172.22v-4.16a1.72,1.72,0,0,0-.35-1.17,1.47,1.47,0,0,0-1.12-.39,1.83,1.83,0,0,0-1.48.55,2.76,2.76,0,0,0-.47,1.8v3.37h-1v-6.43H681l.16.88h0a1.91,1.91,0,0,1,.83-.73,2.64,2.64,0,0,1,1.2-.26,2.41,2.41,0,0,1,1.75.56,2.38,2.38,0,0,1,.59,1.79v4.19Z"/><path class="cls-5" d="M693.16,169a3.57,3.57,0,0,1-.79,2.45,2.79,2.79,0,0,1-2.19.88,2.91,2.91,0,0,1-1.53-.4,2.71,2.71,0,0,1-1-1.16,4.11,4.11,0,0,1-.36-1.77,3.57,3.57,0,0,1,.78-2.45,2.8,2.8,0,0,1,2.18-.87,2.73,2.73,0,0,1,2.14.89A3.54,3.54,0,0,1,693.16,169Zm-4.9,0a3,3,0,0,0,.5,1.87,1.7,1.7,0,0,0,1.44.65,1.74,1.74,0,0,0,1.45-.64,3.05,3.05,0,0,0,.5-1.88,3,3,0,0,0-.5-1.86,2,2,0,0,0-2.9,0A3,3,0,0,0,688.26,169Z"/><path class="cls-5" d="M696.94,171.53a2.63,2.63,0,0,0,.49,0,2.39,2.39,0,0,0,.39-.08v.75a1.86,1.86,0,0,1-.47.12,2.87,2.87,0,0,1-.55.05c-1.25,0-1.87-.65-1.87-2v-3.82H694v-.47l.92-.4.41-1.37h.57v1.48h1.86v.76h-1.86v3.78a1.32,1.32,0,0,0,.27.89A1,1,0,0,0,696.94,171.53Z"/><path class="cls-5" d="M701.67,168.93a9.15,9.15,0,0,1,.45-2.91,7.19,7.19,0,0,1,1.31-2.37h1a8.21,8.21,0,0,0-1.27,2.48,9.4,9.4,0,0,0-.43,2.79,8.94,8.94,0,0,0,.44,2.75,8.29,8.29,0,0,0,1.25,2.44h-.94a6.79,6.79,0,0,1-1.31-2.32A8.88,8.88,0,0,1,701.67,168.93Z"/><path class="cls-5" d="M710.69,172.22h-4.78v-8.57h4.78v.88h-3.78v2.76h3.55v.88h-3.55v3.16h3.78Z"/><path class="cls-5" d="M714.48,168.93a8.9,8.9,0,0,1-.45,2.87,6.88,6.88,0,0,1-1.31,2.31h-.94a8.53,8.53,0,0,0,1.25-2.44,8.92,8.92,0,0,0,.43-2.75,9.39,9.39,0,0,0-.42-2.79,8.44,8.44,0,0,0-1.27-2.48h1A7.24,7.24,0,0,1,714,166,9.17,9.17,0,0,1,714.48,168.93Z"/><path class="cls-5" d="M715.85,166.42c0-.53.23-.79.69-.79s.72.26.72.79a.84.84,0,0,1-.19.59.72.72,0,0,1-.53.2.69.69,0,0,1-.49-.18A.83.83,0,0,1,715.85,166.42Zm0,5.17A.85.85,0,0,1,716,171a.66.66,0,0,1,.51-.2.69.69,0,0,1,.53.2.81.81,0,0,1,.19.59.82.82,0,0,1-.19.59.75.75,0,0,1-1,0A.8.8,0,0,1,715.85,171.59Z"/><path class="cls-5" d="M602.41,181l-.07-.12a11.54,11.54,0,0,1,.41-1.32c.19-.52.4-1,.62-1.49h.72a26.75,26.75,0,0,0-.6,2.93Z"/><path class="cls-5" d="M610.18,186.62h-4.77v-8.57h4.77v.88H606.4v2.76H610v.88H606.4v3.15h3.78Z"/><path class="cls-5" d="M612.71,178.05l.09.13c-.1.39-.25.84-.44,1.36s-.39,1-.6,1.44h-.71c.27-1.11.47-2.09.6-2.93Z"/><path class="cls-5" d="M618.05,183.33c.17-.24.43-.55.77-.94l2.07-2.2h1.16l-2.6,2.74,2.78,3.69h-1.18l-2.27-3-.73.63v2.41h-1V177.5h1v4.83c0,.22,0,.55,0,1Z"/><path class="cls-5" d="M627.78,186.62v-4.16a1.67,1.67,0,0,0-.35-1.17,1.45,1.45,0,0,0-1.12-.39,1.83,1.83,0,0,0-1.48.55,2.76,2.76,0,0,0-.47,1.8v3.37h-1v-6.43h.79l.16.88h0a1.91,1.91,0,0,1,.83-.73,2.64,2.64,0,0,1,1.2-.26,2.41,2.41,0,0,1,1.75.56,2.38,2.38,0,0,1,.59,1.79v4.19Z"/><path class="cls-5" d="M636.3,183.4a3.57,3.57,0,0,1-.79,2.45,2.79,2.79,0,0,1-2.19.88,2.91,2.91,0,0,1-1.53-.4,2.71,2.71,0,0,1-1-1.16,4.11,4.11,0,0,1-.36-1.77,3.57,3.57,0,0,1,.78-2.45,2.8,2.8,0,0,1,2.18-.87,2.73,2.73,0,0,1,2.14.89A3.54,3.54,0,0,1,636.3,183.4Zm-4.89,0a3,3,0,0,0,.49,1.87,1.71,1.71,0,0,0,1.44.65,1.74,1.74,0,0,0,1.45-.64,3.05,3.05,0,0,0,.5-1.88,3,3,0,0,0-.5-1.86,2,2,0,0,0-2.9,0A3.05,3.05,0,0,0,631.41,183.4Z"/><path class="cls-5" d="M640.08,185.93a2.74,2.74,0,0,0,.5,0,2.25,2.25,0,0,0,.38-.08v.75a1.75,1.75,0,0,1-.47.12,2.8,2.8,0,0,1-.55,0c-1.25,0-1.87-.65-1.87-2V181h-.92v-.47l.92-.4.41-1.37h.57v1.48h1.86V181h-1.86v3.78a1.32,1.32,0,0,0,.27.89A1,1,0,0,0,640.08,185.93Z"/><path class="cls-5" d="M646.38,184.86a1.62,1.62,0,0,1-.67,1.39,3.15,3.15,0,0,1-1.87.48,4.05,4.05,0,0,1-2-.4v-.9a4.67,4.67,0,0,0,1,.36,4.1,4.1,0,0,0,1,.14,2.32,2.32,0,0,0,1.17-.24.8.8,0,0,0,.41-.74.81.81,0,0,0-.32-.65,5.81,5.81,0,0,0-1.27-.63,6.31,6.31,0,0,1-1.27-.58,1.79,1.79,0,0,1-.57-.56,1.55,1.55,0,0,1-.18-.76,1.43,1.43,0,0,1,.64-1.24,3,3,0,0,1,1.75-.45,5.16,5.16,0,0,1,2,.42l-.35.79a4.56,4.56,0,0,0-1.75-.4,1.94,1.94,0,0,0-1,.22.66.66,0,0,0-.36.6.69.69,0,0,0,.14.43,1.17,1.17,0,0,0,.42.35,8.61,8.61,0,0,0,1.13.47,4.27,4.27,0,0,1,1.54.84A1.47,1.47,0,0,1,646.38,184.86Z"/><path class="cls-5" d="M654,180.08a3.61,3.61,0,0,1,.77.07l-.14.9a3.2,3.2,0,0,0-.7-.09,1.71,1.71,0,0,0-1.33.63,2.33,2.33,0,0,0-.56,1.58v3.45h-1v-6.43h.8l.12,1.19h0a2.79,2.79,0,0,1,.86-1A1.94,1.94,0,0,1,654,180.08Z"/><path class="cls-5" d="M658.69,186.73a3,3,0,0,1-2.24-.86,3.37,3.37,0,0,1-.83-2.41,3.73,3.73,0,0,1,.77-2.47,2.53,2.53,0,0,1,2.05-.91,2.41,2.41,0,0,1,1.91.79,3,3,0,0,1,.7,2.09v.62h-4.42a2.57,2.57,0,0,0,.57,1.72,2,2,0,0,0,1.53.58,5.17,5.17,0,0,0,2-.43v.87a6.54,6.54,0,0,1-1,.32A5.78,5.78,0,0,1,658.69,186.73Zm-.26-5.84a1.58,1.58,0,0,0-1.23.5,2.38,2.38,0,0,0-.55,1.4H660a2.17,2.17,0,0,0-.41-1.41A1.42,1.42,0,0,0,658.43,180.89Z"/><path class="cls-5" d="M665.7,186.73a2.72,2.72,0,0,1-1.15-.23,2.19,2.19,0,0,1-.87-.71h-.07a8,8,0,0,1,.07,1.07v2.64h-1v-9.31h.79l.14.88h0a2.33,2.33,0,0,1,.88-.76,2.58,2.58,0,0,1,1.14-.23,2.37,2.37,0,0,1,2,.87,4.63,4.63,0,0,1,0,4.91A2.38,2.38,0,0,1,665.7,186.73Zm-.14-5.83a1.69,1.69,0,0,0-1.42.55,2.75,2.75,0,0,0-.46,1.73v.22a3.11,3.11,0,0,0,.46,1.93,1.7,1.7,0,0,0,1.44.59,1.52,1.52,0,0,0,1.31-.68,3.2,3.2,0,0,0,.47-1.85,3.14,3.14,0,0,0-.47-1.85A1.58,1.58,0,0,0,665.56,180.9Z"/><path class="cls-5" d="M673,180.08a3.51,3.51,0,0,1,.76.07l-.13.9a3.28,3.28,0,0,0-.71-.09,1.72,1.72,0,0,0-1.33.63,2.32,2.32,0,0,0-.55,1.58v3.45h-1v-6.43h.8l.11,1.19h0a2.61,2.61,0,0,1,.86-1A1.89,1.89,0,0,1,673,180.08Z"/><path class="cls-5" d="M677.68,186.73a3,3,0,0,1-2.25-.86,3.37,3.37,0,0,1-.82-2.41,3.72,3.72,0,0,1,.76-2.47,2.54,2.54,0,0,1,2-.91,2.4,2.4,0,0,1,1.91.79A3,3,0,0,1,680,183v.62h-4.43a2.52,2.52,0,0,0,.58,1.72,2,2,0,0,0,1.52.58,5.13,5.13,0,0,0,2-.43v.87a6.44,6.44,0,0,1-1,.32A5.93,5.93,0,0,1,677.68,186.73Zm-.27-5.84a1.61,1.61,0,0,0-1.23.5,2.31,2.31,0,0,0-.54,1.4H679a2.12,2.12,0,0,0-.42-1.41A1.42,1.42,0,0,0,677.41,180.89Z"/><path class="cls-5" d="M685.84,184.86a1.62,1.62,0,0,1-.67,1.39,3.15,3.15,0,0,1-1.87.48,4.1,4.1,0,0,1-2-.4v-.9a4.56,4.56,0,0,0,1,.36,4.1,4.1,0,0,0,1,.14,2.32,2.32,0,0,0,1.17-.24.82.82,0,0,0,.41-.74.84.84,0,0,0-.32-.65,5.81,5.81,0,0,0-1.27-.63,6.75,6.75,0,0,1-1.28-.58,1.76,1.76,0,0,1-.56-.56,1.55,1.55,0,0,1-.18-.76,1.45,1.45,0,0,1,.63-1.24,3,3,0,0,1,1.76-.45,5.12,5.12,0,0,1,2,.42l-.34.79a4.6,4.6,0,0,0-1.75-.4,2,2,0,0,0-1.05.22.67.67,0,0,0-.35.6.75.75,0,0,0,.13.43,1.21,1.21,0,0,0,.43.35,8.3,8.3,0,0,0,1.12.47,4.24,4.24,0,0,1,1.55.84A1.47,1.47,0,0,1,685.84,184.86Z"/><path class="cls-5" d="M690.13,186.73a3,3,0,0,1-2.24-.86,3.37,3.37,0,0,1-.83-2.41,3.73,3.73,0,0,1,.77-2.47,2.53,2.53,0,0,1,2-.91,2.41,2.41,0,0,1,1.91.79,3,3,0,0,1,.71,2.09v.62h-4.43a2.57,2.57,0,0,0,.57,1.72,2,2,0,0,0,1.53.58,5.17,5.17,0,0,0,2.05-.43v.87a6.19,6.19,0,0,1-1,.32A5.78,5.78,0,0,1,690.13,186.73Zm-.26-5.84a1.58,1.58,0,0,0-1.23.5,2.38,2.38,0,0,0-.55,1.4h3.36a2.12,2.12,0,0,0-.41-1.41A1.42,1.42,0,0,0,689.87,180.89Z"/><path class="cls-5" d="M698.55,186.62v-4.16a1.67,1.67,0,0,0-.36-1.17,1.45,1.45,0,0,0-1.12-.39,1.85,1.85,0,0,0-1.48.55,2.76,2.76,0,0,0-.46,1.8v3.37h-1v-6.43h.79l.16.88h0a2,2,0,0,1,.84-.73,2.64,2.64,0,0,1,1.2-.26,2.4,2.4,0,0,1,1.74.56,2.34,2.34,0,0,1,.59,1.79v4.19Z"/><path class="cls-5" d="M703.59,185.93a2.74,2.74,0,0,0,.5,0,2,2,0,0,0,.38-.08v.75a1.66,1.66,0,0,1-.46.12,2.9,2.9,0,0,1-.56,0c-1.24,0-1.86-.65-1.86-2V181h-.92v-.47l.92-.4.41-1.37h.56v1.48h1.86V181h-1.86v3.78a1.27,1.27,0,0,0,.28.89A.93.93,0,0,0,703.59,185.93Z"/><path class="cls-5" d="M711,185.93a2.63,2.63,0,0,0,.49,0,2.39,2.39,0,0,0,.39-.08v.75a1.86,1.86,0,0,1-.47.12,2.87,2.87,0,0,1-.55,0c-1.25,0-1.87-.65-1.87-2V181H708v-.47l.92-.4.41-1.37h.57v1.48h1.86V181h-1.86v3.78a1.32,1.32,0,0,0,.27.89A1,1,0,0,0,711,185.93Z"/><path class="cls-5" d="M717.5,186.62v-4.16a1.72,1.72,0,0,0-.35-1.17,1.47,1.47,0,0,0-1.12-.39,1.85,1.85,0,0,0-1.48.55,2.81,2.81,0,0,0-.47,1.81v3.36h-1V177.5h1v2.76a4.72,4.72,0,0,1-.05.82h.06a2.08,2.08,0,0,1,.82-.73,2.76,2.76,0,0,1,1.21-.26,2.46,2.46,0,0,1,1.77.56,2.36,2.36,0,0,1,.59,1.78v4.19Z"/><path class="cls-5" d="M723.19,186.73a3,3,0,0,1-2.25-.86,3.37,3.37,0,0,1-.82-2.41,3.72,3.72,0,0,1,.76-2.47,2.54,2.54,0,0,1,2-.91,2.4,2.4,0,0,1,1.91.79,3,3,0,0,1,.71,2.09v.62h-4.43a2.52,2.52,0,0,0,.58,1.72,2,2,0,0,0,1.52.58,5.13,5.13,0,0,0,2-.43v.87a6.44,6.44,0,0,1-1,.32A5.93,5.93,0,0,1,723.19,186.73Zm-.27-5.84a1.61,1.61,0,0,0-1.23.5,2.31,2.31,0,0,0-.54,1.4h3.35a2.12,2.12,0,0,0-.41-1.41A1.42,1.42,0,0,0,722.92,180.89Z"/><path class="cls-5" d="M607.62,201v-4.16a1.67,1.67,0,0,0-.36-1.17,1.45,1.45,0,0,0-1.12-.39,1.85,1.85,0,0,0-1.48.55,2.76,2.76,0,0,0-.47,1.8V201h-1v-6.43H604l.16.88h.05a2,2,0,0,1,.84-.73,2.64,2.64,0,0,1,1.2-.26,2,2,0,0,1,2.33,2.35V201Z"/><path class="cls-5" d="M611.5,194.59v4.17a1.67,1.67,0,0,0,.36,1.17,1.45,1.45,0,0,0,1.12.39,1.84,1.84,0,0,0,1.47-.55,2.79,2.79,0,0,0,.47-1.8v-3.38h1V201h-.8l-.14-.87h-.06a1.91,1.91,0,0,1-.83.73,2.73,2.73,0,0,1-1.21.25,2.45,2.45,0,0,1-1.75-.55,2.38,2.38,0,0,1-.58-1.79v-4.2Z"/><path class="cls-5" d="M626.14,201v-4.18a1.72,1.72,0,0,0-.33-1.15,1.26,1.26,0,0,0-1-.39,1.66,1.66,0,0,0-1.34.52,2.5,2.5,0,0,0-.44,1.61V201h-1v-4.18a1.72,1.72,0,0,0-.33-1.15,1.25,1.25,0,0,0-1-.39,1.6,1.6,0,0,0-1.34.55,3,3,0,0,0-.43,1.8V201h-1v-6.43h.79l.16.88H619a1.94,1.94,0,0,1,.77-.73,2.35,2.35,0,0,1,1.13-.26,1.91,1.91,0,0,1,2,1.09h0a2,2,0,0,1,.83-.8,2.56,2.56,0,0,1,1.25-.29,2.15,2.15,0,0,1,1.63.56,2.5,2.5,0,0,1,.54,1.79V201Z"/><path class="cls-5" d="M632.1,194.49a2.41,2.41,0,0,1,2,.86,3.78,3.78,0,0,1,.7,2.45,3.85,3.85,0,0,1-.71,2.46,2.38,2.38,0,0,1-2,.87,2.64,2.64,0,0,1-1.14-.23,2.06,2.06,0,0,1-.87-.71H630l-.21.83h-.7V191.9h1v2.21c0,.5,0,.94-.05,1.34h.05A2.3,2.3,0,0,1,632.1,194.49Zm-.14.81a1.69,1.69,0,0,0-1.43.57,3.19,3.19,0,0,0-.44,1.93,3.24,3.24,0,0,0,.45,1.94,1.74,1.74,0,0,0,1.45.58,1.51,1.51,0,0,0,1.33-.65,3.42,3.42,0,0,0,.44-1.88,3.24,3.24,0,0,0-.44-1.87A1.55,1.55,0,0,0,632,195.3Z"/><path class="cls-5" d="M639.18,201.13a3,3,0,0,1-2.25-.86,3.37,3.37,0,0,1-.82-2.41,3.73,3.73,0,0,1,.77-2.47,2.51,2.51,0,0,1,2-.91,2.42,2.42,0,0,1,1.91.79,3,3,0,0,1,.7,2.1V198h-4.42a2.57,2.57,0,0,0,.57,1.72,2,2,0,0,0,1.53.58,5.17,5.17,0,0,0,2-.43v.87a5.57,5.57,0,0,1-1,.32A5.93,5.93,0,0,1,639.18,201.13Zm-.26-5.84a1.62,1.62,0,0,0-1.24.5,2.44,2.44,0,0,0-.54,1.4h3.36a2.17,2.17,0,0,0-.41-1.41A1.43,1.43,0,0,0,638.92,195.29Z"/><path class="cls-5" d="M646.13,194.48a3.61,3.61,0,0,1,.77.07l-.14.9a3.2,3.2,0,0,0-.7-.09,1.71,1.71,0,0,0-1.33.63,2.33,2.33,0,0,0-.56,1.58V201h-1v-6.43h.8l.11,1.19h0a2.89,2.89,0,0,1,.86-1A1.94,1.94,0,0,1,646.13,194.48Z"/><path class="cls-5" d="M654.37,201h-1v-6.11c0-.51,0-1,.05-1.44l-.27.26-1.4,1.14-.51-.67,2.26-1.75h.82Z"/><path class="cls-5" d="M659.1,199.62l.08.14c-.1.39-.24.84-.43,1.36s-.4,1-.6,1.44h-.73c.1-.4.22-.91.34-1.5s.22-1.08.27-1.44Z"/><path class="cls-5" d="M668.08,201l-.19-.92h0a2.68,2.68,0,0,1-1,.82,3,3,0,0,1-1.2.21,2.13,2.13,0,0,1-1.49-.49,1.79,1.79,0,0,1-.54-1.4c0-1.3,1-2,3.11-2l1.09,0v-.4a1.61,1.61,0,0,0-.33-1.12,1.34,1.34,0,0,0-1-.36,4.4,4.4,0,0,0-1.82.49l-.29-.74a4.6,4.6,0,0,1,1-.41,4.79,4.79,0,0,1,1.13-.14,2.43,2.43,0,0,1,1.7.51,2.11,2.11,0,0,1,.56,1.63V201Zm-2.19-.69a2,2,0,0,0,1.42-.5,1.81,1.81,0,0,0,.52-1.39v-.58l-1,0a3.6,3.6,0,0,0-1.67.36,1.09,1.09,0,0,0-.52,1,1,1,0,0,0,.32.8A1.31,1.31,0,0,0,665.89,200.33Z"/><path class="cls-5" d="M675.2,201v-4.16a1.72,1.72,0,0,0-.35-1.17,1.45,1.45,0,0,0-1.12-.39,1.83,1.83,0,0,0-1.48.55,2.76,2.76,0,0,0-.47,1.8V201h-1v-6.43h.79l.16.88h0a1.91,1.91,0,0,1,.83-.73,2.64,2.64,0,0,1,1.2-.26,2.41,2.41,0,0,1,1.75.56,2.38,2.38,0,0,1,.59,1.79V201Z"/><path class="cls-5" d="M682.55,200.15h-.06a2.27,2.27,0,0,1-2,1,2.36,2.36,0,0,1-2-.86,3.76,3.76,0,0,1-.7-2.45,3.81,3.81,0,0,1,.7-2.46,2.36,2.36,0,0,1,2-.88,2.31,2.31,0,0,1,2,1h.08l0-.47,0-.45V191.9h1V201h-.8Zm-1.95.17a1.76,1.76,0,0,0,1.44-.54,2.74,2.74,0,0,0,.45-1.75v-.21a3.25,3.25,0,0,0-.45-1.95,1.75,1.75,0,0,0-1.45-.58,1.48,1.48,0,0,0-1.31.67,3.31,3.31,0,0,0-.45,1.87,3.19,3.19,0,0,0,.45,1.86A1.52,1.52,0,0,0,680.6,200.32Z"/><path class="cls-5" d="M693,200.15H693a2.27,2.27,0,0,1-2,1,2.37,2.37,0,0,1-2-.86,3.76,3.76,0,0,1-.7-2.45,3.81,3.81,0,0,1,.7-2.46,2.36,2.36,0,0,1,2-.88,2.31,2.31,0,0,1,2,1H693l0-.47,0-.45V191.9h1V201h-.79Zm-1.95.17a1.78,1.78,0,0,0,1.45-.54A2.81,2.81,0,0,0,693,198v-.21a3.25,3.25,0,0,0-.45-1.95,1.75,1.75,0,0,0-1.45-.58,1.48,1.48,0,0,0-1.31.67,3.31,3.31,0,0,0-.45,1.87,3.19,3.19,0,0,0,.45,1.86A1.52,1.52,0,0,0,691.07,200.32Z"/><path class="cls-5" d="M701.54,197.8a3.52,3.52,0,0,1-.79,2.45,2.77,2.77,0,0,1-2.18.88,2.86,2.86,0,0,1-1.53-.4,2.73,2.73,0,0,1-1-1.16,4.11,4.11,0,0,1-.36-1.77,3.52,3.52,0,0,1,.79-2.45,2.78,2.78,0,0,1,2.18-.87,2.75,2.75,0,0,1,2.14.89A3.54,3.54,0,0,1,701.54,197.8Zm-4.89,0a3,3,0,0,0,.49,1.87,1.71,1.71,0,0,0,1.45.65,1.74,1.74,0,0,0,1.45-.64,3.05,3.05,0,0,0,.49-1.88,3,3,0,0,0-.49-1.86,1.73,1.73,0,0,0-1.46-.64,1.7,1.7,0,0,0-1.44.63A3,3,0,0,0,696.65,197.8Z"/><path class="cls-5" d="M707.64,201v-4.16a1.67,1.67,0,0,0-.36-1.17,1.43,1.43,0,0,0-1.11-.39,1.82,1.82,0,0,0-1.48.55,2.76,2.76,0,0,0-.47,1.8V201h-1v-6.43H704l.16.88h0a2,2,0,0,1,.84-.73,2.64,2.64,0,0,1,1.2-.26A2.41,2.41,0,0,1,708,195a2.38,2.38,0,0,1,.58,1.79V201Z"/><path class="cls-5" d="M711.39,192.45l.09.13c-.1.39-.25.84-.44,1.36s-.39,1-.6,1.44h-.71c.27-1.11.47-2.09.6-2.93Z"/><path class="cls-5" d="M714.73,200.33a2.63,2.63,0,0,0,.49,0,2,2,0,0,0,.38-.08V201a1.66,1.66,0,0,1-.46.12,2.9,2.9,0,0,1-.56,0c-1.24,0-1.86-.65-1.86-2v-3.82h-.92v-.47l.92-.4.41-1.37h.56v1.48h1.87v.76h-1.87v3.78a1.32,1.32,0,0,0,.28.89A1,1,0,0,0,714.73,200.33Z"/><path class="cls-5" d="M722.57,201.13a2.72,2.72,0,0,1-2.16-.86,3.51,3.51,0,0,1-.76-2.42,3.66,3.66,0,0,1,.77-2.49,2.8,2.8,0,0,1,2.22-.88,4.18,4.18,0,0,1,.92.1,2.86,2.86,0,0,1,.73.23l-.3.83a4.78,4.78,0,0,0-.7-.22,3.65,3.65,0,0,0-.68-.08q-2,0-2,2.49a3,3,0,0,0,.47,1.82,1.67,1.67,0,0,0,1.42.63,4.3,4.3,0,0,0,1.64-.34v.86A3.54,3.54,0,0,1,722.57,201.13Z"/><path class="cls-5" d="M731.26,197.8a3.52,3.52,0,0,1-.79,2.45,2.79,2.79,0,0,1-2.19.88,2.91,2.91,0,0,1-1.53-.4,2.78,2.78,0,0,1-1-1.16,4.11,4.11,0,0,1-.36-1.77,3.52,3.52,0,0,1,.79-2.45,2.78,2.78,0,0,1,2.18-.87,2.75,2.75,0,0,1,2.14.89A3.54,3.54,0,0,1,731.26,197.8Zm-4.89,0a3,3,0,0,0,.49,1.87,1.71,1.71,0,0,0,1.45.65,1.75,1.75,0,0,0,1.45-.64,3.05,3.05,0,0,0,.49-1.88,3,3,0,0,0-.49-1.86,2,2,0,0,0-2.91,0A3.05,3.05,0,0,0,726.37,197.8Z"/><path class="cls-5" d="M741.15,201v-4.18a1.72,1.72,0,0,0-.33-1.15,1.26,1.26,0,0,0-1-.39,1.67,1.67,0,0,0-1.34.52,2.5,2.5,0,0,0-.43,1.61V201h-1v-4.18a1.72,1.72,0,0,0-.33-1.15,1.27,1.27,0,0,0-1-.39,1.61,1.61,0,0,0-1.34.55,3,3,0,0,0-.42,1.8V201h-1v-6.43h.79l.16.88h0a2,2,0,0,1,.78-.73,2.31,2.31,0,0,1,1.12-.26,1.91,1.91,0,0,1,2,1.09h0a2,2,0,0,1,.83-.8,2.52,2.52,0,0,1,1.24-.29,2.14,2.14,0,0,1,1.63.56,2.5,2.5,0,0,1,.54,1.79V201Z"/><path class="cls-5" d="M746.84,201.13a3,3,0,0,1-2.25-.86,3.37,3.37,0,0,1-.82-2.41,3.73,3.73,0,0,1,.77-2.47,2.51,2.51,0,0,1,2.05-.91,2.42,2.42,0,0,1,1.91.79,3,3,0,0,1,.7,2.1V198h-4.42a2.57,2.57,0,0,0,.57,1.72,2,2,0,0,0,1.53.58,5.17,5.17,0,0,0,2-.43v.87a5.57,5.57,0,0,1-1,.32A5.93,5.93,0,0,1,746.84,201.13Zm-.26-5.84a1.62,1.62,0,0,0-1.24.5,2.44,2.44,0,0,0-.54,1.4h3.36a2.17,2.17,0,0,0-.41-1.41A1.43,1.43,0,0,0,746.58,195.29Z"/><path class="cls-5" d="M603.14,207.25a.66.66,0,0,1,.16-.49.59.59,0,0,1,.41-.15.57.57,0,0,1,.41.16.64.64,0,0,1,.17.48.65.65,0,0,1-.17.49.57.57,0,0,1-.41.16.56.56,0,0,1-.41-.16A.64.64,0,0,1,603.14,207.25Zm1.05,8.17h-1V209h1Z"/><path class="cls-5" d="M610.65,215.42v-4.16a1.67,1.67,0,0,0-.36-1.17,1.44,1.44,0,0,0-1.12-.39,1.81,1.81,0,0,0-1.47.55,2.76,2.76,0,0,0-.47,1.8v3.37h-1V209h.79l.16.88h0a2,2,0,0,1,.84-.73,2.64,2.64,0,0,1,1.2-.26,2.41,2.41,0,0,1,1.75.56,2.38,2.38,0,0,1,.58,1.79v4.19Z"/><path class="cls-5" d="M619.31,215.53a2.72,2.72,0,0,1-2.16-.86,3.51,3.51,0,0,1-.77-2.42,3.61,3.61,0,0,1,.78-2.49,2.78,2.78,0,0,1,2.21-.88,4.2,4.2,0,0,1,.93.1,2.77,2.77,0,0,1,.72.23l-.3.83a4.42,4.42,0,0,0-.7-.22,3.56,3.56,0,0,0-.67-.08c-1.31,0-2,.83-2,2.49a3,3,0,0,0,.48,1.82,1.66,1.66,0,0,0,1.41.63,4.31,4.31,0,0,0,1.65-.34v.86A3.54,3.54,0,0,1,619.31,215.53Z"/><path class="cls-5" d="M623.42,215.42h-1V206.3h1Z"/><path class="cls-5" d="M626.4,209v4.17a1.67,1.67,0,0,0,.36,1.17,1.45,1.45,0,0,0,1.12.39,1.81,1.81,0,0,0,1.47-.55,2.79,2.79,0,0,0,.47-1.8V209h1v6.43H630l-.14-.87h-.06a1.91,1.91,0,0,1-.83.73,2.73,2.73,0,0,1-1.21.25A2.45,2.45,0,0,1,626,215a2.37,2.37,0,0,1-.58-1.78V209Z"/><path class="cls-5" d="M637,213.66a1.64,1.64,0,0,1-.67,1.39,3.19,3.19,0,0,1-1.88.48,4.08,4.08,0,0,1-2-.4v-.9a5.32,5.32,0,0,0,1,.37,4.21,4.21,0,0,0,1,.13,2.37,2.37,0,0,0,1.17-.24.81.81,0,0,0,.41-.74.82.82,0,0,0-.33-.65,5.57,5.57,0,0,0-1.27-.63,6.59,6.59,0,0,1-1.27-.58,1.66,1.66,0,0,1-.56-.56,1.43,1.43,0,0,1-.19-.76,1.46,1.46,0,0,1,.64-1.24,3,3,0,0,1,1.75-.45,5.16,5.16,0,0,1,2,.42l-.35.79a4.52,4.52,0,0,0-1.75-.4,1.94,1.94,0,0,0-1,.22.67.67,0,0,0-.35.6.74.74,0,0,0,.13.44,1.38,1.38,0,0,0,.42.34,10.68,10.68,0,0,0,1.13.48,4.05,4.05,0,0,1,1.54.83A1.48,1.48,0,0,1,637,213.66Z"/><path class="cls-5" d="M640.65,214.73a2.74,2.74,0,0,0,.5,0,2,2,0,0,0,.38-.08v.75a1.75,1.75,0,0,1-.47.12,2.8,2.8,0,0,1-.55.05c-1.24,0-1.86-.65-1.86-2v-3.82h-.92v-.47l.92-.4.41-1.37h.56V209h1.86v.76h-1.86v3.78a1.27,1.27,0,0,0,.28.89A.93.93,0,0,0,640.65,214.73Z"/><path class="cls-5" d="M645.53,215.53a3,3,0,0,1-2.25-.86,3.35,3.35,0,0,1-.82-2.41,3.72,3.72,0,0,1,.76-2.47,2.54,2.54,0,0,1,2-.91,2.4,2.4,0,0,1,1.91.79,3.05,3.05,0,0,1,.71,2.1v.61h-4.43a2.52,2.52,0,0,0,.58,1.72,2,2,0,0,0,1.52.58,5.13,5.13,0,0,0,2.05-.43v.87a5.48,5.48,0,0,1-1,.32A5.93,5.93,0,0,1,645.53,215.53Zm-.27-5.84a1.58,1.58,0,0,0-1.23.51,2.25,2.25,0,0,0-.54,1.39h3.35a2.12,2.12,0,0,0-.41-1.41A1.42,1.42,0,0,0,645.26,209.69Z"/><path class="cls-5" d="M652.48,208.88a3.51,3.51,0,0,1,.76.07l-.13.9a3.27,3.27,0,0,0-.7-.09,1.73,1.73,0,0,0-1.34.63,2.32,2.32,0,0,0-.55,1.58v3.45h-1V209h.8l.11,1.19h0a2.78,2.78,0,0,1,.86-1A1.89,1.89,0,0,1,652.48,208.88Z"/><path class="cls-5" d="M658.59,213.66a1.64,1.64,0,0,1-.67,1.39,3.19,3.19,0,0,1-1.88.48,4.08,4.08,0,0,1-2-.4v-.9a5.32,5.32,0,0,0,1,.37,4.21,4.21,0,0,0,1,.13,2.32,2.32,0,0,0,1.17-.24.81.81,0,0,0,.41-.74.82.82,0,0,0-.33-.65,5.67,5.67,0,0,0-1.26-.63,6.46,6.46,0,0,1-1.28-.58,1.66,1.66,0,0,1-.56-.56,1.53,1.53,0,0,1-.19-.76,1.46,1.46,0,0,1,.64-1.24,3,3,0,0,1,1.75-.45,5.13,5.13,0,0,1,2,.42l-.34.79a4.61,4.61,0,0,0-1.76-.4,2,2,0,0,0-1,.22.67.67,0,0,0-.35.6.74.74,0,0,0,.13.44,1.32,1.32,0,0,0,.43.34,9.41,9.41,0,0,0,1.12.48,4.2,4.2,0,0,1,1.55.83A1.52,1.52,0,0,1,658.59,213.66Z"/><line class="cls-2" x1="726.01" y1="43.32" x2="726.01" y2="151.88"/><ellipse class="cls-5" cx="299.57" cy="99.77" rx="2.79" ry="2.81"/><ellipse class="cls-5" cx="299.57" cy="92.59" rx="2.79" ry="2.81"/><path class="cls-2" d="M313.36,96.59c9.71-.26,16.21-8.59,17.92-17.56"/><path class="cls-2" d="M312.58,96.94l5.75,2.83"/><line class="cls-2" x1="312.46" y1="97.26" x2="318.99" y2="92.21"/><text class="cls-6" transform="translate(315.72 46.5)">2s in the tens <tspan x="0" y="13.2">place = 20</tspan></text><path class="cls-4" d="M431.57,33.63c.05,17.11-1.41,34.17-2.88,51.21-.3,3.42-.6,6.83-1,10.25-.41,3.79-1,7.57-1.09,11.4-.16,7.71,2.32,17,9.7,20.78a11.16,11.16,0,0,0,12.34-1.22c3.75-2.94,5.77-7.51,6.82-12.06a106.23,106.23,0,0,0,2-15.6A158.6,158.6,0,0,0,458,82.22a136.09,136.09,0,0,0-1.35-16c-.7-4.84-1.46-9.95-3.27-14.51a15.86,15.86,0,0,0-3.5-5.69,12.09,12.09,0,0,0-6.33-3.07,34.34,34.34,0,0,0-12.17-.31A12.38,12.38,0,0,0,422.31,49a16.32,16.32,0,0,0-.72,11,9.74,9.74,0,0,0,2.52,4.61c2.33,2.21,5.87-1.32,3.53-3.54a6.09,6.09,0,0,1-1.43-3.31,14.59,14.59,0,0,1-.13-4.05A6.7,6.7,0,0,1,431,47.86c3.09-.94,6.45-.69,9.67-.32,1.73.2,3.7.45,5.13,1.54a9.67,9.67,0,0,1,2.88,4.3,64.26,64.26,0,0,1,3,13.22A124.71,124.71,0,0,1,453,81a143.63,143.63,0,0,1-1.8,29.22c-.69,4-1.8,8.26-4.78,11.2a6.38,6.38,0,0,1-8.41,1c-5.8-3.73-6.62-11.66-6.25-17.78s1.33-12.51,1.88-18.74C434.9,71,436.26,56,436.52,41q.06-3.67.05-7.34c0-3.22-5-3.23-5,0Z"/><path class="cls-4" d="M436,66.7c1.37,1.86,2.55,5.4.31,7.12-1.16.89-2.82,1.15-4.16,1.64a26,26,0,0,0-4.84,2.25c-5.14,3.19-11.6,12.71-5.61,18a2.57,2.57,0,0,0,3.54,0,2.54,2.54,0,0,0,0-3.54c-2.11-1.86.09-5.23,1.37-7.16,1.69-2.53,4.6-4,7.39-4.92,3.45-1.19,6.71-2.35,8-6.08a11.13,11.13,0,0,0-1.71-9.85,2.57,2.57,0,0,0-3.42-.89,2.52,2.52,0,0,0-.9,3.42Z"/><path class="cls-4" d="M440.66,120.72a24.86,24.86,0,0,0,2.57-4.29,4.15,4.15,0,0,1,.94-1.36s.58-.39.59-.32-.75.08-.42-.2c.12-.11.3,1,.31,1.1.09.79.07,1.62.09,2.42.05,1.94.06,3.88,0,5.83a132,132,0,0,1-2.36,22.7,2.57,2.57,0,0,0,1.75,3.08,2.51,2.51,0,0,0,3.07-1.75A139.9,139.9,0,0,0,449.78,120c0-3.61.32-10-4.78-10.24a6.22,6.22,0,0,0-4.88,2.32c-1.29,1.53-1.74,3.58-3,5.1a2.57,2.57,0,0,0,0,3.53,2.53,2.53,0,0,0,3.54,0Z"/><path class="cls-4" d="M432.9,102.72c1.11.87,2.55,2.12,2.7,3.62-.05-.17-.06-.11,0,.2,0-.2,0-.14-.07.16.12-.21,0,0-.16.13a8,8,0,0,1-2.23,1.39,33.58,33.58,0,0,0-4.81,2.18,13.07,13.07,0,0,0-4.27,4.26,11.44,11.44,0,0,0-.72,10.08c1.51,3.43,5.38,4.47,8.72,3.15a2.58,2.58,0,0,0,1.75-3.08,2.51,2.51,0,0,0-3.07-1.74,2.87,2.87,0,0,1-2.42.24c-.68-.37-.83-1.91-.81-2.88.06-2.82,1.74-4.9,4.27-6.25,3-1.61,7.1-2.29,8.47-5.89,1.3-3.44-1.17-7.06-3.78-9.1a2.58,2.58,0,0,0-3.54,0,2.51,2.51,0,0,0,0,3.53Z"/><circle class="cls-7" cx="510.46" cy="139.48" r="3.5"/><text class="cls-6" transform="translate(527.74 88.49)">4L in the ones <tspan x="0" y="13.2">place = 4</tspan></text><path class="cls-4" d="M643.68,70.83A59.51,59.51,0,0,0,635,92.24c-1.41,7.3-2.51,16.32,2.49,22.51a48.16,48.16,0,0,0,4.11,4.22,39,39,0,0,0,4.41,4c3.45,2.47,7.82,1.57,11.28-.4,6.18-3.52,9.9-10.37,11.1-17.22a50.1,50.1,0,0,0,.21-14.05c-.43-3.9-.87-8.34-4-11.09a2.56,2.56,0,0,0-3.53,0,2.52,2.52,0,0,0,0,3.54c2.09,1.82,2.27,5,2.56,7.55a52.65,52.65,0,0,1,.24,10.65c-.53,5.68-2.8,11.67-7.46,15.25-1.9,1.46-5,3.22-7.34,1.79A21.37,21.37,0,0,1,645.6,116c-1.28-1.26-2.61-2.48-3.82-3.8a12.09,12.09,0,0,1-2.93-8.28,48,48,0,0,1,.84-9.87A56,56,0,0,1,648,73.35c1.78-2.69-2.55-5.2-4.31-2.52Z"/><path class="cls-4" d="M660,75.61c-2.06-5.94-7.45-8.47-12-12.13-2-1.58-4-3.56-4.63-6.1a7.12,7.12,0,0,1,.37-3.87,9.06,9.06,0,0,1,2-3.86c2.31-2.24-1.23-5.78-3.53-3.53a12.16,12.16,0,0,0-2.73,4.62,15,15,0,0,0-1.2,5.51,13.11,13.11,0,0,0,4,8.7c2.19,2.32,4.91,4,7.5,5.83,2.23,1.58,4.58,3.48,5.51,6.15a2.56,2.56,0,0,0,3.08,1.75A2.52,2.52,0,0,0,660,75.61Z"/><path class="cls-4" d="M655.43,52.18c1.51.21,2.27,1.26,2.91,2.79a27.45,27.45,0,0,1,1.42,5.66A47.18,47.18,0,0,1,660.5,74,21.9,21.9,0,0,1,656,85.55a59.78,59.78,0,0,0-4.54,5.73,28,28,0,0,0-2.88,7.11c-1.55,5.44-3.31,11.57-1.14,17.09a2.56,2.56,0,0,0,3.07,1.74,2.51,2.51,0,0,0,1.75-3.07c-1.89-4.81-.12-10.14,1.26-14.86a20.29,20.29,0,0,1,3.11-6.74c1.54-2,3.37-3.81,4.76-6,5.36-8.25,4.83-18.83,3-28.08-.84-4.31-2.47-10.43-7.67-11.15a2.58,2.58,0,0,0-3.07,1.75c-.32,1.16.4,2.89,1.74,3.07Z"/><path class="cls-4" d="M648.53,129.34a87.92,87.92,0,0,0,.32,14,2.56,2.56,0,0,0,2.5,2.5,2.51,2.51,0,0,0,2.5-2.5,87.92,87.92,0,0,1-.32-14,2.52,2.52,0,0,0-2.5-2.5,2.55,2.55,0,0,0-2.5,2.5Z"/><path class="cls-4" d="M646.73,32.22c.29,9.31,1.36,18.62,1.15,27.94-.07,3.21,4.93,3.21,5,0,.21-9.32-.86-18.63-1.15-27.94-.11-3.21-5.11-3.22-5,0Z"/><circle class="cls-8" cx="726.48" cy="58.66" r="3.5"/><path class="cls-2" d="M753.21,75.13c-1.49-9.6-10.57-15-19.68-15.56"/><path class="cls-2" d="M753.38,75.2l2.9-5.72"/><line class="cls-2" x1="753.38" y1="75.68" x2="747.94" y2="69.48"/><text class="cls-6" transform="translate(736.53 93.01)">1E in the <tspan x="0" y="13.2">hundreds </tspan><tspan x="0" y="26.4">place = 100</tspan></text><path class="cls-2" d="M532,132.19c9.71-.26,16.21-8.59,17.92-17.56"/><path class="cls-2" d="M531.24,132.54l5.75,2.83"/><line class="cls-2" x1="531.12" y1="132.86" x2="537.65" y2="127.81"/><ellipse class="cls-5" cx="118" cy="127.79" rx="2.79" ry="2.81"/><ellipse class="cls-5" cx="118" cy="120.61" rx="2.79" ry="2.81"/><circle class="cls-7" cx="117.69" cy="176.6" r="3.5"/><circle class="cls-8" cx="118.09" cy="69.48" r="3.5"/><text class="cls-9" transform="translate(88 224.69)"><tspan class="cls-10">T</tspan><tspan x="5.71" y="0">otal = 124</tspan></text></svg>