<svg id="Layer_1" data-name="Layer 1" xmlns="http://www.w3.org/2000/svg" viewBox="0 0 1260 800"><defs><style>.cls-1{fill:#f0efeb;}.cls-2,.cls-3,.cls-5,.cls-8{fill:none;}.cls-2{stroke:#bf926b;}.cls-2,.cls-3{stroke-width:2px;}.cls-3{stroke:#d9bba0;}.cls-4{fill:#b23a48;}.cls-5{stroke:#a7a5a6;}.cls-5,.cls-6,.cls-8{stroke-miterlimit:10;}.cls-6{fill:#fff;}.cls-6,.cls-8{stroke:#b23a48;}.cls-7{fill:#8c5230;}.cls-9{font-size:12px;font-family:MyriadPro-Regular, Myriad Pro;}.cls-10{letter-spacing:0.01em;}.cls-11{letter-spacing:-0.01em;}</style></defs><title>quipu</title><rect class="cls-1" width="1260" height="800"/><path class="cls-2" d="M630,40"/><path class="cls-2" d="M630,40"/><path class="cls-2" d="M630,40"/><path class="cls-2" d="M630,40"/><path class="cls-2" d="M630,40"/><path class="cls-2" d="M630,40"/><path class="cls-2" d="M630,40"/><path class="cls-2" d="M630,40"/><path class="cls-2" d="M630,40"/><path class="cls-2" d="M630,40"/><path class="cls-2" d="M630,40"/><path class="cls-2" d="M630,40"/><path class="cls-2" d="M630,40"/><path class="cls-2" d="M630,40"/><path class="cls-2" d="M630,40"/><path class="cls-2" d="M630,40"/><path class="cls-2" d="M630,40"/><path class="cls-2" d="M630,40"/><path class="cls-2" d="M630,40"/><path class="cls-2" d="M630,40"/><path class="cls-2" d="M630,40"/><path class="cls-2" d="M630,40"/><path class="cls-2" d="M630,40"/><path class="cls-2" d="M630,40"/><path class="cls-2" d="M630,40"/><path class="cls-2" d="M630,40"/><path class="cls-2" d="M630,40"/><path class="cls-2" d="M630,40"/><path class="cls-2" d="M630,40"/><path class="cls-2" d="M630,40"/><path class="cls-2" d="M630,40"/><path class="cls-2" d="M630,40"/><path class="cls-2" d="M630,40"/><path class="cls-2" d="M630,40"/><path class="cls-2" d="M630,40"/><path class="cls-2" d="M630,40"/><path class="cls-2" d="M630,40"/><path class="cls-2" d="M630,40"/><path class="cls-2" d="M630,40"/><path class="cls-2" d="M630,40"/><path class="cls-2" d="M630,40"/><path class="cls-2" d="M630,40"/><path class="cls-2" d="M630,40"/><path class="cls-2" d="M630,40"/><path class="cls-2" d="M630,40"/><path class="cls-2" d="M630,40"/><path class="cls-2" d="M630,40"/><path class="cls-2" d="M630,40"/><path class="cls-2" d="M630,40"/><path class="cls-2" d="M630,40"/><path class="cls-2" d="M630,40"/><path class="cls-2" d="M630,40"/><path class="cls-2" d="M630,40"/><path class="cls-2" d="M630,40"/><path class="cls-2" d="M630,40"/><path class="cls-2" d="M630,40"/><path class="cls-2" d="M630,40"/><path class="cls-2" d="M630,40"/><path class="cls-2" d="M630,40"/><path class="cls-2" d="M630,40"/><path class="cls-2" d="M630,40"/><path class="cls-2" d="M630,40"/><path class="cls-2" d="M630,40"/><path class="cls-2" d="M630,40"/><path class="cls-2" d="M630,40"/><path class="cls-2" d="M630,40"/><path class="cls-2" d="M630,40"/><path class="cls-2" d="M630,40"/><path class="cls-2" d="M630,40"/><path class="cls-2" d="M630,40"/><path class="cls-2" d="M630,40"/><path class="cls-2" d="M630,40"/><path class="cls-2" d="M630,40"/><path class="cls-2" d="M630,40"/><path class="cls-2" d="M630,40"/><path class="cls-2" d="M630,40"/><path class="cls-2" d="M630,40"/><path class="cls-2" d="M630,40"/><path class="cls-2" d="M630,40"/><path class="cls-2" d="M630,40"/><path class="cls-2" d="M630,40"/><path class="cls-2" d="M630,40"/><path class="cls-2" d="M630,40"/><path class="cls-2" d="M630,40"/><path class="cls-2" d="M630,40"/><path class="cls-2" d="M630,40"/><path class="cls-2" d="M630,40"/><path class="cls-2" d="M630,40"/><path class="cls-2" d="M630,40"/><path class="cls-2" d="M630,40"/><path class="cls-2" d="M630,40"/><path class="cls-2" d="M630,40"/><path class="cls-2" d="M630,40"/><path class="cls-2" d="M630,40"/><path class="cls-2" d="M630,40"/><path class="cls-2" d="M630,40"/><path class="cls-2" d="M630,40"/><path class="cls-2" d="M630,40"/><path class="cls-2" d="M630,40"/><path class="cls-2" d="M630,40"/><path class="cls-2" d="M630,40"/><path class="cls-2" d="M630,40"/><path class="cls-2" d="M630,40"/><path class="cls-2" d="M630,40"/><path class="cls-2" d="M630,40"/><path class="cls-2" d="M630,40"/><path class="cls-2" d="M630,40"/><path class="cls-2" d="M630,40"/><path class="cls-2" d="M92.3,174.7"/><path class="cls-2" d="M101.3,174.7"/><path class="cls-2" d="M110.4,174.7"/><path class="cls-2" d="M119.4,174.7"/><path class="cls-2" d="M128.5,174.7"/><path class="cls-2" d="M137.5,174.7"/><path class="cls-2" d="M146.6,174.7"/><path class="cls-2" d="M155.7,174.7"/><path class="cls-2" d="M164.7,174.7"/><path class="cls-2" d="M173.8,174.7"/><path class="cls-2" d="M182.8,174.7"/><path class="cls-2" d="M191.9,174.7"/><path class="cls-2" d="M200.9,174.7"/><path class="cls-2" d="M210,174.7"/><path class="cls-2" d="M219.1,174.7"/><path class="cls-2" d="M228.1,174.7"/><path class="cls-2" d="M255.3,174.7"/><path class="cls-2" d="M282.5,174.7"/><path class="cls-2" d="M309.6,174.7"/><path class="cls-2" d="M336.8,174.7"/><path class="cls-2" d="M345.8,174.7"/><path class="cls-2" d="M354.9,174.7"/><path class="cls-2" d="M364,174.7"/><path class="cls-2" d="M373,174.7"/><path class="cls-2" d="M382.1,174.7"/><path class="cls-2" d="M391.1,174.7"/><path class="cls-2" d="M400.2,174.7"/><path class="cls-2" d="M409.2,174.7"/><path class="cls-2" d="M418.3,174.7"/><path class="cls-2" d="M427.4,174.7"/><path class="cls-2" d="M436.4,174.7"/><path class="cls-2" d="M445.5,174.7"/><path class="cls-2" d="M454.5,174.7"/><path class="cls-2" d="M463.6,174.7"/><path class="cls-2" d="M472.6,174.7"/><path class="cls-2" d="M488.5,174.7"/><path class="cls-2" d="M502.1,174.7"/><path class="cls-2" d="M515.7,174.7"/><path class="cls-2" d="M531.5,174.7"/><path class="cls-2" d="M545.1,174.7"/><path class="cls-2" d="M556.4,174.7"/><path class="cls-2" d="M567.7,174.7"/><path class="cls-2" d="M576.8,174.7"/><path class="cls-2" d="M585.8,174.7"/><path class="cls-2" d="M594.9,174.7"/><path class="cls-2" d="M604,174.7"/><path class="cls-2" d="M613,174.7"/><path class="cls-2" d="M622.1,174.7"/><path class="cls-2" d="M631.1,174.7"/><path class="cls-2" d="M640.2,174.7"/><path class="cls-2" d="M649.2,174.7"/><path class="cls-2" d="M658.3,174.7"/><path class="cls-2" d="M667.4,174.7"/><path class="cls-2" d="M676.4,174.7"/><path class="cls-2" d="M685.5,174.7"/><path class="cls-2" d="M694.5,174.7"/><path class="cls-2" d="M703.6,174.7"/><path class="cls-2" d="M712.6,174.7"/><path class="cls-2" d="M721.7,174.7"/><path class="cls-2" d="M730.8,174.7"/><path class="cls-2" d="M739.8,174.7"/><path class="cls-2" d="M748.9,174.7"/><path class="cls-2" d="M757.9,174.7"/><path class="cls-2" d="M767,174.7"/><path class="cls-2" d="M776,174.7"/><path class="cls-2" d="M785.1,174.7"/><path class="cls-2" d="M794.2,174.7"/><path class="cls-2" d="M803.2,174.7"/><path class="cls-2" d="M812.3,174.7"/><path class="cls-2" d="M821.3,174.7"/><path class="cls-2" d="M830.4,174.7"/><path class="cls-2" d="M839.4,174.7"/><path class="cls-2" d="M848.5,174.7"/><path class="cls-2" d="M859.8,174.7"/><path class="cls-2" d="M868.9,174.7"/><path class="cls-2" d="M877.9,174.7"/><path class="cls-2" d="M887,174.7"/><path class="cls-2" d="M896,174.7"/><path class="cls-2" d="M905.1,174.7"/><path class="cls-2" d="M914.2,174.7"/><path class="cls-2" d="M923.2,174.7"/><path class="cls-2" d="M932.3,174.7"/><path class="cls-2" d="M941.3,174.7"/><path class="cls-2" d="M950.4,174.7"/><path class="cls-2" d="M959.4,174.7"/><path class="cls-2" d="M968.5,174.7"/><path class="cls-2" d="M977.5,174.7"/><path class="cls-2" d="M986.6,174.7"/><path class="cls-2" d="M995.7,174.7"/><path class="cls-2" d="M1004.7,174.7"/><path class="cls-2" d="M1013.8,174.7"/><path class="cls-2" d="M1022.8,174.7"/><path class="cls-2" d="M1031.9,174.7"/><path class="cls-2" d="M1040.9,174.7"/><path class="cls-2" d="M1050,174.7"/><path class="cls-2" d="M1059.1,174.7"/><path class="cls-2" d="M1068.1,174.7"/><path class="cls-2" d="M1077.2,174.7"/><path class="cls-2" d="M1086.2,174.7"/><path class="cls-2" d="M1095.3,174.7"/><path class="cls-2" d="M1104.3,174.7"/><path class="cls-2" d="M1113.4,174.7"/><path class="cls-2" d="M1122.5,174.7"/><path class="cls-2" d="M1131.5,174.7"/><path class="cls-2" d="M1140.6,174.7"/><path class="cls-2" d="M1149.6,174.7"/><path class="cls-2" d="M1158.7,174.7"/><path class="cls-2" d="M1167.7,174.7"/><path class="cls-3" d="M92.3,411.3V174.6"/><path class="cls-3" d="M101.3,411.3V174.6"/><path class="cls-3" d="M110.4,411.3V174.6"/><path class="cls-3" d="M119.4,411.3V174.6"/><path class="cls-3" d="M128.5,411.3V174.6"/><path class="cls-3" d="M137.5,411.3V174.6"/><path class="cls-3" d="M146.6,411.3V174.6"/><path class="cls-3" d="M155.7,411.3V174.6"/><path class="cls-3" d="M164.7,411.3V174.6"/><path class="cls-3" d="M173.8,411.3V174.6"/><path class="cls-3" d="M182.8,411.3V174.6"/><path class="cls-3" d="M191.9,411.3V174.6"/><path class="cls-3" d="M200.9,411.3V174.6"/><path class="cls-3" d="M210,411.3V174.6"/><path class="cls-3" d="M219.1,411.3V174.6"/><path class="cls-3" d="M228.1,411.3V174.6"/><path class="cls-3" d="M255.3,411.3V174.6"/><path class="cls-3" d="M282.5,411.3V174.6"/><path class="cls-3" d="M309.6,411.3V174.6"/><path class="cls-3" d="M336.8,411.3V174.6"/><path class="cls-3" d="M345.8,411.3V174.6"/><path class="cls-3" d="M354.9,411.3V174.6"/><path class="cls-3" d="M364,411.3V174.6"/><path class="cls-3" d="M373,411.3V174.6"/><path class="cls-3" d="M382.1,411.3V174.6"/><path class="cls-3" d="M391.1,411.3V174.6"/><path class="cls-3" d="M400.2,411.3V174.6"/><path class="cls-3" d="M409.2,411.3V174.6"/><path class="cls-3" d="M418.3,411.3V174.6"/><path class="cls-3" d="M427.4,411.3V174.6"/><path class="cls-3" d="M436.4,411.3V174.6"/><path class="cls-3" d="M445.5,411.3V174.6"/><path class="cls-3" d="M454.5,411.3V174.6"/><path class="cls-3" d="M463.6,411.3V174.6"/><path class="cls-3" d="M472.6,411.3V174.6"/><path class="cls-3" d="M488.5,411.3V174.6"/><path class="cls-3" d="M502.1,411.3V174.6"/><path class="cls-3" d="M515.7,411.3V174.6"/><path class="cls-3" d="M531.5,411.3V174.6"/><path class="cls-3" d="M545.1,411.3V174.6"/><path class="cls-3" d="M556.4,411.3V174.6"/><path class="cls-3" d="M567.7,411.3V174.6"/><path class="cls-3" d="M576.8,411.3V174.6"/><path class="cls-3" d="M585.8,411.3V174.6"/><path class="cls-3" d="M594.9,411.3V174.6"/><path class="cls-3" d="M604,411.3V174.6"/><path class="cls-3" d="M613,411.3V174.6"/><path class="cls-3" d="M622.1,411.3V174.6"/><path class="cls-3" d="M631.1,411.3V174.6"/><path class="cls-3" d="M640.2,411.3V174.6"/><path class="cls-3" d="M649.2,411.3V174.6"/><path class="cls-3" d="M658.3,411.3V174.6"/><path class="cls-3" d="M667.4,411.3V174.6"/><path class="cls-3" d="M676.4,411.3V174.6"/><path class="cls-3" d="M685.5,411.3V174.6"/><path class="cls-3" d="M694.5,411.3V174.6"/><path class="cls-3" d="M703.6,411.3V174.6"/><path class="cls-3" d="M712.6,411.3V174.6"/><path class="cls-3" d="M721.7,411.3V174.6"/><path class="cls-3" d="M730.8,411.3V174.6"/><path class="cls-3" d="M739.8,411.3V174.6"/><path class="cls-3" d="M748.9,411.3V174.6"/><path class="cls-3" d="M757.9,411.3V174.6"/><path class="cls-3" d="M767,411.3V174.6"/><path class="cls-3" d="M776,411.3V174.6"/><path class="cls-3" d="M785.1,411.3V174.6"/><path class="cls-3" d="M794.2,411.3V174.6"/><path class="cls-3" d="M803.2,411.3V174.6"/><path class="cls-3" d="M812.3,411.3V174.6"/><path class="cls-3" d="M821.3,411.3V174.6"/><path class="cls-3" d="M830.4,411.3V174.6"/><path class="cls-3" d="M839.4,411.3V174.6"/><path class="cls-3" d="M848.5,411.3V174.6"/><path class="cls-3" d="M859.8,411.3V174.6"/><path class="cls-3" d="M868.9,411.3V174.6"/><path class="cls-3" d="M877.9,411.3V174.6"/><path class="cls-3" d="M887,411.3V174.6"/><path class="cls-3" d="M896,411.3V174.6"/><path class="cls-3" d="M905.1,411.3V174.6"/><path class="cls-3" d="M914.2,411.3V174.6"/><path class="cls-3" d="M923.2,411.3V174.6"/><path class="cls-3" d="M932.3,411.3V174.6"/><path class="cls-3" d="M941.3,411.3V174.6"/><path class="cls-3" d="M950.4,411.3V174.6"/><path class="cls-3" d="M959.4,411.3V174.6"/><path class="cls-3" d="M968.5,411.3V174.6"/><path class="cls-3" d="M977.5,411.3V174.6"/><path class="cls-3" d="M986.6,411.3V174.6"/><path class="cls-3" d="M995.7,411.3V174.6"/><path class="cls-3" d="M1004.7,411.3V174.6"/><path class="cls-3" d="M1013.8,411.3V174.6"/><path class="cls-3" d="M1022.8,411.3V174.6"/><path class="cls-3" d="M1031.9,411.3V174.6"/><path class="cls-3" d="M1040.9,411.3V174.6"/><path class="cls-3" d="M1050,411.3V174.6"/><path class="cls-3" d="M1059.1,411.3V174.6"/><path class="cls-3" d="M1068.1,411.3V174.6"/><path class="cls-3" d="M1077.2,411.3V174.6"/><path class="cls-3" d="M1086.2,411.3V174.6"/><path class="cls-3" d="M1095.3,411.3V174.6"/><path class="cls-3" d="M1104.3,411.3V174.6"/><path class="cls-3" d="M1113.4,411.3V174.6"/><path class="cls-3" d="M1122.5,411.3V174.6"/><path class="cls-3" d="M1131.5,411.3V174.6"/><path class="cls-3" d="M1140.6,411.3V174.6"/><path class="cls-3" d="M1149.6,411.3V174.6"/><path class="cls-3" d="M1158.7,411.3V174.6"/><path class="cls-3" d="M1167.7,411.3V174.6"/><path class="cls-2" d="M200.9,648V411.3"/><path class="cls-2" d="M219.1,648c0-118.3,9.1-118.3,9.1-236.7"/><path class="cls-2" d="M223.6,648c0-118.3,4.5-118.3,4.5-236.7"/><path class="cls-2" d="M228.1,648V411.3"/><path class="cls-2" d="M232.6,648c0-118.3-4.5-118.3-4.5-236.7"/><path class="cls-2" d="M237.2,648c0-118.3-9.1-118.3-9.1-236.7"/><path class="cls-2" d="M246.2,648c0-118.3,9.1-118.3,9.1-236.7"/><path class="cls-2" d="M250.8,648c0-118.3,4.5-118.3,4.5-236.7"/><path class="cls-2" d="M255.3,648V411.3"/><path class="cls-2" d="M259.8,648c0-118.3-4.5-118.3-4.5-236.7"/><path class="cls-2" d="M264.3,648c0-118.3-9.1-118.3-9.1-236.7"/><path class="cls-2" d="M273.4,648c0-118.3,9.1-118.3,9.1-236.7"/><path class="cls-2" d="M277.9,648c0-118.3,4.5-118.3,4.5-236.7"/><path class="cls-2" d="M282.5,648V411.3"/><path class="cls-2" d="M287,648c0-118.3-4.5-118.3-4.5-236.7"/><path class="cls-2" d="M291.5,648c0-118.3-9.1-118.3-9.1-236.7"/><path class="cls-2" d="M300.6,648c0-118.3,9.1-118.3,9.1-236.7"/><path class="cls-2" d="M305.1,648c0-118.3,4.5-118.3,4.5-236.7"/><path class="cls-2" d="M309.6,648V411.3"/><path class="cls-2" d="M314.2,648c0-118.3-4.5-118.3-4.5-236.7"/><path class="cls-2" d="M318.7,648c0-118.3-9.1-118.3-9.1-236.7"/><path class="cls-2" d="M327.7,648c0-118.3,9.1-118.3,9.1-236.7"/><path class="cls-2" d="M332.3,648c0-118.3,4.5-118.3,4.5-236.7"/><path class="cls-2" d="M336.8,648V411.3"/><path class="cls-2" d="M341.3,648c0-118.3-4.5-118.3-4.5-236.7"/><path class="cls-2" d="M345.8,648c0-118.3-9.1-118.3-9.1-236.7"/><path class="cls-2" d="M468.1,648c0-118.3,4.5-118.3,4.5-236.7"/><path class="cls-2" d="M472.6,648V411.3"/><path class="cls-2" d="M477.2,648c0-118.3-4.5-118.3-4.5-236.7"/><path class="cls-2" d="M486.2,648c0-118.3,2.3-118.3,2.3-236.7"/><path class="cls-2" d="M490.8,648c0-118.3-2.3-118.3-2.3-236.7"/><path class="cls-2" d="M499.8,648c0-118.3,2.3-118.3,2.3-236.7"/><path class="cls-2" d="M504.3,648c0-118.3-2.3-118.3-2.3-236.7"/><path class="cls-2" d="M513.4,648c0-118.3,2.3-118.3,2.3-236.7"/><path class="cls-2" d="M517.9,648c0-118.3-2.3-118.3-2.3-236.7"/><path class="cls-2" d="M527,648c0-118.3,4.5-118.3,4.5-236.7"/><path class="cls-2" d="M531.5,648V411.3"/><path class="cls-2" d="M536,648c0-118.3-4.5-118.3-4.5-236.7"/><path class="cls-2" d="M545.1,648V411.3"/><path class="cls-2" d="M554.2,648c0-118.3,2.3-118.3,2.3-236.7"/><path class="cls-2" d="M558.7,648c0-118.3-2.3-118.3-2.3-236.7"/><path class="cls-2" d="M567.7,648V411.3"/><path class="cls-2" d="M576.8,648V411.3"/><path class="cls-2" d="M585.8,648V411.3"/><path class="cls-2" d="M594.9,648V411.3"/><path class="cls-2" d="M604,648V411.3"/><path class="cls-2" d="M613,648V411.3"/><path class="cls-2" d="M622.1,648V411.3"/><path class="cls-2" d="M631.1,648V411.3"/><path class="cls-2" d="M676.4,648V411.3"/><path class="cls-2" d="M746.6,648c0-118.3,2.3-118.3,2.3-236.7"/><path class="cls-2" d="M751.1,648c0-118.3-2.3-118.3-2.3-236.7"/><path class="cls-2" d="M773.8,648c0-118.3,2.3-118.3,2.3-236.7"/><path class="cls-2" d="M778.3,648c0-118.3-2.3-118.3-2.3-236.7"/><path class="cls-2" d="M800.9,648c0-118.3,2.3-118.3,2.3-236.7"/><path class="cls-2" d="M805.5,648c0-118.3-2.3-118.3-2.3-236.7"/><path class="cls-2" d="M828.1,648c0-118.3,2.3-118.3,2.3-236.7"/><path class="cls-2" d="M832.6,648c0-118.3-2.3-118.3-2.3-236.7"/><path class="cls-2" d="M846.2,648c0-118.3,2.3-118.3,2.3-236.7"/><path class="cls-2" d="M850.8,648c0-118.3-2.3-118.3-2.3-236.7"/><path class="cls-2" d="M859.8,648V411.3"/><path class="cls-2" d="M877.9,648V411.3"/><path class="cls-2" d="M896,648V411.3"/><path class="cls-2" d="M914.2,648V411.3"/><path class="cls-2" d="M932.3,648V411.3"/><path class="cls-2" d="M950.4,648V411.3"/><path class="cls-2" d="M959.4,648V411.3"/><path class="cls-2" d="M968.5,648V411.3"/><path class="cls-2" d="M977.5,648V411.3"/><path class="cls-2" d="M986.6,648V411.3"/><path class="cls-2" d="M1086.2,648V411.3"/><circle class="cls-4" cx="92.3" cy="380.1" r="3.5"/><line class="cls-5" x1="58.3" y1="173.7" x2="1201.7" y2="173.7"/><circle class="cls-4" cx="101.3" cy="376.1" r="3.5"/><circle class="cls-4" cx="110.4" cy="380.1" r="3.5"/><circle class="cls-4" cx="119.4" cy="376.1" r="3.5"/><circle class="cls-6" cx="128.5" cy="380.1" r="3.5"/><circle class="cls-4" cx="137.5" cy="376.1" r="3.5"/><circle class="cls-4" cx="146.2" cy="380.1" r="3.5"/><circle class="cls-4" cx="155.2" cy="376.1" r="3.5"/><circle class="cls-4" cx="164.3" cy="380.1" r="3.5"/><circle class="cls-4" cx="173.3" cy="376.1" r="3.5"/><circle class="cls-4" cx="182.8" cy="381.6" r="3.5"/><circle class="cls-4" cx="191.9" cy="377.6" r="3.5"/><circle class="cls-4" cx="200.9" cy="381.6" r="3.5"/><circle class="cls-4" cx="200.9" cy="640.1" r="3.5"/><circle class="cls-4" cx="228.2" cy="377.6" r="3.5"/><ellipse class="cls-7" cx="237.2" cy="611.5" rx="1.9" ry="1.8"/><circle class="cls-4" cx="255.21" cy="381.6" r="3.5" transform="translate(-187.52 503.04) rotate(-71.56)"/><ellipse class="cls-7" cx="264.3" cy="611.5" rx="1.9" ry="1.8"/><ellipse class="cls-7" cx="264.3" cy="606.9" rx="1.9" ry="1.8"/><ellipse class="cls-7" cx="264.3" cy="616" rx="1.9" ry="1.8"/><circle class="cls-4" cx="282.5" cy="377.6" r="3.5"/><ellipse class="cls-7" cx="291.5" cy="611.5" rx="1.9" ry="1.8"/><ellipse class="cls-7" cx="291.5" cy="606.9" rx="1.9" ry="1.8"/><ellipse class="cls-7" cx="291.5" cy="616" rx="1.9" ry="1.8"/><ellipse class="cls-7" cx="291.5" cy="602.3" rx="1.9" ry="1.8"/><ellipse class="cls-7" cx="291.5" cy="620.4" rx="1.9" ry="1.8"/><circle class="cls-4" cx="309.4" cy="381.8" r="3.5"/><ellipse class="cls-7" cx="318.7" cy="611.5" rx="1.9" ry="1.8"/><circle class="cls-4" cx="336.7" cy="377.6" r="3.5"/><ellipse class="cls-7" cx="341.3" cy="613.2" rx="1.9" ry="1.8"/><ellipse class="cls-7" cx="341.3" cy="608.7" rx="1.9" ry="1.8"/><circle class="cls-6" cx="345.8" cy="381.6" r="3.5"/><circle class="cls-4" cx="354.9" cy="377.6" r="3.5"/><circle class="cls-4" cx="364" cy="381.8" r="3.5"/><circle class="cls-4" cx="391.5" cy="377.6" r="3.5"/><circle class="cls-4" cx="400.6" cy="381.8" r="3.5"/><circle class="cls-4" cx="409.2" cy="377.6" r="3.5"/><ellipse class="cls-7" cx="436.4" cy="311.6" rx="1.9" ry="1.8"/><ellipse class="cls-7" cx="436.4" cy="307" rx="1.9" ry="1.8"/><ellipse class="cls-7" cx="436.2" cy="316" rx="1.9" ry="1.8"/><ellipse class="cls-7" cx="436.4" cy="302.4" rx="1.9" ry="1.8"/><ellipse class="cls-7" cx="436.4" cy="320.5" rx="1.9" ry="1.8"/><ellipse class="cls-7" cx="445.5" cy="310" rx="1.9" ry="1.8"/><ellipse class="cls-7" cx="445.5" cy="305.5" rx="1.9" ry="1.8"/><ellipse class="cls-7" cx="454.6" cy="304.3" rx="1.9" ry="1.8"/><ellipse class="cls-7" cx="454.6" cy="299.7" rx="1.9" ry="1.8"/><ellipse class="cls-7" cx="454.4" cy="308.7" rx="1.9" ry="1.8"/><ellipse class="cls-7" cx="454.6" cy="295.1" rx="1.9" ry="1.8"/><ellipse class="cls-7" cx="454.6" cy="313.2" rx="1.9" ry="1.8"/><ellipse class="cls-7" cx="454.6" cy="322.3" rx="1.9" ry="1.8"/><ellipse class="cls-7" cx="454.6" cy="317.7" rx="1.9" ry="1.8"/><ellipse class="cls-7" cx="463.6" cy="309.8" rx="1.9" ry="1.8"/><ellipse class="cls-7" cx="472.6" cy="314.1" rx="1.9" ry="1.8"/><ellipse class="cls-7" cx="472.6" cy="309.5" rx="1.9" ry="1.8"/><ellipse class="cls-7" cx="472.6" cy="304.9" rx="1.9" ry="1.8"/><circle class="cls-4" cx="472.7" cy="639.3" r="3.5"/><ellipse class="cls-7" cx="477.2" cy="615" rx="1.9" ry="1.8"/><ellipse class="cls-7" cx="477.2" cy="610.4" rx="1.9" ry="1.8"/><ellipse class="cls-7" cx="488.5" cy="314.1" rx="1.9" ry="1.8"/><ellipse class="cls-7" cx="488.5" cy="309.5" rx="1.9" ry="1.8"/><ellipse class="cls-7" cx="488.5" cy="304.9" rx="1.9" ry="1.8"/><circle class="cls-6" cx="486.2" cy="639.3" r="3.5"/><ellipse class="cls-7" cx="490.8" cy="610.4" rx="1.9" ry="1.8"/><circle class="cls-4" cx="490.8" cy="632.3" r="3.5"/><ellipse class="cls-7" cx="502.1" cy="313.3" rx="1.9" ry="1.8"/><ellipse class="cls-7" cx="502.1" cy="308.7" rx="1.9" ry="1.8"/><ellipse class="cls-7" cx="502.1" cy="304.2" rx="1.9" ry="1.8"/><circle class="cls-4" cx="499.5" cy="640.7" r="3.5"/><circle class="cls-4" cx="504.3" cy="632.3" r="3.5"/><ellipse class="cls-7" cx="504.3" cy="614.4" rx="1.9" ry="1.8"/><ellipse class="cls-7" cx="504.3" cy="609.9" rx="1.9" ry="1.8"/><ellipse class="cls-7" cx="515.7" cy="309.5" rx="1.9" ry="1.8"/><ellipse class="cls-7" cx="515.7" cy="304.9" rx="1.9" ry="1.8"/><circle class="cls-4" cx="515.7" cy="377.6" r="3.5"/><ellipse class="cls-7" cx="517.9" cy="609.9" rx="1.9" ry="1.8"/><circle class="cls-4" cx="517.9" cy="632.3" r="3.5"/><ellipse class="cls-7" cx="531.5" cy="313.3" rx="1.9" ry="1.8"/><ellipse class="cls-7" cx="531.5" cy="308.7" rx="1.9" ry="1.8"/><ellipse class="cls-7" cx="531.5" cy="304.2" rx="1.9" ry="1.8"/><circle class="cls-4" cx="527" cy="640.7" r="3.5"/><ellipse class="cls-7" cx="536" cy="609.9" rx="1.9" ry="1.8"/><circle class="cls-4" cx="536" cy="640.7" r="3.5"/><ellipse class="cls-7" cx="545.1" cy="313.3" rx="1.9" ry="1.8"/><ellipse class="cls-7" cx="545.1" cy="308.7" rx="1.9" ry="1.8"/><ellipse class="cls-7" cx="545.1" cy="304.2" rx="1.9" ry="1.8"/><circle class="cls-6" cx="545.1" cy="640.7" r="3.5"/><ellipse class="cls-7" cx="556.4" cy="313.3" rx="1.9" ry="1.8"/><ellipse class="cls-7" cx="556.4" cy="308.7" rx="1.9" ry="1.8"/><ellipse class="cls-7" cx="556.4" cy="304.2" rx="1.9" ry="1.8"/><circle class="cls-6" cx="558.7" cy="637.7" r="3.5"/><circle class="cls-6" cx="567.7" cy="640.7" r="3.5"/><circle class="cls-6" cx="576.8" cy="637.7" r="3.5"/><circle class="cls-6" cx="585.8" cy="640.7" r="3.5"/><circle class="cls-6" cx="594.9" cy="636.7" r="3.5"/><circle class="cls-6" cx="604" cy="640.7" r="3.5"/><circle class="cls-6" cx="613" cy="636.7" r="3.5"/><circle class="cls-6" cx="622.1" cy="640.7" r="3.5"/><ellipse class="cls-7" cx="567.7" cy="304.3" rx="1.9" ry="1.8"/><ellipse class="cls-7" cx="567.7" cy="313.5" rx="1.9" ry="1.8"/><ellipse class="cls-7" cx="567.7" cy="309" rx="1.9" ry="1.8"/><ellipse class="cls-7" cx="576.8" cy="310" rx="1.9" ry="1.8"/><circle class="cls-4" cx="576.8" cy="377.6" r="3.5"/><ellipse class="cls-7" cx="585.8" cy="303.9" rx="1.9" ry="1.8"/><ellipse class="cls-7" cx="585.8" cy="313.1" rx="1.9" ry="1.8"/><ellipse class="cls-7" cx="585.8" cy="308.6" rx="1.9" ry="1.8"/><ellipse class="cls-7" cx="594.9" cy="310" rx="1.9" ry="1.8"/><circle class="cls-4" cx="604" cy="377.6" r="3.5"/><ellipse class="cls-7" cx="613" cy="310" rx="1.9" ry="1.8"/><circle class="cls-4" cx="622.1" cy="377.6" r="3.5"/><circle class="cls-4" cx="631.1" cy="372.4" r="3.5"/><circle class="cls-6" cx="640.2" cy="377.6" r="3.5"/><circle class="cls-4" cx="649.2" cy="372.4" r="3.5"/><circle class="cls-6" cx="658.1" cy="376.7" r="3.5"/><circle class="cls-4" cx="667.1" cy="371.5" r="3.5"/><circle class="cls-4" cx="676.4" cy="377.6" r="3.5"/><circle class="cls-4" cx="676.5" cy="640.7" r="3.5"/><ellipse class="cls-7" cx="685.5" cy="307.7" rx="1.9" ry="1.8"/><ellipse class="cls-7" cx="685.5" cy="312.4" rx="1.9" ry="1.8"/><ellipse class="cls-7" cx="685.5" cy="370.4" rx="1.9" ry="1.8"/><ellipse class="cls-7" cx="685.5" cy="379.6" rx="1.9" ry="1.8"/><ellipse class="cls-7" cx="685.5" cy="375.1" rx="1.9" ry="1.8"/><circle class="cls-6" cx="694.5" cy="377.6" r="3.5"/><circle class="cls-4" cx="703.6" cy="371.5" r="3.5"/><circle class="cls-6" cx="712.8" cy="378" r="3.5"/><circle class="cls-4" cx="721.8" cy="372.9" r="3.5"/><circle class="cls-6" cx="730.7" cy="377.1" r="3.5"/><circle class="cls-4" cx="739.7" cy="372" r="3.5"/><circle class="cls-4" cx="748.9" cy="377.6" r="3.5"/><ellipse class="cls-7" cx="746.6" cy="609.8" rx="1.9" ry="1.8"/><circle class="cls-6" cx="746.6" cy="640.7" r="3.5"/><circle class="cls-4" cx="758.3" cy="371.6" r="3.5"/><circle class="cls-4" cx="767.5" cy="377.3" r="3.5"/><ellipse class="cls-7" cx="776" cy="309" rx="1.9" ry="1.8"/><circle class="cls-4" cx="776.1" cy="371.5" r="3.5"/><ellipse class="cls-7" cx="773.8" cy="610.6" rx="1.9" ry="1.8"/><circle class="cls-6" cx="773.8" cy="641.4" r="3.5"/><circle class="cls-6" cx="778.3" cy="634.2" r="3.5"/><circle class="cls-4" cx="785.8" cy="379.7" r="3.5"/><circle class="cls-4" cx="794.5" cy="373.9" r="3.5"/><ellipse class="cls-7" cx="803.2" cy="303" rx="1.9" ry="1.8"/><ellipse class="cls-7" cx="803.2" cy="312.2" rx="1.9" ry="1.8"/><ellipse class="cls-7" cx="803.2" cy="307.7" rx="1.9" ry="1.8"/><ellipse class="cls-7" cx="800.9" cy="611.6" rx="1.9" ry="1.8"/><circle class="cls-6" cx="800.9" cy="641.4" r="3.5"/><circle class="cls-4" cx="805.5" cy="634.2" r="3.5"/><circle class="cls-6" cx="821.3" cy="379.6" r="3.5"/><circle class="cls-4" cx="830.3" cy="371.6" r="3.5"/><circle class="cls-4" cx="828.1" cy="641.7" r="3.5"/><circle class="cls-6" cx="832.6" cy="634.2" r="3.5"/><circle class="cls-6" cx="839.4" cy="379.6" r="3.5"/><circle class="cls-4" cx="848.5" cy="372" r="3.5"/><circle class="cls-6" cx="846.2" cy="641.8" r="3.5"/><circle class="cls-6" cx="850.8" cy="634.6" r="3.5"/><ellipse class="cls-7" cx="846.2" cy="610.6" rx="1.9" ry="1.8"/><circle class="cls-4" cx="859.8" cy="379.6" r="3.5"/><circle class="cls-6" cx="859.8" cy="641.4" r="3.5"/><circle class="cls-4" cx="877.9" cy="634.2" r="3.5"/><circle class="cls-6" cx="868.9" cy="371.6" r="3.5"/><circle class="cls-4" cx="877.9" cy="379.6" r="3.5"/><circle class="cls-6" cx="886.8" cy="371" r="3.5"/><circle class="cls-4" cx="895.8" cy="379" r="3.5"/><circle class="cls-4" cx="896" cy="641.8" r="3.5"/><circle class="cls-6" cx="914.2" cy="634.6" r="3.5"/><circle class="cls-4" cx="905.3" cy="371" r="3.5"/><circle class="cls-6" cx="914.4" cy="379" r="3.5"/><circle class="cls-4" cx="923.2" cy="370.4" r="3.5"/><circle class="cls-4" cx="932.3" cy="379" r="3.5"/><circle class="cls-4" cx="941.3" cy="370.4" r="3.5"/><ellipse class="cls-7" cx="950.4" cy="302.1" rx="1.9" ry="1.8"/><ellipse class="cls-7" cx="950.4" cy="237" rx="1.9" ry="1.8"/><circle class="cls-4" cx="950.4" cy="378" r="3.5"/><ellipse class="cls-7" cx="959.4" cy="237" rx="1.9" ry="1.8"/><ellipse class="cls-7" cx="959.4" cy="298.7" rx="1.9" ry="1.8"/><ellipse class="cls-7" cx="959.4" cy="303.4" rx="1.9" ry="1.8"/><circle class="cls-4" cx="959.4" cy="370.4" r="3.5"/><ellipse class="cls-7" cx="968.5" cy="237" rx="1.9" ry="1.8"/><ellipse class="cls-7" cx="968.4" cy="301.5" rx="1.9" ry="1.8"/><ellipse class="cls-7" cx="968.3" cy="305.7" rx="1.9" ry="1.8"/><ellipse class="cls-7" cx="968.5" cy="292.1" rx="1.9" ry="1.8"/><ellipse class="cls-7" cx="968.5" cy="310.2" rx="1.9" ry="1.8"/><ellipse class="cls-7" cx="968.5" cy="319.2" rx="1.9" ry="1.8"/><ellipse class="cls-7" cx="968.5" cy="314.7" rx="1.9" ry="1.8"/><ellipse class="cls-7" cx="968.5" cy="296.4" rx="1.9" ry="1.8"/><ellipse class="cls-7" cx="968.5" cy="324.5" rx="1.9" ry="1.8"/><circle class="cls-4" cx="968.5" cy="378" r="3.5"/><ellipse class="cls-7" cx="968.4" cy="626.4" rx="1.9" ry="1.8"/><ellipse class="cls-7" cx="968.4" cy="636.1" rx="1.9" ry="1.8"/><ellipse class="cls-7" cx="968.4" cy="631.5" rx="1.9" ry="1.8"/><ellipse class="cls-7" cx="968.4" cy="621.3" rx="1.9" ry="1.8"/><ellipse class="cls-7" cx="968.4" cy="641.3" rx="1.9" ry="1.8"/><ellipse class="cls-7" cx="977.4" cy="310.7" rx="1.9" ry="1.8"/><ellipse class="cls-7" cx="977.6" cy="297.1" rx="1.9" ry="1.8"/><ellipse class="cls-7" cx="977.6" cy="301.5" rx="1.9" ry="1.8"/><ellipse class="cls-7" cx="977.4" cy="306.7" rx="1.9" ry="1.8"/><ellipse class="cls-7" cx="986.6" cy="298" rx="1.9" ry="1.8"/><ellipse class="cls-7" cx="986.5" cy="302.2" rx="1.9" ry="1.8"/><ellipse class="cls-7" cx="986.7" cy="306.7" rx="1.9" ry="1.8"/><ellipse class="cls-7" cx="986.7" cy="311.2" rx="1.9" ry="1.8"/><ellipse class="cls-7" cx="986.7" cy="293" rx="1.9" ry="1.8"/><ellipse class="cls-7" cx="995.7" cy="237" rx="1.9" ry="1.8"/><ellipse class="cls-7" cx="995.7" cy="298.7" rx="1.9" ry="1.8"/><ellipse class="cls-7" cx="995.7" cy="303.4" rx="1.9" ry="1.8"/><circle class="cls-4" cx="995.7" cy="378" r="3.5"/><circle class="cls-4" cx="1004.7" cy="370.4" r="3.5"/><ellipse class="cls-7" cx="1004.7" cy="301.6" rx="1.9" ry="1.8"/><ellipse class="cls-7" cx="1004.6" cy="305.8" rx="1.9" ry="1.8"/><ellipse class="cls-7" cx="1004.8" cy="292.2" rx="1.9" ry="1.8"/><ellipse class="cls-7" cx="1004.8" cy="310.3" rx="1.9" ry="1.8"/><ellipse class="cls-7" cx="1004.8" cy="319.4" rx="1.9" ry="1.8"/><ellipse class="cls-7" cx="1004.8" cy="314.8" rx="1.9" ry="1.8"/><ellipse class="cls-7" cx="1004.8" cy="296.6" rx="1.9" ry="1.8"/><ellipse class="cls-7" cx="1004.8" cy="324.6" rx="1.9" ry="1.8"/><ellipse class="cls-7" cx="1004.8" cy="237" rx="1.9" ry="1.8"/><ellipse class="cls-7" cx="1013.8" cy="292.6" rx="1.9" ry="1.8"/><ellipse class="cls-7" cx="1013.7" cy="296.8" rx="1.9" ry="1.8"/><ellipse class="cls-7" cx="1013.9" cy="301.3" rx="1.9" ry="1.8"/><ellipse class="cls-7" cx="1013.9" cy="305.8" rx="1.9" ry="1.8"/><ellipse class="cls-7" cx="1013.9" cy="236.6" rx="1.9" ry="1.8"/><ellipse class="cls-7" cx="1013.9" cy="241" rx="1.9" ry="1.8"/><circle class="cls-4" cx="1014.2" cy="378.3" r="3.5"/><path class="cls-7" d="M1022.8,290.5a1.8,1.8,0,1,1-1.9,1.8A1.88,1.88,0,0,1,1022.8,290.5Z"/><path class="cls-7" d="M1022.7,294.7a1.8,1.8,0,1,1-1.9,1.8A1.88,1.88,0,0,1,1022.7,294.7Z"/><ellipse class="cls-7" cx="1022.9" cy="301" rx="1.9" ry="1.8"/><ellipse class="cls-7" cx="1022.9" cy="305.5" rx="1.9" ry="1.8"/><ellipse class="cls-7" cx="1031.9" cy="292" rx="1.9" ry="1.8"/><ellipse class="cls-7" cx="1031.8" cy="296.2" rx="1.9" ry="1.8"/><ellipse class="cls-7" cx="1032" cy="300.7" rx="1.9" ry="1.8"/><ellipse class="cls-7" cx="1032" cy="305.2" rx="1.9" ry="1.8"/><ellipse class="cls-7" cx="1032" cy="310.2" rx="1.9" ry="1.8"/><circle class="cls-4" cx="1040.9" cy="370.4" r="3.5"/><circle class="cls-4" cx="1050" cy="378.3" r="3.5"/><ellipse class="cls-7" cx="1050" cy="292.1" rx="1.9" ry="1.8"/><ellipse class="cls-7" cx="1059.1" cy="292.5" rx="1.9" ry="1.8"/><ellipse class="cls-7" cx="1059" cy="296.7" rx="1.9" ry="1.8"/><ellipse class="cls-7" cx="1059.2" cy="301.2" rx="1.9" ry="1.8"/><ellipse class="cls-7" cx="1059.2" cy="236.6" rx="1.9" ry="1.8"/><ellipse class="cls-7" cx="1077.2" cy="294.4" rx="1.9" ry="1.8"/><ellipse class="cls-7" cx="1077.2" cy="298.6" rx="1.9" ry="1.8"/><ellipse class="cls-7" cx="1086.2" cy="292.9" rx="1.9" ry="1.8"/><circle class="cls-4" cx="1086.2" cy="370.4" r="3.5"/><circle class="cls-4" cx="1086.2" cy="641.3" r="3.5"/><ellipse class="cls-7" cx="1095" cy="296.1" rx="1.9" ry="1.8"/><ellipse class="cls-7" cx="1104" cy="294.7" rx="1.9" ry="1.8"/><ellipse class="cls-7" cx="1113.4" cy="294.8" rx="1.9" ry="1.8"/><circle class="cls-4" cx="1095" cy="378" r="3.5"/><circle class="cls-6" cx="1103.9" cy="371" r="3.5"/><circle class="cls-4" cx="1122.5" cy="378" r="3.5"/><ellipse class="cls-7" cx="1122.5" cy="236.6" rx="1.9" ry="1.8"/><line class="cls-8" x1="158.7" y1="144.47" x2="186.3" y2="93.99"/><text class="cls-9" transform="translate(161.39 83.59)"><tspan class="cls-10">M</tspan><tspan x="9.72" y="0">ain cho</tspan><tspan class="cls-11" x="46.14" y="0">r</tspan><tspan x="49.94" y="0">d</tspan></text></svg>