<svg version="1.1" id="Layer_1" xmlns="http://www.w3.org/2000/svg" xmlns:xlink="http://www.w3.org/1999/xlink" x="0px" y="0px"
	 viewBox="0 0 1260 800" style="enable-background:new 0 0 1260 800;" xml:space="preserve">
<style type="text/css">
	.st0{fill:none;stroke:#BF9673;stroke-width:2;}
	.st1{fill:none;stroke:#BF9E75;stroke-width:2;}
	.st2{fill:#B23A48;}
	.st3{fill:none;stroke:#A7A5A6;stroke-miterlimit:10;}
	.st4{fill:#FFFFFF;stroke:#B23A48;stroke-miterlimit:10;}
	.st5{fill:#8C694A;}
	.st6{fill:none;stroke:#D9D9D9;}
	.st7{fill:none;}
	.st8{font-family:'Roboto-Regular';}
	.st9{font-size:12px;}
	.st10{fill:#4C4C4C;}
	.st11{font-family:'Roboto-Italic';}
	.st12{font-size:11px;}
	.st13{fill:none;stroke:#221F1F;stroke-miterlimit:10;}
	.st14{fill:none;stroke:#BF9E75;}
	.st15{fill:none;stroke:#CCCCCC;stroke-miterlimit:10;}
	.st16{fill:none;stroke:#8C8C8C;stroke-width:0.5;stroke-miterlimit:10;}
	.st17{fill:#8C8C8C;}
	.st18{font-family:'OpenSans-Regular';}
</style>
<path class="st0" d="M630,40"/>
<path class="st0" d="M630,40"/>
<path class="st0" d="M630,40"/>
<path class="st0" d="M630,40"/>
<path class="st0" d="M630,40"/>
<path class="st0" d="M630,40"/>
<path class="st0" d="M630,40"/>
<path class="st0" d="M630,40"/>
<path class="st0" d="M630,40"/>
<path class="st0" d="M630,40"/>
<path class="st0" d="M630,40"/>
<path class="st0" d="M630,40"/>
<path class="st0" d="M630,40"/>
<path class="st0" d="M630,40"/>
<path class="st0" d="M630,40"/>
<path class="st0" d="M630,40"/>
<path class="st0" d="M630,40"/>
<path class="st0" d="M630,40"/>
<path class="st0" d="M630,40"/>
<path class="st0" d="M630,40"/>
<path class="st0" d="M630,40"/>
<path class="st0" d="M630,40"/>
<path class="st0" d="M630,40"/>
<path class="st0" d="M630,40"/>
<path class="st0" d="M630,40"/>
<path class="st0" d="M630,40"/>
<path class="st0" d="M630,40"/>
<path class="st0" d="M630,40"/>
<path class="st0" d="M630,40"/>
<path class="st0" d="M630,40"/>
<path class="st0" d="M630,40"/>
<path class="st0" d="M630,40"/>
<path class="st0" d="M630,40"/>
<path class="st0" d="M630,40"/>
<path class="st0" d="M630,40"/>
<path class="st0" d="M630,40"/>
<path class="st0" d="M630,40"/>
<path class="st0" d="M630,40"/>
<path class="st0" d="M630,40"/>
<path class="st0" d="M630,40"/>
<path class="st0" d="M630,40"/>
<path class="st0" d="M630,40"/>
<path class="st0" d="M630,40"/>
<path class="st0" d="M630,40"/>
<path class="st0" d="M630,40"/>
<path class="st0" d="M630,40"/>
<path class="st0" d="M630,40"/>
<path class="st0" d="M630,40"/>
<path class="st0" d="M630,40"/>
<path class="st0" d="M630,40"/>
<path class="st0" d="M630,40"/>
<path class="st0" d="M630,40"/>
<path class="st0" d="M630,40"/>
<path class="st0" d="M630,40"/>
<path class="st0" d="M630,40"/>
<path class="st0" d="M630,40"/>
<path class="st0" d="M630,40"/>
<path class="st0" d="M630,40"/>
<path class="st0" d="M630,40"/>
<path class="st0" d="M630,40"/>
<path class="st0" d="M630,40"/>
<path class="st0" d="M630,40"/>
<path class="st0" d="M630,40"/>
<path class="st0" d="M630,40"/>
<path class="st0" d="M630,40"/>
<path class="st0" d="M630,40"/>
<path class="st0" d="M630,40"/>
<path class="st0" d="M630,40"/>
<path class="st0" d="M630,40"/>
<path class="st0" d="M630,40"/>
<path class="st0" d="M630,40"/>
<path class="st0" d="M630,40"/>
<path class="st0" d="M630,40"/>
<path class="st0" d="M630,40"/>
<path class="st0" d="M630,40"/>
<path class="st0" d="M630,40"/>
<path class="st0" d="M630,40"/>
<path class="st0" d="M630,40"/>
<path class="st0" d="M630,40"/>
<path class="st0" d="M630,40"/>
<path class="st0" d="M630,40"/>
<path class="st0" d="M630,40"/>
<path class="st0" d="M630,40"/>
<path class="st0" d="M630,40"/>
<path class="st0" d="M630,40"/>
<path class="st0" d="M630,40"/>
<path class="st0" d="M630,40"/>
<path class="st0" d="M630,40"/>
<path class="st0" d="M630,40"/>
<path class="st0" d="M630,40"/>
<path class="st0" d="M630,40"/>
<path class="st0" d="M630,40"/>
<path class="st0" d="M630,40"/>
<path class="st0" d="M630,40"/>
<path class="st0" d="M630,40"/>
<path class="st0" d="M630,40"/>
<path class="st0" d="M630,40"/>
<path class="st0" d="M630,40"/>
<path class="st0" d="M630,40"/>
<path class="st0" d="M630,40"/>
<path class="st0" d="M630,40"/>
<path class="st0" d="M630,40"/>
<path class="st0" d="M630,40"/>
<path class="st0" d="M630,40"/>
<path class="st0" d="M630,40"/>
<path class="st0" d="M630,40"/>
<path class="st0" d="M630,40"/>
<path class="st0" d="M630,40"/>
<g>
	<path class="st0" d="M92.3,174.7"/>
	<path class="st0" d="M101.3,174.7"/>
	<path class="st0" d="M110.4,174.7"/>
	<path class="st0" d="M119.4,174.7"/>
	<path class="st0" d="M128.5,174.7"/>
	<path class="st0" d="M137.5,174.7"/>
	<path class="st0" d="M146.6,174.7"/>
	<path class="st0" d="M155.7,174.7"/>
	<path class="st0" d="M164.7,174.7"/>
	<path class="st0" d="M173.8,174.7"/>
	<path class="st0" d="M182.8,174.7"/>
	<path class="st0" d="M191.9,174.7"/>
	<path class="st0" d="M200.9,174.7"/>
	<path class="st0" d="M210,174.7"/>
	<path class="st0" d="M219.1,174.7"/>
	<path class="st0" d="M228.1,174.7"/>
	<path class="st0" d="M255.3,174.7"/>
	<path class="st0" d="M282.5,174.7"/>
	<path class="st0" d="M309.6,174.7"/>
	<path class="st0" d="M336.8,174.7"/>
	<path class="st0" d="M345.8,174.7"/>
	<path class="st0" d="M354.9,174.7"/>
	<path class="st0" d="M364,174.7"/>
	<path class="st0" d="M373,174.7"/>
	<path class="st0" d="M382.1,174.7"/>
	<path class="st0" d="M391.1,174.7"/>
	<path class="st0" d="M400.2,174.7"/>
	<path class="st0" d="M409.2,174.7"/>
	<path class="st0" d="M418.3,174.7"/>
	<path class="st0" d="M427.4,174.7"/>
	<path class="st0" d="M436.4,174.7"/>
	<path class="st0" d="M445.5,174.7"/>
	<path class="st0" d="M454.5,174.7"/>
	<path class="st0" d="M463.6,174.7"/>
	<path class="st0" d="M472.6,174.7"/>
	<path class="st0" d="M488.5,174.7"/>
	<path class="st0" d="M502.1,174.7"/>
	<path class="st0" d="M515.7,174.7"/>
	<path class="st0" d="M531.5,174.7"/>
	<path class="st0" d="M545.1,174.7"/>
	<path class="st0" d="M556.4,174.7"/>
	<path class="st0" d="M567.7,174.7"/>
	<path class="st0" d="M576.8,174.7"/>
	<path class="st0" d="M585.8,174.7"/>
	<path class="st0" d="M594.9,174.7"/>
	<path class="st0" d="M604,174.7"/>
	<path class="st0" d="M613,174.7"/>
	<path class="st0" d="M622.1,174.7"/>
	<path class="st0" d="M631.1,174.7"/>
	<path class="st0" d="M640.2,174.7"/>
	<path class="st0" d="M649.2,174.7"/>
	<path class="st0" d="M658.3,174.7"/>
	<path class="st0" d="M667.4,174.7"/>
	<path class="st0" d="M676.4,174.7"/>
	<path class="st0" d="M685.5,174.7"/>
	<path class="st0" d="M694.5,174.7"/>
	<path class="st0" d="M703.6,174.7"/>
	<path class="st0" d="M712.6,174.7"/>
	<path class="st0" d="M721.7,174.7"/>
	<path class="st0" d="M730.8,174.7"/>
	<path class="st0" d="M739.8,174.7"/>
	<path class="st0" d="M748.9,174.7"/>
	<path class="st0" d="M757.9,174.7"/>
	<path class="st0" d="M767,174.7"/>
	<path class="st0" d="M776,174.7"/>
	<path class="st0" d="M785.1,174.7"/>
	<path class="st0" d="M794.2,174.7"/>
	<path class="st0" d="M803.2,174.7"/>
	<path class="st0" d="M812.3,174.7"/>
	<path class="st0" d="M821.3,174.7"/>
	<path class="st0" d="M830.4,174.7"/>
	<path class="st0" d="M839.4,174.7"/>
	<path class="st0" d="M848.5,174.7"/>
	<path class="st0" d="M859.8,174.7"/>
	<path class="st0" d="M868.9,174.7"/>
	<path class="st0" d="M877.9,174.7"/>
	<path class="st0" d="M887,174.7"/>
	<path class="st0" d="M896,174.7"/>
	<path class="st0" d="M905.1,174.7"/>
	<path class="st0" d="M914.2,174.7"/>
	<path class="st0" d="M923.2,174.7"/>
	<path class="st0" d="M932.3,174.7"/>
	<path class="st0" d="M941.3,174.7"/>
	<path class="st0" d="M950.4,174.7"/>
	<path class="st0" d="M959.4,174.7"/>
	<path class="st0" d="M968.5,174.7"/>
	<path class="st0" d="M977.5,174.7"/>
	<path class="st0" d="M986.6,174.7"/>
	<path class="st0" d="M995.7,174.7"/>
	<path class="st0" d="M1004.7,174.7"/>
	<path class="st0" d="M1013.8,174.7"/>
	<path class="st0" d="M1022.8,174.7"/>
	<path class="st0" d="M1031.9,174.7"/>
	<path class="st0" d="M1040.9,174.7"/>
	<path class="st0" d="M1050,174.7"/>
	<path class="st0" d="M1059.1,174.7"/>
	<path class="st0" d="M1068.1,174.7"/>
	<path class="st0" d="M1077.2,174.7"/>
	<path class="st0" d="M1086.2,174.7"/>
	<path class="st0" d="M1095.3,174.7"/>
	<path class="st0" d="M1104.3,174.7"/>
	<path class="st0" d="M1113.4,174.7"/>
	<path class="st0" d="M1122.5,174.7"/>
	<path class="st0" d="M1131.5,174.7"/>
	<path class="st0" d="M1140.6,174.7"/>
	<path class="st0" d="M1149.6,174.7"/>
	<path class="st0" d="M1158.7,174.7"/>
	<path class="st0" d="M1167.7,174.7"/>
	<path class="st1" d="M92.3,411.3c0-118.3,0-118.3,0-236.7"/>
	<path class="st1" d="M101.3,411.3c0-118.3,0-118.3,0-236.7"/>
	<path class="st1" d="M110.4,411.3c0-118.3,0-118.3,0-236.7"/>
	<path class="st1" d="M119.4,411.3c0-118.3,0-118.3,0-236.7"/>
	<path class="st1" d="M128.5,411.3c0-118.3,0-118.3,0-236.7"/>
	<path class="st1" d="M137.5,411.3c0-118.3,0-118.3,0-236.7"/>
	<path class="st1" d="M146.6,411.3c0-118.3,0-118.3,0-236.7"/>
	<path class="st1" d="M155.7,411.3c0-118.3,0-118.3,0-236.7"/>
	<path class="st1" d="M164.7,411.3c0-118.3,0-118.3,0-236.7"/>
	<path class="st1" d="M173.8,411.3c0-118.3,0-118.3,0-236.7"/>
	<path class="st1" d="M182.8,411.3c0-118.3,0-118.3,0-236.7"/>
	<path class="st1" d="M191.9,411.3c0-118.3,0-118.3,0-236.7"/>
	<path class="st1" d="M200.9,411.3c0-118.3,0-118.3,0-236.7"/>
	<path class="st1" d="M210,411.3c0-118.3,0-118.3,0-236.7"/>
	<path class="st1" d="M219.1,411.3c0-118.3,0-118.3,0-236.7"/>
	<path class="st1" d="M228.1,411.3c0-118.3,0-118.3,0-236.7"/>
	<path class="st1" d="M255.3,411.3c0-118.3,0-118.3,0-236.7"/>
	<path class="st1" d="M282.5,411.3c0-118.3,0-118.3,0-236.7"/>
	<path class="st1" d="M309.6,411.3c0-118.3,0-118.3,0-236.7"/>
	<path class="st1" d="M336.8,411.3c0-118.3,0-118.3,0-236.7"/>
	<path class="st1" d="M345.8,411.3c0-118.3,0-118.3,0-236.7"/>
	<path class="st1" d="M354.9,411.3c0-118.3,0-118.3,0-236.7"/>
	<path class="st1" d="M364,411.3c0-118.3,0-118.3,0-236.7"/>
	<path class="st1" d="M373,411.3c0-118.3,0-118.3,0-236.7"/>
	<path class="st1" d="M382.1,411.3c0-118.3,0-118.3,0-236.7"/>
	<path class="st1" d="M391.1,411.3c0-118.3,0-118.3,0-236.7"/>
	<path class="st1" d="M400.2,411.3c0-118.3,0-118.3,0-236.7"/>
	<path class="st1" d="M409.2,411.3c0-118.3,0-118.3,0-236.7"/>
	<path class="st1" d="M418.3,411.3c0-118.3,0-118.3,0-236.7"/>
	<path class="st1" d="M427.4,411.3c0-118.3,0-118.3,0-236.7"/>
	<path class="st1" d="M436.4,411.3c0-118.3,0-118.3,0-236.7"/>
	<path class="st1" d="M445.5,411.3c0-118.3,0-118.3,0-236.7"/>
	<path class="st1" d="M454.5,411.3c0-118.3,0-118.3,0-236.7"/>
	<path class="st1" d="M463.6,411.3c0-118.3,0-118.3,0-236.7"/>
	<path class="st1" d="M472.6,411.3c0-118.3,0-118.3,0-236.7"/>
	<path class="st1" d="M488.5,411.3c0-118.3,0-118.3,0-236.7"/>
	<path class="st1" d="M502.1,411.3c0-118.3,0-118.3,0-236.7"/>
	<path class="st1" d="M515.7,411.3c0-118.3,0-118.3,0-236.7"/>
	<path class="st1" d="M531.5,411.3c0-118.3,0-118.3,0-236.7"/>
	<path class="st1" d="M545.1,411.3c0-118.3,0-118.3,0-236.7"/>
	<path class="st1" d="M556.4,411.3c0-118.3,0-118.3,0-236.7"/>
	<path class="st1" d="M567.7,411.3c0-118.3,0-118.3,0-236.7"/>
	<path class="st1" d="M576.8,411.3c0-118.3,0-118.3,0-236.7"/>
	<path class="st1" d="M585.8,411.3c0-118.3,0-118.3,0-236.7"/>
	<path class="st1" d="M594.9,411.3c0-118.3,0-118.3,0-236.7"/>
	<path class="st1" d="M604,411.3c0-118.3,0-118.3,0-236.7"/>
	<path class="st1" d="M613,411.3c0-118.3,0-118.3,0-236.7"/>
	<path class="st1" d="M622.1,411.3c0-118.3,0-118.3,0-236.7"/>
	<path class="st1" d="M631.1,411.3c0-118.3,0-118.3,0-236.7"/>
	<path class="st1" d="M640.2,411.3c0-118.3,0-118.3,0-236.7"/>
	<path class="st1" d="M649.2,411.3c0-118.3,0-118.3,0-236.7"/>
	<path class="st1" d="M658.3,411.3c0-118.3,0-118.3,0-236.7"/>
	<path class="st1" d="M667.4,411.3c0-118.3,0-118.3,0-236.7"/>
	<path class="st1" d="M676.4,411.3c0-118.3,0-118.3,0-236.7"/>
	<path class="st1" d="M685.5,411.3c0-118.3,0-118.3,0-236.7"/>
	<path class="st1" d="M694.5,411.3c0-118.3,0-118.3,0-236.7"/>
	<path class="st1" d="M703.6,411.3c0-118.3,0-118.3,0-236.7"/>
	<path class="st1" d="M712.6,411.3c0-118.3,0-118.3,0-236.7"/>
	<path class="st1" d="M721.7,411.3c0-118.3,0-118.3,0-236.7"/>
	<path class="st1" d="M730.8,411.3c0-118.3,0-118.3,0-236.7"/>
	<path class="st1" d="M739.8,411.3c0-118.3,0-118.3,0-236.7"/>
	<path class="st1" d="M748.9,411.3c0-118.3,0-118.3,0-236.7"/>
	<path class="st1" d="M757.9,411.3c0-118.3,0-118.3,0-236.7"/>
	<path class="st1" d="M767,411.3c0-118.3,0-118.3,0-236.7"/>
	<path class="st1" d="M776,411.3c0-118.3,0-118.3,0-236.7"/>
	<path class="st1" d="M785.1,411.3c0-118.3,0-118.3,0-236.7"/>
	<path class="st1" d="M794.2,411.3c0-118.3,0-118.3,0-236.7"/>
	<path class="st1" d="M803.2,411.3c0-118.3,0-118.3,0-236.7"/>
	<path class="st1" d="M812.3,411.3c0-118.3,0-118.3,0-236.7"/>
	<path class="st1" d="M821.3,411.3c0-118.3,0-118.3,0-236.7"/>
	<path class="st1" d="M830.4,411.3c0-118.3,0-118.3,0-236.7"/>
	<path class="st1" d="M839.4,411.3c0-118.3,0-118.3,0-236.7"/>
	<path class="st1" d="M848.5,411.3c0-118.3,0-118.3,0-236.7"/>
	<path class="st1" d="M859.8,411.3c0-118.3,0-118.3,0-236.7"/>
	<path class="st1" d="M868.9,411.3c0-118.3,0-118.3,0-236.7"/>
	<path class="st1" d="M877.9,411.3c0-118.3,0-118.3,0-236.7"/>
	<path class="st1" d="M887,411.3c0-118.3,0-118.3,0-236.7"/>
	<path class="st1" d="M896,411.3c0-118.3,0-118.3,0-236.7"/>
	<path class="st1" d="M905.1,411.3c0-118.3,0-118.3,0-236.7"/>
	<path class="st1" d="M914.2,411.3c0-118.3,0-118.3,0-236.7"/>
	<path class="st1" d="M923.2,411.3c0-118.3,0-118.3,0-236.7"/>
	<path class="st1" d="M932.3,411.3c0-118.3,0-118.3,0-236.7"/>
	<path class="st1" d="M941.3,411.3c0-118.3,0-118.3,0-236.7"/>
	<path class="st1" d="M950.4,411.3c0-118.3,0-118.3,0-236.7"/>
	<path class="st1" d="M959.4,411.3c0-118.3,0-118.3,0-236.7"/>
	<path class="st1" d="M968.5,411.3c0-118.3,0-118.3,0-236.7"/>
	<path class="st1" d="M977.5,411.3c0-118.3,0-118.3,0-236.7"/>
	<path class="st1" d="M986.6,411.3c0-118.3,0-118.3,0-236.7"/>
	<path class="st1" d="M995.7,411.3c0-118.3,0-118.3,0-236.7"/>
	<path class="st1" d="M1004.7,411.3c0-118.3,0-118.3,0-236.7"/>
	<path class="st1" d="M1013.8,411.3c0-118.3,0-118.3,0-236.7"/>
	<path class="st1" d="M1022.8,411.3c0-118.3,0-118.3,0-236.7"/>
	<path class="st1" d="M1031.9,411.3c0-118.3,0-118.3,0-236.7"/>
	<path class="st1" d="M1040.9,411.3c0-118.3,0-118.3,0-236.7"/>
	<path class="st1" d="M1050,411.3c0-118.3,0-118.3,0-236.7"/>
	<path class="st1" d="M1059.1,411.3c0-118.3,0-118.3,0-236.7"/>
	<path class="st1" d="M1068.1,411.3c0-118.3,0-118.3,0-236.7"/>
	<path class="st1" d="M1077.2,411.3c0-118.3,0-118.3,0-236.7"/>
	<path class="st1" d="M1086.2,411.3c0-118.3,0-118.3,0-236.7"/>
	<path class="st1" d="M1095.3,411.3c0-118.3,0-118.3,0-236.7"/>
	<path class="st1" d="M1104.3,411.3c0-118.3,0-118.3,0-236.7"/>
	<path class="st1" d="M1113.4,411.3c0-118.3,0-118.3,0-236.7"/>
	<path class="st1" d="M1122.5,411.3c0-118.3,0-118.3,0-236.7"/>
	<path class="st1" d="M1131.5,411.3c0-118.3,0-118.3,0-236.7"/>
	<path class="st1" d="M1140.6,411.3c0-118.3,0-118.3,0-236.7"/>
	<path class="st1" d="M1149.6,411.3c0-118.3,0-118.3,0-236.7"/>
	<path class="st1" d="M1158.7,411.3c0-118.3,0-118.3,0-236.7"/>
	<path class="st1" d="M1167.7,411.3c0-118.3,0-118.3,0-236.7"/>
	<path class="st0" d="M200.9,648c0-118.3,0-118.3,0-236.7"/>
	<path class="st0" d="M219.1,648c0-118.3,9.1-118.3,9.1-236.7"/>
	<path class="st0" d="M223.6,648c0-118.3,4.5-118.3,4.5-236.7"/>
	<path class="st0" d="M228.1,648c0-118.3,0-118.3,0-236.7"/>
	<path class="st0" d="M232.6,648c0-118.3-4.5-118.3-4.5-236.7"/>
	<path class="st0" d="M237.2,648c0-118.3-9.1-118.3-9.1-236.7"/>
	<path class="st0" d="M246.2,648c0-118.3,9.1-118.3,9.1-236.7"/>
	<path class="st0" d="M250.8,648c0-118.3,4.5-118.3,4.5-236.7"/>
	<path class="st0" d="M255.3,648c0-118.3,0-118.3,0-236.7"/>
	<path class="st0" d="M259.8,648c0-118.3-4.5-118.3-4.5-236.7"/>
	<path class="st0" d="M264.3,648c0-118.3-9.1-118.3-9.1-236.7"/>
	<path class="st0" d="M273.4,648c0-118.3,9.1-118.3,9.1-236.7"/>
	<path class="st0" d="M277.9,648c0-118.3,4.5-118.3,4.5-236.7"/>
	<path class="st0" d="M282.5,648c0-118.3,0-118.3,0-236.7"/>
	<path class="st0" d="M287,648c0-118.3-4.5-118.3-4.5-236.7"/>
	<path class="st0" d="M291.5,648c0-118.3-9.1-118.3-9.1-236.7"/>
	<path class="st0" d="M300.6,648c0-118.3,9.1-118.3,9.1-236.7"/>
	<path class="st0" d="M305.1,648c0-118.3,4.5-118.3,4.5-236.7"/>
	<path class="st0" d="M309.6,648c0-118.3,0-118.3,0-236.7"/>
	<path class="st0" d="M314.2,648c0-118.3-4.5-118.3-4.5-236.7"/>
	<path class="st0" d="M318.7,648c0-118.3-9.1-118.3-9.1-236.7"/>
	<path class="st0" d="M327.7,648c0-118.3,9.1-118.3,9.1-236.7"/>
	<path class="st0" d="M332.3,648c0-118.3,4.5-118.3,4.5-236.7"/>
	<path class="st0" d="M336.8,648c0-118.3,0-118.3,0-236.7"/>
	<path class="st0" d="M341.3,648c0-118.3-4.5-118.3-4.5-236.7"/>
	<path class="st0" d="M345.8,648c0-118.3-9.1-118.3-9.1-236.7"/>
	<path class="st0" d="M468.1,648c0-118.3,4.5-118.3,4.5-236.7"/>
	<path class="st0" d="M472.6,648c0-118.3,0-118.3,0-236.7"/>
	<path class="st0" d="M477.2,648c0-118.3-4.5-118.3-4.5-236.7"/>
	<path class="st0" d="M486.2,648c0-118.3,2.3-118.3,2.3-236.7"/>
	<path class="st0" d="M490.8,648c0-118.3-2.3-118.3-2.3-236.7"/>
	<path class="st0" d="M499.8,648c0-118.3,2.3-118.3,2.3-236.7"/>
	<path class="st0" d="M504.3,648c0-118.3-2.3-118.3-2.3-236.7"/>
	<path class="st0" d="M513.4,648c0-118.3,2.3-118.3,2.3-236.7"/>
	<path class="st0" d="M517.9,648c0-118.3-2.3-118.3-2.3-236.7"/>
	<path class="st0" d="M527,648c0-118.3,4.5-118.3,4.5-236.7"/>
	<path class="st0" d="M531.5,648c0-118.3,0-118.3,0-236.7"/>
	<path class="st0" d="M536,648c0-118.3-4.5-118.3-4.5-236.7"/>
	<path class="st0" d="M545.1,648c0-118.3,0-118.3,0-236.7"/>
	<path class="st0" d="M554.2,648c0-118.3,2.3-118.3,2.3-236.7"/>
	<path class="st0" d="M558.7,648c0-118.3-2.3-118.3-2.3-236.7"/>
	<path class="st0" d="M567.7,648c0-118.3,0-118.3,0-236.7"/>
	<path class="st0" d="M576.8,648c0-118.3,0-118.3,0-236.7"/>
	<path class="st0" d="M585.8,648c0-118.3,0-118.3,0-236.7"/>
	<path class="st0" d="M594.9,648c0-118.3,0-118.3,0-236.7"/>
	<path class="st0" d="M604,648c0-118.3,0-118.3,0-236.7"/>
	<path class="st0" d="M613,648c0-118.3,0-118.3,0-236.7"/>
	<path class="st0" d="M622.1,648c0-118.3,0-118.3,0-236.7"/>
	<path class="st0" d="M631.1,648c0-118.3,0-118.3,0-236.7"/>
	<path class="st0" d="M676.4,648c0-118.3,0-118.3,0-236.7"/>
	<path class="st0" d="M746.6,648c0-118.3,2.3-118.3,2.3-236.7"/>
	<path class="st0" d="M751.1,648c0-118.3-2.3-118.3-2.3-236.7"/>
	<path class="st0" d="M773.8,648c0-118.3,2.3-118.3,2.3-236.7"/>
	<path class="st0" d="M778.3,648c0-118.3-2.3-118.3-2.3-236.7"/>
	<path class="st0" d="M800.9,648c0-118.3,2.3-118.3,2.3-236.7"/>
	<path class="st0" d="M805.5,648c0-118.3-2.3-118.3-2.3-236.7"/>
	<path class="st0" d="M828.1,648c0-118.3,2.3-118.3,2.3-236.7"/>
	<path class="st0" d="M832.6,648c0-118.3-2.3-118.3-2.3-236.7"/>
	<path class="st0" d="M846.2,648c0-118.3,2.3-118.3,2.3-236.7"/>
	<path class="st0" d="M850.8,648c0-118.3-2.3-118.3-2.3-236.7"/>
	<path class="st0" d="M859.8,648c0-118.3,0-118.3,0-236.7"/>
	<path class="st0" d="M877.9,648c0-118.3,0-118.3,0-236.7"/>
	<path class="st0" d="M896,648c0-118.3,0-118.3,0-236.7"/>
	<path class="st0" d="M914.2,648c0-118.3,0-118.3,0-236.7"/>
	<path class="st0" d="M932.3,648c0-118.3,0-118.3,0-236.7"/>
	<path class="st0" d="M950.4,648c0-118.3,0-118.3,0-236.7"/>
	<path class="st0" d="M959.4,648c0-118.3,0-118.3,0-236.7"/>
	<path class="st0" d="M968.5,648c0-118.3,0-118.3,0-236.7"/>
	<path class="st0" d="M977.5,648c0-118.3,0-118.3,0-236.7"/>
	<path class="st0" d="M986.6,648c0-118.3,0-118.3,0-236.7"/>
	<path class="st0" d="M1086.2,648c0-118.3,0-118.3,0-236.7"/>
</g>
<circle class="st2" cx="92.3" cy="380.1" r="3.5"/>
<line class="st3" x1="58.3" y1="173.7" x2="1201.7" y2="173.7"/>
<circle class="st2" cx="101.3" cy="376.1" r="3.5"/>
<circle class="st2" cx="110.4" cy="380.1" r="3.5"/>
<circle class="st2" cx="119.4" cy="376.1" r="3.5"/>
<circle class="st4" cx="128.5" cy="380.1" r="3.5"/>
<circle class="st2" cx="137.5" cy="376.1" r="3.5"/>
<circle class="st2" cx="146.2" cy="380.1" r="3.5"/>
<circle class="st2" cx="155.2" cy="376.1" r="3.5"/>
<circle class="st2" cx="164.3" cy="380.1" r="3.5"/>
<circle class="st2" cx="173.3" cy="376.1" r="3.5"/>
<circle class="st2" cx="182.8" cy="381.6" r="3.5"/>
<circle class="st2" cx="191.9" cy="377.6" r="3.5"/>
<circle class="st2" cx="200.9" cy="381.6" r="3.5"/>
<circle class="st2" cx="200.9" cy="640.1" r="3.5"/>
<circle class="st2" cx="228.2" cy="377.6" r="3.5"/>
<ellipse class="st5" cx="237.2" cy="611.5" rx="1.9" ry="1.8"/>
<ellipse transform="matrix(0.3162 -0.9487 0.9487 0.3162 -187.5179 503.036)" class="st2" cx="255.2" cy="381.6" rx="3.5" ry="3.5"/>
<ellipse class="st5" cx="264.3" cy="611.5" rx="1.9" ry="1.8"/>
<ellipse class="st5" cx="264.3" cy="606.9" rx="1.9" ry="1.8"/>
<ellipse class="st5" cx="264.3" cy="616" rx="1.9" ry="1.8"/>
<circle class="st2" cx="282.5" cy="377.6" r="3.5"/>
<ellipse class="st5" cx="291.5" cy="611.5" rx="1.9" ry="1.8"/>
<ellipse class="st5" cx="291.5" cy="606.9" rx="1.9" ry="1.8"/>
<ellipse class="st5" cx="291.5" cy="616" rx="1.9" ry="1.8"/>
<ellipse class="st5" cx="291.5" cy="602.3" rx="1.9" ry="1.8"/>
<ellipse class="st5" cx="291.5" cy="620.4" rx="1.9" ry="1.8"/>
<circle class="st2" cx="309.4" cy="381.8" r="3.5"/>
<ellipse class="st5" cx="318.7" cy="611.5" rx="1.9" ry="1.8"/>
<circle class="st2" cx="336.7" cy="377.6" r="3.5"/>
<ellipse class="st5" cx="341.3" cy="613.2" rx="1.9" ry="1.8"/>
<ellipse class="st5" cx="341.3" cy="608.7" rx="1.9" ry="1.8"/>
<circle class="st4" cx="345.8" cy="381.6" r="3.5"/>
<circle class="st2" cx="354.9" cy="377.6" r="3.5"/>
<circle class="st2" cx="364" cy="381.8" r="3.5"/>
<circle class="st2" cx="391.5" cy="377.6" r="3.5"/>
<circle class="st2" cx="400.6" cy="381.8" r="3.5"/>
<circle class="st2" cx="409.2" cy="377.6" r="3.5"/>
<ellipse class="st5" cx="436.4" cy="311.6" rx="1.9" ry="1.8"/>
<ellipse class="st5" cx="436.4" cy="307" rx="1.9" ry="1.8"/>
<ellipse class="st5" cx="436.2" cy="316" rx="1.9" ry="1.8"/>
<ellipse class="st5" cx="436.4" cy="302.4" rx="1.9" ry="1.8"/>
<ellipse class="st5" cx="436.4" cy="320.5" rx="1.9" ry="1.8"/>
<ellipse class="st5" cx="445.5" cy="310" rx="1.9" ry="1.8"/>
<ellipse class="st5" cx="445.5" cy="305.5" rx="1.9" ry="1.8"/>
<ellipse class="st5" cx="454.6" cy="304.3" rx="1.9" ry="1.8"/>
<ellipse class="st5" cx="454.6" cy="299.7" rx="1.9" ry="1.8"/>
<ellipse class="st5" cx="454.4" cy="308.7" rx="1.9" ry="1.8"/>
<ellipse class="st5" cx="454.6" cy="295.1" rx="1.9" ry="1.8"/>
<ellipse class="st5" cx="454.6" cy="313.2" rx="1.9" ry="1.8"/>
<ellipse class="st5" cx="454.6" cy="322.3" rx="1.9" ry="1.8"/>
<ellipse class="st5" cx="454.6" cy="317.7" rx="1.9" ry="1.8"/>
<ellipse class="st5" cx="463.6" cy="309.8" rx="1.9" ry="1.8"/>
<ellipse class="st5" cx="472.6" cy="314.1" rx="1.9" ry="1.8"/>
<ellipse class="st5" cx="472.6" cy="309.5" rx="1.9" ry="1.8"/>
<ellipse class="st5" cx="472.6" cy="304.9" rx="1.9" ry="1.8"/>
<circle class="st2" cx="472.7" cy="639.3" r="3.5"/>
<ellipse class="st5" cx="477.2" cy="615" rx="1.9" ry="1.8"/>
<ellipse class="st5" cx="477.2" cy="610.4" rx="1.9" ry="1.8"/>
<ellipse class="st5" cx="488.5" cy="314.1" rx="1.9" ry="1.8"/>
<ellipse class="st5" cx="488.5" cy="309.5" rx="1.9" ry="1.8"/>
<ellipse class="st5" cx="488.5" cy="304.9" rx="1.9" ry="1.8"/>
<circle class="st4" cx="486.2" cy="639.3" r="3.5"/>
<ellipse class="st5" cx="490.8" cy="610.4" rx="1.9" ry="1.8"/>
<circle class="st2" cx="490.8" cy="632.3" r="3.5"/>
<ellipse class="st5" cx="502.1" cy="313.3" rx="1.9" ry="1.8"/>
<ellipse class="st5" cx="502.1" cy="308.7" rx="1.9" ry="1.8"/>
<ellipse class="st5" cx="502.1" cy="304.2" rx="1.9" ry="1.8"/>
<circle class="st2" cx="499.5" cy="640.7" r="3.5"/>
<circle class="st2" cx="504.3" cy="632.3" r="3.5"/>
<ellipse class="st5" cx="504.3" cy="614.4" rx="1.9" ry="1.8"/>
<ellipse class="st5" cx="504.3" cy="609.9" rx="1.9" ry="1.8"/>
<ellipse class="st5" cx="515.7" cy="309.5" rx="1.9" ry="1.8"/>
<ellipse class="st5" cx="515.7" cy="304.9" rx="1.9" ry="1.8"/>
<circle class="st2" cx="515.7" cy="377.6" r="3.5"/>
<ellipse class="st5" cx="517.9" cy="609.9" rx="1.9" ry="1.8"/>
<circle class="st2" cx="517.9" cy="632.3" r="3.5"/>
<ellipse class="st5" cx="531.5" cy="313.3" rx="1.9" ry="1.8"/>
<ellipse class="st5" cx="531.5" cy="308.7" rx="1.9" ry="1.8"/>
<ellipse class="st5" cx="531.5" cy="304.2" rx="1.9" ry="1.8"/>
<circle class="st2" cx="527" cy="640.7" r="3.5"/>
<ellipse class="st5" cx="536" cy="609.9" rx="1.9" ry="1.8"/>
<circle class="st2" cx="536" cy="640.7" r="3.5"/>
<ellipse class="st5" cx="545.1" cy="313.3" rx="1.9" ry="1.8"/>
<ellipse class="st5" cx="545.1" cy="308.7" rx="1.9" ry="1.8"/>
<ellipse class="st5" cx="545.1" cy="304.2" rx="1.9" ry="1.8"/>
<circle class="st4" cx="545.1" cy="640.7" r="3.5"/>
<ellipse class="st5" cx="556.4" cy="313.3" rx="1.9" ry="1.8"/>
<ellipse class="st5" cx="556.4" cy="308.7" rx="1.9" ry="1.8"/>
<ellipse class="st5" cx="556.4" cy="304.2" rx="1.9" ry="1.8"/>
<circle class="st4" cx="558.7" cy="637.7" r="3.5"/>
<circle class="st4" cx="567.7" cy="640.7" r="3.5"/>
<circle class="st4" cx="576.8" cy="637.7" r="3.5"/>
<circle class="st4" cx="585.8" cy="640.7" r="3.5"/>
<circle class="st4" cx="594.9" cy="636.7" r="3.5"/>
<circle class="st4" cx="604" cy="640.7" r="3.5"/>
<circle class="st4" cx="613" cy="636.7" r="3.5"/>
<circle class="st4" cx="622.1" cy="640.7" r="3.5"/>
<ellipse class="st5" cx="567.7" cy="304.3" rx="1.9" ry="1.8"/>
<ellipse class="st5" cx="567.7" cy="313.5" rx="1.9" ry="1.8"/>
<ellipse class="st5" cx="567.7" cy="309" rx="1.9" ry="1.8"/>
<ellipse class="st5" cx="576.8" cy="310" rx="1.9" ry="1.8"/>
<circle class="st2" cx="576.8" cy="377.6" r="3.5"/>
<ellipse class="st5" cx="585.8" cy="303.9" rx="1.9" ry="1.8"/>
<ellipse class="st5" cx="585.8" cy="313.1" rx="1.9" ry="1.8"/>
<ellipse class="st5" cx="585.8" cy="308.6" rx="1.9" ry="1.8"/>
<ellipse class="st5" cx="594.9" cy="310" rx="1.9" ry="1.8"/>
<circle class="st2" cx="604" cy="377.6" r="3.5"/>
<ellipse class="st5" cx="613" cy="310" rx="1.9" ry="1.8"/>
<circle class="st2" cx="622.1" cy="377.6" r="3.5"/>
<circle class="st2" cx="631.1" cy="372.4" r="3.5"/>
<circle class="st4" cx="640.2" cy="377.6" r="3.5"/>
<circle class="st2" cx="649.2" cy="372.4" r="3.5"/>
<circle class="st4" cx="658.1" cy="376.7" r="3.5"/>
<circle class="st2" cx="667.1" cy="371.5" r="3.5"/>
<circle class="st2" cx="676.4" cy="377.6" r="3.5"/>
<circle class="st2" cx="676.5" cy="640.7" r="3.5"/>
<ellipse class="st5" cx="685.5" cy="307.7" rx="1.9" ry="1.8"/>
<ellipse class="st5" cx="685.5" cy="312.4" rx="1.9" ry="1.8"/>
<ellipse class="st5" cx="685.5" cy="370.4" rx="1.9" ry="1.8"/>
<ellipse class="st5" cx="685.5" cy="379.6" rx="1.9" ry="1.8"/>
<ellipse class="st5" cx="685.5" cy="375.1" rx="1.9" ry="1.8"/>
<circle class="st4" cx="694.5" cy="377.6" r="3.5"/>
<circle class="st2" cx="703.6" cy="371.5" r="3.5"/>
<circle class="st4" cx="712.8" cy="378" r="3.5"/>
<circle class="st2" cx="721.8" cy="372.9" r="3.5"/>
<circle class="st4" cx="730.7" cy="377.1" r="3.5"/>
<circle class="st2" cx="739.7" cy="372" r="3.5"/>
<circle class="st2" cx="748.9" cy="377.6" r="3.5"/>
<ellipse class="st5" cx="746.6" cy="609.8" rx="1.9" ry="1.8"/>
<circle class="st4" cx="746.6" cy="640.7" r="3.5"/>
<circle class="st2" cx="758.3" cy="371.6" r="3.5"/>
<circle class="st2" cx="767.5" cy="377.3" r="3.5"/>
<ellipse class="st5" cx="776" cy="309" rx="1.9" ry="1.8"/>
<circle class="st2" cx="776.1" cy="371.5" r="3.5"/>
<ellipse class="st5" cx="773.8" cy="610.6" rx="1.9" ry="1.8"/>
<circle class="st4" cx="773.8" cy="641.4" r="3.5"/>
<circle class="st4" cx="778.3" cy="634.2" r="3.5"/>
<circle class="st2" cx="785.8" cy="379.7" r="3.5"/>
<circle class="st2" cx="794.5" cy="373.9" r="3.5"/>
<ellipse class="st5" cx="803.2" cy="303" rx="1.9" ry="1.8"/>
<ellipse class="st5" cx="803.2" cy="312.2" rx="1.9" ry="1.8"/>
<ellipse class="st5" cx="803.2" cy="307.7" rx="1.9" ry="1.8"/>
<ellipse class="st5" cx="800.9" cy="611.6" rx="1.9" ry="1.8"/>
<circle class="st4" cx="800.9" cy="641.4" r="3.5"/>
<circle class="st2" cx="805.5" cy="634.2" r="3.5"/>
<circle class="st4" cx="821.3" cy="379.6" r="3.5"/>
<circle class="st2" cx="830.3" cy="371.6" r="3.5"/>
<circle class="st2" cx="828.1" cy="641.7" r="3.5"/>
<circle class="st4" cx="832.6" cy="634.2" r="3.5"/>
<circle class="st4" cx="839.4" cy="379.6" r="3.5"/>
<circle class="st2" cx="848.5" cy="372" r="3.5"/>
<circle class="st4" cx="846.2" cy="641.8" r="3.5"/>
<circle class="st4" cx="850.8" cy="634.6" r="3.5"/>
<ellipse class="st5" cx="846.2" cy="610.6" rx="1.9" ry="1.8"/>
<circle class="st2" cx="859.8" cy="379.6" r="3.5"/>
<circle class="st4" cx="859.8" cy="641.4" r="3.5"/>
<circle class="st2" cx="877.9" cy="634.2" r="3.5"/>
<circle class="st4" cx="868.9" cy="371.6" r="3.5"/>
<circle class="st2" cx="877.9" cy="379.6" r="3.5"/>
<circle class="st4" cx="886.8" cy="371" r="3.5"/>
<circle class="st2" cx="895.8" cy="379" r="3.5"/>
<circle class="st2" cx="896" cy="641.8" r="3.5"/>
<circle class="st4" cx="914.2" cy="634.6" r="3.5"/>
<circle class="st2" cx="905.3" cy="371" r="3.5"/>
<circle class="st4" cx="914.4" cy="379" r="3.5"/>
<circle class="st2" cx="923.2" cy="370.4" r="3.5"/>
<circle class="st2" cx="932.3" cy="379" r="3.5"/>
<circle class="st2" cx="941.3" cy="370.4" r="3.5"/>
<ellipse class="st5" cx="950.4" cy="302.1" rx="1.9" ry="1.8"/>
<ellipse class="st5" cx="950.4" cy="237" rx="1.9" ry="1.8"/>
<circle class="st2" cx="950.4" cy="378" r="3.5"/>
<ellipse class="st5" cx="959.4" cy="237" rx="1.9" ry="1.8"/>
<ellipse class="st5" cx="959.4" cy="298.7" rx="1.9" ry="1.8"/>
<ellipse class="st5" cx="959.4" cy="303.4" rx="1.9" ry="1.8"/>
<circle class="st2" cx="959.4" cy="370.4" r="3.5"/>
<ellipse class="st5" cx="968.5" cy="237" rx="1.9" ry="1.8"/>
<ellipse class="st5" cx="968.4" cy="301.5" rx="1.9" ry="1.8"/>
<ellipse class="st5" cx="968.3" cy="305.7" rx="1.9" ry="1.8"/>
<ellipse class="st5" cx="968.5" cy="292.1" rx="1.9" ry="1.8"/>
<ellipse class="st5" cx="968.5" cy="310.2" rx="1.9" ry="1.8"/>
<ellipse class="st5" cx="968.5" cy="319.2" rx="1.9" ry="1.8"/>
<ellipse class="st5" cx="968.5" cy="314.7" rx="1.9" ry="1.8"/>
<ellipse class="st5" cx="968.5" cy="296.4" rx="1.9" ry="1.8"/>
<ellipse class="st5" cx="968.5" cy="324.5" rx="1.9" ry="1.8"/>
<circle class="st2" cx="968.5" cy="378" r="3.5"/>
<ellipse class="st5" cx="968.4" cy="626.4" rx="1.9" ry="1.8"/>
<ellipse class="st5" cx="968.4" cy="636.1" rx="1.9" ry="1.8"/>
<ellipse class="st5" cx="968.4" cy="631.5" rx="1.9" ry="1.8"/>
<ellipse class="st5" cx="968.4" cy="621.3" rx="1.9" ry="1.8"/>
<ellipse class="st5" cx="968.4" cy="641.3" rx="1.9" ry="1.8"/>
<ellipse class="st5" cx="977.4" cy="310.7" rx="1.9" ry="1.8"/>
<ellipse class="st5" cx="977.6" cy="297.1" rx="1.9" ry="1.8"/>
<ellipse class="st5" cx="977.6" cy="301.5" rx="1.9" ry="1.8"/>
<ellipse class="st5" cx="977.4" cy="306.7" rx="1.9" ry="1.8"/>
<ellipse class="st5" cx="986.6" cy="298" rx="1.9" ry="1.8"/>
<ellipse class="st5" cx="986.5" cy="302.2" rx="1.9" ry="1.8"/>
<ellipse class="st5" cx="986.7" cy="306.7" rx="1.9" ry="1.8"/>
<ellipse class="st5" cx="986.7" cy="311.2" rx="1.9" ry="1.8"/>
<ellipse class="st5" cx="986.7" cy="293" rx="1.9" ry="1.8"/>
<ellipse class="st5" cx="995.7" cy="237" rx="1.9" ry="1.8"/>
<ellipse class="st5" cx="995.7" cy="298.7" rx="1.9" ry="1.8"/>
<ellipse class="st5" cx="995.7" cy="303.4" rx="1.9" ry="1.8"/>
<circle class="st2" cx="995.7" cy="378" r="3.5"/>
<circle class="st2" cx="1004.7" cy="370.4" r="3.5"/>
<ellipse class="st5" cx="1004.7" cy="301.6" rx="1.9" ry="1.8"/>
<ellipse class="st5" cx="1004.6" cy="305.8" rx="1.9" ry="1.8"/>
<ellipse class="st5" cx="1004.8" cy="292.2" rx="1.9" ry="1.8"/>
<ellipse class="st5" cx="1004.8" cy="310.3" rx="1.9" ry="1.8"/>
<ellipse class="st5" cx="1004.8" cy="319.4" rx="1.9" ry="1.8"/>
<ellipse class="st5" cx="1004.8" cy="314.8" rx="1.9" ry="1.8"/>
<ellipse class="st5" cx="1004.8" cy="296.6" rx="1.9" ry="1.8"/>
<ellipse class="st5" cx="1004.8" cy="324.6" rx="1.9" ry="1.8"/>
<ellipse class="st5" cx="1004.8" cy="237" rx="1.9" ry="1.8"/>
<ellipse class="st5" cx="1013.8" cy="292.6" rx="1.9" ry="1.8"/>
<ellipse class="st5" cx="1013.7" cy="296.8" rx="1.9" ry="1.8"/>
<ellipse class="st5" cx="1013.9" cy="301.3" rx="1.9" ry="1.8"/>
<ellipse class="st5" cx="1013.9" cy="305.8" rx="1.9" ry="1.8"/>
<ellipse class="st5" cx="1013.9" cy="236.6" rx="1.9" ry="1.8"/>
<ellipse class="st5" cx="1013.9" cy="241" rx="1.9" ry="1.8"/>
<circle class="st2" cx="1014.2" cy="378.3" r="3.5"/>
<path class="st5" d="M1022.8,290.5c1,0,1.9,0.8,1.9,1.8s-0.9,1.8-1.9,1.8s-1.9-0.8-1.9-1.8S1021.8,290.5,1022.8,290.5z"/>
<path class="st5" d="M1022.7,294.7c1,0,1.9,0.8,1.9,1.8s-0.9,1.8-1.9,1.8s-1.9-0.8-1.9-1.8S1021.7,294.7,1022.7,294.7z"/>
<ellipse class="st5" cx="1022.9" cy="301" rx="1.9" ry="1.8"/>
<ellipse class="st5" cx="1022.9" cy="305.5" rx="1.9" ry="1.8"/>
<ellipse class="st5" cx="1031.9" cy="292" rx="1.9" ry="1.8"/>
<ellipse class="st5" cx="1031.8" cy="296.2" rx="1.9" ry="1.8"/>
<ellipse class="st5" cx="1032" cy="300.7" rx="1.9" ry="1.8"/>
<ellipse class="st5" cx="1032" cy="305.2" rx="1.9" ry="1.8"/>
<ellipse class="st5" cx="1032" cy="310.2" rx="1.9" ry="1.8"/>
<circle class="st2" cx="1040.9" cy="370.4" r="3.5"/>
<circle class="st2" cx="1050" cy="378.3" r="3.5"/>
<ellipse class="st5" cx="1050" cy="292.1" rx="1.9" ry="1.8"/>
<ellipse class="st5" cx="1059.1" cy="292.5" rx="1.9" ry="1.8"/>
<ellipse class="st5" cx="1059" cy="296.7" rx="1.9" ry="1.8"/>
<ellipse class="st5" cx="1059.2" cy="301.2" rx="1.9" ry="1.8"/>
<ellipse class="st5" cx="1059.2" cy="236.6" rx="1.9" ry="1.8"/>
<ellipse class="st5" cx="1077.2" cy="294.4" rx="1.9" ry="1.8"/>
<ellipse class="st5" cx="1077.2" cy="298.6" rx="1.9" ry="1.8"/>
<ellipse class="st5" cx="1086.2" cy="292.9" rx="1.9" ry="1.8"/>
<circle class="st2" cx="1086.2" cy="370.4" r="3.5"/>
<circle class="st2" cx="1086.2" cy="641.3" r="3.5"/>
<ellipse class="st5" cx="1095" cy="296.1" rx="1.9" ry="1.8"/>
<ellipse class="st5" cx="1104" cy="294.7" rx="1.9" ry="1.8"/>
<ellipse class="st5" cx="1113.4" cy="294.8" rx="1.9" ry="1.8"/>
<circle class="st2" cx="1095" cy="378" r="3.5"/>
<circle class="st4" cx="1103.9" cy="371" r="3.5"/>
<circle class="st2" cx="1122.5" cy="378" r="3.5"/>
<ellipse class="st5" cx="1122.5" cy="236.6" rx="1.9" ry="1.8"/>
<line class="st6" x1="66.8" y1="166.4" x2="92.3" y2="138.9"/>
<rect x="90.3" y="121.1" class="st7" width="66.4" height="23.2"/>
<text transform="matrix(1 0 0 1 90.2993 130.0518)" class="st8 st9">main cord</text>
<line class="st6" x1="57.4" y1="385.2" x2="82.8" y2="357.7"/>
<rect x="12.4" y="390.3" class="st7" width="66.4" height="34"/>
<text transform="matrix(1 0 0 1 12.417 399.2972)"><tspan x="0" y="0" class="st8 st9">pendant </tspan><tspan x="0" y="14.4" class="st8 st9">cord</tspan></text>
<line class="st6" x1="164.7" y1="592.1" x2="190.2" y2="564.6"/>
<rect x="119.7" y="597.2" class="st7" width="66.4" height="34"/>
<text transform="matrix(1 0 0 1 119.745 606.1614)"><tspan x="0" y="0" class="st8 st9">subsidiary </tspan><tspan x="0" y="14.4" class="st8 st9">cord</tspan></text>
<rect x="855.4" y="18.5" class="st7" width="59.3" height="16.2"/>
<text transform="matrix(1 0 0 1 866.2482 26.7731)" class="st10 st11 st12">Cord 85</text>
<g>
	<path class="st13" d="M958.8,168.3c0-9.7-8.2-16.4-17.1-18.3"/>
	<path class="st13" d="M959.6,158.5"/>
	<path class="st13" d="M959.2,169.1c1-1.9,2-3.8,3-5.7"/>
	<line class="st13" x1="959.5" y1="169.2" x2="954.6" y2="162.6"/>
</g>
<path class="st14" d="M887,155.6c0-50.6,0-50.6,0-101.3"/>
<ellipse class="st5" cx="887" cy="60" rx="1.9" ry="1.8"/>
<ellipse class="st5" cx="887" cy="101.7" rx="1.9" ry="1.8"/>
<circle class="st2" cx="887" cy="143.3" r="3.5"/>
<ellipse class="st5" cx="887" cy="95.2" rx="1.9" ry="1.8"/>
<circle class="st15" cx="885.5" cy="99.6" r="64.9"/>
<rect x="859.8" y="54.2" class="st7" width="13.4" height="12.6"/>
<text transform="matrix(1 0 0 1 860.5371 62.4336)" class="st8 st12">1s</text>
<rect x="859.8" y="93" class="st7" width="13.4" height="12.6"/>
<text transform="matrix(1 0 0 1 860.5371 101.2797)" class="st8 st12">2s</text>
<rect x="859.8" y="138.5" class="st7" width="13.4" height="12.6"/>
<text transform="matrix(1 0 0 1 860.4131 146.7823)" class="st8 st12">5L</text>
<g>
	<line class="st16" x1="914.2" y1="141.7" x2="913.7" y2="65.4"/>
	<g>
		<line class="st16" x1="902.5" y1="65.4" x2="913.9" y2="65.4"/>
		<line class="st16" x1="902.5" y1="141.4" x2="913.9" y2="141.4"/>
	</g>
</g>
<rect x="915.9" y="97" class="st7" width="33.5" height="17.8"/>
<text transform="matrix(1 0 0 1 915.9133 105.3895)" class="st17 st18 st12">= 125</text>
<rect x="902.6" y="719.8" class="st7" width="59.3" height="16.2"/>
<text transform="matrix(1 0 0 1 907.6682 728.0018)" class="st10 st11 st12">Cord 62s1</text>
<g>
	<path class="st13" d="M746.5,655.1c0.3,9.7,8.6,16.2,17.6,17.9"/>
	<path class="st13" d="M746,664.9"/>
	<path class="st13" d="M746.2,654.3c-0.9,1.9-1.9,3.8-2.8,5.8"/>
	<line class="st13" x1="745.9" y1="654.2" x2="751.1" y2="659"/>
</g>
<path class="st14" d="M821.6,777.9c0-50.6,0-50.6,0-101.3"/>
<ellipse class="st5" cx="821.6" cy="723.9" rx="1.9" ry="1.8"/>
<circle class="st15" cx="820.2" cy="721.8" r="64.9"/>
<rect x="794.4" y="715.2" class="st7" width="13.4" height="12.6"/>
<text transform="matrix(1 0 0 1 795.2045 723.491)" class="st8 st12">1s</text>
<rect x="794.4" y="760.7" class="st7" width="13.4" height="12.6"/>
<text transform="matrix(1 0 0 1 794.9135 768.9937)" class="st8 st12">1E</text>
<g>
	<line class="st16" x1="848.9" y1="763.9" x2="848.3" y2="687.6"/>
	<g>
		<line class="st16" x1="837.1" y1="687.6" x2="848.6" y2="687.6"/>
		<line class="st16" x1="837.1" y1="763.6" x2="848.6" y2="763.6"/>
	</g>
</g>
<rect x="850.7" y="718.9" class="st7" width="35" height="13.5"/>
<text transform="matrix(1 0 0 1 850.6567 727.2258)" class="st17 st18 st12"> = 11</text>
<rect x="695.6" y="440" class="st7" width="59.3" height="16.2"/>
<text transform="matrix(1 0 0 1 706.469 448.2625)" class="st10 st11 st12">Cord 62</text>
<g>
	<path class="st13" d="M744.2,412.3c-6.7,5.9-11.7,14.1-11,21.7"/>
	<path class="st13" d="M735.1,416.1"/>
	<path class="st13" d="M744.7,411.6c-0.2,0-2.7,0.8-6.8,1.2"/>
	<line class="st13" x1="744.7" y1="411.3" x2="742.9" y2="419"/>
</g>
<circle class="st4" cx="821.6" cy="765.2" r="3.5"/>
</svg>
